<svg width="75" height="130" viewBox="0 0 75 130" fill="none" xmlns="http://www.w3.org/2000/svg">
<path d="M72.9303 13.3735C74.2882 15.5059 74.5856 17.7937 74.5351 20.2814C74.3611 29.616 74.333 38.9505 74.2433 48.2851C74.2264 50.3397 73.6373 51.2004 72.2906 51.1782C70.9496 51.156 70.4277 50.323 70.4389 48.224C70.4389 47.4799 70.4502 46.7358 70.4558 45.7085C67.2238 46.3971 64.1265 46.9579 61.0909 47.7243C55.9735 49.0181 51.1873 51.156 46.502 53.5604C40.8292 56.4758 35.1788 59.4522 29.3657 62.0621C22.2621 65.2495 14.659 66.7488 6.92693 67.5706C6.38265 67.6261 5.84398 67.715 5.23798 67.7983C5.15943 76.522 5.08087 85.2124 5.00232 94.125C7.93131 93.6807 10.8266 93.3031 13.6939 92.7867C21.3306 91.404 28.496 88.7219 35.3471 85.1347C40.5879 82.3915 45.8455 79.6705 51.2153 77.1828C56.731 74.6229 62.6227 73.2124 68.649 72.3684C68.9408 72.3295 69.227 72.2795 69.5187 72.224C69.7207 72.1796 69.9227 72.1185 70.2201 72.0352C70.2482 68.9144 70.2762 65.7937 70.3099 62.6729C70.3211 61.2569 70.3099 59.8353 70.366 58.4193C70.4221 57.1921 71.1459 56.4424 72.1784 56.4091C73.2501 56.3702 74.0188 57.1643 74.1367 58.4248C74.1591 58.7136 74.1479 59.0079 74.1479 59.3022C73.9683 79.0153 73.7888 98.7339 73.6148 118.441C73.5868 121.973 72.4421 124.966 69.5019 127.137C67.6446 128.515 65.5292 129.114 63.2399 129.098C45.8399 128.953 28.4455 128.826 11.0511 128.626C4.99671 128.553 0.866939 124.155 0.92305 118.008C1.14188 92.5424 1.37755 67.0764 1.6076 41.6104C1.68055 33.4809 1.73666 25.3569 1.84888 17.2273C1.8601 16.4332 2.14627 15.6169 2.42682 14.8506C2.68493 14.1509 3.04405 13.4735 3.45366 12.846C5.41754 9.81407 6.4612 6.57113 6.00671 2.93392C5.87204 1.8622 6.43876 1.12365 7.28604 0.546143C27.9293 0.729391 48.5669 0.912639 69.2101 1.09589C70.3043 1.62342 70.7363 2.53966 70.5792 3.66136C70.0967 7.21527 71.0449 10.4138 72.9303 13.3791V13.3735ZM69.7712 113.322C69.8834 100.872 69.9957 88.472 70.1079 75.9612C64.1882 76.7053 58.5546 77.9713 53.3027 80.3647C47.8431 82.8524 42.5069 85.6122 37.2044 88.4165C29.3433 92.5757 21.0669 95.4688 12.2631 96.8737C9.83348 97.2624 7.38142 97.5567 4.97426 97.8899L4.8396 112.744C26.5097 112.938 48.1012 113.127 69.7712 113.316V113.322ZM70.3941 41.8381C70.4614 34.3138 70.5287 26.634 70.6017 18.9154C48.9372 18.721 27.3794 18.5322 5.67565 18.3434C5.53537 33.603 5.40071 48.7516 5.26604 63.9556C12.6951 63.2726 19.9671 62.0121 26.7397 59.0523C33.1588 56.2481 39.2749 52.7886 45.6267 49.8455C49.9584 47.8409 54.3968 46.0028 58.925 44.5146C62.6115 43.3041 66.5168 42.7155 70.3997 41.8381H70.3941ZM63.8964 125.316C67.9813 125.038 70.7195 121.135 69.5917 117.17C48.0451 116.981 26.4872 116.787 4.85643 116.598C4.07649 121.734 6.73054 124.838 11.8479 124.883C28.7317 125.038 45.6211 125.183 62.5049 125.333C62.9706 125.333 63.4307 125.349 63.8964 125.316ZM6.89326 14.4564C27.8283 14.6396 48.5893 14.8229 69.4851 15.0117C68.952 13.9066 68.4077 12.9626 68.0318 11.9631C67.6727 11.0191 67.0891 10.8136 66.124 10.8025C53.2353 10.7192 40.3522 10.597 27.4692 10.486C21.6561 10.436 15.8486 10.3749 10.0355 10.3527C9.61464 10.3527 8.9862 10.5415 8.79542 10.8469C8.09964 11.9742 7.54976 13.1847 6.89887 14.4619L6.89326 14.4564ZM66.6851 6.93207L66.702 4.91078C47.7084 4.7442 28.7822 4.57761 9.85031 4.40546L9.83347 6.42675C28.827 6.59334 47.7701 6.75993 66.6851 6.93207Z" fill="white"/>
<path d="M43.9042 36.8015C43.8817 40.0833 41.2726 42.6377 37.962 42.6155C34.6739 42.5988 32.0367 39.9723 32.0423 36.7349C32.0535 33.5475 34.7917 30.8654 38.0237 30.8765C41.2726 30.8876 43.921 33.553 43.8986 36.796L43.9042 36.8015ZM37.9901 38.8561C39.2021 38.8561 40.1279 37.9177 40.0998 36.7127C40.0718 35.6021 39.1067 34.6581 37.9957 34.6581C36.9071 34.6581 35.8915 35.6298 35.8522 36.7071C35.813 37.8621 36.8005 38.8561 37.9845 38.8561H37.9901Z" fill="white"/>
<path d="M27.6156 46.6697C27.6156 46.7308 27.6156 46.7975 27.6156 46.8585L23.8278 46.7308C23.8727 44.4539 22.0321 42.5436 19.7426 42.4991C19.6585 42.4991 19.5743 42.4991 19.4901 42.4991L19.3947 38.7451C19.5013 38.7395 19.6023 38.7395 19.709 38.7395C24.0466 38.7395 27.638 42.3436 27.6156 46.6697Z" fill="white"/>
<path d="M23.8224 46.7309L27.6102 46.8586C27.4923 51.1236 23.9683 54.5056 19.6306 54.4945C19.35 54.4945 19.0695 54.4779 18.8001 54.4445L19.12 50.6905C19.2603 50.7071 19.3949 50.7182 19.5408 50.7182C21.8864 50.7793 23.7719 49.0133 23.8224 46.7253V46.7309Z" fill="white"/>
<path d="M25.7526 28.5998C25.7414 31.8705 23.121 34.4526 19.8273 34.447C16.5392 34.4359 13.8851 31.826 13.8795 28.5942C13.8795 25.4123 16.5953 22.7191 19.8329 22.708C23.0649 22.6969 25.7638 25.3846 25.7526 28.6053V28.5998ZM19.7768 30.6877C20.9663 30.7099 21.9539 29.7548 21.9483 28.5831C21.9427 27.4781 20.9888 26.5118 19.8778 26.4785C18.7443 26.4508 17.6782 27.4836 17.6895 28.6053C17.6951 29.7103 18.6602 30.6599 19.7768 30.6877Z" fill="white"/>
<path d="M19.39 38.7505L19.4854 42.5046C17.3361 42.599 15.5124 44.4427 15.49 46.603C15.49 46.6752 15.49 46.7418 15.49 46.8084L11.691 46.9028C11.6854 46.8029 11.6854 46.6974 11.6854 46.5974C11.6966 42.4324 15.1813 38.9171 19.3843 38.7505H19.39Z" fill="white"/>
<path d="M19.1207 50.6957L18.8008 54.4498C14.9289 54.0333 11.8369 50.8068 11.7023 46.9028L15.5013 46.8083C15.5854 48.802 17.1342 50.4458 19.1263 50.6957H19.1207Z" fill="white"/>
</svg>
