<svg width="75" height="130" viewBox="0 0 75 130" fill="none" xmlns="http://www.w3.org/2000/svg">
<rect x="1.25653" y="1.41602" width="6" height="17" transform="rotate(-0.66492 1.25653 1.41602)" fill="black"/>
<rect x="67.2637" y="1.65015" width="6" height="18" transform="rotate(-0.66492 67.2637 1.65015)" fill="black"/>
<path d="M71.8041 13.4256C73.1753 15.5422 73.4967 17.8265 73.4755 20.3146C73.4113 29.6505 73.4918 38.9848 73.5112 48.3198C73.5183 50.3744 72.9441 51.2418 71.6086 51.2351C70.2786 51.2284 69.7515 50.4015 69.7383 48.3025C69.7297 47.5584 69.7322 46.8142 69.7258 45.7869C66.5291 46.5126 63.4645 47.1091 60.4635 47.9103C55.4045 49.2629 50.6835 51.4558 46.0658 53.914C40.4748 56.8944 34.9067 59.9356 29.1731 62.6122C22.1665 65.8811 14.6452 67.4678 6.98804 68.3786C6.44902 68.4404 5.91594 68.5354 5.31603 68.6257C5.33938 77.3497 5.36234 86.0405 5.38788 94.9533C8.28694 94.4754 11.1534 94.0645 13.9904 93.5151C21.5465 92.0446 28.6201 89.2803 35.3717 85.6144C40.5363 82.8112 45.7178 80.0299 51.0134 77.4805C56.4527 74.8573 62.2781 73.3791 68.2437 72.4658C68.5326 72.4236 68.8157 72.3703 69.1044 72.3114C69.3042 72.2647 69.5037 72.2013 69.7976 72.1145C69.7892 68.9937 69.7808 65.8728 69.778 62.7518C69.7727 61.3358 69.7451 59.9144 69.7843 58.4979C69.8257 57.2701 70.5347 56.5122 71.558 56.467C72.6202 56.4158 73.3917 57.201 73.5231 58.46C73.5487 58.7485 73.541 59.0429 73.5444 59.3372C73.5952 79.051 73.646 98.7704 73.7022 118.479C73.7153 122.01 72.6151 125.016 69.7249 127.221C67.8994 128.62 65.8088 129.244 63.5387 129.253C46.2842 129.309 29.0354 129.382 11.7858 129.382C5.78185 129.38 1.63597 125.029 1.62027 118.882C1.54173 93.4152 1.47987 67.9483 1.41246 42.4814C1.39044 34.3515 1.3518 26.2274 1.36873 18.0971C1.37064 17.303 1.64492 16.4834 1.91421 15.7139C2.16201 15.0113 2.51022 14.3298 2.90909 13.6976C4.82117 10.6433 5.81838 7.38858 5.32551 3.75685C5.17955 2.68675 5.73291 1.94173 6.56631 1.35451C27.037 1.30019 47.5022 1.24594 67.973 1.19163C69.064 1.70654 69.503 2.61774 69.3603 3.74118C68.923 7.3004 69.9004 10.4878 71.8042 13.4312L71.8041 13.4256ZM69.8317 113.403C69.7985 100.953 69.7658 88.5528 69.7319 76.0415C63.8709 76.8537 58.2997 78.1845 53.12 80.6381C47.7354 83.1885 42.4764 86.0096 37.2513 88.8747C29.5049 93.124 21.3322 96.1122 12.6191 97.6183C10.2146 98.0349 7.78668 98.3574 5.40375 98.7183L5.4426 113.573C26.9316 113.518 48.3427 113.458 69.8316 113.398L69.8317 113.403ZM69.6197 41.9175C69.5991 34.3929 69.5768 26.7129 69.5595 18.9939C48.0761 19.0489 26.6984 19.1082 5.17608 19.1691C5.21408 34.4293 5.25635 49.5784 5.29926 64.783C12.6576 64.0145 19.8534 62.6704 26.5344 59.6329C32.8666 56.755 38.8909 53.2253 45.1547 50.2093C49.4266 48.155 53.8061 46.266 58.2787 44.7258C61.9199 43.4729 65.7854 42.8394 69.6253 41.9174L69.6197 41.9175ZM64.1457 125.465C68.1928 125.14 70.8626 121.205 69.6983 117.253C48.3317 117.313 26.954 117.366 5.50401 117.426C4.79028 122.572 7.4579 125.645 12.5324 125.63C29.2752 125.592 46.0234 125.542 62.7662 125.497C63.2279 125.492 63.6843 125.503 64.1457 125.465ZM6.33828 15.2683C27.0983 15.2106 47.6859 15.155 68.4071 15.1033C67.8657 14.0045 67.3151 13.0668 66.9307 12.0716C66.5637 11.1318 65.9827 10.9331 65.0256 10.9331C52.245 10.9981 39.4694 11.0242 26.6941 11.0614C20.9296 11.0783 15.1705 11.0841 9.4063 11.1288C8.98902 11.1336 8.36809 11.3296 8.18247 11.6372C7.50566 12.7724 6.97447 13.9892 6.34391 15.2738L6.33828 15.2683ZM65.537 7.05648L65.5303 5.03513C46.6954 5.08712 27.9274 5.13833 9.15368 5.18406L9.16045 7.2054C27.9953 7.15341 46.78 7.10201 65.537 7.05648Z" fill="white"/>
<path d="M43.2954 37.1861C43.3113 40.468 40.7538 43.0522 37.471 43.0681C34.2105 43.0893 31.5651 40.4932 31.5331 37.256C31.5073 34.0687 34.1912 31.3552 37.396 31.3292C40.6175 31.3029 43.2744 33.9376 43.2898 37.1806L43.2954 37.1861ZM37.4552 39.3086C38.657 39.2947 39.5641 38.3456 39.5223 37.1411C39.4816 36.0309 38.5137 35.098 37.4121 35.1108C36.3327 35.1233 35.337 36.1067 35.3105 37.1844C35.285 38.3398 36.2757 39.3223 37.4496 39.3087L37.4552 39.3086Z" fill="white"/>
<path d="M27.2591 47.2411C27.2599 47.3022 27.2606 47.3688 27.2613 47.4299L23.5041 47.3458C23.5222 45.0685 21.675 43.1795 19.4044 43.1614C19.3209 43.1624 19.2375 43.1633 19.154 43.1643L19.0159 39.4116C19.1215 39.4048 19.2217 39.4036 19.3274 39.4024C23.6284 39.3525 27.2312 42.915 27.2591 47.2411Z" fill="white"/>
<path d="M23.4987 47.346L27.2559 47.4301C27.1886 51.6961 23.7336 55.1185 19.4325 55.1573C19.1543 55.1605 18.8759 55.1471 18.6084 55.1169L18.882 51.3594C19.0213 51.3744 19.155 51.384 19.2996 51.3823C21.6261 51.4164 23.4751 49.6288 23.4987 47.3404L23.4987 47.346Z" fill="white"/>
<path d="M25.2022 29.1937C25.2291 32.4643 22.6608 35.0764 19.3949 35.1088C16.1345 35.1355 13.4726 32.5563 13.4295 29.3248C13.3926 26.1431 16.0541 23.4189 19.2642 23.3705C22.4687 23.3222 25.176 25.9786 25.2023 29.1992L25.2022 29.1937ZM19.3012 31.3502C20.4809 31.3588 21.4491 30.3923 21.4299 29.2208C21.4115 28.1159 20.4545 27.1607 19.3525 27.1402C18.2283 27.1255 17.1832 28.1705 17.2074 29.292C17.2257 30.3969 18.1937 31.3353 19.3012 31.3502Z" fill="white"/>
<path d="M19.0112 39.417L19.1493 43.1697C17.0194 43.2888 15.2325 45.1534 15.2353 47.3138C15.2361 47.386 15.2369 47.4526 15.2377 47.5192L11.4719 47.6574C11.4652 47.5575 11.464 47.452 11.4628 47.352C11.4256 43.1871 14.8401 39.632 19.0056 39.417L19.0112 39.417Z" fill="white"/>
<path d="M18.8828 51.3645L18.6092 55.122C14.7652 54.7501 11.662 51.5594 11.4832 47.6571L15.2489 47.519C15.3555 49.5116 16.9103 51.1375 18.8884 51.3644L18.8828 51.3645Z" fill="white"/>
<rect x="6.27942" y="3.35791" width="62" height="14" transform="rotate(-0.66492 6.27942 3.35791)" fill="white"/>
</svg>
