<svg width="207" height="155" viewBox="0 0 207 155" fill="none" xmlns="http://www.w3.org/2000/svg">
<path d="M197.873 58.3408C197.786 60.8673 196.735 62.9215 195.285 64.9435C189.857 72.5396 184.549 80.2182 179.191 87.8619C178.014 89.5459 177.041 89.9219 175.943 89.1412C174.85 88.3636 174.892 87.3816 176.089 85.6577C176.511 85.0443 176.941 84.4373 177.527 83.5937C174.473 82.3315 171.603 81.0403 168.667 79.9533C163.716 78.1227 158.56 77.1752 153.337 76.5046C147.01 75.6961 140.667 74.9506 134.398 73.8108C126.738 72.4165 119.622 69.3479 112.783 65.6479C112.303 65.3855 111.809 65.1538 111.262 64.8793C106.258 72.0259 101.274 79.1449 96.1629 86.4471C98.8288 87.7391 101.429 89.0671 104.085 90.2647C111.163 93.4484 118.588 95.2942 126.266 96.2161C132.139 96.9219 138.013 97.6556 143.848 98.6451C149.844 99.6576 155.499 101.831 160.945 104.547C161.207 104.68 161.471 104.801 161.743 104.92C161.935 104.998 162.136 105.062 162.428 105.161C164.218 102.605 166.008 100.048 167.803 97.4949C168.614 96.334 169.409 95.1558 170.257 94.0204C170.998 93.0406 172.019 92.8324 172.889 93.3895C173.795 93.9642 173.979 95.054 173.362 96.1597C173.217 96.4105 173.041 96.6467 172.875 96.8893C161.566 113.037 150.254 129.19 138.954 145.336C136.931 148.231 134.293 150.051 130.64 150.176C128.33 150.259 126.246 149.556 124.369 148.246C110.107 138.276 95.8415 128.323 81.6164 118.311C76.6667 114.823 75.7524 108.86 79.2788 103.825C93.8767 82.9569 108.489 62.0987 123.096 41.2373C127.758 34.5774 132.404 27.9125 137.099 21.2748C137.558 20.6266 138.256 20.1157 138.921 19.6429C139.53 19.2123 140.209 18.8572 140.902 18.5718C144.238 17.1844 146.934 15.1022 148.619 11.8467C149.114 10.887 150 10.5991 151.025 10.6027C167.937 22.4409 184.845 34.2759 201.758 46.1141C202.361 47.1684 202.199 48.1683 201.434 49.004C199.024 51.6603 197.995 54.8337 197.87 58.3454L197.873 58.3408ZM138.684 138.94C145.825 128.741 152.938 118.583 160.113 108.334C154.812 105.596 149.452 103.45 143.767 102.45C137.859 101.409 131.898 100.663 125.939 99.9728C117.104 98.9506 108.644 96.6497 100.592 92.8235C98.369 91.7684 96.1812 90.6228 94.0083 89.5346L85.4876 101.703C103.24 114.131 120.931 126.511 138.687 138.935L138.684 138.94ZM179.668 80.3683C183.983 74.2042 188.386 67.9118 192.816 61.5906C175.068 49.1651 157.405 36.8045 139.622 24.3614C130.867 36.8605 122.179 49.2712 113.461 61.7277C119.971 65.3707 126.679 68.4486 133.937 69.8432C140.816 71.1658 147.816 71.7768 154.718 72.9468C159.424 73.7468 164.123 74.7445 168.698 76.0814C172.423 77.1707 175.975 78.8965 179.672 80.3715L179.668 80.3683ZM127.051 145.501C130.575 147.585 135.042 145.917 136.357 142.01C118.703 129.656 101.043 117.291 83.3197 104.889C79.7687 108.681 80.1991 112.743 84.3921 115.677C98.2215 125.363 112.062 135.044 125.894 144.727C126.278 144.99 126.648 145.265 127.051 145.501ZM142.826 21.8466C159.979 33.85 176.989 45.7549 194.106 57.7406C194.292 56.5279 194.378 55.4416 194.634 54.4049C194.873 53.4234 194.508 52.9237 193.719 52.3681C183.142 45.0025 172.591 37.6081 162.035 30.2228C157.271 26.8905 152.519 23.5523 147.739 20.2429C147.392 20.0046 146.768 19.8045 146.437 19.9482C145.226 20.4835 144.087 21.17 142.827 21.8543L142.826 21.8466ZM196.372 49.4954L197.531 47.8388C181.969 36.9483 166.462 26.0959 150.954 15.2357L149.796 16.8923C165.358 27.7829 180.878 38.6448 196.372 49.4954Z" fill="white"/>
<path d="M160.683 61.2195C158.807 63.912 155.21 64.5404 152.494 62.6478C149.793 60.7725 149.106 57.1144 150.943 54.449C152.757 51.828 156.533 51.1673 159.191 53.0063C161.862 54.8548 162.536 58.5513 160.682 61.2118L160.683 61.2195ZM154.645 59.5649C155.644 60.251 156.939 60.0016 157.598 58.9925C158.203 58.0611 157.942 56.7366 157.027 56.1076C156.129 55.4913 154.742 55.7173 154.1 56.5831C153.413 57.513 153.665 58.8914 154.641 59.5617L154.645 59.5649Z" fill="white"/>
<path d="M141.67 60.1321C141.635 60.1824 141.598 60.2373 141.563 60.2877L138.513 58.038C139.839 56.1865 139.403 53.5698 137.541 52.237C137.472 52.1893 137.403 52.1417 137.333 52.094L139.38 48.9455C139.471 49.0013 139.554 49.0585 139.642 49.1188C143.218 51.5746 144.138 56.5788 141.67 60.1321Z" fill="white"/>
<path d="M138.509 58.035L141.558 60.2847C139.047 63.7336 134.227 64.5263 130.658 62.0614C130.427 61.9025 130.205 61.7299 130.002 61.55L132.391 58.6366C132.497 58.7297 132.602 58.8151 132.722 58.8977C134.621 60.276 137.175 59.8878 138.512 58.0304L138.509 58.035Z" fill="white"/>
<path d="M150.364 44.1823C148.503 46.872 144.882 47.5169 142.17 45.6476C139.466 43.7769 138.755 40.123 140.581 37.4558C142.382 34.833 146.145 34.1505 148.82 35.9743C151.491 37.7949 152.194 41.5384 150.361 44.1869L150.364 44.1823ZM144.256 42.5202C145.224 43.2119 146.579 42.9837 147.238 42.0147C147.859 41.1007 147.62 39.7642 146.723 39.1077C145.804 38.4431 144.341 38.6909 143.715 39.6219C143.094 40.536 143.352 41.8651 144.256 42.5202Z" fill="white"/>
<path d="M139.373 48.9474L137.326 52.0959C135.501 50.957 132.954 51.4442 131.712 53.2122C131.672 53.2717 131.634 53.3267 131.596 53.3816L128.411 51.3086C128.463 51.2231 128.523 51.1361 128.579 51.0537C130.947 47.6268 135.809 46.702 139.368 48.9442L139.373 48.9474Z" fill="white"/>
<path d="M132.388 58.6414L129.999 61.5548C127.043 59.0193 126.321 54.6092 128.421 51.3149L131.606 53.3879C130.546 55.0789 130.892 57.3107 132.393 58.6445L132.388 58.6414Z" fill="white"/>
<path fill-rule="evenodd" clip-rule="evenodd" d="M128.06 34.8254L123.158 7.59564C122.913 6.23677 121.613 5.3335 120.254 5.57813L88.974 11.2094L83.7778 5.80887C80.1269 2.01447 74.8213 0.295719 69.6391 1.22865L48.8251 4.97566C43.6428 5.90859 39.2697 9.36975 37.1714 14.1991L34.1848 21.0727L2.90441 26.704C1.54554 26.9486 0.642275 28.2485 0.886904 29.6073L13.7971 101.321C14.0418 102.68 15.3416 103.583 16.7005 103.339L89.2412 90.2796L93.3103 84.4667L18.2751 97.9749L6.25074 31.1819L36.3875 25.7566C37.2102 25.6085 37.9044 25.059 38.2375 24.2924L41.7572 16.1917C43.1893 12.8956 46.174 10.5333 49.711 9.89656L70.5249 6.14955C74.0619 5.51281 77.683 6.68587 80.1747 9.27559L86.2986 15.6402C86.8781 16.2426 87.7204 16.5154 88.543 16.3673L118.68 10.942L124.019 40.5983L128.06 34.8254Z" fill="white"/>
<path fill-rule="evenodd" clip-rule="evenodd" d="M72.6003 71.6377C83.402 69.6931 90.5822 59.3601 88.6376 48.5584C86.693 37.7566 76.3601 30.5764 65.5583 32.521C54.7566 34.4656 47.5764 44.7986 49.521 55.6003C51.4655 66.4021 61.7985 73.5822 72.6003 71.6377Z" stroke="white" stroke-width="4"/>
</svg>
