<svg width="60" height="60" viewBox="0 0 60 60" fill="none" xmlns="http://www.w3.org/2000/svg">
<g filter="url(#filter0_d_1115_2437)">
<path d="M55.4632 39.9791V46.7543C55.4768 49.352 53.1819 51.457 50.5681 51.2276C50.4535 51.2847 22.0618 51.2231 21.92 51.2451C17.5095 51.2451 13.9263 47.6874 13.9263 43.3188V23.429C13.9263 22.9668 14.3048 22.5832 14.7715 22.5832C15.2466 22.5832 15.6254 22.9668 15.6254 23.429V43.3188C15.6254 46.763 18.4513 49.5621 21.92 49.5621H47.3897C47.1773 49.3025 46.9891 49.0096 46.844 48.7076C46.7912 48.6116 46.747 48.5068 46.7118 48.4024C46.6088 48.1493 46.5282 47.8876 46.483 47.6175C46.4479 47.4779 46.4303 47.3383 46.4212 47.1991C46.3424 46.3962 46.4227 9.82573 46.3948 9.10268H27.123C26.0099 9.08077 25.9969 7.43597 27.123 7.41106H47.24C47.7155 7.41106 48.094 7.79464 48.094 8.25687V39.1332H54.6089C55.0844 39.1332 55.4629 39.5081 55.4629 39.9791H55.4632Z" fill="#FFFEFF"/>
<path d="M14.6127 0.671005C8.97813 0.671005 4.40002 5.20502 4.40002 10.7857C4.95611 24.2052 24.271 24.2016 24.8253 10.7857C24.8253 5.20502 20.2472 0.671005 14.6127 0.671005ZM13.248 9.93954H15.9773C20.1278 10.1722 19.6044 16.0628 15.4666 15.6774V16.8546C15.4666 17.3168 15.0793 17.7007 14.6127 17.7007C14.146 17.7007 13.7587 17.3168 13.7587 16.8546V15.6774H11.2055C10.1018 15.6672 10.1 13.9957 11.2055 13.9861H15.977C16.294 13.9861 16.5934 13.864 16.8134 13.6461C17.5686 12.944 17.0076 11.5997 15.977 11.6318H13.2477C9.09874 11.4004 9.61938 5.50787 13.7584 5.89386V4.71668C13.7584 4.25476 14.1457 3.87087 14.6124 3.87087C15.079 3.87087 15.4663 4.25476 15.4663 4.71668V5.89386H18.0195C19.1229 5.90256 19.1256 7.57648 18.0195 7.58519H13.248C11.6837 7.6101 11.6889 9.91583 13.248 9.93954Z" fill="#FFFEFF"/>
<path d="M42.697 20.9003H29.9315C28.8224 20.8964 28.8154 19.2194 29.9315 19.2146H42.697C43.8061 19.2188 43.8131 20.8955 42.697 20.9003Z" fill="#FFFEFF"/>
<path d="M36.894 25.9575H29.9313C28.8203 25.953 28.8167 24.2767 29.9313 24.2719H36.894C38.005 24.2764 38.0086 25.9527 36.894 25.9575Z" fill="#FFFEFF"/>
<path d="M34.1828 34.3895V43.6586C34.1828 44.1208 33.8043 44.5044 33.3376 44.5044H19.7182C19.2515 44.5044 18.8639 44.1208 18.8639 43.6586V34.3895C18.8639 33.9185 19.2515 33.5436 19.7182 33.5436H33.3376C33.8043 33.5436 34.1828 33.9185 34.1828 34.3895Z" fill="#FFFEFF"/>
</g>
<defs>
<filter id="filter0_d_1115_2437" x="0.400024" y="0.671005" width="59.0632" height="58.5816" filterUnits="userSpaceOnUse" color-interpolation-filters="sRGB">
<feFlood flood-opacity="0" result="BackgroundImageFix"/>
<feColorMatrix in="SourceAlpha" type="matrix" values="0 0 0 0 0 0 0 0 0 0 0 0 0 0 0 0 0 0 127 0" result="hardAlpha"/>
<feOffset dy="4"/>
<feGaussianBlur stdDeviation="2"/>
<feComposite in2="hardAlpha" operator="out"/>
<feColorMatrix type="matrix" values="0 0 0 0 0 0 0 0 0 0 0 0 0 0 0 0 0 0 0.25 0"/>
<feBlend mode="normal" in2="BackgroundImageFix" result="effect1_dropShadow_1115_2437"/>
<feBlend mode="normal" in="SourceGraphic" in2="effect1_dropShadow_1115_2437" result="shape"/>
</filter>
</defs>
</svg>
