<svg width="54" height="50" viewBox="0 0 54 50" fill="none" xmlns="http://www.w3.org/2000/svg">
<path d="M20.581 41.2655C16.9514 41.1781 13.3134 40.1414 10.0826 38.156L2.58617 41.0455C1.92644 41.3 1.17852 41.1421 0.680011 40.6457C0.182412 40.1483 0.028466 39.4058 0.289691 38.7554L3.24105 31.4018C-1.73253 23.5256 -0.884912 13.1793 5.83026 6.52712C13.6758 -1.24338 26.6222 -1.0804 34.7205 6.94072C37.3154 9.51117 39.0961 12.5751 40.0595 15.8092C42.8884 16.5685 45.5619 18.0476 47.7814 20.2456C53.528 25.9373 54.4048 34.6355 50.4127 41.2484L52.901 47.3705C53.1686 48.0272 53.0123 48.7791 52.505 49.277C51.9983 49.7764 51.2382 49.9256 50.577 49.6564L44.4576 47.1673C37.7785 51.1547 28.9638 50.2966 23.202 44.5902C22.1711 43.5691 21.2977 42.4508 20.5804 41.2661L20.581 41.2655ZM40.8259 19.7828C41.345 25.476 39.454 31.279 35.1371 35.554C32.1937 38.4693 28.535 40.2678 24.6815 40.9542C25.0006 41.3501 25.3461 41.7331 25.7167 42.1002C30.4893 46.8272 37.8961 47.3741 43.2763 43.7369C43.7706 43.4022 44.4006 43.3371 44.9534 43.5625L48.0302 44.8141L46.7753 41.7256C46.5541 41.1826 46.6204 40.5664 46.9508 40.0814C50.5885 34.7559 50.0261 27.4494 45.2679 22.7365C43.9545 21.4357 42.4405 20.4497 40.8259 19.7828ZM36.88 17.6578C36.1523 14.6578 34.5917 11.792 32.2064 9.43013C25.517 2.8047 14.8249 2.5979 8.34372 9.01743C2.61495 14.6914 2.11342 23.6313 6.69697 30.2012C7.03456 30.6853 7.10578 31.3048 6.88607 31.8514L5.10174 36.2987L9.64378 34.547C10.1914 34.3366 10.8081 34.4071 11.2923 34.7355C14.3789 36.8284 17.9775 37.8372 21.5171 37.7457C21.5519 37.7439 21.5868 37.7433 21.6216 37.7433C25.6494 37.6157 29.596 36.0627 32.624 33.0646C36.7806 28.9469 38.1858 23.1144 36.8933 17.7133C36.8887 17.6947 36.8845 17.6761 36.88 17.6578ZM18.0309 31.7679V32.693C18.0309 33.6649 18.8273 34.4537 19.8082 34.4537C20.7895 34.4537 21.5856 33.6649 21.5856 32.693V31.7679C21.5856 30.7964 20.7895 30.0076 19.8082 30.0076C18.8273 30.0076 18.0309 30.7964 18.0309 31.7679ZM18.0309 26.3614V21.2736C18.0309 20.302 18.8273 19.5133 19.8082 19.5133C21.831 19.5133 23.4732 17.8865 23.4732 15.8821C23.4732 13.8786 21.831 12.2521 19.8082 12.2521C17.7854 12.2521 16.142 13.8786 16.142 15.8821C16.142 16.8537 15.3456 17.6427 14.3646 17.6427C13.3843 17.6427 12.5873 16.8537 12.5873 15.8821C12.5873 11.9352 15.8232 8.73139 19.8082 8.73139C23.793 8.73139 27.028 11.9352 27.028 15.8821C27.028 19.2215 24.7118 22.0297 21.5856 22.8149V26.3614C21.5856 27.333 20.7892 28.1221 19.8082 28.1221C18.827 28.1221 18.0303 27.333 18.0303 26.3614H18.0309Z" fill="#FFFEFF"/>
</svg>
