<svg width="51" height="51" viewBox="0 0 51 51" fill="none" xmlns="http://www.w3.org/2000/svg">
<path d="M18.5214 30.5776C18.5214 30.3711 18.4384 30.173 18.2908 30.0272C18.1435 29.881 17.9435 29.799 17.735 29.799H2.79763C2.58914 29.799 2.38913 29.7168 2.24185 29.5709C2.09426 29.4248 2.01153 29.2267 2.01153 29.0202V2.93562C2.01153 2.72912 2.09426 2.53102 2.24185 2.38515C2.38913 2.23898 2.58914 2.15704 2.79763 2.15704H32.0118C30.4229 3.79704 29.5335 5.98091 29.5277 8.25362V17.3406C29.5277 17.6188 29.6775 17.8757 29.9205 18.0147C30.1638 18.154 30.4639 18.154 30.7072 18.0147C30.9502 17.8757 31.0999 17.6188 31.0999 17.3406V8.25362C31.103 7.00501 31.4297 5.77831 32.0491 4.69088C32.6688 3.60345 33.5601 2.6919 34.6377 2.04388C34.8332 1.92653 34.9674 1.73053 35.0056 1.50692C35.0435 1.28361 34.9811 1.0549 34.835 0.880816C34.6889 0.706431 34.4731 0.603781 34.2447 0.599579H2.79763C2.17215 0.599579 1.57242 0.845699 1.13028 1.28391C0.687829 1.72183 0.439331 2.31612 0.439331 2.93562V29.0202C0.439331 29.6397 0.687829 30.234 1.13028 30.6719C1.57242 31.1101 2.17215 31.3562 2.79763 31.3562H17.735C17.9435 31.3562 18.1435 31.274 18.2908 31.1281C18.4384 30.9819 18.5214 30.7841 18.5214 30.5776Z" fill="#FFFEFF"/>
<path d="M27.17 6.43935C27.4509 6.43935 27.7106 6.29078 27.8512 6.04976C27.9915 5.80904 27.9915 5.5122 27.8512 5.27118C27.7106 5.03016 27.4509 4.88189 27.17 4.88189H22.8464C22.4021 4.88189 20.4878 3.71432 18.9156 3.71432H10.9713C10.35 3.71432 8.3178 3.83888 7.24471 4.24768C6.30921 4.55053 5.58463 5.29009 5.30704 6.22535C5.18279 6.72659 5.22098 7.25365 5.41674 7.73178C4.70792 8.1721 4.2876 8.95128 4.31214 9.77968C4.30881 10.1849 4.40336 10.5859 4.58731 10.9479C3.94515 11.3948 3.56968 12.1289 3.58544 12.906C3.58635 13.4337 3.74939 13.9484 4.05304 14.3818C3.76363 14.7942 3.6015 15.2811 3.58544 15.7832C3.58544 17.1225 4.76429 18.5085 6.72984 18.5085H12.465C12.1789 19.9132 11.9698 21.3326 11.8398 22.7601C11.8398 24.6639 13.1177 26.7506 13.7702 27.3968C14.2693 27.9076 14.9548 28.1982 15.6724 28.2027C16.2085 28.17 16.7291 28.01 17.1898 27.7359C18.4319 27.0897 17.371 23.5936 17.528 22.8889C18.1016 20.8995 19.1123 19.0608 20.4881 17.5042C21.0663 16.8998 21.7839 16.4429 22.5791 16.1728H27.1706C27.4515 16.1728 27.7106 16.0242 27.8512 15.7835C27.9915 15.5425 27.9915 15.2456 27.8512 15.0046C27.7106 14.7639 27.4515 14.6153 27.1706 14.6153H23.2395V6.43935H27.17ZM19.3087 16.4798C17.634 18.3759 16.2582 20.9067 15.9673 22.6314C15.8918 23.4378 15.9355 24.2506 16.0967 25.0448C16.1909 25.5206 16.2334 26.005 16.223 26.4894C16.01 26.6158 15.7591 26.6656 15.5133 26.6302C15.2678 26.5945 15.0421 26.4762 14.8742 26.2949C14.5205 25.9444 13.4044 24.2158 13.4044 22.7598C13.4044 22.1136 13.8802 19.4228 14.1908 17.8773C14.2351 17.6495 14.1742 17.4145 14.0254 17.2353C13.8744 17.0537 13.6496 16.9493 13.4123 16.9511H6.72954C5.75888 16.9511 5.15703 16.3439 5.15703 15.7832C5.21219 15.4521 5.37856 15.149 5.62887 14.9227C5.80585 14.7633 5.9001 14.5331 5.88465 14.2966C5.86919 14.0601 5.74615 13.8437 5.55008 13.708C5.30371 13.5129 5.15915 13.2185 5.15703 12.906C5.15461 12.6851 5.2331 12.4705 5.37765 12.3027C5.5222 12.1343 5.72282 12.0239 5.94313 11.9909C6.15042 11.9569 6.33558 11.8426 6.4571 11.6727C6.57862 11.5028 6.6265 11.2915 6.58983 11.0865C6.55286 10.8815 6.43498 10.6999 6.26194 10.5817C6.01465 10.3875 5.8698 10.0924 5.86889 9.77968C5.86798 9.55937 5.94647 9.34597 6.09072 9.17819C6.23497 9.01041 6.43528 8.89935 6.65499 8.86483C6.84863 8.84052 7.02592 8.74568 7.15289 8.5986C7.28017 8.45183 7.34714 8.26334 7.34139 8.07005C7.33593 7.87675 7.25805 7.69246 7.12289 7.55289C6.88015 7.29957 6.77318 6.9469 6.8356 6.60293C6.99349 6.16322 7.35714 5.82615 7.8108 5.69949C8.84176 5.42486 9.90364 5.28109 10.971 5.27118H18.9153C19.9335 5.27118 21.2972 6.10469 21.6667 6.22535V14.8525C20.7696 15.2171 19.9648 15.7727 19.3087 16.4798Z" fill="#FFFEFF"/>
<path d="M48.3997 19.6768H22.4559C21.8305 19.6768 21.2307 19.9232 20.7886 20.3614C20.3461 20.7993 20.0976 21.3936 20.0976 22.0131V42.7794C20.0983 44.0313 19.7728 45.2622 19.1531 46.3532C18.5336 47.4442 17.6399 48.3594 16.5596 49.0089C16.3753 49.1308 16.252 49.3238 16.2193 49.5405C16.1862 49.7572 16.2468 49.9775 16.3866 50.1474C16.526 50.3175 16.7317 50.4217 16.9526 50.434H48.3997C49.0252 50.434 49.6255 50.1876 50.0676 49.7494C50.5101 49.3115 50.7586 48.7172 50.7586 48.0977V22.0131C50.7586 21.3936 50.5101 20.7993 50.0676 20.3614C49.6252 19.9232 49.0252 19.6768 48.3997 19.6768ZM49.1861 48.098C49.1861 48.3045 49.103 48.5029 48.9555 48.6487C48.8082 48.7949 48.6082 48.8768 48.3997 48.8768H19.1858C20.7746 47.2368 21.6641 45.053 21.6695 42.7803V22.0137C21.6695 21.8072 21.7529 21.6091 21.9002 21.4629C22.0477 21.3171 22.2474 21.2345 22.4559 21.2345H48.3997C48.6082 21.2345 48.8082 21.3171 48.9555 21.4629C49.103 21.6091 49.1861 21.8072 49.1861 22.0137V48.098Z" fill="#FFFEFF"/>
<path d="M44.4659 32.5243H38.7307C39.0171 31.1196 39.2256 29.7005 39.3556 28.273C39.3556 26.3692 38.0783 24.282 37.4255 23.6357C36.9885 23.187 36.4048 22.9073 35.7785 22.8452C35.1521 22.783 34.5238 22.9433 34.0056 23.2972C33.1765 23.8462 33.3532 24.9981 33.538 26.2167C33.6674 26.8572 33.7114 27.5118 33.6677 28.1635C33.4632 29.3742 32.3549 31.6674 30.6961 33.5481C30.1188 34.1439 29.4057 34.5938 28.6166 34.86H24.0254C23.7445 34.86 23.4851 35.0089 23.3445 35.2496C23.2042 35.4906 23.2042 35.7875 23.3445 36.0282C23.4851 36.2692 23.7445 36.4175 24.0254 36.4175H27.9562V44.5935H24.0254C23.7445 44.5935 23.4851 44.7417 23.3445 44.9828C23.2042 45.2235 23.2042 45.5206 23.3445 45.7613C23.4851 46.0024 23.7445 46.1506 24.0254 46.1506H28.349C28.7933 46.1506 30.5936 47.3191 32.2798 47.3191H40.2241C40.8454 47.3191 42.8776 47.1945 43.9507 46.7857C44.8862 46.4826 45.6111 45.743 45.8887 44.8078C46.0129 44.3065 45.9744 43.7792 45.7787 43.3007C46.4875 42.8604 46.9078 42.0815 46.8833 41.2534C46.8866 40.8479 46.792 40.4473 46.6081 40.085C47.2502 39.6381 47.626 38.9045 47.6103 38.1271C47.6094 37.5995 47.4463 37.0847 47.1427 36.6513C47.4321 36.2386 47.5942 35.7521 47.6103 35.2499C47.6103 33.9107 46.4314 32.5243 44.4659 32.5243ZM45.645 37.3245C45.8914 37.5196 46.0359 37.8144 46.0381 38.1268C46.0405 38.3477 45.9623 38.562 45.8177 38.7298C45.6735 38.8982 45.4723 39.0086 45.252 39.0417C45.0447 39.0756 44.8595 39.1899 44.738 39.3598C44.6165 39.53 44.5689 39.741 44.6056 39.946C44.6425 40.151 44.7604 40.3326 44.9335 40.4509C45.1807 40.645 45.3256 40.9401 45.3265 41.2528C45.3274 41.4732 45.2486 41.6869 45.1044 41.8546C44.9601 42.0224 44.7601 42.1335 44.5404 42.168C44.3507 42.1995 44.1792 42.2989 44.0583 42.4471C43.9377 42.5957 43.8758 42.7827 43.8852 42.973C43.8943 43.1633 43.9737 43.3434 44.108 43.4796C44.3507 43.733 44.4574 44.0859 44.3949 44.4299C44.2371 44.8696 43.8737 45.2064 43.4201 45.333C42.3879 45.608 41.3245 45.7517 40.2556 45.7613H32.2801C31.4349 45.7613 29.8979 44.9281 29.5284 44.8075V36.1801C30.4255 35.8154 31.2306 35.2598 31.887 34.5527C33.5614 32.6567 34.9372 30.1258 35.2281 28.4012C35.3036 27.5947 35.2599 26.7816 35.0984 25.9874C35.0045 25.5117 34.9624 25.0275 34.9727 24.5431C35.1857 24.4167 35.4363 24.3669 35.6818 24.4023C35.9276 24.4377 36.1533 24.5563 36.3209 24.7376C36.6749 25.0882 37.791 26.817 37.791 28.273C37.791 28.9192 37.3155 31.6094 37.0049 33.1552C36.96 33.3845 37.0215 33.621 37.1725 33.8008C37.3231 33.9803 37.5473 34.0832 37.7831 34.0814H44.4659C45.4368 34.0814 46.0384 34.6889 46.0384 35.2496C45.9829 35.5807 45.8168 35.8835 45.5665 36.1098C45.3895 36.2692 45.2953 36.4994 45.3108 36.7359C45.3259 36.9725 45.4489 37.1889 45.645 37.3245Z" fill="#FFFEFF"/>
</svg>
