<svg width="40" height="46" viewBox="0 0 40 46" fill="none" xmlns="http://www.w3.org/2000/svg">
<path d="M3.28571 46H23C23.8711 45.999 24.7063 45.6525 25.3222 45.0365C25.9382 44.4206 26.2847 43.5854 26.2857 42.7143V37.7857H23V42.7143H3.28571V3.28571H23V8.21429H26.2857V3.28571C26.2847 2.4146 25.9382 1.57944 25.3222 0.963468C24.7063 0.347494 23.8711 0.00100006 23 0H3.28571C2.4146 0.00100006 1.57944 0.347494 0.963468 0.963468C0.347494 1.57944 0.00100006 2.4146 0 3.28571V42.7143C0.00100006 43.5854 0.347494 44.4206 0.963468 45.0365C1.57944 45.6525 2.4146 45.999 3.28571 46Z" fill="white"/>
<path d="M27.2484 30.5341L33.1397 24.6429H9.85712V21.3571H33.1397L27.2484 15.4659L29.5714 13.1429L39.4285 23L29.5714 32.8571L27.2484 30.5341Z" fill="white"/>
</svg>
