<svg width="45" height="52" viewBox="0 0 45 52" fill="none" xmlns="http://www.w3.org/2000/svg">
<path d="M27.9819 49.3599C27.9819 50.3582 27.1661 51.1662 26.1582 51.1662H18.8627C17.8553 51.1662 17.0386 50.3582 17.0386 49.3599C17.0386 48.3613 17.8553 47.5534 18.8627 47.5534H26.1582C27.1661 47.5534 27.9819 48.3613 27.9819 49.3599ZM44.3969 42.1339C44.3969 43.1325 43.5811 43.9405 42.5732 43.9405H2.44763C1.4403 43.9405 0.623901 43.1325 0.623901 42.1339C0.623901 41.1356 1.4403 40.3276 2.44763 40.3276H4.27165V18.6504C4.27165 8.68945 12.4533 0.58609 22.5104 0.58609C32.5667 0.58609 40.7492 8.68945 40.7492 18.6504V40.3276H42.5732C43.5811 40.3276 44.3969 41.1356 44.3969 42.1339ZM37.1014 40.3276V18.6504C37.1014 10.6818 30.556 4.19896 22.5104 4.19896C14.4649 4.19896 7.91941 10.6818 7.91941 18.6504V40.3276H37.1014Z" fill="#FFFEFF"/>
</svg>
