<svg width="47" height="51" viewBox="0 0 47 51" fill="none" xmlns="http://www.w3.org/2000/svg">
<path d="M21.5524 40.2104C21.5524 40.8176 21.6397 41.3383 21.6397 41.9455H2.28053C1.31684 41.9455 0.52832 41.1646 0.52832 40.2104V35.0044C0.52832 27.89 5.9595 21.9906 13.055 21.2096C9.72605 19.2142 7.53625 15.6569 7.53625 11.5791C7.53625 5.33246 12.6171 0.300201 18.9241 0.300201C25.2311 0.300201 30.3119 5.33246 30.3119 11.5791C30.3119 15.6566 28.1221 19.2142 24.7932 21.2096C28.6476 21.6433 31.9763 23.552 34.254 26.4154C27.1584 27.0229 21.5518 33.009 21.5518 40.2104H21.5524ZM43.0141 47.585C38.8972 51.6628 32.2393 51.6628 28.1221 47.585C24.005 43.5075 24.0053 36.9133 28.1221 32.8355C32.2393 28.7577 38.8969 28.758 43.0141 32.8355C47.1313 36.9133 47.1313 43.5072 43.0141 47.585ZM36.4441 39.3427C36.4441 38.8222 36.0937 38.4752 35.5683 38.4752C35.0428 38.4752 34.6922 38.8222 34.6922 39.3427V46.2836C34.6922 46.804 35.0428 47.1513 35.5683 47.1513C36.0937 47.1513 36.4441 46.804 36.4441 46.2836V39.3427ZM37.3202 35.0044C37.3202 34.0502 36.5316 33.2695 35.5683 33.2695C34.6046 33.2695 33.8161 34.0502 33.8161 35.0044C33.8161 35.9585 34.6046 36.7398 35.5683 36.7398C36.5316 36.7398 37.3202 35.9585 37.3202 35.0044Z" fill="#FFFEFF"/>
</svg>
