<svg width="33" height="58" viewBox="0 0 33 58" fill="none" xmlns="http://www.w3.org/2000/svg">
<path d="M32.0054 5.70141C32.609 6.64918 32.7412 7.66605 32.7187 8.77178C32.6414 12.9207 32.6289 17.0697 32.589 21.2186C32.5815 22.1318 32.3197 22.5144 31.7211 22.5045C31.1251 22.4947 30.8931 22.1244 30.8981 21.1915C30.8981 20.8607 30.9031 20.53 30.9056 20.0734C29.4691 20.3795 28.0924 20.6287 26.7431 20.9693C24.4686 21.5444 22.3413 22.4947 20.2588 23.5634C17.7374 24.8591 15.226 26.1821 12.6422 27.3421C9.48484 28.7588 6.1055 29.4252 2.6688 29.7905C2.42689 29.8152 2.18747 29.8547 1.91812 29.8917C1.8832 33.7691 1.84829 37.6318 1.81337 41.5931C3.11523 41.3957 4.40212 41.2279 5.67654 40.9983C9.07084 40.3838 12.2556 39.1916 15.3008 37.5972C17.6302 36.378 19.967 35.1686 22.3537 34.0628C24.8053 32.925 27.424 32.2981 30.1025 31.923C30.2322 31.9057 30.3594 31.8835 30.4891 31.8588C30.5789 31.839 30.6687 31.8119 30.8008 31.7749C30.8133 30.3878 30.8258 29.0007 30.8407 27.6136C30.8457 26.9842 30.8407 26.3524 30.8657 25.723C30.8906 25.1775 31.2123 24.8443 31.6712 24.8295C32.1476 24.8122 32.4893 25.1652 32.5416 25.7255C32.5516 25.8538 32.5466 25.9846 32.5466 26.1154C32.4668 34.8773 32.387 43.6417 32.3097 52.4011C32.2972 53.9709 31.7885 55.3012 30.4816 56.2663C29.6561 56.8784 28.7159 57.1449 27.6983 57.1375C19.9645 57.0733 12.2332 57.0166 4.50188 56.9277C1.81088 56.8956 -0.0246887 54.9409 0.000251038 52.2086C0.097516 40.8897 0.202263 29.5708 0.304516 18.2519C0.336938 14.6386 0.361877 11.0277 0.411757 7.4143C0.416745 7.06136 0.543937 6.69854 0.668636 6.35794C0.783359 6.04695 0.942974 5.74584 1.12503 5.46694C1.99792 4.11933 2.4618 2.67794 2.25979 1.0613C2.19994 0.58495 2.45183 0.256687 2.82842 0C12.0038 0.0814487 21.1766 0.162897 30.3519 0.244346C30.8382 0.47882 31.0303 0.886063 30.9605 1.38463C30.746 2.96424 31.1675 4.38589 32.0054 5.70388V5.70141ZM30.6013 50.1255C30.6512 44.5919 30.7011 39.0806 30.751 33.5198C28.1198 33.8506 25.6159 34.4133 23.2815 35.4771C20.8549 36.5828 18.4831 37.8095 16.1263 39.0559C12.6322 40.9045 8.95362 42.1904 5.04057 42.8149C3.96068 42.9876 2.87082 43.1185 1.8009 43.2665L1.74105 49.8688C11.3728 49.9552 20.9696 50.0391 30.6013 50.123V50.1255ZM30.8782 18.3531C30.9081 15.0088 30.938 11.5953 30.9704 8.16462C21.3412 8.07823 11.7593 7.99431 2.11265 7.9104C2.0503 14.6929 1.99044 21.4259 1.93059 28.1837C5.23261 27.8801 8.4648 27.3199 11.475 26.0044C14.3281 24.7579 17.0466 23.2203 19.8697 21.9122C21.7951 21.0212 23.7678 20.2042 25.7805 19.5428C27.419 19.0047 29.1548 18.7431 30.8806 18.3531H30.8782ZM27.9901 55.4567C29.8057 55.3333 31.0228 53.5982 30.5215 51.8359C20.9446 51.752 11.3628 51.6656 1.74853 51.5817C1.40186 53.8647 2.58151 55.2444 4.85602 55.2642C12.3604 55.3333 19.8673 55.3975 27.3716 55.4641C27.5786 55.4641 27.7831 55.4715 27.9901 55.4567ZM2.65384 6.1827C11.9589 6.26415 21.1866 6.3456 30.4741 6.42951C30.2372 5.93835 29.9953 5.51877 29.8282 5.0745C29.6686 4.65492 29.4092 4.5636 28.9802 4.55866C23.2516 4.52164 17.5254 4.46734 11.7992 4.41798C9.21549 4.39576 6.63422 4.36861 4.05047 4.35874C3.86342 4.35874 3.58409 4.44266 3.4993 4.5784C3.19004 5.07944 2.94564 5.61749 2.65633 6.18517L2.65384 6.1827ZM29.2296 2.83836L29.2371 1.93996C20.795 1.86592 12.3828 1.79187 3.96816 1.71536L3.96068 2.61376C12.4028 2.68781 20.8224 2.76185 29.2296 2.83836Z" fill="black"/>
<path d="M30.7511 33.52C30.7012 39.0807 30.6514 44.5896 30.6015 50.1256C20.9698 50.0392 11.3729 49.9553 1.74121 49.8714L1.80107 43.2691C2.87348 43.121 3.96085 42.9902 5.04074 42.8175C8.95379 42.193 12.6324 40.9071 16.1265 39.0585C18.4833 37.8121 20.855 36.5854 23.2817 35.4797C25.616 34.4159 28.12 33.8532 30.7511 33.5224V33.52Z" fill="#888888"/>
<path d="M30.9706 8.16224C30.9406 11.593 30.9082 15.0064 30.8783 18.3507C29.1525 18.7407 27.4191 18.9999 25.7781 19.5404C23.7655 20.2018 21.7927 21.0188 19.8674 21.9098C17.0442 23.2179 14.3233 24.7556 11.4727 26.002C8.46244 27.3175 5.23025 27.8753 1.92822 28.1813C1.98808 21.426 2.05043 14.6905 2.11028 7.90802C11.757 7.99441 21.3413 8.07832 30.9681 8.16224H30.9706ZM16.4631 18.6987C17.9346 18.7061 19.0943 17.5708 19.1042 16.1146C19.1142 14.6732 17.937 13.4885 16.493 13.4836C15.0565 13.4786 13.837 14.6707 13.8345 16.0874C13.8295 17.5239 15.0041 18.6913 16.4656 18.7012L16.4631 18.6987ZM11.8617 20.5819C11.8617 20.5548 11.8617 20.5276 11.8617 20.498C11.8717 18.5778 10.2731 16.976 8.34771 16.9735C8.30033 16.9735 8.25544 16.9735 8.20805 16.976C6.34006 17.05 4.79131 18.6124 4.78632 20.4635C4.78632 20.5079 4.78632 20.5548 4.78881 20.5992C4.85116 22.3318 6.22285 23.7683 7.94369 23.9534C8.06589 23.9682 8.1881 23.9756 8.3128 23.9756C10.2406 23.9806 11.8044 22.4775 11.8592 20.5819H11.8617ZM8.40508 15.0632C9.86904 15.0656 11.0337 13.9179 11.0387 12.4642C11.0437 11.0352 9.8441 9.83811 8.40757 9.84304C6.96855 9.84798 5.75897 11.045 5.76146 12.4593C5.76146 13.8982 6.9461 15.0582 8.40508 15.0607V15.0632Z" fill="#545454"/>
<path d="M30.5213 51.8336C31.0226 53.5983 29.8081 55.331 27.99 55.4544C27.7855 55.4692 27.5785 55.4618 27.3715 55.4618C19.8671 55.3952 12.3602 55.331 4.85586 55.2619C2.58135 55.2421 1.39921 53.86 1.74836 51.5794C11.3626 51.6633 20.9445 51.7497 30.5213 51.8336Z" fill="#999999"/>
<path d="M30.4717 6.42956C21.1841 6.34811 11.9564 6.26667 2.65137 6.18275C2.94316 5.61508 3.18757 5.07702 3.49433 4.57599C3.57913 4.44024 3.85845 4.35632 4.0455 4.35632C6.62926 4.3662 9.21052 4.39335 11.7943 4.41556C17.5229 4.46739 23.2491 4.52169 28.9753 4.55624C29.4017 4.56118 29.6636 4.6525 29.8232 5.07208C29.9903 5.51635 30.2322 5.93594 30.4692 6.4271L30.4717 6.42956Z" fill="#999999"/>
<path d="M29.2374 1.94018L29.2299 2.83858C20.8202 2.76454 12.403 2.69049 3.96094 2.61398L3.96842 1.71558C12.3831 1.78962 20.7953 1.86366 29.2374 1.94018Z" fill="#808080"/>
<path d="M19.1043 16.1147C19.0943 17.5733 17.9346 18.7087 16.4632 18.6988C15.0017 18.6914 13.8295 17.524 13.832 16.085C13.837 14.6683 15.0541 13.4762 16.4906 13.4812C17.9346 13.4861 19.1118 14.6708 19.1018 16.1122L19.1043 16.1147ZM16.4756 17.0279C17.0143 17.0279 17.4259 16.6108 17.4134 16.0752C17.4009 15.5815 16.972 15.162 16.4781 15.162C15.9943 15.162 15.5429 15.5939 15.5254 16.0727C15.508 16.5861 15.9469 17.0279 16.4732 17.0279H16.4756Z" fill="black"/>
<path d="M17.4134 16.075C17.4259 16.6106 17.0144 17.0277 16.4757 17.0277C15.9495 17.0277 15.508 16.5835 15.528 16.0725C15.5455 15.5937 15.9944 15.1618 16.4807 15.1618C16.977 15.1618 17.4035 15.5814 17.4159 16.075H17.4134Z" fill="#453F3F"/>
<path d="M11.8641 20.5003C11.8641 20.5275 11.8641 20.5571 11.8641 20.5843L10.1807 20.5275C10.2006 19.5155 9.38262 18.6665 8.36508 18.6468C8.32767 18.6468 8.29026 18.6468 8.25285 18.6468L8.21045 16.9783C8.25783 16.9758 8.30273 16.9758 8.35011 16.9758C10.278 16.9758 11.8741 18.5777 11.8641 20.5003Z" fill="black"/>
<path d="M10.1784 20.5277L11.8618 20.5845C11.8095 22.48 10.2432 23.9831 8.3154 23.9782C8.1907 23.9782 8.066 23.9708 7.94629 23.956L8.08845 22.2875C8.15079 22.2949 8.21065 22.2999 8.27549 22.2999C9.31798 22.327 10.156 21.5421 10.1784 20.5253V20.5277Z" fill="black"/>
<path d="M11.036 12.4691C11.0311 13.9229 9.86637 15.0705 8.4024 15.0681C6.94093 15.0631 5.76128 13.9031 5.75879 12.4666C5.75879 11.0524 6.96587 9.85535 8.4049 9.85042C9.84143 9.84548 11.041 11.0401 11.036 12.4716V12.4691ZM8.37996 13.3971C8.90868 13.407 9.34762 12.9825 9.34512 12.4617C9.34263 11.9706 8.91865 11.5411 8.42485 11.5263C7.92106 11.5139 7.44721 11.973 7.4522 12.4716C7.45469 12.9627 7.88366 13.3848 8.37996 13.3971Z" fill="black"/>
<path d="M8.3625 18.6469C9.37754 18.6667 10.1981 19.5157 10.1781 20.5276C10.1557 21.5445 9.31769 22.3294 8.27521 22.3022C8.21286 22.3022 8.15051 22.2948 8.08816 22.2899C7.2028 22.1788 6.51695 21.4483 6.47705 20.5622C6.47705 20.5301 6.47705 20.5005 6.47705 20.4709C6.48453 19.5108 7.29757 18.6913 8.25276 18.6494C8.29017 18.6469 8.32758 18.6494 8.36499 18.6494L8.3625 18.6469Z" fill="#453F3F"/>
<path d="M9.34804 12.4618C9.35054 12.9826 8.9116 13.4096 8.38288 13.3973C7.88658 13.3849 7.45761 12.9604 7.45512 12.4717C7.45013 11.9707 7.92398 11.5116 8.42777 11.5264C8.92157 11.5412 9.34555 11.9731 9.34804 12.4618Z" fill="#453F3F"/>
<path d="M8.20792 16.9808L8.25032 18.6493C7.29512 18.6913 6.48458 19.5107 6.47461 20.4708C6.47461 20.5029 6.47461 20.5325 6.47461 20.5621L4.78619 20.6041C4.78369 20.5596 4.78369 20.5127 4.78369 20.4683C4.78868 18.6172 6.33744 17.0549 8.20543 16.9808H8.20792Z" fill="black"/>
<path d="M8.08805 22.2899L7.94589 23.9584C6.22505 23.7732 4.85087 22.3393 4.79102 20.6042L6.47944 20.5622C6.51685 21.4483 7.20518 22.1788 8.09054 22.2899H8.08805Z" fill="black"/>
</svg>
