<svg width="24" height="24" viewBox="0 0 24 24" fill="none" xmlns="http://www.w3.org/2000/svg">
<path fill-rule="evenodd" clip-rule="evenodd" d="M12.3549 23.955C5.94588 23.955 0.754883 18.764 0.754883 12.355C0.754883 5.946 5.94588 0.755005 12.3549 0.755005C18.7639 0.755005 23.9549 5.946 23.9549 12.355C23.9549 18.764 18.7639 23.955 12.3549 23.955ZM17.6039 8.55601C17.2559 8.20805 16.7049 8.20805 16.3568 8.55601L10.8178 14.24L8.35284 11.688C8.00488 11.3401 7.45386 11.3401 7.10579 11.688C6.75783 12.036 6.75783 12.616 7.10579 12.964L10.2088 16.154C10.5567 16.502 11.1078 16.502 11.4558 16.154L17.6328 9.83203C17.9519 9.48408 17.9519 8.90408 17.6039 8.5561L17.6039 8.55601Z" fill="#90FF04"/>
</svg>
