<svg width="925" height="395" viewBox="0 0 925 395" fill="none" xmlns="http://www.w3.org/2000/svg">
<path d="M876.505 29.1593C870.198 29.1593 847.821 28.3613 820.196 27.3874C767.988 25.5066 703.061 23.2179 681.632 23.7804C647.411 22.6378 613.287 19.4631 579.446 14.2773C555.057 11.1448 535.814 8.6628 526.743 8.6628V8.65929C500.248 10.6667 473.896 14.2105 447.814 19.2658C424.104 23.7868 400.173 27.088 376.127 29.1586H228.464V14.0377C228.464 10.3146 226.984 6.74272 224.35 4.10977C221.721 1.47655 218.149 0 214.426 0H14.0412C10.3146 0 6.74622 1.47655 4.11327 4.10977C1.48005 6.74299 0 10.3148 0 14.0377V347.803C0 351.529 1.48005 355.098 4.11327 357.731C6.74649 360.364 10.3148 361.844 14.0412 361.844H214.399H214.396C218.122 361.844 221.691 360.364 224.324 357.731C226.957 355.097 228.437 351.529 228.437 347.803V337.003C229.02 337.041 229.604 337.041 230.188 337.003C259.456 330.07 278.939 343.373 320.35 374.177C340.203 388.275 364.116 395.496 388.454 394.74C430.695 392.424 471.848 380.477 508.766 359.812C525.916 350.83 544.597 345.145 563.845 343.053C572.743 341.26 583.287 339.123 595.792 336.423C658.131 323.053 654.113 265.144 652.45 243.219C652.256 240.477 652.084 238.163 652.084 236.392C652.084 228.271 647.289 222.568 637.505 217.794L658.588 140.036L663.144 139.776C679.064 138.848 702.586 137.81 728.335 136.664C807.585 133.187 864.847 130.421 879.949 126.663H879.942C893.101 124.588 904.973 117.574 913.14 107.053C921.307 96.5307 925.157 83.2907 923.898 70.0256C922.566 58.5119 916.955 47.9198 908.176 40.3499C899.398 32.7772 888.095 28.7831 876.507 29.1593L876.505 29.1593ZM200.425 333.719H28.1021V28.0613H200.389L200.425 333.719ZM610.825 209.132C597.67 205.979 581.448 202.825 560.973 199.046C550.82 197.165 539.113 194.964 528.724 192.802C526.176 192.155 519.221 190.384 510.366 188.07L510.363 188.074C515.053 175.494 523.398 164.6 534.325 156.799C545.252 148.998 558.263 144.642 571.686 144.293C588.533 143.601 608.407 142.715 629.12 141.657L610.825 209.132ZM873.175 99.4493C859.654 102.817 783.058 106.21 727.132 108.671C701.211 109.817 677.453 110.829 661.534 111.803C629.134 113.705 596.343 115.196 570.535 116.254L570.538 116.257C551.174 116.852 532.454 123.345 516.879 134.866C501.305 146.39 489.616 162.39 483.382 180.731C476.752 178.829 470.832 177.015 466.922 175.612C456.488 171.485 446.549 166.204 437.285 159.866C434.237 157.728 430.465 156.884 426.798 157.528C423.132 158.171 419.869 160.242 417.728 163.29C415.587 166.338 414.747 170.11 415.39 173.78C416.03 177.447 418.104 180.709 421.152 182.85C432.462 190.613 444.633 197.05 457.42 202.028C466.061 205.14 482.324 209.675 496.58 213.496V213.5C505.317 216.453 514.254 218.777 523.32 220.454C532.499 222.356 543.106 224.342 555.892 226.697C579.036 230.273 601.894 235.483 624.299 242.293C624.299 243.221 624.43 244.216 624.514 245.253C626.5 273.332 625.463 301.411 589.956 309.016C577.514 311.695 567.125 313.811 558.332 315.495C535.938 318.097 514.243 324.953 494.418 335.692C473.552 348.222 385.707 387.534 336.936 351.287C297.906 322.255 269.285 301.306 228.549 308.801L228.553 57.2691H376.171C401.767 55.2863 427.231 51.8481 452.438 46.9686C477.03 42.2964 501.847 38.8862 526.786 36.7518C534.067 36.7518 554.391 39.3639 575.903 42.1307V42.1272C611.189 47.5553 646.774 50.7932 682.454 51.8265C702.887 51.5031 770.172 53.6828 819.272 55.4336C847.351 56.4285 870.161 57.2476 876.577 57.2476C881.291 56.9206 885.949 58.4288 889.574 61.4628C893.198 64.4968 895.508 68.814 896.014 73.5147C897.16 83.0178 891.76 94.8123 873.12 99.4779L873.175 99.4493Z" fill="white"/>
<path d="M876.505 29.1593C870.198 29.1593 847.821 28.3613 820.196 27.3874C767.988 25.5066 703.061 23.2179 681.632 23.7804C647.411 22.6378 613.287 19.4631 579.446 14.2773C555.057 11.1448 535.814 8.6628 526.743 8.6628V8.65929C500.248 10.6667 473.896 14.2105 447.814 19.2658C424.104 23.7868 400.173 27.088 376.127 29.1586H228.464V14.0377C228.464 10.3146 226.984 6.74272 224.35 4.10977C221.721 1.47655 218.149 0 214.426 0H14.0412C10.3146 0 6.74622 1.47655 4.11327 4.10977C1.48005 6.74299 0 10.3148 0 14.0377V347.803C0 351.529 1.48005 355.098 4.11327 357.731C6.74649 360.364 10.3148 361.844 14.0412 361.844H214.399H214.396C218.122 361.844 221.691 360.364 224.324 357.731C226.957 355.097 228.437 351.529 228.437 347.803V337.003C229.02 337.041 229.604 337.041 230.188 337.003C259.456 330.07 278.939 343.373 320.35 374.177C340.203 388.275 364.116 395.496 388.454 394.74C430.695 392.424 471.848 380.477 508.766 359.812C525.916 350.83 544.597 345.145 563.845 343.053C572.743 341.26 583.287 339.123 595.792 336.423C658.131 323.053 654.113 265.144 652.45 243.219C652.256 240.477 652.084 238.163 652.084 236.392C652.084 228.271 647.289 222.568 637.505 217.794L658.588 140.036L663.144 139.776C679.064 138.848 702.586 137.81 728.335 136.664C807.585 133.187 864.847 130.421 879.949 126.663H879.942C893.101 124.588 904.973 117.574 913.14 107.053C921.307 96.5307 925.157 83.2907 923.898 70.0256C922.566 58.5119 916.955 47.9198 908.176 40.3499C899.398 32.7772 888.095 28.7831 876.507 29.1593L876.505 29.1593ZM200.425 333.719H28.1021V28.0613H200.389L200.425 333.719ZM610.825 209.132C597.67 205.979 581.448 202.825 560.973 199.046C550.82 197.165 539.113 194.964 528.724 192.802C526.176 192.155 519.221 190.384 510.366 188.07L510.363 188.074C515.053 175.494 523.398 164.6 534.325 156.799C545.252 148.998 558.263 144.642 571.686 144.293C588.533 143.601 608.407 142.715 629.12 141.657L610.825 209.132ZM873.175 99.4493C859.654 102.817 783.058 106.21 727.132 108.671C701.211 109.817 677.453 110.829 661.534 111.803C629.134 113.705 596.343 115.196 570.535 116.254L570.538 116.257C551.174 116.852 532.454 123.345 516.879 134.866C501.305 146.39 489.616 162.39 483.382 180.731C476.752 178.829 470.832 177.015 466.922 175.612C456.488 171.485 446.549 166.204 437.285 159.866C434.237 157.728 430.465 156.884 426.798 157.528C423.132 158.171 419.869 160.242 417.728 163.29C415.587 166.338 414.747 170.11 415.39 173.78C416.03 177.447 418.104 180.709 421.152 182.85C432.462 190.613 444.633 197.05 457.42 202.028C466.061 205.14 482.324 209.675 496.58 213.496V213.5C505.317 216.453 514.254 218.777 523.32 220.454C532.499 222.356 543.106 224.342 555.892 226.697C579.036 230.273 601.894 235.483 624.299 242.293C624.299 243.221 624.43 244.216 624.514 245.253C626.5 273.332 625.463 301.411 589.956 309.016C577.514 311.695 567.125 313.811 558.332 315.495C535.938 318.097 514.243 324.953 494.418 335.692C473.552 348.222 385.707 387.534 336.936 351.287C297.906 322.255 269.285 301.306 228.549 308.801L228.553 57.2691H376.171C401.767 55.2863 427.231 51.8481 452.438 46.9686C477.03 42.2964 501.847 38.8862 526.786 36.7518C534.067 36.7518 554.391 39.3639 575.903 42.1307V42.1272C611.189 47.5553 646.774 50.7932 682.454 51.8265C702.887 51.5031 770.172 53.6828 819.272 55.4336C847.351 56.4285 870.161 57.2476 876.577 57.2476C881.291 56.9206 885.949 58.4288 889.574 61.4628C893.198 64.4968 895.508 68.814 896.014 73.5147C897.16 83.0178 891.76 94.8123 873.12 99.4779L873.175 99.4493Z" fill="white"/>
<path d="M876.505 29.1593C870.198 29.1593 847.821 28.3613 820.196 27.3874C767.988 25.5066 703.061 23.2179 681.632 23.7804C647.411 22.6378 613.287 19.4631 579.446 14.2773C555.057 11.1448 535.814 8.6628 526.743 8.6628V8.65929C500.248 10.6667 473.896 14.2105 447.814 19.2658C424.104 23.7868 400.173 27.088 376.127 29.1586H228.464V14.0377C228.464 10.3146 226.984 6.74272 224.35 4.10977C221.721 1.47655 218.149 0 214.426 0H14.0412C10.3146 0 6.74622 1.47655 4.11327 4.10977C1.48005 6.74299 0 10.3148 0 14.0377V347.803C0 351.529 1.48005 355.098 4.11327 357.731C6.74649 360.364 10.3148 361.844 14.0412 361.844H214.399H214.396C218.122 361.844 221.691 360.364 224.324 357.731C226.957 355.097 228.437 351.529 228.437 347.803V337.003C229.02 337.041 229.604 337.041 230.188 337.003C259.456 330.07 278.939 343.373 320.35 374.177C340.203 388.275 364.116 395.496 388.454 394.74C430.695 392.424 471.848 380.477 508.766 359.812C525.916 350.83 544.597 345.145 563.845 343.053C572.743 341.26 583.287 339.123 595.792 336.423C658.131 323.053 654.113 265.144 652.45 243.219C652.256 240.477 652.084 238.163 652.084 236.392C652.084 228.271 647.289 222.568 637.505 217.794L658.588 140.036L663.144 139.776C679.064 138.848 702.586 137.81 728.335 136.664C807.585 133.187 864.847 130.421 879.949 126.663H879.942C893.101 124.588 904.973 117.574 913.14 107.053C921.307 96.5307 925.157 83.2907 923.898 70.0256C922.566 58.5119 916.955 47.9198 908.176 40.3499C899.398 32.7772 888.095 28.7831 876.507 29.1593L876.505 29.1593ZM200.425 333.719H28.1021V28.0613H200.389L200.425 333.719ZM610.825 209.132C597.67 205.979 581.448 202.825 560.973 199.046C550.82 197.165 539.113 194.964 528.724 192.802C526.176 192.155 519.221 190.384 510.366 188.07L510.363 188.074C515.053 175.494 523.398 164.6 534.325 156.799C545.252 148.998 558.263 144.642 571.686 144.293C588.533 143.601 608.407 142.715 629.12 141.657L610.825 209.132ZM873.175 99.4493C859.654 102.817 783.058 106.21 727.132 108.671C701.211 109.817 677.453 110.829 661.534 111.803C629.134 113.705 596.343 115.196 570.535 116.254L570.538 116.257C551.174 116.852 532.454 123.345 516.879 134.866C501.305 146.39 489.616 162.39 483.382 180.731C476.752 178.829 470.832 177.015 466.922 175.612C456.488 171.485 446.549 166.204 437.285 159.866C434.237 157.728 430.465 156.884 426.798 157.528C423.132 158.171 419.869 160.242 417.728 163.29C415.587 166.338 414.747 170.11 415.39 173.78C416.03 177.447 418.104 180.709 421.152 182.85C432.462 190.613 444.633 197.05 457.42 202.028C466.061 205.14 482.324 209.675 496.58 213.496V213.5C505.317 216.453 514.254 218.777 523.32 220.454C532.499 222.356 543.106 224.342 555.892 226.697C579.036 230.273 601.894 235.483 624.299 242.293C624.299 243.221 624.43 244.216 624.514 245.253C626.5 273.332 625.463 301.411 589.956 309.016C577.514 311.695 567.125 313.811 558.332 315.495C535.938 318.097 514.243 324.953 494.418 335.692C473.552 348.222 385.707 387.534 336.936 351.287C297.906 322.255 269.285 301.306 228.549 308.801L228.553 57.2691H376.171C401.767 55.2863 427.231 51.8481 452.438 46.9686C477.03 42.2964 501.847 38.8862 526.786 36.7518C534.067 36.7518 554.391 39.3639 575.903 42.1307V42.1272C611.189 47.5553 646.774 50.7932 682.454 51.8265C702.887 51.5031 770.172 53.6828 819.272 55.4336C847.351 56.4285 870.161 57.2476 876.577 57.2476C881.291 56.9206 885.949 58.4288 889.574 61.4628C893.198 64.4968 895.508 68.814 896.014 73.5147C897.16 83.0178 891.76 94.8123 873.12 99.4779L873.175 99.4493Z" fill="white"/>
<path d="M876.505 29.1593C870.198 29.1593 847.821 28.3613 820.196 27.3874C767.988 25.5066 703.061 23.2179 681.632 23.7804C647.411 22.6378 613.287 19.4631 579.446 14.2773C555.057 11.1448 535.814 8.6628 526.743 8.6628V8.65929C500.248 10.6667 473.896 14.2105 447.814 19.2658C424.104 23.7868 400.173 27.088 376.127 29.1586H228.464V14.0377C228.464 10.3146 226.984 6.74272 224.35 4.10977C221.721 1.47655 218.149 0 214.426 0H14.0412C10.3146 0 6.74622 1.47655 4.11327 4.10977C1.48005 6.74299 0 10.3148 0 14.0377V347.803C0 351.529 1.48005 355.098 4.11327 357.731C6.74649 360.364 10.3148 361.844 14.0412 361.844H214.399H214.396C218.122 361.844 221.691 360.364 224.324 357.731C226.957 355.097 228.437 351.529 228.437 347.803V337.003C229.02 337.041 229.604 337.041 230.188 337.003C259.456 330.07 278.939 343.373 320.35 374.177C340.203 388.275 364.116 395.496 388.454 394.74C430.695 392.424 471.848 380.477 508.766 359.812C525.916 350.83 544.597 345.145 563.845 343.053C572.743 341.26 583.287 339.123 595.792 336.423C658.131 323.053 654.113 265.144 652.45 243.219C652.256 240.477 652.084 238.163 652.084 236.392C652.084 228.271 647.289 222.568 637.505 217.794L658.588 140.036L663.144 139.776C679.064 138.848 702.586 137.81 728.335 136.664C807.585 133.187 864.847 130.421 879.949 126.663H879.942C893.101 124.588 904.973 117.574 913.14 107.053C921.307 96.5307 925.157 83.2907 923.898 70.0256C922.566 58.5119 916.955 47.9198 908.176 40.3499C899.398 32.7772 888.095 28.7831 876.507 29.1593L876.505 29.1593ZM200.425 333.719H28.1021V28.0613H200.389L200.425 333.719ZM610.825 209.132C597.67 205.979 581.448 202.825 560.973 199.046C550.82 197.165 539.113 194.964 528.724 192.802C526.176 192.155 519.221 190.384 510.366 188.07L510.363 188.074C515.053 175.494 523.398 164.6 534.325 156.799C545.252 148.998 558.263 144.642 571.686 144.293C588.533 143.601 608.407 142.715 629.12 141.657L610.825 209.132ZM873.175 99.4493C859.654 102.817 783.058 106.21 727.132 108.671C701.211 109.817 677.453 110.829 661.534 111.803C629.134 113.705 596.343 115.196 570.535 116.254L570.538 116.257C551.174 116.852 532.454 123.345 516.879 134.866C501.305 146.39 489.616 162.39 483.382 180.731C476.752 178.829 470.832 177.015 466.922 175.612C456.488 171.485 446.549 166.204 437.285 159.866C434.237 157.728 430.465 156.884 426.798 157.528C423.132 158.171 419.869 160.242 417.728 163.29C415.587 166.338 414.747 170.11 415.39 173.78C416.03 177.447 418.104 180.709 421.152 182.85C432.462 190.613 444.633 197.05 457.42 202.028C466.061 205.14 482.324 209.675 496.58 213.496V213.5C505.317 216.453 514.254 218.777 523.32 220.454C532.499 222.356 543.106 224.342 555.892 226.697C579.036 230.273 601.894 235.483 624.299 242.293C624.299 243.221 624.43 244.216 624.514 245.253C626.5 273.332 625.463 301.411 589.956 309.016C577.514 311.695 567.125 313.811 558.332 315.495C535.938 318.097 514.243 324.953 494.418 335.692C473.552 348.222 385.707 387.534 336.936 351.287C297.906 322.255 269.285 301.306 228.549 308.801L228.553 57.2691H376.171C401.767 55.2863 427.231 51.8481 452.438 46.9686C477.03 42.2964 501.847 38.8862 526.786 36.7518C534.067 36.7518 554.391 39.3639 575.903 42.1307V42.1272C611.189 47.5553 646.774 50.7932 682.454 51.8265C702.887 51.5031 770.172 53.6828 819.272 55.4336C847.351 56.4285 870.161 57.2476 876.577 57.2476C881.291 56.9206 885.949 58.4288 889.574 61.4628C893.198 64.4968 895.508 68.814 896.014 73.5147C897.16 83.0178 891.76 94.8123 873.12 99.4779L873.175 99.4493Z" fill="white"/>
<path d="M876.505 29.1593C870.198 29.1593 847.821 28.3613 820.196 27.3874C767.988 25.5066 703.061 23.2179 681.632 23.7804C647.411 22.6378 613.287 19.4631 579.446 14.2773C555.057 11.1448 535.814 8.6628 526.743 8.6628V8.65929C500.248 10.6667 473.896 14.2105 447.814 19.2658C424.104 23.7868 400.173 27.088 376.127 29.1586H228.464V14.0377C228.464 10.3146 226.984 6.74272 224.35 4.10977C221.721 1.47655 218.149 0 214.426 0H14.0412C10.3146 0 6.74622 1.47655 4.11327 4.10977C1.48005 6.74299 0 10.3148 0 14.0377V347.803C0 351.529 1.48005 355.098 4.11327 357.731C6.74649 360.364 10.3148 361.844 14.0412 361.844H214.399H214.396C218.122 361.844 221.691 360.364 224.324 357.731C226.957 355.097 228.437 351.529 228.437 347.803V337.003C229.02 337.041 229.604 337.041 230.188 337.003C259.456 330.07 278.939 343.373 320.35 374.177C340.203 388.275 364.116 395.496 388.454 394.74C430.695 392.424 471.848 380.477 508.766 359.812C525.916 350.83 544.597 345.145 563.845 343.053C572.743 341.26 583.287 339.123 595.792 336.423C658.131 323.053 654.113 265.144 652.45 243.219C652.256 240.477 652.084 238.163 652.084 236.392C652.084 228.271 647.289 222.568 637.505 217.794L658.588 140.036L663.144 139.776C679.064 138.848 702.586 137.81 728.335 136.664C807.585 133.187 864.847 130.421 879.949 126.663H879.942C893.101 124.588 904.973 117.574 913.14 107.053C921.307 96.5307 925.157 83.2907 923.898 70.0256C922.566 58.5119 916.955 47.9198 908.176 40.3499C899.398 32.7772 888.095 28.7831 876.507 29.1593L876.505 29.1593ZM200.425 333.719H28.1021V28.0613H200.389L200.425 333.719ZM610.825 209.132C597.67 205.979 581.448 202.825 560.973 199.046C550.82 197.165 539.113 194.964 528.724 192.802C526.176 192.155 519.221 190.384 510.366 188.07L510.363 188.074C515.053 175.494 523.398 164.6 534.325 156.799C545.252 148.998 558.263 144.642 571.686 144.293C588.533 143.601 608.407 142.715 629.12 141.657L610.825 209.132ZM873.175 99.4493C859.654 102.817 783.058 106.21 727.132 108.671C701.211 109.817 677.453 110.829 661.534 111.803C629.134 113.705 596.343 115.196 570.535 116.254L570.538 116.257C551.174 116.852 532.454 123.345 516.879 134.866C501.305 146.39 489.616 162.39 483.382 180.731C476.752 178.829 470.832 177.015 466.922 175.612C456.488 171.485 446.549 166.204 437.285 159.866C434.237 157.728 430.465 156.884 426.798 157.528C423.132 158.171 419.869 160.242 417.728 163.29C415.587 166.338 414.747 170.11 415.39 173.78C416.03 177.447 418.104 180.709 421.152 182.85C432.462 190.613 444.633 197.05 457.42 202.028C466.061 205.14 482.324 209.675 496.58 213.496V213.5C505.317 216.453 514.254 218.777 523.32 220.454C532.499 222.356 543.106 224.342 555.892 226.697C579.036 230.273 601.894 235.483 624.299 242.293C624.299 243.221 624.43 244.216 624.514 245.253C626.5 273.332 625.463 301.411 589.956 309.016C577.514 311.695 567.125 313.811 558.332 315.495C535.938 318.097 514.243 324.953 494.418 335.692C473.552 348.222 385.707 387.534 336.936 351.287C297.906 322.255 269.285 301.306 228.549 308.801L228.553 57.2691H376.171C401.767 55.2863 427.231 51.8481 452.438 46.9686C477.03 42.2964 501.847 38.8862 526.786 36.7518C534.067 36.7518 554.391 39.3639 575.903 42.1307V42.1272C611.189 47.5553 646.774 50.7932 682.454 51.8265C702.887 51.5031 770.172 53.6828 819.272 55.4336C847.351 56.4285 870.161 57.2476 876.577 57.2476C881.291 56.9206 885.949 58.4288 889.574 61.4628C893.198 64.4968 895.508 68.814 896.014 73.5147C897.16 83.0178 891.76 94.8123 873.12 99.4779L873.175 99.4493Z" fill="white"/>
<path d="M876.505 29.1593C870.198 29.1593 847.821 28.3613 820.196 27.3874C767.988 25.5066 703.061 23.2179 681.632 23.7804C647.411 22.6378 613.287 19.4631 579.446 14.2773C555.057 11.1448 535.814 8.6628 526.743 8.6628V8.65929C500.248 10.6667 473.896 14.2105 447.814 19.2658C424.104 23.7868 400.173 27.088 376.127 29.1586H228.464V14.0377C228.464 10.3146 226.984 6.74272 224.35 4.10977C221.721 1.47655 218.149 0 214.426 0H14.0412C10.3146 0 6.74622 1.47655 4.11327 4.10977C1.48005 6.74299 0 10.3148 0 14.0377V347.803C0 351.529 1.48005 355.098 4.11327 357.731C6.74649 360.364 10.3148 361.844 14.0412 361.844H214.399H214.396C218.122 361.844 221.691 360.364 224.324 357.731C226.957 355.097 228.437 351.529 228.437 347.803V337.003C229.02 337.041 229.604 337.041 230.188 337.003C259.456 330.07 278.939 343.373 320.35 374.177C340.203 388.275 364.116 395.496 388.454 394.74C430.695 392.424 471.848 380.477 508.766 359.812C525.916 350.83 544.597 345.145 563.845 343.053C572.743 341.26 583.287 339.123 595.792 336.423C658.131 323.053 654.113 265.144 652.45 243.219C652.256 240.477 652.084 238.163 652.084 236.392C652.084 228.271 647.289 222.568 637.505 217.794L658.588 140.036L663.144 139.776C679.064 138.848 702.586 137.81 728.335 136.664C807.585 133.187 864.847 130.421 879.949 126.663H879.942C893.101 124.588 904.973 117.574 913.14 107.053C921.307 96.5307 925.157 83.2907 923.898 70.0256C922.566 58.5119 916.955 47.9198 908.176 40.3499C899.398 32.7772 888.095 28.7831 876.507 29.1593L876.505 29.1593ZM200.425 333.719H28.1021V28.0613H200.389L200.425 333.719ZM610.825 209.132C597.67 205.979 581.448 202.825 560.973 199.046C550.82 197.165 539.113 194.964 528.724 192.802C526.176 192.155 519.221 190.384 510.366 188.07L510.363 188.074C515.053 175.494 523.398 164.6 534.325 156.799C545.252 148.998 558.263 144.642 571.686 144.293C588.533 143.601 608.407 142.715 629.12 141.657L610.825 209.132ZM873.175 99.4493C859.654 102.817 783.058 106.21 727.132 108.671C701.211 109.817 677.453 110.829 661.534 111.803C629.134 113.705 596.343 115.196 570.535 116.254L570.538 116.257C551.174 116.852 532.454 123.345 516.879 134.866C501.305 146.39 489.616 162.39 483.382 180.731C476.752 178.829 470.832 177.015 466.922 175.612C456.488 171.485 446.549 166.204 437.285 159.866C434.237 157.728 430.465 156.884 426.798 157.528C423.132 158.171 419.869 160.242 417.728 163.29C415.587 166.338 414.747 170.11 415.39 173.78C416.03 177.447 418.104 180.709 421.152 182.85C432.462 190.613 444.633 197.05 457.42 202.028C466.061 205.14 482.324 209.675 496.58 213.496V213.5C505.317 216.453 514.254 218.777 523.32 220.454C532.499 222.356 543.106 224.342 555.892 226.697C579.036 230.273 601.894 235.483 624.299 242.293C624.299 243.221 624.43 244.216 624.514 245.253C626.5 273.332 625.463 301.411 589.956 309.016C577.514 311.695 567.125 313.811 558.332 315.495C535.938 318.097 514.243 324.953 494.418 335.692C473.552 348.222 385.707 387.534 336.936 351.287C297.906 322.255 269.285 301.306 228.549 308.801L228.553 57.2691H376.171C401.767 55.2863 427.231 51.8481 452.438 46.9686C477.03 42.2964 501.847 38.8862 526.786 36.7518C534.067 36.7518 554.391 39.3639 575.903 42.1307V42.1272C611.189 47.5553 646.774 50.7932 682.454 51.8265C702.887 51.5031 770.172 53.6828 819.272 55.4336C847.351 56.4285 870.161 57.2476 876.577 57.2476C881.291 56.9206 885.949 58.4288 889.574 61.4628C893.198 64.4968 895.508 68.814 896.014 73.5147C897.16 83.0178 891.76 94.8123 873.12 99.4779L873.175 99.4493Z" fill="white"/>
<path d="M876.505 29.1593C870.198 29.1593 847.821 28.3613 820.196 27.3874C767.988 25.5066 703.061 23.2179 681.632 23.7804C647.411 22.6378 613.287 19.4631 579.446 14.2773C555.057 11.1448 535.814 8.6628 526.743 8.6628V8.65929C500.248 10.6667 473.896 14.2105 447.814 19.2658C424.104 23.7868 400.173 27.088 376.127 29.1586H228.464V14.0377C228.464 10.3146 226.984 6.74272 224.35 4.10977C221.721 1.47655 218.149 0 214.426 0H14.0412C10.3146 0 6.74622 1.47655 4.11327 4.10977C1.48005 6.74299 0 10.3148 0 14.0377V347.803C0 351.529 1.48005 355.098 4.11327 357.731C6.74649 360.364 10.3148 361.844 14.0412 361.844H214.399H214.396C218.122 361.844 221.691 360.364 224.324 357.731C226.957 355.097 228.437 351.529 228.437 347.803V337.003C229.02 337.041 229.604 337.041 230.188 337.003C259.456 330.07 278.939 343.373 320.35 374.177C340.203 388.275 364.116 395.496 388.454 394.74C430.695 392.424 471.848 380.477 508.766 359.812C525.916 350.83 544.597 345.145 563.845 343.053C572.743 341.26 583.287 339.123 595.792 336.423C658.131 323.053 654.113 265.144 652.45 243.219C652.256 240.477 652.084 238.163 652.084 236.392C652.084 228.271 647.289 222.568 637.505 217.794L658.588 140.036L663.144 139.776C679.064 138.848 702.586 137.81 728.335 136.664C807.585 133.187 864.847 130.421 879.949 126.663H879.942C893.101 124.588 904.973 117.574 913.14 107.053C921.307 96.5307 925.157 83.2907 923.898 70.0256C922.566 58.5119 916.955 47.9198 908.176 40.3499C899.398 32.7772 888.095 28.7831 876.507 29.1593L876.505 29.1593ZM200.425 333.719H28.1021V28.0613H200.389L200.425 333.719ZM610.825 209.132C597.67 205.979 581.448 202.825 560.973 199.046C550.82 197.165 539.113 194.964 528.724 192.802C526.176 192.155 519.221 190.384 510.366 188.07L510.363 188.074C515.053 175.494 523.398 164.6 534.325 156.799C545.252 148.998 558.263 144.642 571.686 144.293C588.533 143.601 608.407 142.715 629.12 141.657L610.825 209.132ZM873.175 99.4493C859.654 102.817 783.058 106.21 727.132 108.671C701.211 109.817 677.453 110.829 661.534 111.803C629.134 113.705 596.343 115.196 570.535 116.254L570.538 116.257C551.174 116.852 532.454 123.345 516.879 134.866C501.305 146.39 489.616 162.39 483.382 180.731C476.752 178.829 470.832 177.015 466.922 175.612C456.488 171.485 446.549 166.204 437.285 159.866C434.237 157.728 430.465 156.884 426.798 157.528C423.132 158.171 419.869 160.242 417.728 163.29C415.587 166.338 414.747 170.11 415.39 173.78C416.03 177.447 418.104 180.709 421.152 182.85C432.462 190.613 444.633 197.05 457.42 202.028C466.061 205.14 482.324 209.675 496.58 213.496V213.5C505.317 216.453 514.254 218.777 523.32 220.454C532.499 222.356 543.106 224.342 555.892 226.697C579.036 230.273 601.894 235.483 624.299 242.293C624.299 243.221 624.43 244.216 624.514 245.253C626.5 273.332 625.463 301.411 589.956 309.016C577.514 311.695 567.125 313.811 558.332 315.495C535.938 318.097 514.243 324.953 494.418 335.692C473.552 348.222 385.707 387.534 336.936 351.287C297.906 322.255 269.285 301.306 228.549 308.801L228.553 57.2691H376.171C401.767 55.2863 427.231 51.8481 452.438 46.9686C477.03 42.2964 501.847 38.8862 526.786 36.7518C534.067 36.7518 554.391 39.3639 575.903 42.1307V42.1272C611.189 47.5553 646.774 50.7932 682.454 51.8265C702.887 51.5031 770.172 53.6828 819.272 55.4336C847.351 56.4285 870.161 57.2476 876.577 57.2476C881.291 56.9206 885.949 58.4288 889.574 61.4628C893.198 64.4968 895.508 68.814 896.014 73.5147C897.16 83.0178 891.76 94.8123 873.12 99.4779L873.175 99.4493Z" fill="white"/>
<path d="M876.505 29.1593C870.198 29.1593 847.821 28.3613 820.196 27.3874C767.988 25.5066 703.061 23.2179 681.632 23.7804C647.411 22.6378 613.287 19.4631 579.446 14.2773C555.057 11.1448 535.814 8.6628 526.743 8.6628V8.65929C500.248 10.6667 473.896 14.2105 447.814 19.2658C424.104 23.7868 400.173 27.088 376.127 29.1586H228.464V14.0377C228.464 10.3146 226.984 6.74272 224.35 4.10977C221.721 1.47655 218.149 0 214.426 0H14.0412C10.3146 0 6.74622 1.47655 4.11327 4.10977C1.48005 6.74299 0 10.3148 0 14.0377V347.803C0 351.529 1.48005 355.098 4.11327 357.731C6.74649 360.364 10.3148 361.844 14.0412 361.844H214.399H214.396C218.122 361.844 221.691 360.364 224.324 357.731C226.957 355.097 228.437 351.529 228.437 347.803V337.003C229.02 337.041 229.604 337.041 230.188 337.003C259.456 330.07 278.939 343.373 320.35 374.177C340.203 388.275 364.116 395.496 388.454 394.74C430.695 392.424 471.848 380.477 508.766 359.812C525.916 350.83 544.597 345.145 563.845 343.053C572.743 341.26 583.287 339.123 595.792 336.423C658.131 323.053 654.113 265.144 652.45 243.219C652.256 240.477 652.084 238.163 652.084 236.392C652.084 228.271 647.289 222.568 637.505 217.794L658.588 140.036L663.144 139.776C679.064 138.848 702.586 137.81 728.335 136.664C807.585 133.187 864.847 130.421 879.949 126.663H879.942C893.101 124.588 904.973 117.574 913.14 107.053C921.307 96.5307 925.157 83.2907 923.898 70.0256C922.566 58.5119 916.955 47.9198 908.176 40.3499C899.398 32.7772 888.095 28.7831 876.507 29.1593L876.505 29.1593ZM200.425 333.719H28.1021V28.0613H200.389L200.425 333.719ZM610.825 209.132C597.67 205.979 581.448 202.825 560.973 199.046C550.82 197.165 539.113 194.964 528.724 192.802C526.176 192.155 519.221 190.384 510.366 188.07L510.363 188.074C515.053 175.494 523.398 164.6 534.325 156.799C545.252 148.998 558.263 144.642 571.686 144.293C588.533 143.601 608.407 142.715 629.12 141.657L610.825 209.132ZM873.175 99.4493C859.654 102.817 783.058 106.21 727.132 108.671C701.211 109.817 677.453 110.829 661.534 111.803C629.134 113.705 596.343 115.196 570.535 116.254L570.538 116.257C551.174 116.852 532.454 123.345 516.879 134.866C501.305 146.39 489.616 162.39 483.382 180.731C476.752 178.829 470.832 177.015 466.922 175.612C456.488 171.485 446.549 166.204 437.285 159.866C434.237 157.728 430.465 156.884 426.798 157.528C423.132 158.171 419.869 160.242 417.728 163.29C415.587 166.338 414.747 170.11 415.39 173.78C416.03 177.447 418.104 180.709 421.152 182.85C432.462 190.613 444.633 197.05 457.42 202.028C466.061 205.14 482.324 209.675 496.58 213.496V213.5C505.317 216.453 514.254 218.777 523.32 220.454C532.499 222.356 543.106 224.342 555.892 226.697C579.036 230.273 601.894 235.483 624.299 242.293C624.299 243.221 624.43 244.216 624.514 245.253C626.5 273.332 625.463 301.411 589.956 309.016C577.514 311.695 567.125 313.811 558.332 315.495C535.938 318.097 514.243 324.953 494.418 335.692C473.552 348.222 385.707 387.534 336.936 351.287C297.906 322.255 269.285 301.306 228.549 308.801L228.553 57.2691H376.171C401.767 55.2863 427.231 51.8481 452.438 46.9686C477.03 42.2964 501.847 38.8862 526.786 36.7518C534.067 36.7518 554.391 39.3639 575.903 42.1307V42.1272C611.189 47.5553 646.774 50.7932 682.454 51.8265C702.887 51.5031 770.172 53.6828 819.272 55.4336C847.351 56.4285 870.161 57.2476 876.577 57.2476C881.291 56.9206 885.949 58.4288 889.574 61.4628C893.198 64.4968 895.508 68.814 896.014 73.5147C897.16 83.0178 891.76 94.8123 873.12 99.4779L873.175 99.4493Z" fill="white"/>
</svg>
