<svg width="19" height="21" viewBox="0 0 19 21" fill="none" xmlns="http://www.w3.org/2000/svg">
<path d="M15.0499 12.285C14.3849 10.4299 12.8099 9.03 10.9199 8.575C11.9699 7.66503 12.5999 6.33497 12.5999 4.9C12.5999 2.20506 10.3949 0 7.69994 0C5.005 0 2.79994 2.20506 2.79994 4.9C2.79994 6.33497 3.43 7.66503 4.48 8.575C1.88997 9.20506 0 11.55 0 14.315V16.415C0 17.0099 0.455058 17.465 1.05 17.465H10.29C10.7451 19.2849 12.39 20.615 14.35 20.615C16.66 20.615 18.55 18.725 18.55 16.415C18.55 14.315 17.0449 12.6 15.05 12.285H15.0499ZM10.1499 16.415C10.1499 16.52 10.1499 16.66 10.1849 16.765H1.04986C0.839884 16.765 0.69986 16.625 0.69986 16.415V14.315C0.69986 11.6201 2.6948 9.38 5.38986 9.1L6.40489 8.99495L5.52989 8.46995C4.2698 7.66501 3.49983 6.33498 3.49983 4.86495C3.49983 2.55498 5.38986 0.664953 7.69983 0.664953C10.0098 0.664953 11.8998 2.55498 11.8998 4.86495C11.8998 6.3349 11.1299 7.66495 9.86977 8.43495L8.99477 8.95995L10.0098 9.065C11.8998 9.27498 13.5098 10.465 14.2448 12.18C11.9698 12.25 10.1498 14.14 10.1498 16.415H10.1499ZM16.4499 16.765H14.6999V18.515C14.6999 18.725 14.5599 18.865 14.3499 18.865C14.1399 18.865 13.9999 18.725 13.9999 18.515V16.765H12.2499C12.0399 16.765 11.8999 16.625 11.8999 16.415C11.8999 16.205 12.0399 16.065 12.2499 16.065H13.9999V14.315C13.9999 14.105 14.1399 13.965 14.3499 13.965C14.5599 13.965 14.6999 14.105 14.6999 14.315V16.065H16.4499C16.6599 16.065 16.7999 16.205 16.7999 16.415C16.7999 16.625 16.6599 16.765 16.4499 16.765Z" fill="white"/>
</svg>
