<svg width="34" height="33" viewBox="0 0 34 33" fill="none" xmlns="http://www.w3.org/2000/svg">
<path d="M3.8147e-06 13.2981C3.8147e-06 5.95417 7.61925 0 17 0C26.3808 0 34 5.95417 34 13.2981C34 20.642 26.3808 26.5962 17 26.5962H16.6785L7.18589 33L7.787 24.4707C3.10362 22.1136 3.8147e-06 17.9851 3.8147e-06 13.2981ZM19.5164 14.5925H20.7747V15.8187C20.7747 16.4183 21.2779 16.9088 21.8931 16.9088C22.5083 16.9088 23.0115 16.4183 23.0115 15.8187V14.5925H24.2697C24.8849 14.5925 25.3882 14.102 25.3882 13.5025C25.3882 12.9029 24.8849 12.4125 24.2697 12.4125H23.0115V11.1862C23.0115 10.5866 22.5083 10.0962 21.8931 10.0962C21.2779 10.0962 20.7747 10.5866 20.7747 11.1862V12.4125H19.5164C18.9012 12.4125 18.398 12.9029 18.398 13.5025C18.398 14.102 18.9012 14.5925 19.5164 14.5925ZM12.5403 7.52106C11.1983 7.52106 10.0938 8.58378 10.0938 9.90545C10.0938 11.2271 11.1842 12.2898 12.5403 12.2898C13.8964 12.2898 14.9868 11.2271 14.9868 9.90545C14.9868 8.58392 13.8964 7.52106 12.5403 7.52106ZM12.5403 19.1978C12.5403 19.1978 16.4967 19.4838 16.4967 17.2221C16.4967 14.9604 14.7212 13.121 12.5403 13.121C10.3594 13.121 8.58389 14.9604 8.58389 17.2221C8.58389 19.484 12.5403 19.1978 12.5403 19.1978Z" fill="white"/>
</svg>
