<svg width="39" height="51" viewBox="0 0 39 51" fill="none" xmlns="http://www.w3.org/2000/svg">
<path d="M33.294 18.4308H30.8673V11.7431C30.8673 8.62853 29.6301 5.64178 27.4277 3.43958C25.2255 1.23721 22.2385 0 19.1242 0C16.0098 0 13.0228 1.23721 10.8206 3.43958C8.61826 5.64178 7.38105 8.62875 7.38105 11.7431V18.4308H4.95439C3.639 18.4346 2.37891 18.9599 1.45015 19.8912C0.521517 20.8227 0 22.0843 0 23.3997V45.5721C0 46.8873 0.521517 48.1491 1.45015 49.0804C2.37896 50.0119 3.639 50.5371 4.95439 50.5408H33.2944C34.6098 50.5371 35.8699 50.0119 36.7986 49.0804C37.7273 48.1491 38.2488 46.8873 38.2488 45.5721V23.3997C38.2488 22.0843 37.7273 20.8227 36.7986 19.8912C35.8698 18.9599 34.6098 18.4347 33.2944 18.4308H33.294ZM11.194 11.7431C11.194 9.63621 12.031 7.61544 13.5207 6.12538C15.0107 4.63545 17.0314 3.7986 19.1385 3.7986C21.2456 3.7986 23.2663 4.63545 24.7562 6.12538C26.2461 7.61531 27.0832 9.63608 27.0832 11.7431V18.4308H11.1941L11.194 11.7431ZM34.4206 45.5722C34.4245 45.8735 34.3075 46.1637 34.0958 46.3781C33.884 46.5925 33.5952 46.7132 33.294 46.7132H4.95395C4.65265 46.7132 4.36388 46.5925 4.15211 46.3781C3.94035 46.1638 3.82339 45.8735 3.82728 45.5722V23.3998C3.82339 23.0985 3.94035 22.8082 4.15211 22.5937C4.36387 22.3792 4.65265 22.2587 4.95395 22.2587H33.294C33.5953 22.2587 33.884 22.3792 34.0958 22.5937C34.3075 22.8082 34.4245 23.0984 34.4206 23.3998V45.5722Z" fill="#C0C0C0"/>
<path d="M19.1239 26.4187C17.3503 26.4168 15.6803 27.2547 14.6216 28.6778C13.5628 30.1009 13.2402 31.9412 13.7517 33.6395C14.2635 35.3377 15.5487 36.6938 17.2172 37.2954V40.632C17.2155 40.9173 17.2797 41.1991 17.4049 41.4554C17.6077 41.8958 17.972 42.2418 18.4224 42.4216C18.8727 42.6013 19.3751 42.6013 19.8253 42.4216C20.2758 42.2418 20.64 41.8958 20.8428 41.4554C20.9681 41.1991 21.0322 40.9173 21.0305 40.632V37.2954C22.699 36.6938 23.9843 35.3377 24.496 33.6395C25.0076 31.9412 24.6849 30.1009 23.6261 28.6778C22.5675 27.2547 20.8975 26.4168 19.1238 26.4187H19.1239ZM19.1239 33.7997C18.6527 33.7997 18.2009 33.6125 17.8676 33.2793C17.5345 32.946 17.3473 32.4943 17.3473 32.023C17.3473 31.5518 17.5345 31.1 17.8676 30.7667C18.2009 30.4336 18.6527 30.2463 19.1239 30.2463C19.5952 30.2463 20.047 30.4336 20.3803 30.7667C20.7134 31.1 20.9006 31.5518 20.9006 32.023C20.9006 32.4943 20.7134 32.946 20.3803 33.2793C20.047 33.6125 19.5952 33.7997 19.1239 33.7997Z" fill="#C0C0C0"/>
</svg>
