<svg width="275" height="271" viewBox="0 0 275 271" fill="none" xmlns="http://www.w3.org/2000/svg">
<rect width="275" height="271" fill="#474747"/>
<path d="M241.713 150.081C239.373 143.721 235.323 138.151 232.323 132.081C229.323 126.011 227.383 118.881 229.623 112.491C230.373 110.331 231.583 108.331 232.043 106.091C232.503 103.851 231.953 101.161 229.973 100.031C227.693 98.711 224.823 100.061 222.673 101.581C210.203 110.411 203.543 125.351 199.703 140.131C196.403 130.081 191.803 120.251 184.643 112.471C177.483 104.681 167.493 99.091 156.913 98.871C146.333 98.641 135.433 104.511 131.253 114.231C130.993 110.221 130.223 106.131 128.053 102.751C125.883 99.371 122.103 96.811 118.083 97.011C114.073 97.201 110.253 100.761 110.563 104.761C109.283 104.711 108.003 105.321 107.233 106.341C105.663 102.821 103.003 99.791 99.7034 97.781C98.7134 97.181 97.3034 96.711 96.5034 97.541C96.0034 98.061 95.9734 98.851 95.9234 99.561C95.6334 103.271 92.2034 110.271 87.7934 110.321C87.7734 108.411 87.4534 106.331 86.5534 104.601C85.9234 103.391 85.0134 102.401 83.8934 101.611C80.8534 99.431 76.7934 98.941 73.1634 98.871C64.1534 98.691 53.3634 104.751 53.5434 115.001C53.6334 120.321 57.8734 125.301 61.0634 129.261C69.8734 140.231 72.3234 144.001 72.3434 144.021C76.1034 149.791 76.3634 155.961 70.8034 160.911C68.6434 162.841 65.5934 163.941 62.7734 163.271C60.6934 162.771 58.9034 161.371 57.7034 159.591C54.9134 155.441 55.7334 151.751 58.3634 147.801C59.5234 146.071 60.9134 144.521 62.3234 143.001C62.6534 142.651 64.7034 139.461 65.0034 139.461C65.0034 139.461 67.8134 136.471 62.9134 136.541C58.0234 136.611 53.1834 140.531 53.1734 140.541C50.0334 143.091 45.7834 145.601 43.9034 149.351C41.2534 154.681 44.8734 162.081 49.0734 165.431C54.1634 169.491 61.1734 170.461 67.6034 169.501C74.0434 168.531 80.0634 165.831 85.9934 163.151C93.6234 168.951 103.883 170.421 113.373 169.041C122.863 167.651 131.763 163.701 140.373 159.491C140.783 159.291 146.573 163.371 147.393 163.781C149.943 165.071 152.603 166.151 155.333 167.001C160.453 168.601 165.353 169.191 170.643 168.871C176.153 168.531 181.353 168.321 186.463 165.881C191.503 163.481 195.863 159.621 198.673 154.781C198.823 158.561 200.843 162.221 203.953 164.371C206.183 165.911 208.943 166.661 211.643 166.521C212.843 166.461 215.073 166.191 215.213 164.761C215.333 163.551 213.513 160.841 213.123 159.571C211.973 155.851 211.523 151.901 211.813 148.021C215.273 146.941 218.733 145.851 222.183 144.771C225.733 147.111 226.273 152.001 226.583 156.251C226.893 160.491 227.793 165.431 231.603 167.331C235.453 169.261 240.413 166.601 242.183 162.671C243.943 158.741 243.213 154.131 241.723 150.081H241.713ZM77.9934 132.391C75.8234 130.071 73.5934 127.821 71.3134 125.621C67.5834 122.031 63.8234 116.521 66.1634 111.131C67.2134 108.721 69.4234 106.851 71.9734 106.211C73.2334 105.901 74.6434 105.901 75.7534 106.581C77.4334 107.611 77.8934 109.851 77.7934 111.811C77.6734 114.061 77.0034 116.281 75.8534 118.221C74.7734 120.041 73.2234 121.971 73.7934 124.011C74.1034 125.121 75.0334 125.981 76.1134 126.371C77.1934 126.761 78.3934 126.711 79.4934 126.411C81.0834 125.991 82.4934 125.071 83.8734 124.181C90.9334 119.611 97.9934 115.031 105.043 110.451C105.043 110.461 105.043 110.471 105.043 110.481C101.563 123.201 97.9534 136.221 90.2734 146.941C86.4334 141.891 82.3334 137.041 78.0034 132.411L77.9934 132.391ZM124.263 152.291C123.843 153.861 122.883 155.241 121.663 156.341C121.253 156.711 120.823 157.051 120.373 157.361C117.213 159.541 113.863 160.321 110.213 161.161C107.333 161.831 103.833 161.691 101.973 159.001C101.163 157.821 100.853 156.331 100.963 154.911C101.223 151.411 103.753 148.561 105.763 145.681C109.653 140.091 111.903 133.481 113.093 126.771C117.033 132.291 120.533 138.161 123.073 144.451C124.083 146.941 124.953 149.691 124.263 152.291ZM149.573 150.221C149.573 149.631 147.253 148.351 146.963 147.501C146.713 146.761 146.653 145.961 146.403 145.211C146.123 144.371 145.533 144.071 145.033 143.431C144.563 142.821 144.303 142.021 143.933 141.351C142.853 139.421 141.823 137.451 140.813 135.491C139.843 133.601 138.873 131.701 137.923 129.801C137.593 129.151 137.233 128.501 136.943 127.831C136.423 126.641 137.203 126.311 137.943 125.531C138.863 124.561 139.693 123.251 139.663 121.861C139.583 119.191 147.653 107.771 149.743 108.121C149.743 108.121 149.573 150.181 149.573 150.231V150.221ZM183.293 132.731C183.293 132.731 183.233 132.751 183.203 132.761C176.873 135.411 175.823 138.591 171.893 144.211C170.043 146.851 168.463 150.181 170.853 153.291C171.243 153.801 171.723 154.251 172.253 154.621C174.763 156.371 179.513 155.681 180.123 156.411C180.153 156.441 180.323 156.661 180.603 156.921C180.723 157.031 180.873 157.171 181.073 157.301C181.253 157.421 181.563 157.581 182.013 157.671C179.743 160.421 176.443 162.291 172.913 162.821C169.393 163.351 165.683 162.521 162.703 160.561C162.723 160.191 162.763 159.831 162.783 159.471C163.463 150.401 163.823 141.301 163.883 132.191C163.913 127.641 163.863 123.091 163.743 118.541C163.683 116.451 163.553 114.331 163.633 112.251C163.633 112.111 163.693 111.531 163.733 110.871C163.783 109.981 164.783 109.471 165.523 109.971C169.173 112.451 172.593 115.471 175.413 118.821C177.153 120.901 178.703 123.131 180.043 125.491C180.363 126.071 183.603 132.571 183.283 132.701L183.293 132.731ZM214.723 138.281C214.223 138.361 213.803 137.891 213.943 137.401L215.823 130.851C215.883 130.631 216.193 130.621 216.273 130.831L218.793 137.651L214.723 138.281Z" fill="#58595B" stroke="#2D2D2D" stroke-width="2" stroke-miterlimit="10"/>
<path d="M148.25 15L150.41 8H151.89L154.05 15H153.18L152.64 13.23H149.66L149.12 15H148.25ZM149.87 12.47H152.42L151.22 8.51H151.08L149.87 12.47ZM159.86 15.14C159.354 15.14 158.9 15.05 158.5 14.87C158.1 14.69 157.784 14.42 157.55 14.06C157.324 13.6933 157.21 13.2367 157.21 12.69V12.48H158.04V12.69C158.04 13.27 158.21 13.7033 158.55 13.99C158.89 14.27 159.327 14.41 159.86 14.41C160.407 14.41 160.824 14.2867 161.11 14.04C161.397 13.7933 161.54 13.4833 161.54 13.11C161.54 12.85 161.474 12.6433 161.34 12.49C161.214 12.3367 161.034 12.2133 160.8 12.12C160.567 12.02 160.294 11.9333 159.98 11.86L159.46 11.73C159.054 11.6233 158.694 11.4933 158.38 11.34C158.067 11.1867 157.82 10.9867 157.64 10.74C157.467 10.4867 157.38 10.1633 157.38 9.77C157.38 9.37667 157.477 9.03667 157.67 8.75C157.87 8.46333 158.147 8.24333 158.5 8.09C158.86 7.93667 159.274 7.86 159.74 7.86C160.214 7.86 160.637 7.94333 161.01 8.11C161.39 8.27 161.687 8.51 161.9 8.83C162.12 9.14333 162.23 9.54 162.23 10.02V10.44H161.4V10.02C161.4 9.68 161.327 9.40667 161.18 9.2C161.04 8.99333 160.844 8.84 160.59 8.74C160.344 8.64 160.06 8.59 159.74 8.59C159.28 8.59 158.91 8.69333 158.63 8.9C158.35 9.1 158.21 9.38667 158.21 9.76C158.21 10.0067 158.27 10.2067 158.39 10.36C158.51 10.5133 158.68 10.64 158.9 10.74C159.12 10.8333 159.384 10.9167 159.69 10.99L160.21 11.12C160.617 11.2067 160.98 11.3267 161.3 11.48C161.627 11.6267 161.887 11.83 162.08 12.09C162.274 12.3433 162.37 12.6767 162.37 13.09C162.37 13.5033 162.267 13.8633 162.06 14.17C161.854 14.4767 161.56 14.7167 161.18 14.89C160.807 15.0567 160.367 15.14 159.86 15.14ZM165.953 15.14C165.46 15.14 165.023 15.0367 164.643 14.83C164.27 14.6233 163.977 14.3333 163.763 13.96C163.557 13.58 163.453 13.1333 163.453 12.62V12.49C163.453 11.9833 163.557 11.54 163.763 11.16C163.977 10.78 164.27 10.4867 164.643 10.28C165.023 10.0733 165.46 9.97 165.953 9.97C166.447 9.97 166.88 10.0733 167.253 10.28C167.633 10.4867 167.927 10.78 168.133 11.16C168.347 11.54 168.453 11.9833 168.453 12.49V12.62C168.453 13.1333 168.347 13.58 168.133 13.96C167.927 14.3333 167.633 14.6233 167.253 14.83C166.88 15.0367 166.447 15.14 165.953 15.14ZM165.953 14.43C166.473 14.43 166.887 14.2667 167.193 13.94C167.507 13.6067 167.663 13.16 167.663 12.6V12.51C167.663 11.95 167.507 11.5067 167.193 11.18C166.887 10.8467 166.473 10.68 165.953 10.68C165.44 10.68 165.027 10.8467 164.713 11.18C164.4 11.5067 164.243 11.95 164.243 12.51V12.6C164.243 13.16 164.4 13.6067 164.713 13.94C165.027 14.2667 165.44 14.43 165.953 14.43ZM171.945 15.14C171.525 15.14 171.138 15.04 170.785 14.84C170.432 14.64 170.152 14.35 169.945 13.97C169.738 13.59 169.635 13.14 169.635 12.62V12.49C169.635 11.97 169.738 11.5233 169.945 11.15C170.152 10.77 170.428 10.48 170.775 10.28C171.128 10.0733 171.518 9.97 171.945 9.97C172.285 9.97 172.572 10.0167 172.805 10.11C173.045 10.1967 173.238 10.31 173.385 10.45C173.532 10.5833 173.645 10.7267 173.725 10.88H173.865V8H174.655V15H173.885V14.19H173.745C173.612 14.4367 173.405 14.6567 173.125 14.85C172.845 15.0433 172.452 15.14 171.945 15.14ZM172.155 14.44C172.662 14.44 173.072 14.28 173.385 13.96C173.705 13.6333 173.865 13.18 173.865 12.6V12.51C173.865 11.93 173.705 11.48 173.385 11.16C173.072 10.8333 172.662 10.67 172.155 10.67C171.655 10.67 171.242 10.8333 170.915 11.16C170.595 11.48 170.435 11.93 170.435 12.51V12.6C170.435 13.18 170.595 13.6333 170.915 13.96C171.242 14.28 171.655 14.44 172.155 14.44ZM177.81 15.14C177.47 15.14 177.16 15.08 176.88 14.96C176.6 14.84 176.38 14.6667 176.22 14.44C176.06 14.2133 175.98 13.9367 175.98 13.61C175.98 13.2767 176.06 13.0033 176.22 12.79C176.38 12.57 176.6 12.4067 176.88 12.3C177.16 12.1867 177.474 12.13 177.82 12.13H179.47V11.77C179.47 11.4233 179.367 11.15 179.16 10.95C178.96 10.75 178.66 10.65 178.26 10.65C177.867 10.65 177.56 10.7467 177.34 10.94C177.12 11.1267 176.97 11.38 176.89 11.7L176.15 11.46C176.23 11.1867 176.357 10.94 176.53 10.72C176.704 10.4933 176.934 10.3133 177.22 10.18C177.514 10.04 177.864 9.97 178.27 9.97C178.897 9.97 179.384 10.1333 179.73 10.46C180.077 10.78 180.25 11.2333 180.25 11.82V14.03C180.25 14.23 180.344 14.33 180.53 14.33H180.98V15H180.29C180.07 15 179.894 14.94 179.76 14.82C179.627 14.6933 179.56 14.5267 179.56 14.32V14.27H179.44C179.367 14.3967 179.267 14.53 179.14 14.67C179.02 14.8033 178.854 14.9133 178.64 15C178.427 15.0933 178.15 15.14 177.81 15.14ZM177.9 14.46C178.367 14.46 178.744 14.3233 179.03 14.05C179.324 13.77 179.47 13.38 179.47 12.88V12.77H177.85C177.537 12.77 177.277 12.84 177.07 12.98C176.87 13.1133 176.77 13.3167 176.77 13.59C176.77 13.8633 176.874 14.0767 177.08 14.23C177.294 14.3833 177.567 14.46 177.9 14.46ZM184.601 15V8H185.441V11.11H188.721V8H189.561V15H188.721V11.87H185.441V15H184.601ZM192.693 15.14C192.353 15.14 192.043 15.08 191.763 14.96C191.483 14.84 191.263 14.6667 191.103 14.44C190.943 14.2133 190.863 13.9367 190.863 13.61C190.863 13.2767 190.943 13.0033 191.103 12.79C191.263 12.57 191.483 12.4067 191.763 12.3C192.043 12.1867 192.357 12.13 192.703 12.13H194.353V11.77C194.353 11.4233 194.25 11.15 194.043 10.95C193.843 10.75 193.543 10.65 193.143 10.65C192.75 10.65 192.443 10.7467 192.223 10.94C192.003 11.1267 191.853 11.38 191.773 11.7L191.033 11.46C191.113 11.1867 191.24 10.94 191.413 10.72C191.587 10.4933 191.817 10.3133 192.103 10.18C192.397 10.04 192.747 9.97 193.153 9.97C193.78 9.97 194.267 10.1333 194.613 10.46C194.96 10.78 195.133 11.2333 195.133 11.82V14.03C195.133 14.23 195.227 14.33 195.413 14.33H195.863V15H195.173C194.953 15 194.777 14.94 194.643 14.82C194.51 14.6933 194.443 14.5267 194.443 14.32V14.27H194.323C194.25 14.3967 194.15 14.53 194.023 14.67C193.903 14.8033 193.737 14.9133 193.523 15C193.31 15.0933 193.033 15.14 192.693 15.14ZM192.783 14.46C193.25 14.46 193.627 14.3233 193.913 14.05C194.207 13.77 194.353 13.38 194.353 12.88V12.77H192.733C192.42 12.77 192.16 12.84 191.953 12.98C191.753 13.1133 191.653 13.3167 191.653 13.59C191.653 13.8633 191.757 14.0767 191.963 14.23C192.177 14.3833 192.45 14.46 192.783 14.46ZM199.655 15.14C199.149 15.14 198.752 15.0433 198.465 14.85C198.185 14.6567 197.982 14.4367 197.855 14.19H197.715V15H196.945V8H197.735V10.88H197.875C197.955 10.7267 198.069 10.5833 198.215 10.45C198.362 10.31 198.552 10.1967 198.785 10.11C199.025 10.0167 199.315 9.97 199.655 9.97C200.082 9.97 200.469 10.0733 200.815 10.28C201.169 10.48 201.449 10.77 201.655 11.15C201.862 11.5233 201.965 11.97 201.965 12.49V12.62C201.965 13.14 201.859 13.59 201.645 13.97C201.439 14.35 201.159 14.64 200.805 14.84C200.459 15.04 200.075 15.14 199.655 15.14ZM199.445 14.44C199.952 14.44 200.362 14.28 200.675 13.96C200.995 13.6333 201.155 13.18 201.155 12.6V12.51C201.155 11.93 200.995 11.48 200.675 11.16C200.362 10.8333 199.952 10.67 199.445 10.67C198.945 10.67 198.532 10.8333 198.205 11.16C197.885 11.48 197.725 11.93 197.725 12.51V12.6C197.725 13.18 197.885 13.6333 198.205 13.96C198.532 14.28 198.945 14.44 199.445 14.44ZM203.381 15V10.11H204.171V15H203.381ZM203.781 9.35C203.607 9.35 203.461 9.29333 203.341 9.18C203.227 9.06667 203.171 8.92333 203.171 8.75C203.171 8.57 203.227 8.42333 203.341 8.31C203.461 8.19667 203.607 8.14 203.781 8.14C203.954 8.14 204.097 8.19667 204.211 8.31C204.324 8.42333 204.381 8.57 204.381 8.75C204.381 8.92333 204.324 9.06667 204.211 9.18C204.097 9.29333 203.954 9.35 203.781 9.35ZM207.632 15C207.352 15 207.135 14.9233 206.982 14.77C206.835 14.6167 206.762 14.4067 206.762 14.14V10.8H205.292V10.11H206.762V8.37H207.552V10.11H209.152V10.8H207.552V14.02C207.552 14.22 207.649 14.32 207.842 14.32H208.932V15H207.632ZM212.402 15.14C211.795 15.14 211.282 15 210.862 14.72C210.448 14.44 210.198 13.9967 210.112 13.39L210.862 13.22C210.915 13.54 211.015 13.7933 211.162 13.98C211.308 14.16 211.488 14.29 211.702 14.37C211.922 14.4433 212.155 14.48 212.402 14.48C212.768 14.48 213.058 14.4067 213.272 14.26C213.485 14.1133 213.592 13.9167 213.592 13.67C213.592 13.4167 213.488 13.24 213.282 13.14C213.082 13.0333 212.805 12.9467 212.452 12.88L212.042 12.81C211.728 12.7567 211.442 12.6733 211.182 12.56C210.922 12.4467 210.715 12.2933 210.562 12.1C210.408 11.9067 210.332 11.6633 210.332 11.37C210.332 10.93 210.502 10.5867 210.842 10.34C211.182 10.0933 211.632 9.97 212.192 9.97C212.745 9.97 213.192 10.0967 213.532 10.35C213.878 10.5967 214.102 10.9467 214.202 11.4L213.462 11.59C213.402 11.2367 213.258 10.99 213.032 10.85C212.805 10.7033 212.525 10.63 212.192 10.63C211.858 10.63 211.595 10.6933 211.402 10.82C211.208 10.94 211.112 11.12 211.112 11.36C211.112 11.5933 211.202 11.7667 211.382 11.88C211.568 11.9867 211.815 12.0667 212.122 12.12L212.532 12.19C212.878 12.25 213.188 12.3333 213.462 12.44C213.742 12.54 213.962 12.6867 214.122 12.88C214.288 13.0733 214.372 13.3267 214.372 13.64C214.372 14.12 214.192 14.49 213.832 14.75C213.478 15.01 213.002 15.14 212.402 15.14ZM217.535 12.02C217.135 12.02 216.775 11.9333 216.455 11.76C216.142 11.58 215.892 11.3333 215.705 11.02C215.525 10.7067 215.435 10.3467 215.435 9.94C215.435 9.53333 215.525 9.17333 215.705 8.86C215.892 8.54667 216.142 8.30333 216.455 8.13C216.775 7.95 217.135 7.86 217.535 7.86C217.935 7.86 218.292 7.95 218.605 8.13C218.925 8.30333 219.175 8.54667 219.355 8.86C219.542 9.17333 219.635 9.53333 219.635 9.94C219.635 10.3467 219.542 10.7067 219.355 11.02C219.175 11.3333 218.925 11.58 218.605 11.76C218.292 11.9333 217.935 12.02 217.535 12.02ZM217.535 11.63C218.042 11.63 218.448 11.4767 218.755 11.17C219.068 10.8567 219.225 10.4467 219.225 9.94C219.225 9.43333 219.068 9.02667 218.755 8.72C218.448 8.40667 218.042 8.25 217.535 8.25C217.028 8.25 216.618 8.40667 216.305 8.72C215.998 9.02667 215.845 9.43333 215.845 9.94C215.845 10.4467 215.998 10.8567 216.305 11.17C216.618 11.4767 217.028 11.63 217.535 11.63ZM216.815 11.03V8.81H217.665C217.912 8.81 218.098 8.87333 218.225 9C218.352 9.12 218.415 9.26 218.415 9.42C218.415 9.55333 218.382 9.66667 218.315 9.76C218.255 9.85333 218.155 9.92667 218.015 9.98V10.06C218.128 10.0667 218.208 10.1033 218.255 10.17C218.308 10.2367 218.335 10.3167 218.335 10.41V11.03H217.945V10.42C217.945 10.28 217.875 10.21 217.735 10.21H217.205V11.03H216.815ZM217.205 9.85H217.675C217.788 9.85 217.875 9.81667 217.935 9.75C217.995 9.67667 218.025 9.59333 218.025 9.5C218.025 9.40667 217.995 9.32667 217.935 9.26C217.875 9.19333 217.788 9.16 217.675 9.16H217.205V9.85ZM225.836 15.14C225.363 15.14 224.936 15.04 224.556 14.84C224.183 14.6333 223.886 14.34 223.666 13.96C223.453 13.58 223.346 13.13 223.346 12.61V12.5C223.346 11.9733 223.453 11.5233 223.666 11.15C223.886 10.77 224.183 10.48 224.556 10.28C224.936 10.0733 225.363 9.97 225.836 9.97C226.303 9.97 226.699 10.0567 227.026 10.23C227.359 10.4033 227.619 10.6333 227.806 10.92C227.999 11.2067 228.123 11.5133 228.176 11.84L227.406 12C227.373 11.76 227.293 11.54 227.166 11.34C227.046 11.14 226.876 10.98 226.656 10.86C226.436 10.74 226.166 10.68 225.846 10.68C225.519 10.68 225.226 10.7533 224.966 10.9C224.713 11.0467 224.509 11.2567 224.356 11.53C224.209 11.8033 224.136 12.13 224.136 12.51V12.6C224.136 12.98 224.209 13.3067 224.356 13.58C224.509 13.8533 224.713 14.0633 224.966 14.21C225.226 14.3567 225.519 14.43 225.846 14.43C226.333 14.43 226.703 14.3033 226.956 14.05C227.216 13.7967 227.376 13.4833 227.436 13.11L228.216 13.28C228.143 13.6 228.009 13.9033 227.816 14.19C227.623 14.4767 227.359 14.7067 227.026 14.88C226.699 15.0533 226.303 15.14 225.836 15.14ZM231.822 15.14C231.329 15.14 230.892 15.0367 230.512 14.83C230.139 14.6233 229.846 14.3333 229.632 13.96C229.426 13.58 229.322 13.1333 229.322 12.62V12.49C229.322 11.9833 229.426 11.54 229.632 11.16C229.846 10.78 230.139 10.4867 230.512 10.28C230.892 10.0733 231.329 9.97 231.822 9.97C232.316 9.97 232.749 10.0733 233.122 10.28C233.502 10.4867 233.796 10.78 234.002 11.16C234.216 11.54 234.322 11.9833 234.322 12.49V12.62C234.322 13.1333 234.216 13.58 234.002 13.96C233.796 14.3333 233.502 14.6233 233.122 14.83C232.749 15.0367 232.316 15.14 231.822 15.14ZM231.822 14.43C232.342 14.43 232.756 14.2667 233.062 13.94C233.376 13.6067 233.532 13.16 233.532 12.6V12.51C233.532 11.95 233.376 11.5067 233.062 11.18C232.756 10.8467 232.342 10.68 231.822 10.68C231.309 10.68 230.896 10.8467 230.582 11.18C230.269 11.5067 230.112 11.95 230.112 12.51V12.6C230.112 13.16 230.269 13.6067 230.582 13.94C230.896 14.2667 231.309 14.43 231.822 14.43ZM235.744 15V10.11H236.514V10.72H236.654C236.747 10.5467 236.901 10.3867 237.114 10.24C237.327 10.0933 237.627 10.02 238.014 10.02C238.394 10.02 238.701 10.1033 238.934 10.27C239.174 10.4367 239.347 10.64 239.454 10.88H239.594C239.707 10.64 239.877 10.4367 240.104 10.27C240.337 10.1033 240.661 10.02 241.074 10.02C241.401 10.02 241.687 10.0867 241.934 10.22C242.181 10.3533 242.374 10.5467 242.514 10.8C242.661 11.0467 242.734 11.3433 242.734 11.69V15H241.944V11.76C241.944 11.4333 241.847 11.1767 241.654 10.99C241.467 10.7967 241.204 10.7 240.864 10.7C240.504 10.7 240.207 10.8167 239.974 11.05C239.747 11.2833 239.634 11.62 239.634 12.06V15H238.844V11.76C238.844 11.4333 238.747 11.1767 238.554 10.99C238.367 10.7967 238.104 10.7 237.764 10.7C237.404 10.7 237.107 10.8167 236.874 11.05C236.647 11.2833 236.534 11.62 236.534 12.06V15H235.744ZM244.348 17V10.11H245.118V10.92H245.258C245.384 10.6733 245.588 10.4533 245.868 10.26C246.154 10.0667 246.551 9.97 247.058 9.97C247.478 9.97 247.861 10.0733 248.208 10.28C248.561 10.48 248.841 10.7667 249.048 11.14C249.261 11.5133 249.368 11.9633 249.368 12.49V12.62C249.368 13.14 249.264 13.59 249.058 13.97C248.851 14.35 248.571 14.64 248.218 14.84C247.871 15.04 247.484 15.14 247.058 15.14C246.718 15.14 246.428 15.0933 246.188 15C245.954 14.9133 245.764 14.8 245.618 14.66C245.471 14.52 245.358 14.3767 245.278 14.23H245.138V17H244.348ZM246.848 14.44C247.354 14.44 247.764 14.28 248.078 13.96C248.398 13.6333 248.558 13.18 248.558 12.6V12.51C248.558 11.93 248.398 11.48 248.078 11.16C247.764 10.8333 247.354 10.67 246.848 10.67C246.348 10.67 245.934 10.8333 245.608 11.16C245.288 11.48 245.128 11.93 245.128 12.51V12.6C245.128 13.18 245.288 13.6333 245.608 13.96C245.934 14.28 246.348 14.44 246.848 14.44ZM252.283 15.14C251.943 15.14 251.633 15.08 251.353 14.96C251.073 14.84 250.853 14.6667 250.693 14.44C250.533 14.2133 250.453 13.9367 250.453 13.61C250.453 13.2767 250.533 13.0033 250.693 12.79C250.853 12.57 251.073 12.4067 251.353 12.3C251.633 12.1867 251.946 12.13 252.293 12.13H253.943V11.77C253.943 11.4233 253.84 11.15 253.633 10.95C253.433 10.75 253.133 10.65 252.733 10.65C252.34 10.65 252.033 10.7467 251.813 10.94C251.593 11.1267 251.443 11.38 251.363 11.7L250.623 11.46C250.703 11.1867 250.83 10.94 251.003 10.72C251.176 10.4933 251.406 10.3133 251.693 10.18C251.986 10.04 252.336 9.97 252.743 9.97C253.37 9.97 253.856 10.1333 254.203 10.46C254.55 10.78 254.723 11.2333 254.723 11.82V14.03C254.723 14.23 254.816 14.33 255.003 14.33H255.453V15H254.763C254.543 15 254.366 14.94 254.233 14.82C254.1 14.6933 254.033 14.5267 254.033 14.32V14.27H253.913C253.84 14.3967 253.74 14.53 253.613 14.67C253.493 14.8033 253.326 14.9133 253.113 15C252.9 15.0933 252.623 15.14 252.283 15.14ZM252.373 14.46C252.84 14.46 253.216 14.3233 253.503 14.05C253.796 13.77 253.943 13.38 253.943 12.88V12.77H252.323C252.01 12.77 251.75 12.84 251.543 12.98C251.343 13.1133 251.243 13.3167 251.243 13.59C251.243 13.8633 251.346 14.0767 251.553 14.23C251.766 14.3833 252.04 14.46 252.373 14.46ZM256.535 15V10.11H257.305V10.94H257.445C257.552 10.7067 257.732 10.4967 257.985 10.31C258.245 10.1167 258.625 10.02 259.125 10.02C259.492 10.02 259.818 10.0967 260.105 10.25C260.398 10.4033 260.632 10.63 260.805 10.93C260.978 11.23 261.065 11.6 261.065 12.04V15H260.275V12.1C260.275 11.6133 260.152 11.26 259.905 11.04C259.665 10.82 259.338 10.71 258.925 10.71C258.452 10.71 258.065 10.8633 257.765 11.17C257.472 11.4767 257.325 11.9333 257.325 12.54V15H256.535ZM263.18 17V16.3H265.98C266.173 16.3 266.27 16.2 266.27 16V14.22H266.13C266.063 14.36 265.96 14.5 265.82 14.64C265.686 14.7733 265.51 14.8833 265.29 14.97C265.07 15.05 264.793 15.09 264.46 15.09C264.106 15.09 263.78 15.0133 263.48 14.86C263.186 14.7067 262.953 14.48 262.78 14.18C262.613 13.88 262.53 13.5133 262.53 13.08V10.11H263.32V13.02C263.32 13.5 263.44 13.85 263.68 14.07C263.926 14.29 264.256 14.4 264.67 14.4C265.136 14.4 265.52 14.2467 265.82 13.94C266.12 13.6333 266.27 13.1767 266.27 12.57V10.11H267.06V16.14C267.06 16.4067 266.983 16.6167 266.83 16.77C266.683 16.9233 266.466 17 266.18 17H263.18Z" fill="#8F8F8F"/>
<path d="M8.242 266.196C7.55133 266.196 6.93067 266.065 6.38 265.804C5.83867 265.543 5.40933 265.165 5.092 264.67C4.784 264.175 4.63 263.578 4.63 262.878V262.612H5.764V262.864C5.764 263.583 5.99267 264.147 6.45 264.558C6.90733 264.969 7.50467 265.174 8.242 265.174C8.98867 265.174 9.56733 264.983 9.978 264.6C10.398 264.208 10.608 263.718 10.608 263.13V263.018C10.608 262.589 10.5053 262.243 10.3 261.982C10.0947 261.711 9.81467 261.515 9.46 261.394C9.11467 261.263 8.732 261.198 8.312 261.198H6.716V259.784L10.454 257.39V257.222H4.868V256.2H11.658V257.782L8.004 260.134V260.302H8.704C9.25467 260.302 9.75867 260.405 10.216 260.61C10.6827 260.806 11.0513 261.105 11.322 261.506C11.602 261.898 11.742 262.393 11.742 262.99V263.144C11.742 263.76 11.5973 264.297 11.308 264.754C11.0187 265.211 10.6127 265.566 10.09 265.818C9.56733 266.07 8.95133 266.196 8.242 266.196ZM16.6912 266.196C16.0006 266.196 15.3799 266.065 14.8292 265.804C14.2879 265.543 13.8586 265.165 13.5412 264.67C13.2332 264.175 13.0792 263.578 13.0792 262.878V262.612H14.2132V262.864C14.2132 263.583 14.4419 264.147 14.8992 264.558C15.3566 264.969 15.9539 265.174 16.6912 265.174C17.4379 265.174 18.0166 264.983 18.4272 264.6C18.8472 264.208 19.0572 263.718 19.0572 263.13V263.018C19.0572 262.589 18.9546 262.243 18.7492 261.982C18.5439 261.711 18.2639 261.515 17.9092 261.394C17.5639 261.263 17.1812 261.198 16.7612 261.198H15.1652V259.784L18.9032 257.39V257.222H13.3172V256.2H20.1072V257.782L16.4532 260.134V260.302H17.1532C17.7039 260.302 18.2079 260.405 18.6652 260.61C19.1319 260.806 19.5006 261.105 19.7712 261.506C20.0512 261.898 20.1912 262.393 20.1912 262.99V263.144C20.1912 263.76 20.0466 264.297 19.7572 264.754C19.4679 265.211 19.0619 265.566 18.5392 265.818C18.0166 266.07 17.4006 266.196 16.6912 266.196ZM25.3784 266.196C24.2678 266.196 23.3811 265.869 22.7184 265.216C22.0651 264.553 21.7384 263.564 21.7384 262.248V259.952C21.7384 258.645 22.0651 257.661 22.7184 256.998C23.3811 256.335 24.2678 256.004 25.3784 256.004C26.4984 256.004 27.3851 256.335 28.0384 256.998C28.7011 257.661 29.0324 258.645 29.0324 259.952V262.248C29.0324 263.564 28.7011 264.553 28.0384 265.216C27.3851 265.869 26.4984 266.196 25.3784 266.196ZM25.3784 265.174C26.2184 265.174 26.8484 264.922 27.2684 264.418C27.6884 263.914 27.8984 263.209 27.8984 262.304V259.882C27.8984 258.977 27.6838 258.277 27.2544 257.782C26.8251 257.278 26.1998 257.026 25.3784 257.026C24.5571 257.026 23.9318 257.278 23.5024 257.782C23.0824 258.286 22.8724 258.986 22.8724 259.882V262.304C22.8724 263.219 23.0824 263.928 23.5024 264.432C23.9224 264.927 24.5478 265.174 25.3784 265.174ZM31.0292 266V259.154H32.1072V260.008H32.3032C32.4339 259.765 32.6485 259.541 32.9472 259.336C33.2459 259.131 33.6659 259.028 34.2072 259.028C34.7392 259.028 35.1685 259.145 35.4952 259.378C35.8312 259.611 36.0739 259.896 36.2232 260.232H36.4192C36.5779 259.896 36.8159 259.611 37.1332 259.378C37.4599 259.145 37.9125 259.028 38.4912 259.028C38.9485 259.028 39.3499 259.121 39.6952 259.308C40.0405 259.495 40.3112 259.765 40.5072 260.12C40.7125 260.465 40.8152 260.881 40.8152 261.366V266H39.7092V261.464C39.7092 261.007 39.5739 260.647 39.3032 260.386C39.0419 260.115 38.6732 259.98 38.1972 259.98C37.6932 259.98 37.2779 260.143 36.9512 260.47C36.6339 260.797 36.4752 261.268 36.4752 261.884V266H35.3692V261.464C35.3692 261.007 35.2339 260.647 34.9632 260.386C34.7019 260.115 34.3332 259.98 33.8572 259.98C33.3532 259.98 32.9379 260.143 32.6112 260.47C32.2939 260.797 32.1352 261.268 32.1352 261.884V266H31.0292ZM43.0741 266V256.2H44.1801V266H43.0741Z" fill="#8F8F8F"/>
</svg>
