<svg width="112" height="112" viewBox="0 0 112 112" fill="none" xmlns="http://www.w3.org/2000/svg">
<rect width="112" height="112" fill="#474747"/>
<path d="M100.071 63.793C99.0222 60.9422 97.2068 58.4455 95.8621 55.7247C94.5174 53.0038 93.6478 49.8079 94.6519 46.9437C94.988 45.9755 95.5304 45.079 95.7366 44.0749C95.9428 43.0709 95.6963 41.8651 94.8087 41.3586C93.7868 40.7669 92.5003 41.372 91.5366 42.0534C85.9471 46.0113 82.9618 52.708 81.2405 59.333C79.7614 54.8282 77.6995 50.422 74.4901 46.9347C71.2807 43.4429 66.8028 40.9373 62.0604 40.8386C57.318 40.7355 52.4322 43.3667 50.5586 47.7236C50.4421 45.9262 50.0969 44.0929 49.1242 42.5778C48.1516 41.0628 46.4572 39.9153 44.6553 40.0049C42.8578 40.0901 41.1456 41.6858 41.2845 43.4788C40.7108 43.4564 40.137 43.7298 39.7919 44.187C39.0882 42.6092 37.8958 41.251 36.4167 40.3501C35.9729 40.0811 35.3409 39.8704 34.9823 40.2425C34.7582 40.4756 34.7447 40.8297 34.7223 41.1479C34.5923 42.8109 33.0549 45.9486 31.0781 45.971C31.0692 45.1148 30.9257 44.1825 30.5223 43.407C30.2399 42.8647 29.832 42.4209 29.33 42.0668C27.9673 41.0897 26.1475 40.87 24.5204 40.8386C20.4818 40.758 15.6453 43.4743 15.7259 48.0687C15.7663 50.4534 17.6668 52.6856 19.0967 54.4606C23.0457 59.3778 24.1439 61.0677 24.1528 61.0766C25.8382 63.663 25.9548 66.4286 23.4625 68.6474C22.4944 69.5125 21.1272 70.0055 19.8632 69.7052C18.9309 69.4811 18.1285 68.8536 17.5906 68.0557C16.34 66.1955 16.7076 64.5415 17.8865 62.771C18.4064 61.9955 19.0295 61.3007 19.6615 60.6194C19.8094 60.4625 20.7283 59.0327 20.8628 59.0327C20.8628 59.0327 22.1223 57.6924 19.9259 57.7238C17.7341 57.7552 15.5646 59.5123 15.5601 59.5168C14.1526 60.6598 12.2476 61.7848 11.4049 63.4657C10.2171 65.8549 11.8397 69.1718 13.7223 70.6734C16.0039 72.4933 19.146 72.9281 22.0282 72.4978C24.9148 72.063 27.6132 70.8527 30.2713 69.6514C33.6914 72.2512 38.2903 72.9101 42.5441 72.2916C46.7979 71.6685 50.7872 69.898 54.6465 68.0109C54.8303 67.9212 57.4256 69.7501 57.7932 69.9338C58.9362 70.5121 60.1285 70.9962 61.3522 71.3772C63.6472 72.0943 65.8435 72.3588 68.2147 72.2154C70.6845 72.063 73.0154 71.9688 75.3059 70.8751C77.565 69.7994 79.5193 68.0692 80.7789 65.8997C80.8461 67.594 81.7515 69.2346 83.1456 70.1983C84.1451 70.8886 85.3823 71.2248 86.5925 71.162C87.1304 71.1351 88.13 71.0141 88.1927 70.3731C88.2465 69.8307 87.4307 68.616 87.2559 68.0467C86.7404 66.3793 86.5387 64.6088 86.6687 62.8696C88.2196 62.3855 89.7705 61.8969 91.317 61.4128C92.9082 62.4617 93.1503 64.6536 93.2892 66.5586C93.4282 68.4591 93.8316 70.6734 95.5394 71.5251C97.2651 72.3902 99.4884 71.1979 100.282 69.4363C101.071 67.6747 100.743 65.6083 100.076 63.793H100.071ZM26.6854 55.8636C25.7127 54.8237 24.7131 53.8152 23.6912 52.829C22.0192 51.2199 20.3338 48.7501 21.3827 46.334C21.8534 45.2538 22.844 44.4156 23.987 44.1287C24.5518 43.9898 25.1838 43.9898 25.6813 44.2946C26.4344 44.7562 26.6406 45.7603 26.5957 46.6389C26.542 47.6474 26.2416 48.6425 25.7262 49.5121C25.2421 50.3279 24.5473 51.193 24.8028 52.1074C24.9417 52.6049 25.3586 52.9904 25.8427 53.1652C26.3268 53.34 26.8647 53.3176 27.3577 53.1831C28.0704 52.9949 28.7025 52.5825 29.321 52.1836C32.4856 50.1351 35.6502 48.0822 38.8103 46.0292C38.8103 46.0337 38.8103 46.0382 38.8103 46.0427C37.2504 51.7443 35.6322 57.5804 32.1898 62.3855C30.4685 60.1219 28.6307 57.9479 26.6899 55.8726L26.6854 55.8636ZM47.4254 64.7836C47.2371 65.4873 46.8068 66.1059 46.26 66.5989C46.0762 66.7648 45.8835 66.9172 45.6818 67.0561C44.2653 68.0333 42.7637 68.3829 41.1276 68.7594C39.8367 69.0598 38.2679 68.997 37.4342 67.7912C37.0711 67.2623 36.9321 66.5945 36.9814 65.958C37.098 64.3891 38.232 63.1116 39.133 61.8207C40.8766 59.315 41.8852 56.3522 42.4186 53.3445C44.1846 55.8188 45.7535 58.4499 46.892 61.2694C47.3447 62.3855 47.7347 63.6181 47.4254 64.7836ZM58.7703 63.8557C58.7703 63.5913 57.7304 63.0175 57.6004 62.6365C57.4884 62.3048 57.4615 61.9462 57.3494 61.61C57.2239 61.2335 56.9594 61.099 56.7353 60.8122C56.5247 60.5387 56.4081 60.1802 56.2423 59.8798C55.7582 59.0147 55.2965 58.1317 54.8438 57.2531C54.409 56.406 53.9742 55.5543 53.5484 54.7027C53.4004 54.4113 53.2391 54.12 53.1091 53.8196C52.876 53.2862 53.2256 53.1383 53.5573 52.7887C53.9697 52.3539 54.3417 51.7667 54.3283 51.1437C54.2924 49.9469 57.9097 44.828 58.8465 44.9848C58.8465 44.9848 58.7703 63.8378 58.7703 63.8602V63.8557ZM73.8849 56.016C73.8849 56.016 73.8581 56.025 73.8446 56.0295C71.0073 57.2173 70.5366 58.6427 68.775 61.1618C67.9458 62.3451 67.2376 63.8378 68.3089 65.2318C68.4837 65.4604 68.6988 65.6621 68.9364 65.828C70.0615 66.6124 72.1906 66.3031 72.464 66.6303C72.4775 66.6438 72.5537 66.7424 72.6792 66.8589C72.733 66.9082 72.8002 66.971 72.8899 67.0292C72.9705 67.083 73.1095 67.1547 73.3112 67.1951C72.2937 68.4277 70.8145 69.266 69.2322 69.5035C67.6544 69.7411 65.9915 69.3691 64.6557 68.4905C64.6647 68.3247 64.6826 68.1633 64.6916 68.0019C64.9964 63.9364 65.1577 59.8574 65.1846 55.774C65.1981 53.7345 65.1757 51.695 65.1219 49.6555C65.095 48.7187 65.0367 47.7684 65.0726 46.8361C65.0726 46.7733 65.0995 46.5133 65.1174 46.2175C65.1398 45.8186 65.588 45.59 65.9197 45.8141C67.5558 46.9257 69.0888 48.2794 70.3528 49.781C71.1328 50.7133 71.8275 51.7129 72.4282 52.7708C72.5716 53.0307 74.0239 55.9443 73.8805 56.0026L73.8849 56.016ZM87.9731 58.5037C87.749 58.5396 87.5607 58.3289 87.6235 58.1093L88.4662 55.1733C88.4931 55.0747 88.632 55.0702 88.6679 55.1644L89.7974 58.2213L87.9731 58.5037Z" fill="#58595B" stroke="#252525" stroke-width="2" stroke-miterlimit="10"/>
</svg>
