<svg width="160" height="160" viewBox="0 0 160 160" fill="none" xmlns="http://www.w3.org/2000/svg">
<g filter="url(#filter0_b_2422_4900)">
<rect width="160" height="160" fill="#474747"/>
</g>
<path d="M59.4144 71.238C59.9745 72.1041 60.1024 73.0366 60.0889 74.0517C60.0446 77.8605 60.0599 81.6689 60.0499 85.4775C60.0489 86.3158 59.811 86.6686 59.2616 86.6634C58.7144 86.6582 58.4991 86.3198 58.4977 85.4634C58.4955 85.1599 58.498 84.8563 58.4973 84.4371C57.1807 84.7273 55.9187 84.965 54.6824 85.2863C52.5984 85.8288 50.6518 86.7147 48.7472 87.7091C46.4411 88.9147 44.1444 90.1452 41.7802 91.2266C38.8912 92.5473 35.7936 93.1807 32.6414 93.5381C32.4195 93.5623 32.2 93.6001 31.953 93.6358C31.9459 97.1952 31.9387 100.741 31.9322 104.377C33.1259 104.188 34.306 104.025 35.4743 103.806C38.586 103.22 41.5017 102.106 44.2865 100.623C46.4168 99.4885 48.554 98.3633 50.7377 97.333C52.9806 96.2729 55.3803 95.6806 57.8365 95.319C57.9554 95.3023 58.072 95.2811 58.1909 95.2576C58.2732 95.2389 58.3554 95.2134 58.4765 95.1785C58.479 93.9053 58.4815 92.632 58.4864 91.3587C58.4869 90.7809 58.4782 90.201 58.4971 89.6231C58.5165 89.1223 58.8096 88.8144 59.2307 88.7978C59.6679 88.7789 59.9838 89.1007 60.0354 89.6146C60.0454 89.7323 60.0417 89.8524 60.0425 89.9725C60.0257 98.0156 60.0088 106.061 59.9942 114.102C59.9929 115.543 59.5344 116.767 58.3411 117.661C57.5873 118.228 56.726 118.479 55.792 118.479C48.6927 118.47 41.5958 118.467 34.4986 118.436C32.0284 118.423 30.3309 116.641 30.3362 114.133C30.3527 103.743 30.376 93.3524 30.397 82.9621C30.4035 79.6452 30.4031 76.3306 30.4257 73.0136C30.428 72.6896 30.5424 72.3558 30.6547 72.0423C30.758 71.7561 30.9025 71.4787 31.0678 71.2215C31.8604 69.979 32.2769 68.6529 32.0811 67.1703C32.0231 66.7335 32.2522 66.4305 32.5962 66.1925C41.0187 66.2082 49.439 66.2239 57.8615 66.2396C58.3094 66.4517 58.4883 66.8243 58.4274 67.2824C58.2407 68.7337 58.6368 70.0359 59.4144 71.2403L59.4144 71.238ZM58.4115 112.024C58.4216 106.944 58.432 101.885 58.442 96.7806C56.029 97.1011 53.7342 97.6337 51.5984 98.6252C49.3781 99.6558 47.2089 100.797 45.0536 101.956C41.8583 103.676 38.49 104.88 34.9023 105.478C33.9122 105.643 32.9126 105.771 31.9315 105.913L31.919 111.974C40.7605 111.991 49.57 112.007 58.4115 112.022L58.4115 112.024ZM58.4611 82.8582C58.467 79.7883 58.4725 76.6549 58.4802 73.5057C49.641 73.4883 40.8453 73.473 31.9901 73.458C31.9765 79.684 31.9649 85.8647 31.9535 92.068C34.9824 91.7681 37.9456 91.2331 40.7003 90.0062C43.3111 88.8437 45.7964 87.4148 48.3794 86.1959C50.141 85.3657 51.9465 84.6031 53.7896 83.983C55.2902 83.4786 56.8818 83.2273 58.4634 82.8582L58.4611 82.8582ZM56.049 116.934C57.7147 116.809 58.8207 115.209 58.3492 113.594C49.5581 113.579 40.7624 113.561 31.9369 113.546C31.6334 115.644 32.7251 116.903 34.813 116.906C41.7017 116.921 48.5926 116.932 55.4813 116.945C55.6713 116.944 55.8591 116.949 56.049 116.934ZM32.4757 71.8687C41.0173 71.8836 49.4879 71.899 58.0135 71.9162C57.7929 71.4669 57.5681 71.0833 57.4119 70.6766C57.2627 70.2925 57.024 70.2103 56.6302 70.2086C51.3717 70.2115 46.1153 70.1985 40.8589 70.19C38.4872 70.1862 36.1177 70.1779 33.746 70.1855C33.5743 70.1867 33.3184 70.2655 33.2415 70.3907C32.9608 70.8526 32.7399 71.348 32.478 71.8709L32.4757 71.8687ZM56.8481 68.6279L56.8492 67.8032C49.0997 67.7896 41.3777 67.7758 33.6534 67.7597L33.6523 68.5844C41.4018 68.598 49.1306 68.6118 56.8481 68.6279Z" fill="black"/>
<path d="M58.442 96.7807C58.432 101.885 58.4217 106.942 58.4115 112.024C49.5701 112.007 40.7606 111.991 31.9191 111.976L31.9316 105.916C32.915 105.773 33.9123 105.646 34.9024 105.48C38.4901 104.882 41.8584 103.678 45.0537 101.959C47.209 100.799 49.3782 99.6582 51.5985 98.6276C53.7343 97.6361 56.0291 97.1035 58.442 96.783L58.442 96.7807Z" fill="#888888"/>
<path d="M58.4803 73.5035C58.4749 76.6527 58.4671 79.7861 58.4611 82.8561C56.8795 83.2251 55.2902 83.4741 53.7873 83.9809C51.9442 84.601 50.1387 85.3635 48.3772 86.1938C45.7942 87.4127 43.3066 88.8416 40.698 90.004C37.9434 91.2309 34.9802 91.7637 31.9512 92.0659C31.9627 85.8648 31.9766 79.6818 31.9879 73.4559C40.8431 73.4731 49.6411 73.4884 58.478 73.5035L58.4803 73.5035ZM45.2317 83.2683C46.5824 83.2656 47.6396 82.216 47.6394 80.8793C47.6392 79.5562 46.5511 78.4763 45.2256 78.4811C43.907 78.4858 42.7953 79.5879 42.8021 80.8883C42.8068 82.2068 43.8925 83.2709 45.234 83.2705L45.2317 83.2683ZM41.0202 85.0265C41.0201 85.0015 41.0199 84.9766 41.0197 84.9494C41.0165 83.1868 39.5388 81.7268 37.7715 81.7369C37.728 81.7372 37.6868 81.7375 37.6433 81.7401C35.9292 81.8201 34.5176 83.2641 34.525 84.9632C34.5253 85.004 34.5256 85.0471 34.5281 85.0878C34.5965 86.6778 35.8648 87.9875 37.4456 88.1463C37.5579 88.1592 37.6701 88.1652 37.7845 88.1644C39.5541 88.1565 40.9798 86.7667 41.018 85.0265L41.0202 85.0265ZM37.8119 79.983C39.1557 79.9759 40.2173 78.9149 40.2126 77.5805C40.2079 76.2688 39.0991 75.1777 37.7806 75.1915C36.4597 75.2053 35.3572 76.3118 35.3686 77.6099C35.3778 78.9307 36.4727 79.9879 37.8119 79.9808L37.8119 79.983Z" fill="#545454"/>
<path d="M58.3493 113.592C58.8208 115.209 57.7171 116.807 56.0491 116.932C55.8614 116.947 55.6714 116.942 55.4814 116.943C48.5927 116.93 41.7018 116.919 34.8131 116.904C32.7252 116.901 31.6312 115.64 31.937 113.544C40.7625 113.559 49.5582 113.577 58.3493 113.592Z" fill="#999999"/>
<path d="M58.0112 71.9163C49.4857 71.9013 41.0151 71.8859 32.4735 71.8688C32.7377 71.3458 32.9586 70.8504 33.2369 70.3885C33.3139 70.2634 33.5697 70.1845 33.7414 70.1833C36.1131 70.1758 38.4826 70.1841 40.8544 70.1878C46.113 70.1985 51.3694 70.2115 56.6257 70.2064C57.0172 70.2082 57.2581 70.2903 57.4073 70.6744C57.5636 71.0811 57.7883 71.4647 58.0089 71.914L58.0112 71.9163Z" fill="#999999"/>
<path d="M56.8493 67.8034L56.8482 68.6281C49.1285 68.6142 41.4019 68.6004 33.6524 68.5845L33.6535 67.7598C41.3778 67.7736 49.0998 67.7875 56.8493 67.8034Z" fill="#808080"/>
<path d="M47.6394 80.8793C47.6396 82.2183 46.5824 83.2679 45.2317 83.2683C43.8902 83.2709 42.8068 82.2068 42.7998 80.886C42.7952 79.5856 43.9047 78.4835 45.2233 78.4788C46.5488 78.4741 47.6369 79.5539 47.6371 80.8771L47.6394 80.8793ZM45.2324 81.7345C45.7269 81.731 46.1019 81.3455 46.087 80.8539C46.0724 80.4009 45.676 80.0185 45.2227 80.0217C44.7786 80.0248 44.367 80.4242 44.3541 80.8638C44.3414 81.3352 44.7471 81.7379 45.2301 81.7345L45.2324 81.7345Z" fill="black"/>
<path d="M46.087 80.8539C46.1019 81.3454 45.7269 81.7309 45.2324 81.7344C44.7494 81.7378 44.3413 81.3328 44.3564 80.8638C44.3693 80.4241 44.7786 80.0248 45.225 80.0217C45.6805 80.0185 46.0747 80.4008 46.0893 80.8539L46.087 80.8539Z" fill="#453F3F"/>
<path d="M41.022 84.9516C41.0222 84.9765 41.0224 85.0037 41.0226 85.0287L39.477 84.9874C39.4888 84.0584 38.7324 83.2843 37.7983 83.2728C37.764 83.273 37.7296 83.2732 37.6953 83.2735L37.6456 81.7423C37.6891 81.7397 37.7303 81.7394 37.7738 81.7391C39.5434 81.7267 41.0188 83.1867 41.022 84.9516Z" fill="black"/>
<path d="M39.4747 84.9876L41.0203 85.0289C40.9844 86.7691 39.5565 88.1589 37.7869 88.1667C37.6724 88.1675 37.5579 88.1616 37.4479 88.1487L37.5677 86.6163C37.6249 86.6227 37.6799 86.6269 37.7394 86.6265C38.6965 86.6447 39.4606 85.9188 39.4747 84.9853L39.4747 84.9876Z" fill="black"/>
<path d="M40.2103 77.5851C40.2151 78.9195 39.1534 79.9805 37.8096 79.9876C36.4681 79.9925 35.3779 78.9353 35.3663 77.6168C35.3572 76.3187 36.4575 75.2121 37.7783 75.1983C39.0969 75.1846 40.2057 76.2734 40.2103 77.5874L40.2103 77.5851ZM37.7783 78.454C38.2637 78.4597 38.6638 78.0672 38.6582 77.5892C38.6527 77.1384 38.2608 76.7469 37.8074 76.7365C37.3449 76.7284 36.9129 77.1528 36.9207 77.6104C36.9262 78.0613 37.3226 78.4459 37.7783 78.454Z" fill="black"/>
<path d="M37.7961 83.2729C38.7279 83.2845 39.4865 84.0585 39.4747 84.9875C39.4607 85.921 38.6965 86.6469 37.7395 86.6287C37.6822 86.6291 37.625 86.6227 37.5677 86.6185C36.7543 86.5223 36.1201 85.8561 36.0778 85.043C36.0775 85.0136 36.0774 84.9864 36.0772 84.9592C36.0779 84.0779 36.8189 83.3205 37.6954 83.2759C37.7297 83.2734 37.764 83.2754 37.7984 83.2751L37.7961 83.2729Z" fill="#453F3F"/>
<path d="M38.6605 77.5892C38.6661 78.0672 38.266 78.462 37.7806 78.454C37.325 78.4459 36.9285 78.059 36.9231 77.6105C36.9152 77.1506 37.3472 76.7262 37.8098 76.7365C38.2631 76.7469 38.6551 77.1407 38.6605 77.5892Z" fill="#453F3F"/>
<path d="M37.6434 81.7446L37.6931 83.2758C36.8166 83.3205 36.0778 84.0779 36.0749 84.9592C36.0751 84.9887 36.0752 85.0159 36.0754 85.043L34.5259 85.0924C34.5233 85.0517 34.523 85.0086 34.5227 84.9678C34.5154 83.2687 35.927 81.8246 37.6411 81.7447L37.6434 81.7446Z" fill="black"/>
<path d="M37.5677 86.6185L37.4479 88.1509C35.8672 87.9921 34.5966 86.6847 34.5305 85.0924L36.08 85.043C36.1201 85.8561 36.7566 86.5223 37.57 86.6185L37.5677 86.6185Z" fill="black"/>
<path d="M93.4144 39.238C93.9745 40.1041 94.1024 41.0366 94.0889 42.0517C94.0446 45.8605 94.0599 49.6689 94.0499 53.4775C94.0489 54.3158 93.811 54.6686 93.2616 54.6634C92.7144 54.6582 92.4991 54.3198 92.4977 53.4634C92.4955 53.1599 92.498 52.8563 92.4973 52.4371C91.1807 52.7273 89.9187 52.965 88.6824 53.2863C86.5984 53.8288 84.6518 54.7147 82.7472 55.7091C80.4411 56.9147 78.1444 58.1452 75.7802 59.2266C72.8912 60.5473 69.7936 61.1807 66.6414 61.5381C66.4195 61.5623 66.2 61.6001 65.953 61.6358C65.9459 65.1952 65.9387 68.7409 65.9322 72.3773C67.1259 72.1876 68.306 72.0253 69.4743 71.8064C72.586 71.2205 75.5017 70.1057 78.2865 68.6226C80.4168 67.4885 82.554 66.3633 84.7377 65.333C86.9806 64.2729 89.3803 63.6806 91.8365 63.319C91.9554 63.3023 92.072 63.2811 92.1909 63.2576C92.2732 63.2389 92.3554 63.2134 92.4765 63.1785C92.479 61.9053 92.4815 60.632 92.4864 59.3587C92.4869 58.7809 92.4782 58.201 92.4971 57.6231C92.5165 57.1223 92.8096 56.8144 93.2307 56.7978C93.6679 56.7789 93.9838 57.1007 94.0354 57.6146C94.0454 57.7323 94.0417 57.8524 94.0425 57.9725C94.0257 66.0156 94.0088 74.0609 93.9942 82.1016C93.9929 83.5426 93.5344 84.767 92.3411 85.6612C91.5873 86.2283 90.726 86.4791 89.792 86.4788C82.6927 86.4697 75.5958 86.4673 68.4986 86.4355C66.0284 86.4234 64.3309 84.6409 64.3362 82.1329C64.3527 71.7426 64.376 61.3524 64.397 50.9621C64.4035 47.6452 64.4031 44.3306 64.4257 41.0136C64.428 40.6896 64.5424 40.3558 64.6547 40.0423C64.758 39.7561 64.9025 39.4787 65.0678 39.2215C65.8604 37.979 66.2769 36.6529 66.0811 35.1703C66.0231 34.7335 66.2522 34.4305 66.5962 34.1925C75.0187 34.2082 83.439 34.2239 91.8615 34.2396C92.3094 34.4517 92.4883 34.8243 92.4274 35.2824C92.2407 36.7337 92.6368 38.0359 93.4144 39.2403L93.4144 39.238ZM92.4115 80.0238C92.4216 74.9443 92.432 69.8851 92.442 64.7806C90.029 65.1011 87.7342 65.6337 85.5984 66.6252C83.3781 67.6558 81.2089 68.797 79.0536 69.9562C75.8583 71.6756 72.49 72.8796 68.9023 73.4779C67.9122 73.6435 66.9126 73.7705 65.9315 73.9134L65.919 79.974C74.7605 79.9913 83.57 80.0065 92.4115 80.0216L92.4115 80.0238ZM92.4611 50.8582C92.467 47.7883 92.4725 44.6549 92.4802 41.5057C83.641 41.4883 74.8453 41.473 65.9901 41.458C65.9765 47.684 65.9649 53.8647 65.9535 60.068C68.9824 59.7681 71.9456 59.2331 74.7003 58.0062C77.3111 56.8437 79.7964 55.4148 82.3794 54.1959C84.141 53.3657 85.9465 52.6031 87.7896 51.983C89.2902 51.4786 90.8818 51.2273 92.4634 50.8582L92.4611 50.8582ZM90.049 84.9341C91.7147 84.8092 92.8207 83.2087 92.3492 81.5943C83.5581 81.579 74.7624 81.5613 65.9369 81.5462C65.6334 83.644 66.7251 84.9028 68.813 84.9063C75.7017 84.9214 82.5926 84.932 89.4813 84.9449C89.6713 84.9436 89.8591 84.9491 90.049 84.9341ZM66.4757 39.8687C75.0173 39.8836 83.4879 39.899 92.0135 39.9162C91.7929 39.4669 91.5681 39.0833 91.4119 38.6766C91.2627 38.2925 91.024 38.2103 90.6302 38.2086C85.3717 38.2115 80.1153 38.1985 74.8589 38.19C72.4872 38.1862 70.1177 38.1779 67.746 38.1855C67.5743 38.1867 67.3184 38.2655 67.2415 38.3907C66.9608 38.8526 66.7399 39.348 66.478 39.8709L66.4757 39.8687ZM90.8481 36.6279L90.8492 35.8032C83.0997 35.7896 75.3777 35.7758 67.6534 35.7597L67.6523 36.5844C75.4018 36.598 83.1306 36.6118 90.8481 36.6279Z" fill="black"/>
<path d="M92.442 64.7807C92.432 69.8852 92.4217 74.9421 92.4115 80.024C83.5701 80.0067 74.7606 79.9914 65.9191 79.9764L65.9316 73.9158C66.915 73.7729 67.9123 73.6459 68.9024 73.4803C72.4901 72.882 75.8584 71.678 79.0537 69.9586C81.209 68.7994 83.3782 67.6582 85.5985 66.6276C87.7343 65.6361 90.0291 65.1035 92.442 64.783L92.442 64.7807Z" fill="#888888"/>
<path d="M92.4803 41.5035C92.4749 44.6527 92.4671 47.7861 92.4611 50.8561C90.8795 51.2251 89.2902 51.4741 87.7873 51.9809C85.9442 52.601 84.1387 53.3635 82.3772 54.1938C79.7942 55.4127 77.3066 56.8416 74.698 58.004C71.9434 59.2309 68.9802 59.7637 65.9512 60.0659C65.9627 53.8648 65.9766 47.6818 65.9879 41.4559C74.8431 41.4731 83.6411 41.4884 92.478 41.5035L92.4803 41.5035ZM79.2317 51.2683C80.5824 51.2656 81.6396 50.216 81.6394 48.8793C81.6392 47.5562 80.5511 46.4763 79.2256 46.4811C77.907 46.4858 76.7953 47.5879 76.8021 48.8883C76.8068 50.2068 77.8925 51.2709 79.234 51.2705L79.2317 51.2683ZM75.0202 53.0265C75.0201 53.0015 75.0199 52.9766 75.0197 52.9494C75.0165 51.1868 73.5388 49.7268 71.7715 49.7369C71.728 49.7372 71.6868 49.7375 71.6433 49.7401C69.9292 49.8201 68.5176 51.2641 68.525 52.9632C68.5253 53.004 68.5256 53.0471 68.5281 53.0878C68.5965 54.6778 69.8648 55.9875 71.4456 56.1463C71.5579 56.1592 71.6701 56.1652 71.7845 56.1644C73.5541 56.1565 74.9798 54.7667 75.018 53.0265L75.0202 53.0265ZM71.8119 47.983C73.1557 47.9759 74.2173 46.9149 74.2126 45.5805C74.2079 44.2688 73.0991 43.1777 71.7806 43.1915C70.4597 43.2053 69.3572 44.3118 69.3686 45.6099C69.3778 46.9307 70.4727 47.9879 71.8119 47.9808L71.8119 47.983Z" fill="#545454"/>
<path d="M92.3493 81.5923C92.8208 83.2089 91.7171 84.8071 90.0491 84.9321C89.8614 84.947 89.6714 84.9415 89.4814 84.9429C82.5927 84.93 75.7018 84.9194 68.8131 84.9043C66.7252 84.9008 65.6312 83.6397 65.937 81.5441C74.7625 81.5593 83.5582 81.5769 92.3493 81.5923Z" fill="#999999"/>
<path d="M92.0112 39.9163C83.4857 39.9013 75.0151 39.8859 66.4735 39.8688C66.7377 39.3459 66.9586 38.8504 67.2369 38.3885C67.3139 38.2634 67.5697 38.1846 67.7414 38.1833C70.1131 38.1758 72.4826 38.1841 74.8544 38.1879C80.113 38.1986 85.3694 38.2116 90.6257 38.2064C91.0172 38.2082 91.2581 38.2903 91.4073 38.6744C91.5636 39.0812 91.7883 39.4647 92.0089 39.9141L92.0112 39.9163Z" fill="#999999"/>
<path d="M90.8493 35.8033L90.8482 36.628C83.1285 36.6142 75.4019 36.6004 67.6524 36.5845L67.6535 35.7598C75.3778 35.7736 83.0998 35.7874 90.8493 35.8033Z" fill="#808080"/>
<path d="M81.6394 48.8793C81.6396 50.2183 80.5824 51.2679 79.2317 51.2683C77.8902 51.2709 76.8068 50.2068 76.7998 48.886C76.7952 47.5856 77.9047 46.4835 79.2233 46.4788C80.5488 46.4741 81.6369 47.5539 81.6371 48.8771L81.6394 48.8793ZM79.2324 49.7345C79.7269 49.731 80.1019 49.3455 80.087 48.8539C80.0724 48.4009 79.676 48.0185 79.2227 48.0217C78.7786 48.0248 78.367 48.4242 78.3541 48.8638C78.3414 49.3352 78.7471 49.7379 79.2301 49.7345L79.2324 49.7345Z" fill="black"/>
<path d="M80.087 48.8539C80.1019 49.3454 79.7269 49.7309 79.2324 49.7344C78.7494 49.7378 78.3413 49.3328 78.3564 48.8638C78.3693 48.4241 78.7786 48.0248 79.225 48.0217C79.6805 48.0185 80.0747 48.4008 80.0893 48.8539L80.087 48.8539Z" fill="#453F3F"/>
<path d="M75.022 52.9516C75.0222 52.9765 75.0224 53.0037 75.0226 53.0287L73.477 52.9874C73.4888 52.0584 72.7324 51.2843 71.7983 51.2728C71.764 51.273 71.7296 51.2732 71.6953 51.2735L71.6456 49.7423C71.6891 49.7397 71.7303 49.7394 71.7738 49.7391C73.5434 49.7267 75.0188 51.1867 75.022 52.9516Z" fill="black"/>
<path d="M73.4747 52.9876L75.0203 53.0289C74.9844 54.7691 73.5565 56.1589 71.7869 56.1667C71.6724 56.1675 71.5579 56.1616 71.4479 56.1487L71.5677 54.6163C71.6249 54.6227 71.6799 54.6269 71.7394 54.6265C72.6965 54.6447 73.4606 53.9188 73.4747 52.9853L73.4747 52.9876Z" fill="black"/>
<path d="M74.2103 45.5851C74.2151 46.9195 73.1534 47.9805 71.8096 47.9876C70.4681 47.9925 69.3779 46.9353 69.3663 45.6168C69.3572 44.3187 70.4575 43.2121 71.7783 43.1983C73.0969 43.1846 74.2057 44.2734 74.2103 45.5874L74.2103 45.5851ZM71.7783 46.454C72.2637 46.4597 72.6638 46.0672 72.6582 45.5892C72.6527 45.1384 72.2608 44.7469 71.8074 44.7365C71.3449 44.7284 70.9129 45.1528 70.9207 45.6104C70.9262 46.0613 71.3226 46.4459 71.7783 46.454Z" fill="black"/>
<path d="M71.7961 51.2729C72.7279 51.2845 73.4865 52.0585 73.4747 52.9875C73.4607 53.921 72.6965 54.6469 71.7395 54.6287C71.6822 54.6291 71.625 54.6227 71.5677 54.6185C70.7543 54.5223 70.1201 53.8561 70.0778 53.043C70.0775 53.0136 70.0774 52.9864 70.0772 52.9592C70.0779 52.0779 70.8189 51.3205 71.6954 51.2759C71.7297 51.2734 71.764 51.2754 71.7984 51.2751L71.7961 51.2729Z" fill="#453F3F"/>
<path d="M72.6605 45.5892C72.6661 46.0672 72.266 46.462 71.7806 46.454C71.325 46.4459 70.9285 46.059 70.9231 45.6105C70.9152 45.1506 71.3472 44.7262 71.8098 44.7365C72.2631 44.7469 72.6551 45.1407 72.6605 45.5892Z" fill="#453F3F"/>
<path d="M71.6434 49.7446L71.6931 51.2758C70.8166 51.3205 70.0778 52.0779 70.0749 52.9592C70.0751 52.9887 70.0752 53.0159 70.0754 53.043L68.5259 53.0924C68.5233 53.0517 68.523 53.0086 68.5227 52.9678C68.5154 51.2687 69.927 49.8246 71.6411 49.7447L71.6434 49.7446Z" fill="black"/>
<path d="M71.5677 54.6185L71.4479 56.1509C69.8672 55.9921 68.5966 54.6847 68.5305 53.0924L70.08 53.043C70.1201 53.8561 70.7566 54.5223 71.57 54.6185L71.5677 54.6185Z" fill="black"/>
<path d="M127.414 60.238C127.974 61.1041 128.102 62.0366 128.089 63.0517C128.045 66.8605 128.06 70.6689 128.05 74.4775C128.049 75.3158 127.811 75.6686 127.262 75.6634C126.714 75.6582 126.499 75.3198 126.498 74.4634C126.496 74.1599 126.498 73.8563 126.497 73.4371C125.181 73.7273 123.919 73.965 122.682 74.2863C120.598 74.8288 118.652 75.7147 116.747 76.7091C114.441 77.9147 112.144 79.1452 109.78 80.2266C106.891 81.5473 103.794 82.1807 100.641 82.5381C100.42 82.5623 100.2 82.6001 99.953 82.6358C99.9459 86.1952 99.9387 89.7409 99.9322 93.3773C101.126 93.1876 102.306 93.0253 103.474 92.8064C106.586 92.2205 109.502 91.1057 112.287 89.6226C114.417 88.4885 116.554 87.3633 118.738 86.333C120.981 85.2729 123.38 84.6806 125.836 84.319C125.955 84.3023 126.072 84.2811 126.191 84.2576C126.273 84.2389 126.355 84.2134 126.477 84.1785C126.479 82.9053 126.482 81.632 126.486 80.3587C126.487 79.7809 126.478 79.201 126.497 78.6231C126.516 78.1223 126.81 77.8144 127.231 77.7978C127.668 77.7789 127.984 78.1007 128.035 78.6146C128.045 78.7323 128.042 78.8524 128.043 78.9725C128.026 87.0156 128.009 95.0609 127.994 103.102C127.993 104.543 127.534 105.767 126.341 106.661C125.587 107.228 124.726 107.479 123.792 107.479C116.693 107.47 109.596 107.467 102.499 107.436C100.028 107.423 98.3309 105.641 98.3362 103.133C98.3527 92.7426 98.376 82.3524 98.397 71.9621C98.4035 68.6452 98.4031 65.3306 98.4257 62.0136C98.428 61.6896 98.5424 61.3558 98.6547 61.0423C98.758 60.7561 98.9025 60.4787 99.0678 60.2215C99.8604 58.979 100.277 57.6529 100.081 56.1703C100.023 55.7335 100.252 55.4305 100.596 55.1925C109.019 55.2082 117.439 55.2239 125.862 55.2396C126.309 55.4517 126.488 55.8243 126.427 56.2824C126.241 57.7337 126.637 59.0359 127.414 60.2403L127.414 60.238ZM126.411 101.024C126.422 95.9443 126.432 90.8851 126.442 85.7806C124.029 86.1011 121.734 86.6337 119.598 87.6252C117.378 88.6558 115.209 89.797 113.054 90.9562C109.858 92.6756 106.49 93.8796 102.902 94.4779C101.912 94.6435 100.913 94.7705 99.9315 94.9134L99.919 100.974C108.761 100.991 117.57 101.007 126.411 101.022L126.411 101.024ZM126.461 71.8582C126.467 68.7883 126.473 65.6549 126.48 62.5057C117.641 62.4883 108.845 62.473 99.9901 62.458C99.9765 68.684 99.9649 74.8647 99.9535 81.068C102.982 80.7681 105.946 80.2331 108.7 79.0062C111.311 77.8437 113.796 76.4148 116.379 75.1959C118.141 74.3657 119.946 73.6031 121.79 72.983C123.29 72.4786 124.882 72.2273 126.463 71.8582L126.461 71.8582ZM124.049 105.934C125.715 105.809 126.821 104.209 126.349 102.594C117.558 102.579 108.762 102.561 99.9369 102.546C99.6334 104.644 100.725 105.903 102.813 105.906C109.702 105.921 116.593 105.932 123.481 105.945C123.671 105.944 123.859 105.949 124.049 105.934ZM100.476 60.8687C109.017 60.8836 117.488 60.899 126.014 60.9162C125.793 60.4669 125.568 60.0833 125.412 59.6766C125.263 59.2925 125.024 59.2103 124.63 59.2086C119.372 59.2115 114.115 59.1985 108.859 59.19C106.487 59.1862 104.118 59.1779 101.746 59.1855C101.574 59.1867 101.318 59.2655 101.241 59.3907C100.961 59.8526 100.74 60.348 100.478 60.8709L100.476 60.8687ZM124.848 57.6279L124.849 56.8032C117.1 56.7896 109.378 56.7758 101.653 56.7597L101.652 57.5844C109.402 57.598 117.131 57.6118 124.848 57.6279Z" fill="black"/>
<path d="M126.442 85.7807C126.432 90.8852 126.422 95.9421 126.412 101.024C117.57 101.007 108.761 100.991 99.9191 100.976L99.9316 94.9158C100.915 94.7729 101.912 94.6459 102.902 94.4803C106.49 93.882 109.858 92.678 113.054 90.9586C115.209 89.7994 117.378 88.6582 119.598 87.6276C121.734 86.6361 124.029 86.1035 126.442 85.783L126.442 85.7807Z" fill="#888888"/>
<path d="M126.48 62.5035C126.475 65.6527 126.467 68.7861 126.461 71.8561C124.879 72.2251 123.29 72.4741 121.787 72.9809C119.944 73.601 118.139 74.3635 116.377 75.1938C113.794 76.4127 111.307 77.8416 108.698 79.004C105.943 80.2309 102.98 80.7637 99.9512 81.0659C99.9626 74.8648 99.9765 68.6818 99.9878 62.4559C108.843 62.4731 117.641 62.4884 126.478 62.5035L126.48 62.5035ZM113.232 72.2683C114.582 72.2656 115.64 71.216 115.639 69.8793C115.639 68.5562 114.551 67.4763 113.226 67.4811C111.907 67.4858 110.795 68.5879 110.802 69.8883C110.807 71.2068 111.892 72.2709 113.234 72.2705L113.232 72.2683ZM109.02 74.0265C109.02 74.0015 109.02 73.9766 109.02 73.9494C109.016 72.1868 107.539 70.7268 105.771 70.7369C105.728 70.7372 105.687 70.7375 105.643 70.7401C103.929 70.8201 102.518 72.2641 102.525 73.9632C102.525 74.004 102.526 74.0471 102.528 74.0878C102.596 75.6778 103.865 76.9875 105.446 77.1463C105.558 77.1592 105.67 77.1652 105.785 77.1644C107.554 77.1565 108.98 75.7667 109.018 74.0265L109.02 74.0265ZM105.812 68.983C107.156 68.9759 108.217 67.9149 108.213 66.5805C108.208 65.2688 107.099 64.1777 105.781 64.1915C104.46 64.2053 103.357 65.3118 103.369 66.6099C103.378 67.9307 104.473 68.9879 105.812 68.9808L105.812 68.983Z" fill="#545454"/>
<path d="M126.349 102.592C126.821 104.209 125.717 105.807 124.049 105.932C123.861 105.947 123.671 105.942 123.481 105.943C116.593 105.93 109.702 105.919 102.813 105.904C100.725 105.901 99.6312 104.64 99.937 102.544C108.762 102.559 117.558 102.577 126.349 102.592Z" fill="#999999"/>
<path d="M126.011 60.9163C117.486 60.9013 109.015 60.8859 100.474 60.8688C100.738 60.3458 100.959 59.8504 101.237 59.3885C101.314 59.2634 101.57 59.1845 101.741 59.1833C104.113 59.1758 106.483 59.1841 108.854 59.1878C114.113 59.1985 119.369 59.2115 124.626 59.2064C125.017 59.2082 125.258 59.2903 125.407 59.6744C125.564 60.0811 125.788 60.4647 126.009 60.914L126.011 60.9163Z" fill="#999999"/>
<path d="M124.849 56.8034L124.848 57.6281C117.129 57.6142 109.402 57.6004 101.652 57.5845L101.654 56.7598C109.378 56.7736 117.1 56.7875 124.849 56.8034Z" fill="#808080"/>
<path d="M115.639 69.8793C115.64 71.2183 114.582 72.2679 113.232 72.2683C111.89 72.2709 110.807 71.2068 110.8 69.886C110.795 68.5856 111.905 67.4835 113.223 67.4788C114.549 67.4741 115.637 68.5539 115.637 69.8771L115.639 69.8793ZM113.232 70.7345C113.727 70.731 114.102 70.3455 114.087 69.8539C114.072 69.4009 113.676 69.0185 113.223 69.0217C112.779 69.0248 112.367 69.4242 112.354 69.8638C112.341 70.3352 112.747 70.7379 113.23 70.7345L113.232 70.7345Z" fill="black"/>
<path d="M114.087 69.8539C114.102 70.3454 113.727 70.7309 113.232 70.7344C112.749 70.7378 112.341 70.3328 112.356 69.8638C112.369 69.4241 112.779 69.0248 113.225 69.0217C113.681 69.0185 114.075 69.4008 114.089 69.8539L114.087 69.8539Z" fill="#453F3F"/>
<path d="M109.022 73.9516C109.022 73.9765 109.022 74.0037 109.023 74.0287L107.477 73.9874C107.489 73.0584 106.732 72.2843 105.798 72.2728C105.764 72.273 105.73 72.2732 105.695 72.2735L105.646 70.7423C105.689 70.7397 105.73 70.7394 105.774 70.7391C107.543 70.7267 109.019 72.1867 109.022 73.9516Z" fill="black"/>
<path d="M107.475 73.9876L109.02 74.0289C108.984 75.7691 107.556 77.1589 105.787 77.1667C105.672 77.1675 105.558 77.1616 105.448 77.1487L105.568 75.6163C105.625 75.6227 105.68 75.6269 105.739 75.6265C106.697 75.6447 107.461 74.9188 107.475 73.9853L107.475 73.9876Z" fill="black"/>
<path d="M108.21 66.5851C108.215 67.9195 107.153 68.9805 105.81 68.9876C104.468 68.9925 103.378 67.9353 103.366 66.6168C103.357 65.3187 104.457 64.2121 105.778 64.1983C107.097 64.1846 108.206 65.2734 108.21 66.5874L108.21 66.5851ZM105.778 67.454C106.264 67.4597 106.664 67.0672 106.658 66.5892C106.653 66.1384 106.261 65.7469 105.807 65.7365C105.345 65.7284 104.913 66.1528 104.921 66.6104C104.926 67.0613 105.323 67.4459 105.778 67.454Z" fill="black"/>
<path d="M105.796 72.2729C106.728 72.2845 107.487 73.0585 107.475 73.9875C107.461 74.921 106.697 75.6469 105.739 75.6287C105.682 75.6291 105.625 75.6227 105.568 75.6185C104.754 75.5223 104.12 74.8561 104.078 74.043C104.078 74.0136 104.077 73.9864 104.077 73.9592C104.078 73.0779 104.819 72.3205 105.695 72.2759C105.73 72.2734 105.764 72.2754 105.798 72.2751L105.796 72.2729Z" fill="#453F3F"/>
<path d="M106.661 66.5892C106.666 67.0672 106.266 67.462 105.781 67.454C105.325 67.4459 104.928 67.059 104.923 66.6105C104.915 66.1506 105.347 65.7262 105.81 65.7365C106.263 65.7469 106.655 66.1407 106.661 66.5892Z" fill="#453F3F"/>
<path d="M105.643 70.7446L105.693 72.2758C104.817 72.3205 104.078 73.0779 104.075 73.9592C104.075 73.9887 104.075 74.0159 104.075 74.043L102.526 74.0924C102.523 74.0517 102.523 74.0086 102.523 73.9678C102.515 72.2687 103.927 70.8246 105.641 70.7447L105.643 70.7446Z" fill="black"/>
<path d="M105.568 75.6185L105.448 77.1509C103.867 76.9921 102.597 75.6847 102.531 74.0924L104.08 74.043C104.12 74.8561 104.757 75.5223 105.57 75.6185L105.568 75.6185Z" fill="black"/>
<defs>
<filter id="filter0_b_2422_4900" x="-4" y="-4" width="168" height="168" filterUnits="userSpaceOnUse" color-interpolation-filters="sRGB">
<feFlood flood-opacity="0" result="BackgroundImageFix"/>
<feGaussianBlur in="BackgroundImageFix" stdDeviation="2"/>
<feComposite in2="SourceAlpha" operator="in" result="effect1_backgroundBlur_2422_4900"/>
<feBlend mode="normal" in="SourceGraphic" in2="effect1_backgroundBlur_2422_4900" result="shape"/>
</filter>
</defs>
</svg>
