<svg width="94" height="94" viewBox="0 0 94 94" fill="none" xmlns="http://www.w3.org/2000/svg">
<rect width="94" height="94" fill="#3C3C3C"/>
<path d="M65.2035 40.6275C65.2008 41.4737 64.8711 42.1721 64.4073 42.864C62.6714 45.4628 60.9766 48.088 59.2644 50.7021C58.8883 51.278 58.5668 51.414 58.1913 51.1644C57.8175 50.9158 57.821 50.5868 58.2035 49.9973C58.3379 49.7877 58.4756 49.58 58.6628 49.2916C57.6276 48.9015 56.6535 48.4998 55.6597 48.1672C53.9839 47.607 52.2489 47.3444 50.4942 47.1752C48.3688 46.9715 46.2388 46.7891 44.1292 46.474C41.5515 46.0884 39.1382 45.1369 36.8109 43.9711C36.6475 43.8884 36.4797 43.8161 36.2939 43.7301C34.6952 46.174 33.1026 48.6086 31.4698 51.1058C32.3754 51.5099 33.2595 51.9267 34.1607 52.2994C36.5625 53.2898 39.0662 53.829 41.645 54.0563C43.6175 54.2304 45.5907 54.4138 47.5533 54.6833C49.5702 54.9587 51.4852 55.626 53.3358 56.4772C53.425 56.519 53.5147 56.5566 53.607 56.5937C53.6719 56.6177 53.7399 56.637 53.8387 56.6673C54.4106 55.793 54.9825 54.9187 55.5559 54.0454C55.815 53.6484 56.0687 53.2458 56.3404 52.857C56.578 52.5213 56.9175 52.4409 57.2144 52.6181C57.5234 52.8008 57.5965 53.1635 57.4019 53.54C57.3561 53.6254 57.2997 53.7063 57.2465 53.7892C53.6335 59.3115 50.0194 64.8353 46.4089 70.357C45.7628 71.3471 44.8993 71.9836 43.6785 72.0641C42.9063 72.1165 42.2018 71.9032 41.5597 71.4848C36.6829 68.2996 31.8046 65.1202 26.9394 61.9204C25.2464 60.8059 24.8775 58.8204 26.0042 57.0984C30.668 49.9622 35.3365 42.829 40.0035 35.6948C41.4932 33.4173 42.9771 31.1383 44.4779 28.8678C44.6246 28.6461 44.8527 28.4678 45.0703 28.3025C45.2694 28.152 45.493 28.026 45.7219 27.9233C46.8232 27.4238 47.7033 26.6986 48.2325 25.5916C48.3883 25.2653 48.6814 25.1596 49.0245 25.15C54.8082 28.9322 60.5903 32.7134 66.374 36.4956C66.587 36.842 66.5432 37.1782 66.2962 37.4659C65.518 38.3801 65.2071 39.4528 65.2025 40.629L65.2035 40.6275ZM46.2511 68.2198C48.5326 64.732 50.8051 61.2582 53.0976 57.7532C51.2951 56.8931 49.4789 56.2318 47.5665 55.9571C45.5785 55.6714 43.5762 55.4847 41.5753 55.3167C38.6085 55.068 35.7536 54.3875 33.019 53.1924C32.2641 52.8629 31.52 52.5027 30.7815 52.1616L28.0592 56.3228C34.1302 60.2937 40.1801 64.2489 46.2521 68.2182L46.2511 68.2198ZM59.3448 48.1898C60.7236 46.0818 62.1304 43.93 63.5459 41.7682C57.4764 37.7983 51.436 33.8493 45.3545 29.8739C42.5573 34.1483 39.7818 38.3925 36.9962 42.6524C39.213 43.8025 41.4899 44.7614 43.9331 45.1514C46.2487 45.5212 48.5972 45.6517 50.9189 45.9703C52.5017 46.1882 54.0845 46.4724 55.6294 46.8714C56.887 47.1965 58.0938 47.7364 59.3464 48.1908L59.3448 48.1898ZM42.4281 70.5378C43.6293 71.1978 45.1064 70.5927 45.5051 69.2716C39.4678 65.3246 33.4284 61.374 27.3675 57.4118C26.2194 58.7182 26.4063 60.0725 27.8403 61.0098C32.5696 64.1048 37.3026 67.1976 42.033 70.2911C42.1642 70.3752 42.2909 70.4631 42.4281 70.5378ZM46.4 28.9986C52.266 32.8335 58.0828 36.637 63.9367 40.4664C63.9862 40.0587 64.0034 39.6944 64.0781 39.3448C64.1475 39.0139 64.0202 38.8505 63.7503 38.673C60.1336 36.3203 56.5255 33.9577 52.9154 31.5982C51.2864 30.5336 49.661 29.4669 48.027 28.4101C47.9085 28.3341 47.6973 28.2737 47.5883 28.3253C47.1885 28.5172 46.8148 28.7589 46.4006 29.0012L46.4 28.9986ZM64.6078 37.6838L64.9779 37.1173C59.656 33.6379 54.3531 30.1707 49.0496 26.7009L48.6796 27.2674C54.0015 30.7468 59.3091 34.217 64.6078 37.6838Z" fill="black"/>
<path d="M53.0976 57.7534C50.805 61.2584 48.5336 64.7306 46.2511 68.2199C40.18 64.249 34.1301 60.2939 28.0581 56.3246L30.7805 52.1633C31.5205 52.5055 32.2631 52.8646 33.0179 53.1942C35.7525 54.3893 38.6075 55.0698 41.5742 55.3184C43.5751 55.4865 45.5775 55.6732 47.5654 55.9588C49.4778 56.2336 51.294 56.8949 53.0966 57.755L53.0976 57.7534Z" fill="#888888"/>
<path d="M63.547 41.7664C62.1331 43.9292 60.7247 46.08 59.346 48.188C58.0933 47.7335 56.8891 47.1931 55.629 46.8685C54.0841 46.4695 52.5013 46.1854 50.9184 45.9674C48.5968 45.6488 46.2466 45.5174 43.9327 45.1485C41.4894 44.7586 39.2135 43.798 36.9958 42.6495C39.7803 38.3912 42.5584 34.1465 45.354 29.871C51.4345 33.848 57.4765 37.7981 63.5454 41.7654L63.547 41.7664ZM50.0658 42.5476C50.9956 43.1506 52.1925 42.9023 52.7909 41.9832C53.3832 41.0735 53.1187 39.8438 52.2052 39.2535C51.2965 38.6663 50.0387 38.9262 49.4611 39.8234C48.8739 40.732 49.1439 41.9497 50.0664 42.5502L50.0658 42.5476ZM46.383 41.8706C46.3941 41.8534 46.4051 41.8362 46.4172 41.8174C47.2042 40.6041 46.842 38.9386 45.6224 38.1542C45.5924 38.135 45.5639 38.1167 45.5329 38.099C44.3185 37.3865 42.7015 37.7472 41.9457 38.9187C41.9276 38.9469 41.9085 38.9766 41.8921 39.0058C41.2271 40.1296 41.5127 41.5979 42.5283 42.415C42.5998 42.474 42.6743 42.5284 42.7533 42.5791C43.9735 43.3661 45.576 43.049 46.3814 41.8696L46.383 41.8706ZM46.4355 36.9665C47.3626 37.5633 48.5676 37.3092 49.1618 36.3897C49.746 35.4857 49.4722 34.2391 48.5595 33.6581C47.6452 33.0762 46.3917 33.3433 45.8183 34.2409C45.2332 35.1531 45.5126 36.3702 46.4365 36.9649L46.4355 36.9665Z" fill="#545454"/>
<path d="M45.5062 69.2702C45.1065 70.5928 43.632 71.1974 42.4292 70.5364C42.2936 70.4626 42.1654 70.3738 42.0341 70.2896C37.3037 67.1962 32.5708 64.1033 27.8414 61.0083C26.4075 60.071 26.22 58.7141 27.3686 57.4103C33.4296 61.3725 39.469 65.3231 45.5062 69.2702Z" fill="#999999"/>
<path d="M63.9351 40.4656C58.0803 36.6377 52.2634 32.8342 46.3985 28.9977C46.8142 28.7565 47.188 28.5148 47.5861 28.3218C47.6951 28.2703 47.9063 28.3306 48.0249 28.4067C49.6589 29.4635 51.2843 30.5302 52.9132 31.5948C56.5239 33.9568 60.132 36.3194 63.7481 38.6695C64.0165 38.8461 64.1454 39.0104 64.0759 39.3413C64.0012 39.6909 63.984 40.0553 63.9345 40.463L63.9351 40.4656Z" fill="#999999"/>
<path d="M64.978 37.1172L64.608 37.6837C59.3067 34.2175 54.0007 30.7483 48.6798 27.2673L49.0498 26.7008C54.3543 30.169 59.6572 33.6363 64.978 37.1172Z" fill="#808080"/>
<path d="M52.7907 41.9832C52.1913 42.9039 50.9945 43.1522 50.0657 42.5476C49.1421 41.9487 48.8737 40.732 49.4603 39.8208C50.0395 38.9247 51.2958 38.6638 52.2045 39.251C53.1179 39.8412 53.3825 41.0709 52.7901 41.9807L52.7907 41.9832ZM50.7529 41.4934C51.0945 41.7124 51.5249 41.6153 51.7348 41.2707C51.9276 40.9527 51.8262 40.5123 51.5132 40.3115C51.2064 40.1148 50.7447 40.2051 50.5389 40.5015C50.3191 40.8199 50.4177 41.2784 50.7514 41.4924L50.7529 41.4934Z" fill="black"/>
<path d="M51.7349 41.271C51.525 41.6156 51.0945 41.7127 50.753 41.4937C50.4194 41.2797 50.3202 40.8186 50.5406 40.5028C50.7463 40.2064 51.2065 40.1151 51.5148 40.3128C51.8295 40.5146 51.9293 40.954 51.7365 41.272L51.7349 41.271Z" fill="#453F3F"/>
<path d="M46.4177 41.8205C46.4066 41.8378 46.3946 41.8565 46.3835 41.8738L45.3393 41.1532C45.7634 40.5198 45.59 39.6489 44.9529 39.2226C44.9292 39.2074 44.9055 39.1922 44.8818 39.177L45.5333 38.1019C45.5644 38.1196 45.5928 38.1379 45.6229 38.1571C46.8451 38.941 47.2058 40.6056 46.4177 41.8205Z" fill="black"/>
<path d="M45.3377 41.1522L46.3819 41.8727C45.5779 43.0532 43.9738 43.3693 42.7535 42.5823C42.6744 42.5316 42.5984 42.4762 42.5285 42.4181L43.2971 41.4181C43.3336 41.4482 43.3695 41.4756 43.4106 41.502C44.0605 41.9431 44.911 41.7862 45.3387 41.1507L45.3377 41.1522Z" fill="black"/>
<path d="M49.1581 36.3921C48.5639 37.3117 47.3589 37.5658 46.4318 36.969C45.5073 36.3716 45.2311 35.1566 45.8135 34.2449C46.3885 33.3483 47.6405 33.0802 48.5548 33.6622C49.4675 34.2431 49.7423 35.4882 49.1571 36.3937L49.1581 36.3921ZM47.0969 35.9005C47.4281 36.1218 47.879 36.0311 48.0891 35.6999C48.2873 35.3875 48.1931 34.9429 47.886 34.7327C47.5717 34.5201 47.0846 34.6185 46.8851 34.9366C46.687 35.2489 46.7873 35.6909 47.0969 35.9005Z" fill="black"/>
<path d="M44.9515 39.2214C45.587 39.6466 45.762 40.5186 45.3379 41.152C44.9102 41.7876 44.0598 41.9445 43.4099 41.5034C43.3703 41.478 43.3338 41.448 43.2963 41.4195C42.7801 40.9891 42.6424 40.247 42.9774 39.669C42.9904 39.6487 43.0024 39.6299 43.0145 39.6111C43.4096 39.0054 44.2583 38.8165 44.8809 39.1783C44.9057 39.192 44.9284 39.2087 44.9521 39.2239L44.9515 39.2214Z" fill="#453F3F"/>
<path d="M48.0908 35.7008C47.8806 36.032 47.4287 36.1242 47.0986 35.9014C46.7889 35.6918 46.6896 35.2482 46.8867 34.9374C47.0873 34.6177 47.5743 34.5194 47.8877 34.7336C48.1947 34.9438 48.2879 35.39 48.0908 35.7008Z" fill="#453F3F"/>
<path d="M45.5309 38.1024L44.8794 39.1775C44.2567 38.8157 43.4097 39.0056 43.0129 39.6103C42.9999 39.6306 42.9878 39.6494 42.9758 39.6682L41.8883 39.0083C41.9048 38.9791 41.9238 38.9493 41.9419 38.9212C42.6977 37.7496 44.3149 37.3888 45.5294 38.1014L45.5309 38.1024Z" fill="black"/>
<path d="M43.2964 41.4198L42.5278 42.4198C41.5121 41.6027 41.2239 40.1348 41.8915 39.0104L42.979 39.6703C42.6424 40.2473 42.7818 40.9904 43.298 41.4208L43.2964 41.4198Z" fill="black"/>
</svg>
