<svg width="37" height="37" viewBox="0 0 37 37" fill="none" xmlns="http://www.w3.org/2000/svg">
<path d="M21.008 14.2023C21.008 8.15847 20.7016 6.19546 19.4791 4.38183C18.2548 2.56944 16.2661 0 10.6072 0H10.449C4.79038 0 2.80215 2.56935 1.57934 4.38151C0.354453 6.19514 0.0491158 8.15816 0.0491158 14.202C0.0491158 20.2446 -0.257357 23.7205 0.66081 26.7426C1.57586 29.7547 3.09948 34.2656 10.5276 34.2962C17.9574 34.2656 19.4815 29.7551 20.3956 26.7429C21.3133 23.7204 21.008 20.2449 21.008 14.2023ZM14.5205 27.7446C12.5046 27.5974 11.1946 27.4508 10.5192 27.4331C9.84388 27.4511 8.53285 27.5978 6.51908 27.7446C4.37987 27.9012 5.01302 26.0221 5.01302 22.9714C5.01302 19.9179 8.26205 17.572 10.4006 17.572H10.6381C12.7762 17.572 16.0251 19.918 16.0251 22.9714C16.0253 26.0222 16.6586 27.9013 14.5205 27.7446ZM14.5708 13.1656C12.9337 13.2893 11.3013 13.2353 10.519 13.1939C9.73683 13.2349 8.10472 13.2893 6.46814 13.1656C4.20327 12.9933 3.24497 11.3584 3.24497 8.2587C3.24497 5.16046 8.12346 3.18136 10.4759 3.18136H10.5635C12.9157 3.18136 17.7938 5.16046 17.7938 8.2587C17.7939 11.3586 16.8352 12.9932 14.5708 13.1656Z" fill="#AFAFAF"/>
<path d="M33.4294 22.5082C36.3146 17.1974 36.9823 15.3262 36.7739 13.149C36.5633 10.972 36.0424 7.76487 31.0699 5.06351L30.9308 4.98798C25.9586 2.28676 22.985 3.59535 21.0455 4.60398C19.1034 5.61291 17.898 7.19206 15.0129 12.5028C12.1284 17.8125 10.1998 20.7205 9.56392 23.8143C8.93011 26.8979 8.11559 31.5889 14.6281 35.1618C21.1713 38.6815 24.6637 35.4458 26.9049 33.2353C29.1541 31.0175 30.5449 27.8178 33.4294 22.5082ZM21.2642 31.3109C19.5631 30.2193 18.4819 29.4651 17.8969 29.1271C17.295 28.8205 16.0729 28.3236 14.2333 27.4913C12.2788 26.6077 13.7322 25.2588 15.1885 22.5781C16.6461 19.895 20.6209 19.3846 22.5001 20.4055L22.7088 20.5189C24.5875 21.5395 26.3224 25.1519 24.8648 27.8349C23.4087 30.5157 23.0682 32.4692 21.2642 31.3109ZM28.2679 18.5243C26.7703 17.8514 25.3617 17.0248 24.694 16.6149C23.9872 16.2776 22.5271 15.5463 21.1481 14.6563C19.2402 13.4238 19.1785 11.5298 20.6582 8.806C22.1372 6.08356 27.3687 6.67333 29.4358 7.7963L29.5128 7.83814C31.5797 8.96097 34.9213 13.0287 33.4424 15.7511C31.9627 18.475 30.34 19.4538 28.2679 18.5243Z" fill="white"/>
</svg>
