<svg width="55" height="96" viewBox="0 0 55 96" fill="none" xmlns="http://www.w3.org/2000/svg">
<path d="M53.7334 9.572C54.7467 11.1632 54.9686 12.8704 54.9309 14.7268C54.8011 21.6924 54.7802 28.658 54.7132 35.6236C54.7006 37.1568 54.261 37.799 53.256 37.7825C52.2553 37.7659 51.8659 37.1443 51.8743 35.578C51.8743 35.0228 51.8827 34.4675 51.8869 33.7009C49.4751 34.2147 47.1638 34.6332 44.8986 35.2051C41.08 36.1706 37.5084 37.7659 34.0122 39.5601C29.779 41.7356 25.5626 43.9566 21.2248 45.9042C15.9239 48.2827 10.2504 49.4015 4.48061 50.0147C4.07446 50.0562 3.6725 50.1225 3.2203 50.1846C3.16168 56.6944 3.10306 63.1794 3.04444 69.83C5.2301 69.4985 7.39064 69.2168 9.53024 68.8314C15.2289 67.7996 20.5758 65.7982 25.6882 63.1214C29.599 61.0744 33.5223 59.0439 37.5293 57.1875C41.6452 55.2773 46.0417 54.2248 50.5386 53.5949C50.7564 53.5659 50.9699 53.5286 51.1876 53.4872C51.3384 53.454 51.4891 53.4085 51.711 53.3463C51.7319 51.0175 51.7529 48.6888 51.778 46.36C51.7864 45.3033 51.778 44.2425 51.8199 43.1859C51.8617 42.2701 52.4019 41.7107 53.1723 41.6859C53.972 41.6569 54.5457 42.2494 54.6336 43.19C54.6504 43.4055 54.642 43.6251 54.642 43.8447C54.508 58.555 54.374 73.2693 54.2442 87.9754C54.2233 90.6108 53.3691 92.8443 51.1751 94.4645C49.7891 95.4921 48.2106 95.9396 46.5023 95.9272C33.5181 95.8195 20.5381 95.7242 7.55812 95.575C3.04025 95.5211 -0.0414495 92.2393 0.000421464 87.6522C0.163718 68.6491 0.339576 49.646 0.511247 30.6428C0.565679 24.5764 0.60755 18.5142 0.691292 12.4477C0.699666 11.8552 0.913208 11.2461 1.12256 10.6742C1.31517 10.1521 1.58314 9.64659 1.8888 9.17835C3.35428 6.91588 4.13308 4.49594 3.79393 1.7818C3.69344 0.982063 4.11633 0.430947 4.74858 0C20.1529 0.136743 35.553 0.273486 50.9573 0.410229C51.7738 0.803882 52.0962 1.4876 51.979 2.32463C51.6189 4.97661 52.3265 7.3634 53.7334 9.57615V9.572ZM51.376 84.1549C51.4598 74.8647 51.5435 65.6117 51.6273 56.2759C47.2099 56.8312 43.006 57.7759 39.0869 59.5619C35.0129 61.4183 31.031 63.4777 27.0742 65.5703C21.208 68.6739 15.0321 70.8328 8.46254 71.8812C6.64952 72.1712 4.81977 72.3909 3.0235 72.6395L2.92301 83.7239C19.0936 83.869 35.2055 84.0099 51.376 84.1508V84.1549ZM51.8408 30.8127C51.8911 25.198 51.9413 19.4672 51.9957 13.7074C35.8294 13.5624 19.7426 13.4215 3.54689 13.2806C3.44221 24.6676 3.34172 35.9717 3.24123 47.3172C8.78494 46.8075 14.2114 45.8669 19.2652 43.6583C24.0553 41.5657 28.6192 38.9842 33.359 36.788C36.5914 35.2921 39.9034 33.9205 43.2824 32.81C46.0333 31.9067 48.9475 31.4674 51.845 30.8127H51.8408ZM46.9922 93.1053C50.0404 92.8982 52.0837 89.9851 51.2421 87.0265C35.1636 86.8856 19.0768 86.7406 2.93557 86.5997C2.35357 90.4326 4.33406 92.749 8.15269 92.7821C20.7517 92.8982 33.3548 93.0059 45.9538 93.1178C46.3013 93.1178 46.6446 93.1302 46.9922 93.1053ZM4.45549 10.38C20.0775 10.5168 35.5698 10.6535 51.1625 10.7944C50.7647 9.9698 50.3586 9.26537 50.078 8.5195C49.8101 7.81506 49.3746 7.66175 48.6544 7.65346C39.0367 7.5913 29.4231 7.50014 19.8096 7.41727C15.4717 7.37997 11.1381 7.33439 6.80026 7.31782C6.48623 7.31782 6.01727 7.4587 5.87491 7.68661C5.35571 8.52778 4.94538 9.43112 4.45968 10.3842L4.45549 10.38ZM49.0731 4.76528L49.0857 3.25697C34.9124 3.13266 20.7893 3.00834 6.66209 2.87989L6.64952 4.3882C20.8228 4.51252 34.9585 4.63683 49.0731 4.76528Z" fill="black"/>
<path d="M51.6272 56.2759C51.5435 65.6117 51.4598 74.8605 51.376 84.1549C35.2055 84.0098 19.0935 83.8689 2.92297 83.728L3.02346 72.6436C4.82391 72.395 6.64949 72.1753 8.4625 71.8853C15.032 70.8369 21.208 68.678 27.0741 65.5744C31.0309 63.4818 35.0129 61.4224 39.0869 59.566C43.006 57.7801 47.2099 56.8353 51.6272 56.28V56.2759Z" fill="#FFE296"/>
<path d="M51.9958 13.7034C51.9455 19.4632 51.8911 25.194 51.8408 30.8087C48.9434 31.4634 46.0333 31.8985 43.2782 32.806C39.8992 33.9165 36.5873 35.2881 33.3548 36.784C28.615 38.9801 24.0469 41.5617 19.2611 43.6542C14.2072 45.8629 8.78077 46.7993 3.23706 47.3132C3.33755 35.9718 3.44223 24.6636 3.54272 13.2766C19.7384 13.4216 35.8294 13.5625 51.9916 13.7034H51.9958ZM27.6394 31.393C30.1098 31.4054 32.0568 29.4993 32.0736 27.0545C32.0903 24.6346 30.114 22.6456 27.6897 22.6373C25.2779 22.629 23.2304 24.6304 23.2262 27.0089C23.2179 29.4206 25.19 31.3805 27.6436 31.3971L27.6394 31.393ZM19.9143 34.5546C19.9143 34.5091 19.9143 34.4635 19.9143 34.4137C19.931 31.1899 17.2471 28.5007 14.0146 28.4965C13.9351 28.4965 13.8597 28.4965 13.7802 28.5007C10.644 28.625 8.04384 31.2479 8.03547 34.3557C8.03547 34.4303 8.03547 34.5091 8.03966 34.5836C8.14433 37.4925 10.4472 39.9042 13.3363 40.215C13.5415 40.2398 13.7467 40.2523 13.956 40.2523C17.1926 40.2605 19.8179 37.737 19.9101 34.5546H19.9143ZM14.1109 25.2893C16.5688 25.2934 18.5241 23.3666 18.5325 20.9259C18.5409 18.5267 16.5269 16.517 14.1151 16.5253C11.6992 16.5336 9.66844 18.5433 9.67262 20.9176C9.67262 23.3334 11.6615 25.281 14.1109 25.2851V25.2893Z" fill="#FFC635"/>
<path d="M51.2421 87.0223C52.0837 89.985 50.0446 92.8939 46.9922 93.1011C46.6489 93.126 46.3014 93.1135 45.9538 93.1135C33.3549 93.0017 20.7517 92.8939 8.15277 92.7779C4.33414 92.7447 2.34946 90.4243 2.93565 86.5955C19.0769 86.7363 35.1637 86.8814 51.2421 87.0223Z" fill="#BCBCBC"/>
<path d="M51.1584 10.7942C35.5657 10.6575 20.0735 10.5207 4.45142 10.3798C4.94131 9.42678 5.35164 8.52344 5.86665 7.68227C6.00901 7.45436 6.47797 7.31348 6.792 7.31348C11.1298 7.33005 15.4635 7.37563 19.8013 7.41293C29.4191 7.49994 39.0326 7.59111 48.6462 7.64912C49.3622 7.65741 49.8018 7.81072 50.0698 8.51516C50.3503 9.26103 50.7565 9.96546 51.1543 10.7901L51.1584 10.7942Z" fill="#BCBCBC"/>
<path d="M49.0858 3.25696L49.0732 4.76528C34.9543 4.64097 20.8229 4.51665 6.6496 4.3882L6.66216 2.87988C20.7894 3.00419 34.9125 3.12851 49.0858 3.25696Z" fill="#F2F55B"/>
<path d="M32.0736 27.0544C32.0569 29.5034 30.1099 31.4095 27.6395 31.3929C25.1859 31.3805 23.2179 29.4205 23.2221 27.0047C23.2305 24.6262 25.2738 22.6248 27.6856 22.6331C30.1099 22.6414 32.0862 24.6304 32.0694 27.0503L32.0736 27.0544ZM27.6604 28.5876C28.5648 28.5876 29.2557 27.8873 29.2348 26.9881C29.2138 26.1594 28.4937 25.455 27.6646 25.455C26.8523 25.455 26.0945 26.1801 26.0651 26.984C26.0358 27.8459 26.7728 28.5876 27.6562 28.5876H27.6604Z" fill="black"/>
<path d="M29.2347 26.988C29.2556 27.8872 28.5648 28.5875 27.6604 28.5875C26.7769 28.5875 26.0358 27.8416 26.0693 26.9839C26.0986 26.18 26.8523 25.4548 27.6687 25.4548C28.502 25.4548 29.218 26.1593 29.2389 26.988H29.2347Z" fill="#FFF511"/>
<path d="M19.9185 34.4177C19.9185 34.4633 19.9185 34.513 19.9185 34.5586L17.0922 34.4633C17.1257 32.7644 15.7523 31.3389 14.044 31.3058C13.9812 31.3058 13.9183 31.3058 13.8555 31.3058L13.7844 28.5046C13.8639 28.5005 13.9393 28.5005 14.0188 28.5005C17.2555 28.5005 19.9352 31.1898 19.9185 34.4177Z" fill="black"/>
<path d="M17.088 34.4634L19.9143 34.5587C19.8264 37.7411 17.1969 40.2646 13.9603 40.2563C13.7509 40.2563 13.5416 40.2439 13.3406 40.219L13.5792 37.4178C13.6839 37.4303 13.7844 37.4386 13.8933 37.4386C15.6435 37.4841 17.0503 36.1664 17.088 34.4592V34.4634Z" fill="black"/>
<path d="M18.5284 20.9341C18.52 23.3748 16.5647 25.3016 14.1068 25.2975C11.6532 25.2892 9.67271 23.3416 9.66852 20.93C9.66852 18.5556 11.6951 16.5459 14.111 16.5376C16.5228 16.5293 18.5368 18.5349 18.5284 20.9383V20.9341ZM14.0692 22.4922C14.9568 22.5087 15.6937 21.796 15.6896 20.9217C15.6854 20.0971 14.9736 19.3761 14.1445 19.3512C13.2987 19.3305 12.5032 20.1012 12.5116 20.9383C12.5157 21.7629 13.2359 22.4714 14.0692 22.4922Z" fill="black"/>
<path d="M14.0398 31.3059C15.744 31.3391 17.1215 32.7645 17.088 34.4634C17.0504 36.1706 15.6435 37.4883 13.8933 37.4428C13.7886 37.4428 13.6839 37.4303 13.5793 37.422C12.0928 37.2356 10.9414 36.009 10.8744 34.5214C10.8744 34.4676 10.8744 34.4178 10.8744 34.3681C10.887 32.7562 12.2519 31.3805 13.8556 31.3101C13.9184 31.3059 13.9812 31.3101 14.044 31.3101L14.0398 31.3059Z" fill="#FFF511"/>
<path d="M15.6938 20.9216C15.698 21.796 14.9611 22.5128 14.0734 22.4921C13.2402 22.4714 12.52 21.7587 12.5158 20.9382C12.5074 20.097 13.303 19.3263 14.1488 19.3512C14.9778 19.376 15.6896 20.1012 15.6938 20.9216Z" fill="#FFF511"/>
<path d="M13.7801 28.5088L13.8513 31.3099C12.2477 31.3804 10.8868 32.7561 10.8701 34.368C10.8701 34.4219 10.8701 34.4716 10.8701 34.5213L8.03544 34.5918C8.03125 34.5172 8.03125 34.4385 8.03125 34.3639C8.03962 31.2561 10.6398 28.6331 13.7759 28.5088H13.7801Z" fill="black"/>
<path d="M13.5791 37.4218L13.3404 40.223C10.4513 39.9122 8.14425 37.5047 8.04376 34.5917L10.8784 34.5212C10.9412 36.0088 12.0969 37.2354 13.5833 37.4218H13.5791Z" fill="black"/>
</svg>
