<svg width="32" height="23" viewBox="0 0 32 23" fill="none" xmlns="http://www.w3.org/2000/svg">
<path fill-rule="evenodd" clip-rule="evenodd" d="M7.66667 3.66667L8.6528 2.18747C9.14738 1.4456 9.97999 1 10.8716 1H15.1284C16.02 1 16.8526 1.4456 17.3472 2.18747L18.3333 3.66667H25V18.3333H1V3.66667H7.66667Z" stroke="white" stroke-linecap="round" stroke-linejoin="round"/>
<path fill-rule="evenodd" clip-rule="evenodd" d="M13 14.3333C15.2091 14.3333 17 12.5424 17 10.3333C17 8.12411 15.2091 6.33325 13 6.33325C10.7909 6.33325 9 8.12411 9 10.3333C9 12.5424 10.7909 14.3333 13 14.3333Z" stroke="white"/>
<path fill-rule="evenodd" clip-rule="evenodd" d="M21.1937 16.9821C21.8167 16.9821 22.2313 16.5675 22.2313 15.9445L22.2283 15.6172C22.2283 15.6172 22.074 14.6895 23.3118 14.6895L28.3236 14.7241V16.0476C28.5667 16.2899 28.9609 16.2899 29.204 16.0476L31.14 14.1124C31.3822 13.8686 31.3822 13.4743 31.14 13.2321L29.204 11.1817C28.9609 10.9394 28.5667 10.9394 28.3236 11.1817V12.5699C28.2025 12.5346 23.4683 12.5142 23.4683 12.5142C20.676 12.5142 20.0651 14.3419 20.0651 15.0778V15.8535C20.0651 16.4765 20.5707 16.9821 21.1937 16.9821Z" fill="#FFD600"/>
<path fill-rule="evenodd" clip-rule="evenodd" d="M30.1934 17.0129C29.5704 17.0129 29.0648 17.4524 29.0648 18.0754L29.0663 18.7954C29.0324 19.064 28.581 19.2394 27.9189 19.2394H22.9988L22.9973 18.0663C22.755 17.8241 22.3607 17.8241 22.1169 18.0663L20.1817 20.0016C19.9394 20.2453 19.9394 20.6396 20.1817 20.8819L22.1169 22.8171C22.3607 23.0609 22.755 23.0609 22.9973 22.8171L22.9988 21.4244H27.9189C30.7111 21.4244 31.3221 19.587 31.3221 18.8504V18.0746C31.3221 17.4524 30.8164 17.0129 30.1934 17.0129Z" fill="#FFD600"/>
</svg>
