<svg width="21" height="21" viewBox="0 0 21 21" fill="none" xmlns="http://www.w3.org/2000/svg">
<path d="M0 1.90911C0.051831 1.79105 0.143975 1.63844 0.187167 1.47142C0.417527 0.567262 1.10573 0.0028795 2.03581 0C5.30692 0 8.57803 0 11.8463 0C12.3934 0 12.8426 0.218842 13.2313 0.584539C13.9483 1.26698 14.6624 1.95518 15.3823 2.63474C15.8344 3.06091 16.0388 3.57346 16.0331 4.19543C16.0244 5.96057 16.0302 7.72282 16.0302 9.48795C16.0302 9.61753 16.0302 9.74711 16.0302 9.99762C16.6521 9.26335 17.1993 8.61546 17.7492 7.97334C18.2589 7.38016 18.9154 7.17571 19.6555 7.37152C20.3869 7.56445 20.8274 8.07988 20.9685 8.82567C21.0837 9.42748 20.8735 9.94579 20.4905 10.4008C19.1343 12.0075 17.7838 13.6172 16.416 15.2124C16.1482 15.5263 16.0043 15.8344 16.0215 16.2634C16.0561 17.1445 16.0359 18.0257 16.0302 18.9097C16.0244 20.073 15.2498 20.8447 14.0865 20.8476C10.1099 20.8505 6.13621 20.8476 2.15962 20.8476C0.912801 20.8476 0.152613 20.0932 0.152613 18.8492C0.152613 13.407 0.152613 7.96758 0.146854 2.52532C0.146854 2.33815 0.0604695 2.15387 0 1.90623L0 1.90911ZM11.1465 1.22091C10.9623 1.22091 10.8298 1.22091 10.6973 1.22091C7.87543 1.22091 5.05064 1.22091 2.22873 1.22091C1.55781 1.22091 1.37352 1.41096 1.37352 2.09916C1.37352 7.65083 1.37352 13.2025 1.37352 18.7513C1.37352 19.451 1.55493 19.6296 2.27193 19.6296C6.15349 19.6296 10.0351 19.6296 13.9166 19.6296C14.0116 19.6296 14.1067 19.6353 14.2017 19.6296C14.5616 19.5979 14.7949 19.3992 14.8064 19.0393C14.8294 18.4202 14.8121 17.8011 14.8121 17.1733C13.9166 17.565 13.0614 17.9623 12.1832 18.305C11.9816 18.3827 11.6476 18.3511 11.4863 18.2272C11.3423 18.1178 11.2704 17.7924 11.3078 17.588C11.4575 16.8048 11.6447 16.0273 11.8578 15.2585C11.9355 14.982 12.0853 14.7027 12.2695 14.4781C13.024 13.5538 13.813 12.6554 14.5645 11.7311C14.7027 11.5612 14.8006 11.302 14.8035 11.0832C14.8208 9.15681 14.815 7.22755 14.8121 5.30116C14.8121 5.17158 14.8006 5.03912 14.792 4.88651C13.8101 4.88651 12.8598 4.88651 11.9125 4.88651C11.3596 4.88651 11.1494 4.67631 11.1465 4.12632C11.1437 3.17897 11.1465 2.22873 11.1465 1.22091ZM15.0828 14.9101C16.2145 13.5682 17.3202 12.258 18.4518 10.9162C18.1265 10.6455 17.8327 10.4008 17.5189 10.1387C16.3815 11.4863 15.2671 12.8023 14.147 14.1297C14.4724 14.4004 14.7632 14.6423 15.0828 14.9101ZM14.6653 3.64833C13.8763 2.89678 13.1564 2.21146 12.3876 1.48006V3.64833H14.6653ZM19.2264 9.96883C19.4885 9.66936 19.8657 9.44188 19.7476 9.00708C19.6987 8.82567 19.4769 8.61258 19.2926 8.56075C18.7887 8.41966 18.616 8.88614 18.3107 9.19424C18.6188 9.4534 18.9154 9.70392 19.2264 9.96883ZM13.3666 15.0713C12.8771 15.5234 12.9376 16.1367 12.7907 16.6896C13.3004 16.4333 13.9137 16.4016 14.2737 15.8401C13.9685 15.581 13.6747 15.3333 13.3638 15.0713H13.3666Z" fill="white"/>
<path d="M8.04821 8.59244C6.55662 8.59244 5.06504 8.59244 3.57346 8.59244C3.42373 8.59244 3.27399 8.59244 3.12714 8.57228C2.80176 8.52621 2.61171 8.32177 2.60307 7.99926C2.59443 7.6566 2.79024 7.44352 3.1329 7.39169C3.26536 7.37153 3.40357 7.37441 3.53891 7.37441C6.57678 7.37441 9.61465 7.37441 12.6525 7.37441C13.2889 7.37441 13.5768 7.5587 13.5884 7.96759C13.5999 8.39087 13.2975 8.59532 12.6468 8.59532C11.1149 8.59532 9.58298 8.59532 8.05108 8.59532L8.04821 8.59244Z" fill="white"/>
<path d="M10.6743 8.62688H7.15268C5.95769 8.62688 4.76558 8.62688 3.57346 8.62688H3.54467C3.40645 8.62688 3.26248 8.62688 3.12138 8.60672C2.77584 8.55777 2.57428 8.33605 2.56564 7.99915C2.557 7.64497 2.76144 7.40885 3.12714 7.35414C3.25384 7.33398 3.38342 7.33686 3.51011 7.33398H3.53891C6.57678 7.33398 9.61465 7.33398 12.6525 7.33398C13.3033 7.33398 13.6114 7.53267 13.6229 7.96172C13.6287 8.14024 13.5797 8.28422 13.4761 8.39076C13.3206 8.54913 13.0499 8.62688 12.6468 8.62688C11.9902 8.62688 11.3337 8.62688 10.6772 8.62688H10.6743ZM8.04821 8.55489H9.36126C10.4555 8.55489 11.5497 8.55489 12.6439 8.55489C13.0269 8.55489 13.2831 8.4829 13.4242 8.33893C13.5135 8.24679 13.5567 8.12297 13.5509 7.96459C13.5394 7.57874 13.263 7.40597 12.6525 7.40597C9.61465 7.40597 6.57678 7.40597 3.53891 7.40597H3.51011C3.38629 7.40597 3.2596 7.40597 3.13866 7.42325C2.81039 7.4722 2.63187 7.67665 2.63762 7.99627C2.64338 8.29862 2.81903 8.49154 3.13002 8.53474C3.26536 8.55489 3.40645 8.55489 3.54179 8.55489H3.57058C4.7627 8.55489 5.95769 8.55489 7.1498 8.55489H8.04533H8.04821Z" fill="#231F20"/>
<path d="M8.10005 12.258C6.58256 12.258 5.06218 12.258 3.54469 12.258C3.39495 12.258 3.24522 12.258 3.09836 12.2321C2.77298 12.1745 2.59733 11.9585 2.60309 11.636C2.60597 11.3337 2.77586 11.1264 3.08397 11.0659C3.21642 11.04 3.35464 11.0371 3.4871 11.0371C6.55088 11.0371 9.61755 11.0371 12.6813 11.0371C12.7217 11.0371 12.762 11.0371 12.8023 11.0371C13.3148 11.0486 13.5941 11.2732 13.5855 11.6591C13.5769 12.0305 13.3062 12.2494 12.8167 12.2551C12.1918 12.2609 11.5699 12.2551 10.945 12.2551C9.99477 12.2551 9.04741 12.2551 8.09718 12.2551L8.10005 12.258Z" fill="white"/>
<path d="M12.0219 12.2954C11.852 12.2954 11.6792 12.2954 11.5122 12.2954C11.3251 12.2954 11.135 12.2954 10.9479 12.2954H7.1901C5.97496 12.2954 4.75981 12.2954 3.54466 12.2954H3.52738C3.38341 12.2954 3.23655 12.2954 3.09258 12.2695C2.7528 12.209 2.56275 11.9786 2.56563 11.6389C2.57139 11.3192 2.75567 11.0975 3.0753 11.0342C3.21064 11.0083 3.35173 11.0054 3.48707 11.0054C6.14197 11.0054 8.79974 11.0054 11.4546 11.0054H12.7072C12.7389 11.0054 12.7706 11.0054 12.8022 11.0054C13.3321 11.0169 13.6315 11.2588 13.6229 11.6648C13.6143 12.0593 13.3206 12.2896 12.8195 12.2954C12.5546 12.2983 12.2868 12.2983 12.0219 12.2983V12.2954ZM10.9997 12.2234C11.1696 12.2234 11.3423 12.2234 11.5122 12.2234C11.9413 12.2234 12.3847 12.2234 12.8195 12.2205C13.2831 12.2148 13.5452 12.0161 13.5509 11.659C13.5596 11.2933 13.2918 11.086 12.8022 11.0745C12.7706 11.0745 12.7418 11.0745 12.7101 11.0745H11.4546C8.79686 11.0745 6.14197 11.0745 3.48707 11.0745C3.35749 11.0745 3.21927 11.0745 3.0897 11.1033C2.80175 11.1609 2.64337 11.3509 2.63762 11.6389C2.63186 11.9441 2.79887 12.1428 3.10409 12.1975C3.23943 12.2234 3.38629 12.2234 3.5245 12.2234H3.54178C4.75693 12.2234 5.97208 12.2234 7.18722 12.2234H10.9968H10.9997Z" fill="#231F20"/>
<path d="M6.21683 15.9208C5.30979 15.9208 4.39987 15.9208 3.49283 15.9208C3.35749 15.9208 3.21927 15.9208 3.0897 15.8949C2.78159 15.8373 2.6117 15.6328 2.60306 15.3305C2.59442 15.008 2.76719 14.7805 3.09258 14.7316C3.33157 14.6941 3.57921 14.7028 3.82109 14.7028C5.54303 14.7028 7.26497 14.7028 8.98403 14.7028C9.13377 14.7028 9.2835 14.7028 9.42748 14.7316C9.73558 14.7863 9.90547 14.9936 9.91411 15.2959C9.92275 15.6184 9.74998 15.8344 9.4246 15.8978C9.29214 15.9237 9.15392 15.9237 9.02147 15.9237C8.08563 15.9237 7.14979 15.9237 6.21683 15.9237V15.9208Z" fill="white"/>
<path d="M7.51261 15.9582C7.29665 15.9582 7.08068 15.9582 6.86472 15.9582H5.5891C4.89226 15.9582 4.19255 15.9582 3.49283 15.9582C3.35173 15.9582 3.21352 15.9554 3.08106 15.9295C2.76143 15.869 2.57427 15.6501 2.56563 15.3305C2.55699 14.985 2.74992 14.746 3.08682 14.6941C3.29414 14.6625 3.50722 14.6654 3.71167 14.6654H3.82109C5.54303 14.6654 7.26497 14.6654 8.98403 14.6654C9.12513 14.6654 9.2835 14.6654 9.43611 14.6941C9.75574 14.7517 9.94291 14.9706 9.95155 15.2931C9.96018 15.6329 9.77302 15.8632 9.43323 15.9295C9.29502 15.9554 9.15104 15.9554 9.02147 15.9582C8.51755 15.9582 8.01364 15.9582 7.50973 15.9582H7.51261ZM6.21683 15.8863H6.86472C7.5846 15.8863 8.30447 15.8863 9.02435 15.8863C9.14816 15.8863 9.28926 15.8863 9.42172 15.8603C9.72694 15.7999 9.89108 15.6012 9.88244 15.296C9.8738 15.008 9.71255 14.8208 9.4246 14.7661C9.28062 14.7402 9.12513 14.7402 8.98691 14.7402C7.26497 14.7402 5.54303 14.7402 3.82397 14.7402H3.71455C3.5101 14.7402 3.2999 14.7402 3.10121 14.769C2.80175 14.8151 2.63474 15.0195 2.64337 15.3305C2.65201 15.6185 2.81326 15.8056 3.10121 15.8603C3.22791 15.8834 3.35461 15.8863 3.49859 15.8863C4.19542 15.8863 4.89514 15.8863 5.59486 15.8863H6.22259H6.21683Z" fill="#231F20"/>
<path d="M6.2197 4.8838C5.25507 4.8838 4.29332 4.8838 3.32869 4.8838C2.86797 4.8838 2.5829 4.63328 2.59729 4.25607C2.60881 3.89325 2.88236 3.66865 3.32869 3.66577C5.28387 3.66577 7.23617 3.66577 9.19135 3.66577C9.65207 3.66577 9.93714 3.91629 9.92274 4.2935C9.91122 4.65632 9.63767 4.88092 9.19135 4.8838C8.2008 4.88668 7.21025 4.8838 6.2197 4.8838Z" fill="white"/>
<path d="M4.51506 4.92112C4.12056 4.92112 3.72607 4.92112 3.33158 4.92112C3.07243 4.92112 2.86222 4.84337 2.72401 4.70228C2.61171 4.5871 2.557 4.4316 2.56276 4.25595C2.57427 3.87298 2.86798 3.6311 3.3287 3.6311C5.27236 3.6311 7.24482 3.6311 9.19136 3.6311C9.45052 3.6311 9.66072 3.70597 9.79894 3.84995C9.91124 3.96513 9.96595 4.12062 9.96019 4.29627C9.94867 4.67924 9.65496 4.91824 9.19424 4.92112C8.49453 4.92112 7.79481 4.92112 7.09509 4.92112H6.22548H5.37315C5.08808 4.92112 4.80589 4.92112 4.52082 4.92112H4.51506ZM6.26003 3.70021C5.281 3.70021 4.30197 3.70021 3.3287 3.70021C2.90542 3.70021 2.64626 3.90754 2.63474 4.25595C2.62898 4.41145 2.67794 4.54966 2.77584 4.65045C2.89966 4.77714 3.0897 4.84625 3.33158 4.84625C4.01114 4.84625 4.69071 4.84625 5.36739 4.84625H6.21972H7.08933C7.78905 4.84625 8.48877 4.84625 9.18848 4.84625C9.61177 4.84625 9.87093 4.63605 9.88244 4.29051C9.8882 4.13502 9.83925 3.9968 9.74135 3.89602C9.61753 3.76932 9.42748 3.70021 9.18561 3.70021C8.21233 3.70021 7.2333 3.70021 6.25427 3.70021H6.26003Z" fill="#231F20"/>
</svg>
