<svg width="29" height="51" viewBox="0 0 29 51" fill="none" xmlns="http://www.w3.org/2000/svg">
<path d="M28.3658 5.05305C28.9007 5.89303 29.0178 6.79427 28.9979 7.77425C28.9294 11.4514 28.9184 15.1285 28.883 18.8056C28.8764 19.615 28.6443 19.9541 28.1138 19.9453C27.5855 19.9366 27.3799 19.6084 27.3844 18.7816C27.3844 18.4885 27.3888 18.1953 27.391 17.7907C26.1178 18.0619 24.8977 18.2828 23.7019 18.5847C21.6861 19.0944 19.8006 19.9366 17.955 20.8837C15.7203 22.0322 13.4945 23.2046 11.2045 24.2327C8.40622 25.4883 5.41118 26.079 2.36531 26.4027C2.1509 26.4246 1.93871 26.4596 1.69999 26.4924C1.66904 29.9289 1.6381 33.3523 1.60715 36.8632C2.76096 36.6882 3.90151 36.5394 5.031 36.336C8.0393 35.7913 10.8619 34.7348 13.5608 33.3217C15.6253 32.2411 17.6964 31.1692 19.8117 30.1892C21.9845 29.1808 24.3053 28.6252 26.6793 28.2927C26.7942 28.2774 26.9069 28.2577 27.0219 28.2358C27.1014 28.2183 27.181 28.1942 27.2982 28.1614C27.3092 26.9321 27.3203 25.7027 27.3335 24.4734C27.3379 23.9156 27.3335 23.3556 27.3556 22.7978C27.3777 22.3143 27.6629 22.019 28.0696 22.0059C28.4918 21.9906 28.7946 22.3034 28.841 22.8C28.8498 22.9137 28.8454 23.0296 28.8454 23.1456C28.7747 30.9111 28.704 38.6788 28.6354 46.4421C28.6244 47.8333 28.1735 49.0124 27.0152 49.8676C26.2836 50.4101 25.4503 50.6464 24.5485 50.6398C17.6941 50.583 10.842 50.5326 3.98992 50.4539C1.60494 50.4255 -0.0218811 48.693 0.00022249 46.2715C0.0864265 36.2397 0.179262 26.208 0.269886 16.1763C0.298621 12.9739 0.320725 9.7736 0.364932 6.57115C0.369353 6.25834 0.482081 5.93678 0.592599 5.63491C0.694275 5.35929 0.835738 5.09242 0.997095 4.84524C1.77072 3.65088 2.18185 2.3734 2.00281 0.94061C1.94976 0.518429 2.17301 0.227496 2.50677 0C10.6387 0.0721864 18.7684 0.144373 26.9003 0.216559C27.3313 0.424368 27.5015 0.7853 27.4396 1.22717C27.2495 2.62715 27.6231 3.88713 28.3658 5.05523V5.05305ZM27.1213 44.4252C27.1655 39.5209 27.2097 34.6363 27.254 29.708C24.922 30.0011 22.7028 30.4998 20.6339 31.4426C18.4832 32.4226 16.3812 33.5098 14.2924 34.6145C11.1957 36.2529 7.93541 37.3925 4.46736 37.946C3.51027 38.0991 2.54435 38.215 1.5961 38.3463L1.54305 44.1977C10.0795 44.2743 18.5849 44.3487 27.1213 44.423V44.4252ZM27.3667 16.266C27.3932 13.302 27.4197 10.2767 27.4485 7.23614C18.9143 7.15957 10.4221 7.0852 1.8724 7.01083C1.81714 13.022 1.76409 18.9894 1.71104 24.9787C4.63756 24.7096 7.50218 24.2131 10.1701 23.0471C12.6987 21.9425 15.108 20.5797 17.6102 19.4203C19.3166 18.6306 21.0649 17.9066 22.8487 17.3203C24.3009 16.8435 25.8393 16.6116 27.3689 16.266H27.3667ZM24.8071 49.1502C26.4162 49.0408 27.4949 47.503 27.0506 45.9411C18.5628 45.8668 10.0706 45.7902 1.54968 45.7158C1.24244 47.7392 2.28794 48.962 4.30379 48.9795C10.9548 49.0408 17.6079 49.0977 24.2589 49.1567C24.4424 49.1567 24.6236 49.1633 24.8071 49.1502ZM2.35204 5.4796C10.5989 5.55179 18.7772 5.62397 27.0086 5.69835C26.7986 5.26304 26.5842 4.89117 26.4361 4.49743C26.2947 4.12556 26.0648 4.04462 25.6846 4.04025C20.6074 4.00744 15.5324 3.95931 10.4574 3.91556C8.1675 3.89588 5.87978 3.87181 3.58985 3.86306C3.42407 3.86306 3.17651 3.93744 3.10136 4.05775C2.82727 4.5018 2.61066 4.97867 2.35426 5.48179L2.35204 5.4796ZM25.9056 2.51559L25.9123 1.71935C18.4302 1.65372 10.9747 1.5881 3.5169 1.52029L3.51027 2.31653C10.9923 2.38215 18.4545 2.44777 25.9056 2.51559Z" fill="black"/>
<path d="M27.2539 29.708C27.2097 34.6364 27.1655 39.5188 27.1213 44.4253C18.5849 44.3487 10.0794 44.2743 1.54303 44.2L1.59608 38.3485C2.54653 38.2172 3.51025 38.1013 4.46734 37.9482C7.93539 37.3948 11.1957 36.2551 14.2924 34.6167C16.3812 33.512 18.4832 32.4248 20.6339 31.4449C22.7028 30.5021 24.922 30.0033 27.2539 29.7102V29.708Z" fill="#C4C4C4"/>
<path d="M27.4484 7.23398C27.4219 10.2746 27.3932 13.2998 27.3667 16.2638C25.8371 16.6095 24.3009 16.8391 22.8465 17.3182C21.0627 17.9044 19.3143 18.6285 17.6079 19.4182C15.1058 20.5775 12.6943 21.9403 10.1678 23.045C7.49994 24.2109 4.63532 24.7053 1.7088 24.9765C1.76185 18.9894 1.81711 13.0198 1.87016 7.00867C10.4198 7.08523 18.9142 7.1596 27.4462 7.23398H27.4484ZM14.5908 16.5723C15.8949 16.5788 16.9227 15.5726 16.9315 14.282C16.9404 13.0045 15.8971 11.9545 14.6173 11.9502C13.3441 11.9458 12.2633 13.0023 12.2611 14.2579C12.2566 15.531 13.2977 16.5657 14.593 16.5745L14.5908 16.5723ZM10.5127 18.2413C10.5127 18.2172 10.5127 18.1932 10.5127 18.1669C10.5215 16.4651 9.10466 15.0454 7.39827 15.0432C7.35627 15.0432 7.31648 15.0432 7.27449 15.0454C5.61893 15.111 4.24629 16.4957 4.24187 18.1363C4.24187 18.1757 4.24187 18.2172 4.24408 18.2566C4.29934 19.7922 5.51504 21.0653 7.04019 21.2294C7.1485 21.2425 7.2568 21.2491 7.36732 21.2491C9.07593 21.2534 10.4618 19.9213 10.5105 18.2413H10.5127ZM7.44911 13.3501C8.74659 13.3523 9.77882 12.3351 9.78324 11.0467C9.78767 9.78019 8.72448 8.71926 7.45132 8.72364C6.17594 8.72801 5.10391 9.78893 5.10612 11.0424C5.10612 12.3176 6.15604 13.3458 7.44911 13.3479V13.3501Z" fill="#4FD598"/>
<path d="M27.0506 45.9389C27.4949 47.503 26.4184 49.0386 24.8071 49.1479C24.6258 49.1611 24.4424 49.1545 24.2589 49.1545C17.6079 49.0954 10.9547 49.0386 4.30377 48.9773C2.28792 48.9598 1.24021 47.7348 1.54966 45.7136C10.0706 45.788 18.5628 45.8646 27.0506 45.9389Z" fill="#999999"/>
<path d="M27.0064 5.69831C18.775 5.62612 10.5967 5.55394 2.34985 5.47956C2.60847 4.97645 2.82508 4.49958 3.09696 4.05552C3.17211 3.93521 3.41967 3.86084 3.58544 3.86084C5.87538 3.86959 8.1631 3.89365 10.453 3.91334C15.5302 3.95928 20.6052 4.0074 25.6802 4.03802C26.0582 4.0424 26.2903 4.12334 26.4317 4.4952C26.5798 4.88895 26.7942 5.26082 27.0042 5.69612L27.0064 5.69831Z" fill="#999999"/>
<path d="M25.9123 1.71932L25.9057 2.51556C18.4523 2.44994 10.9924 2.38431 3.51031 2.3165L3.51695 1.52026C10.9747 1.58589 18.4302 1.65151 25.9123 1.71932Z" fill="#808080"/>
<path d="M16.9316 14.2819C16.9228 15.5747 15.895 16.5809 14.5908 16.5722C13.2956 16.5656 12.2567 15.531 12.2589 14.2557C12.2633 13.0001 13.342 11.9435 14.6152 11.9479C15.895 11.9523 16.9382 13.0022 16.9294 14.2797L16.9316 14.2819ZM14.6019 15.0913C15.0793 15.0913 15.444 14.7216 15.433 14.2469C15.4219 13.8094 15.0418 13.4376 14.6041 13.4376C14.1753 13.4376 13.7752 13.8204 13.7597 14.2447C13.7443 14.6997 14.1333 15.0913 14.5997 15.0913H14.6019Z" fill="black"/>
<path d="M15.433 14.247C15.444 14.7217 15.0793 15.0913 14.6019 15.0913C14.1355 15.0913 13.7442 14.6976 13.7619 14.2448C13.7774 13.8204 14.1753 13.4376 14.6063 13.4376C15.0461 13.4376 15.4241 13.8095 15.4352 14.247H15.433Z" fill="white"/>
<path d="M10.5149 18.1691C10.5149 18.1932 10.5149 18.2194 10.5149 18.2435L9.02292 18.1932C9.0406 17.2963 8.3156 16.5438 7.41378 16.5263C7.38062 16.5263 7.34746 16.5263 7.31431 16.5263L7.27673 15.0476C7.31873 15.0454 7.35852 15.0454 7.40051 15.0454C9.10912 15.0454 10.5238 16.4651 10.5149 18.1691Z" fill="black"/>
<path d="M9.02069 18.1931L10.5127 18.2434C10.4663 19.9234 9.07816 21.2556 7.36955 21.2512C7.25903 21.2512 7.14852 21.2446 7.04242 21.2315L7.16841 19.7528C7.22367 19.7593 7.27672 19.7637 7.33419 19.7637C8.25812 19.7878 9.0008 19.0922 9.02069 18.1909V18.1931Z" fill="black"/>
<path d="M9.78106 11.051C9.77664 12.3394 8.74441 13.3566 7.44692 13.3544C6.15165 13.35 5.10615 12.3219 5.10394 11.0488C5.10394 9.79541 6.17376 8.73449 7.44913 8.73012C8.7223 8.72574 9.78548 9.78447 9.78106 11.0532V11.051ZM7.42703 11.8735C7.89563 11.8823 8.28465 11.506 8.28244 11.0445C8.28023 10.6091 7.90447 10.2285 7.46682 10.2154C7.02032 10.2045 6.60036 10.6113 6.60478 11.0532C6.60699 11.4885 6.98717 11.8626 7.42703 11.8735Z" fill="black"/>
<path d="M7.41157 16.5262C8.31119 16.5437 9.0384 17.2962 9.02071 18.1931C9.00082 19.0943 8.25814 19.7899 7.33421 19.7659C7.27895 19.7659 7.22369 19.7593 7.16843 19.7549C6.38375 19.6565 5.77591 19.009 5.74054 18.2237C5.74054 18.1953 5.74054 18.169 5.74054 18.1428C5.74717 17.2919 6.46775 16.5656 7.31432 16.5284C7.34747 16.5262 7.38063 16.5284 7.41378 16.5284L7.41157 16.5262Z" fill="white"/>
<path d="M8.28463 11.0446C8.28684 11.5061 7.89782 11.8846 7.42922 11.8736C6.98936 11.8627 6.60918 11.4864 6.60697 11.0533C6.60255 10.6093 7.02252 10.2024 7.46901 10.2155C7.90666 10.2286 8.28242 10.6115 8.28463 11.0446Z" fill="white"/>
<path d="M7.27451 15.0498L7.31209 16.5285C6.46552 16.5657 5.74715 17.292 5.73831 18.1429C5.73831 18.1713 5.73831 18.1976 5.73831 18.2238L4.2419 18.261C4.23969 18.2216 4.23969 18.1801 4.23969 18.1407C4.24411 16.5001 5.61674 15.1154 7.2723 15.0498H7.27451Z" fill="black"/>
<path d="M7.16843 19.755L7.04244 21.2337C5.51729 21.0696 4.29939 19.7987 4.24634 18.2609L5.74275 18.2238C5.77591 19.0091 6.38597 19.6565 7.17064 19.755H7.16843Z" fill="black"/>
</svg>
