<svg width="57" height="57" viewBox="0 0 57 57" fill="none" xmlns="http://www.w3.org/2000/svg">
<g clip-path="url(#clip0_2184_5428)">
<path d="M49 10.5L35.5 16.9952V4.00481L49 10.5Z" fill="#DF2222"/>
<path d="M1.74715 56.9999H54.9899C55.4803 56.9998 55.9536 56.8201 56.3209 56.4951C56.6881 56.17 56.9237 55.7219 56.9832 55.2352C57.043 54.7485 56.9226 54.2566 56.6448 53.8525L36.1001 24.0244V18.6427L49.2434 12.2121C49.6879 11.9977 50.0349 11.6234 50.2151 11.164C50.3954 10.7046 50.3954 10.1942 50.2151 9.73473C50.0349 9.27532 49.6879 8.90106 49.2434 8.6866L36.0251 2.21995C35.9111 1.69802 35.6469 1.22079 35.2651 0.847295C34.736 0.303277 34.0089 -0.00271798 33.25 -0.000105478C32.4941 -0.000105478 31.7692 0.300109 31.2348 0.834659C30.7002 1.36903 30.4 2.09398 30.4 2.84989V24.0225L22.6157 35.3275L19.8351 31.3308L19.8349 31.331C19.4278 30.7477 18.7613 30.4001 18.05 30.3999C17.3389 30.3988 16.6723 30.7451 16.2639 31.3271L0.309572 54.2753C0.0674309 54.6253 -0.0377721 55.0521 0.0139934 55.4745C0.0657589 55.8968 0.270788 56.2855 0.590311 56.5668C0.909824 56.8481 1.32138 57.0021 1.74703 56.9999L1.74715 56.9999ZM55.0849 55.0411H55.0847C55.0691 55.0792 55.0309 55.1029 54.9897 55.1H11.5082C11.467 55.1029 11.4288 55.0792 11.4132 55.0411C11.3911 55.0064 11.3939 54.9617 11.4199 54.93L26.9249 32.415L28.1038 33.5873H28.1036C28.4504 33.9382 28.9126 34.1519 29.4047 34.1886C29.8967 34.2256 30.3855 34.0831 30.7807 33.7877L33.1557 32.0016C33.208 31.9617 33.2795 31.9582 33.3353 31.993L35.7189 33.7943C36.074 34.0582 36.5049 34.2005 36.9472 34.2C37.4867 34.2031 38.0046 33.9875 38.3826 33.6025L39.5729 32.4187L55.0788 54.9337C55.1027 54.9649 55.1051 55.0076 55.0845 55.0411H55.0849ZM28.0242 30.8266L32.6972 24.0426C32.8233 23.8597 33.0313 23.7504 33.2534 23.7504C33.4757 23.7504 33.6835 23.8597 33.8097 24.0426L38.4742 30.8266L37.0282 32.2649C36.9807 32.3095 36.9076 32.3128 36.8564 32.2725L34.4604 30.4675C34.1057 30.2081 33.6773 30.069 33.2379 30.0707C32.7983 30.0721 32.371 30.2143 32.0179 30.4761L29.6429 32.2668C29.5859 32.3132 29.5024 32.3069 29.4529 32.2525L28.0242 30.8266ZM48.4121 10.5061L36.0992 16.53V4.37004L48.4074 10.3911L48.4121 10.5061ZM33.2492 1.90004C33.5054 1.89948 33.7505 2.0045 33.9266 2.19079C34.1027 2.36465 34.201 2.60252 34.1992 2.85004V22.0514C33.5941 21.7837 32.9042 21.7837 32.2992 22.0514V2.85004C32.2992 2.59807 32.3992 2.35647 32.5775 2.17834C32.7556 2.00003 32.9972 1.90004 33.2492 1.90004ZM17.8202 32.4169C17.874 32.3455 17.9583 32.3035 18.0477 32.3035C18.1371 32.3035 18.2214 32.3455 18.2754 32.4169L21.4636 36.9988L20.7283 38.0647L19.1076 36.86C18.801 36.632 18.4292 36.5088 18.0474 36.5088C17.6653 36.5088 17.2935 36.632 16.9872 36.86L15.2876 38.1263L14.4326 37.2856L17.8202 32.4169ZM13.3352 38.8674L14.0239 39.5467L14.0241 39.5465C14.3533 39.8757 14.8001 40.0603 15.2656 40.0595C15.6514 40.0584 16.0269 39.9362 16.3392 39.71L18.0492 38.436L19.6499 39.6293L9.8535 53.8527C9.60635 54.2197 9.48909 54.6589 9.52007 55.1001H2.04927L13.3352 38.8674Z" fill="white"/>
</g>
<defs>
<clipPath id="clip0_2184_5428">
<rect width="57" height="57" fill="white"/>
</clipPath>
</defs>
</svg>
