<svg width="389" height="430" viewBox="0 0 389 430" fill="none" xmlns="http://www.w3.org/2000/svg">
<path d="M323.006 85.9499C322.159 90.5999 315.925 104.31 275.444 128.46C275.204 128.6 274.965 128.74 274.726 128.89C271.125 131.04 267.435 133.24 263.705 135.47C263.037 135.87 262.369 136.27 261.69 136.67C260.883 137.15 260.075 137.63 259.257 138.12C254.36 141.03 249.383 143.99 244.377 146.94C241.504 148.63 238.622 150.33 235.74 152.01C233.745 153.18 231.74 154.35 229.746 155.51C227.193 157 224.649 158.47 222.116 159.93C215.065 163.99 208.114 167.92 201.412 171.62C191.229 177.25 181.624 182.33 173.097 186.47C160.551 192.56 150.358 196.62 144.155 197.39C143.167 197.51 142.29 197.55 141.512 197.5C141.392 197.5 141.282 197.48 141.163 197.47C139.477 197.3 136.874 197.05 133.553 196.72C132.376 196.6 131.1 196.48 129.753 196.34C127.649 196.13 125.345 195.9 122.872 195.64C100.013 193.31 62.4231 189.26 32.8422 184.91C29.2419 184.38 25.7612 183.85 22.44 183.31C19.5079 182.84 16.6954 182.36 14.0325 181.89C13.5638 181.81 13.105 181.72 12.6462 181.64C9.63427 181.09 6.83176 180.54 4.28856 180C2.78259 179.68 1.36638 179.36 0.0498962 179.04V119.4C14.3916 114.42 38.0184 105.47 38.0184 105.47L48.3308 95.1799C48.3308 95.1799 48.5502 95.0899 48.9691 94.9299C49.0389 94.8999 49.1087 94.8699 49.1885 94.8399C49.9365 94.5499 51.1632 94.0499 52.749 93.3899C52.9285 93.3099 53.128 93.2299 53.3175 93.1499C53.6267 93.0199 53.9458 92.8899 54.2749 92.7499C54.4544 92.6699 54.6539 92.5899 54.8434 92.5099C55.7211 92.1299 56.6685 91.7199 57.6758 91.2799C57.9252 91.1699 58.1845 91.0599 58.4338 90.9399C59.2117 90.5999 60.0196 90.2399 60.8474 89.8499C61.1266 89.7199 61.4059 89.5999 61.6951 89.4699C62.1738 89.2499 62.6725 89.0199 63.1711 88.7799C63.4005 88.6699 63.6399 88.5599 63.8792 88.4499C64.8566 87.9899 65.8639 87.5099 66.8912 87.0099C67.2901 86.8199 67.699 86.6199 68.098 86.4199C72.6857 84.1699 77.6624 81.5499 82.5394 78.6699C82.8186 78.5099 83.0879 78.3499 83.3671 78.1799C84.4842 77.5099 85.5812 76.8399 86.6783 76.1499C86.9675 75.9599 87.2568 75.7799 87.546 75.5899C88.3738 75.0599 89.1916 74.5299 89.9894 73.9899C90.3485 73.7499 90.6975 73.5099 91.0466 73.2699C91.655 72.8499 92.2634 72.4299 92.8618 71.9999C93.0612 71.8599 93.2607 71.7199 93.4602 71.5699C93.6596 71.4299 93.8491 71.2899 94.0486 71.1399C94.1882 71.0399 94.3278 70.9299 94.4675 70.8299C95.1058 70.3499 95.7341 69.8799 96.3425 69.3999L96.871 68.9799L96.901 68.9599C97.3897 68.5699 97.8784 68.1799 98.3471 67.7799C98.9654 67.2599 99.5738 66.7399 100.162 66.2099C100.591 65.8299 101.01 65.4399 101.419 65.0499C102.556 63.9699 103.613 62.8899 104.58 61.7899C104.7 61.6499 104.82 61.5199 104.939 61.3799C105.059 61.2399 105.169 61.1099 105.289 60.9699C105.408 60.8299 105.518 60.6999 105.628 60.5599C105.737 60.4199 105.847 60.2899 105.957 60.1499C106.605 59.3299 107.203 58.5099 107.732 57.6799C107.822 57.5399 107.912 57.4099 107.991 57.2799C108.251 56.8599 108.5 56.4499 108.729 56.0299C108.729 56.0299 118.304 48.5799 121.994 45.8799C122.253 45.6899 122.552 45.6299 122.882 45.6799C122.941 45.6799 123.011 45.6999 123.071 45.7199C123.36 45.7999 123.669 45.9599 123.989 46.1999C124.028 46.2299 124.068 46.2599 124.108 46.2899C124.188 46.3499 124.278 46.4199 124.368 46.4899C124.407 46.5199 124.457 46.5599 124.497 46.5999C124.537 46.6399 124.587 46.6799 124.627 46.7199C124.667 46.7599 124.717 46.7999 124.756 46.8399C124.846 46.9199 124.936 47.0099 125.026 47.0999C125.116 47.1899 125.205 47.2899 125.305 47.3899C125.684 47.7899 126.083 48.2499 126.492 48.7599C126.542 48.8199 126.592 48.8899 126.651 48.9599C126.701 49.0199 126.761 49.0899 126.811 49.1599C126.891 49.2599 126.961 49.3599 127.04 49.4499C127.12 49.5599 127.21 49.6699 127.29 49.7799C127.36 49.8799 127.439 49.9799 127.519 50.0799C127.599 50.1899 127.679 50.2999 127.768 50.4099C128.337 51.1799 128.935 52.0299 129.554 52.9299C129.623 53.0199 129.683 53.1099 129.743 53.1999C129.863 53.3799 129.983 53.5499 130.102 53.7299C130.272 53.9899 130.451 54.2499 130.631 54.5199C130.631 54.5199 130.641 54.5399 130.651 54.5399C130.77 54.7199 130.9 54.9099 131.03 55.0899C131.279 55.4599 131.538 55.8399 131.788 56.2199C131.967 56.4899 132.157 56.7699 132.346 57.0399C132.536 57.3299 132.735 57.6199 132.935 57.9099C133.234 58.3499 133.533 58.7899 133.832 59.2399C133.882 59.3099 133.922 59.3799 133.972 59.4499C134.231 59.8299 134.49 60.2099 134.75 60.5899C135.318 61.4099 135.887 62.2399 136.475 63.0599C136.734 63.4299 137.004 63.7999 137.273 64.1699C138.021 65.1999 138.789 66.2199 139.557 67.1999C139.687 67.3699 139.826 67.5399 139.966 67.7099C140.046 67.8199 140.135 67.9199 140.225 68.0299C140.335 68.1699 140.445 68.2999 140.554 68.4399C140.804 68.7399 141.053 69.0499 141.302 69.3399C141.452 69.5199 141.601 69.6899 141.751 69.8599C142.02 70.1699 142.29 70.4699 142.559 70.7699C142.669 70.8899 142.778 71.0199 142.898 71.1299C143.028 71.2799 143.167 71.4199 143.307 71.5599C143.496 71.7599 143.686 71.9399 143.875 72.1299C144.683 72.9299 145.491 73.6599 146.299 74.2999C147.246 75.0399 148.264 75.7699 149.331 76.4799C149.5 76.5899 149.66 76.6999 149.829 76.8099C149.949 76.8899 150.069 76.9699 150.188 77.0399C150.258 77.0799 150.318 77.1199 150.378 77.1599C150.587 77.2999 150.807 77.4299 151.026 77.5599C151.136 77.6299 151.246 77.6999 151.355 77.7599C151.874 78.0699 152.403 78.3899 152.931 78.6899C153.24 78.8699 153.559 79.0499 153.879 79.2299C155.145 79.9399 156.432 80.6099 157.718 81.2599C158.107 81.4499 158.486 81.6399 158.865 81.8299C161.428 83.0699 163.952 84.1799 166.216 85.1199C166.425 85.2099 166.635 85.2999 166.844 85.3799C167.582 85.6799 168.29 85.9699 168.958 86.2299C169.238 86.3399 169.517 86.4499 169.776 86.5499C170.863 86.9699 171.831 87.3299 172.638 87.6199C172.808 87.6799 172.968 87.7399 173.117 87.7999C173.646 87.9899 174.085 88.1399 174.424 88.2599C174.573 88.3099 174.703 88.3599 174.803 88.3899C175.062 88.4799 175.192 88.5199 175.192 88.5199L178.303 86.6699L180.737 85.2199L194.53 77.0099C194.68 77.1499 198.968 81.2099 205.76 85.4799C214.596 91.0499 227.661 96.9999 241.315 95.1699C250.57 93.9299 264.633 92.0299 278.495 90.1699C278.535 90.1699 278.575 90.1699 278.615 90.1499C278.665 90.1499 278.705 90.1399 278.735 90.1299C278.765 90.1299 278.795 90.1299 278.825 90.1199C278.864 90.1199 278.914 90.1199 278.944 90.0999C278.974 90.0999 278.994 90.0999 279.024 90.0999C279.224 90.0699 279.323 90.0599 279.323 90.0599C282.465 89.6299 285.587 89.2099 288.638 88.7999C295.56 87.8699 302.112 86.9799 307.598 86.2399C316.833 84.9899 323.076 84.1499 323.076 84.1499C323.076 84.1499 323.226 84.7499 323.006 85.9599V85.9499Z" fill="#5A93A7"/>
<path d="M275.434 95.1699C275.394 95.2799 275.105 96.2099 274.576 97.8199C274.257 98.7699 273.868 99.9499 273.379 101.35C272.541 103.82 271.444 106.95 270.128 110.56C270.068 110.72 270.008 110.88 269.958 111.04C269.599 112.03 269.22 113.06 268.821 114.12C266.258 121.03 263.017 129.33 259.247 138.11C254.27 149.7 248.356 162.15 241.843 173.38C240.178 176.26 238.472 179.05 236.727 181.73C236.109 182.69 235.48 183.63 234.852 184.56C233.276 186.88 231.681 189.09 230.055 191.18C229.187 192.3 228.31 193.39 227.422 194.43C225.856 196.29 224.27 198.02 222.665 199.6C221.727 200.53 220.79 201.4 219.842 202.22C219.144 202.82 218.456 203.39 217.758 203.94C216.342 205.04 214.955 206.1 213.589 207.13C212.113 208.25 210.657 209.32 209.231 210.35C208.921 210.58 208.612 210.8 208.303 211.02C203.346 214.57 198.619 217.65 193.922 220.3C193.892 220.32 193.862 220.34 193.832 220.35C192.166 221.29 190.501 222.17 188.825 223C188.346 223.24 187.868 223.47 187.379 223.7C183.2 225.69 178.962 227.36 174.494 228.72C166.585 231.14 157.988 232.62 147.875 233.28C139.667 233.82 130.451 233.84 119.78 233.39C104.201 232.74 88.7827 233.27 74.2116 233.39C73.4237 233.39 72.6358 233.41 71.8479 233.41C67.0807 233.44 62.4032 233.41 57.8454 233.28C55.8507 233.22 53.866 233.14 51.9212 233.03C47.7224 232.8 43.6433 232.45 39.7039 231.93C37.6693 231.67 35.6647 231.35 33.7099 230.99C33.7099 230.99 33.7099 230.99 33.6999 230.99C31.9546 230.67 30.2392 230.3 28.5537 229.89C26.948 229.5 25.3822 229.07 23.8363 228.59C21.5923 227.89 19.4181 227.1 17.3237 226.19C15.4388 225.38 13.6136 224.48 11.8583 223.48C11.1103 223.05 10.3623 222.61 9.63427 222.14C9.26526 221.91 8.90622 221.67 8.54718 221.43C8.17816 221.18 7.80915 220.93 7.45011 220.67C4.7972 218.77 2.32382 216.6 0.0498962 214.12V133.66C2.76264 135.36 6.10371 137.32 10.0432 139.38C18.5804 143.84 29.94 148.78 43.8229 152.63C49.5675 154.23 55.741 155.63 62.3234 156.75C107.253 164.34 129.653 153.51 129.653 153.51L149.979 137.26L161.03 143.62C161.03 143.62 175.012 128.98 194.54 122.63C213.509 116.45 228.539 117.52 271.614 97.0099C271.923 96.8599 272.242 96.7099 272.561 96.5599C272.701 96.4899 272.841 96.4299 272.98 96.3599C273.16 96.2699 273.339 96.1899 273.519 96.0999C273.589 96.0699 273.658 96.0299 273.738 95.9999C273.888 95.9199 274.037 95.85 274.197 95.78C274.297 95.73 274.396 95.69 274.486 95.64C274.805 95.48 275.134 95.3299 275.454 95.1699H275.434Z" fill="#397689"/>
<path d="M379.057 5.92999L389 0V204.14C387.753 204.7 386.437 205.26 385.061 205.82C382.368 206.92 379.436 208.01 376.304 209.11C368.734 211.74 359.958 214.35 350.443 216.82C344.838 218.28 338.974 219.68 332.95 221.02C311.258 225.84 287.511 229.76 266.228 231.73C264.513 231.89 262.807 232.04 261.122 232.17C258.04 232.41 255.018 232.62 252.066 232.77C251.258 232.81 250.47 232.85 249.673 232.89C248.486 232.94 247.319 232.98 246.162 233.02C240.956 233.18 236.039 233.17 231.511 232.97C230.075 232.91 228.679 232.82 227.322 232.72C226.684 232.67 226.056 232.62 225.417 232.56C218.725 231.94 211.894 230.69 205.102 229.01C199.108 227.53 193.164 225.72 187.369 223.71C186.611 223.45 185.853 223.18 185.105 222.91C182.023 221.81 178.982 220.65 176.029 219.47C175.7 219.34 175.381 219.21 175.052 219.08C167.333 215.96 160.142 212.66 153.869 209.57C153.789 209.53 153.719 209.49 153.639 209.46C150.338 207.83 147.286 206.26 144.554 204.81C142.718 203.84 141.023 202.92 139.487 202.07C133.473 198.75 129.863 196.51 129.673 196.39C129.673 196.39 129.703 196.37 129.753 196.34C129.753 196.34 129.763 196.34 129.773 196.34C129.853 196.3 129.963 196.23 130.122 196.14C130.172 196.11 130.232 196.08 130.302 196.04C130.78 195.77 131.508 195.34 132.446 194.81C132.576 194.74 132.705 194.66 132.835 194.58C133.523 194.18 134.311 193.74 135.179 193.25C135.328 193.16 135.478 193.08 135.637 192.99C135.996 192.79 136.375 192.58 136.754 192.36C137.702 191.83 138.709 191.27 139.756 190.7C139.856 190.64 139.966 190.59 140.066 190.53C144.424 188.14 149.401 185.53 153.38 183.74C153.47 183.7 153.569 183.65 153.659 183.61C153.879 183.51 154.108 183.41 154.317 183.32C154.437 183.27 154.557 183.22 154.667 183.17C154.696 183.16 154.716 183.15 154.746 183.14C154.926 183.06 155.095 182.99 155.265 182.92C155.434 182.85 155.604 182.78 155.774 182.71C155.943 182.64 156.103 182.58 156.262 182.52C156.601 182.39 156.92 182.28 157.22 182.17C157.319 182.14 157.409 182.1 157.499 182.07C158.237 181.83 158.865 181.66 159.374 181.59C159.444 181.59 159.504 181.57 159.553 181.57C159.593 181.57 159.643 181.57 159.683 181.56C159.713 181.56 159.743 181.56 159.773 181.56C159.982 181.56 160.162 181.56 160.311 181.61C160.341 181.61 160.381 181.63 160.411 181.63C160.96 181.73 161.957 181.56 163.293 181.19C163.363 181.17 163.423 181.15 163.493 181.13C163.493 181.13 163.503 181.13 163.513 181.13C163.882 181.03 164.271 180.9 164.69 180.77C164.71 180.77 164.73 180.76 164.74 180.75C164.909 180.7 165.079 180.64 165.258 180.58C165.637 180.46 166.026 180.32 166.425 180.18C166.465 180.16 166.505 180.15 166.545 180.14C166.804 180.05 167.063 179.95 167.333 179.85C167.353 179.85 167.373 179.83 167.392 179.83C167.492 179.79 167.592 179.76 167.692 179.72C167.881 179.65 168.081 179.58 168.27 179.5C168.669 179.34 169.088 179.19 169.497 179.02C169.497 179.02 169.497 179.02 169.507 179.02C169.527 179.02 169.547 179 169.567 179C169.756 178.93 169.946 178.85 170.135 178.77C170.165 178.76 170.205 178.74 170.235 178.73C170.414 178.66 170.594 178.59 170.773 178.51C170.883 178.47 170.993 178.42 171.093 178.38C171.192 178.34 171.302 178.29 171.412 178.25C171.472 178.23 171.541 178.2 171.611 178.17C171.651 178.15 171.701 178.13 171.741 178.11C171.811 178.08 171.89 178.05 171.96 178.02C172 178 172.03 177.99 172.07 177.97C172.15 177.94 172.23 177.9 172.309 177.87C172.449 177.81 172.599 177.75 172.738 177.69C172.828 177.65 172.928 177.61 173.027 177.57C173.047 177.57 173.057 177.55 173.077 177.55C173.297 177.46 173.526 177.36 173.746 177.27C173.746 177.27 173.746 177.27 173.755 177.27C174.324 177.03 174.892 176.79 175.471 176.54C175.7 176.44 175.93 176.34 176.159 176.24C176.259 176.2 176.359 176.15 176.458 176.11C176.648 176.03 176.847 175.94 177.037 175.86C177.555 175.63 178.074 175.41 178.583 175.18C178.682 175.14 178.782 175.1 178.872 175.05C178.892 175.05 178.912 175.03 178.922 175.02C179.021 174.98 179.131 174.93 179.231 174.88C179.241 174.88 179.261 174.88 179.271 174.86C179.38 174.81 179.49 174.76 179.6 174.71C179.6 174.71 179.62 174.71 179.63 174.69C180.198 174.44 180.757 174.19 181.315 173.93C181.345 173.93 181.375 173.9 181.405 173.89C181.485 173.85 181.575 173.81 181.654 173.78C181.694 173.76 181.724 173.75 181.764 173.73C182.183 173.54 182.592 173.35 183.011 173.16C183.18 173.08 183.36 173 183.529 172.93C183.759 172.83 183.988 172.72 184.218 172.62C184.247 172.61 184.267 172.6 184.297 172.58C184.387 172.54 184.467 172.5 184.557 172.46C184.587 172.45 184.606 172.44 184.636 172.42C184.836 172.33 185.035 172.24 185.225 172.15C185.225 172.15 185.235 172.15 185.245 172.15C185.345 172.1 185.454 172.06 185.554 172.01C185.753 171.92 185.963 171.82 186.162 171.73C186.172 171.73 186.192 171.73 186.202 171.71C186.392 171.62 186.581 171.54 186.761 171.45C187.618 171.05 188.436 170.67 189.194 170.31C189.224 170.3 189.254 170.28 189.284 170.27C189.454 170.19 189.613 170.12 189.773 170.04C189.942 169.96 190.102 169.89 190.261 169.81C190.261 169.81 190.271 169.81 190.281 169.81C190.501 169.71 190.72 169.6 190.93 169.5C191.239 169.35 191.538 169.22 191.807 169.08C191.867 169.05 191.927 169.02 191.987 169C192.017 168.98 192.057 168.97 192.086 168.95C192.126 168.93 192.166 168.92 192.196 168.9C192.256 168.87 192.306 168.85 192.366 168.82C192.406 168.8 192.436 168.78 192.475 168.77C192.505 168.76 192.535 168.74 192.565 168.73C192.655 168.69 192.735 168.65 192.824 168.61C192.854 168.6 192.884 168.58 192.924 168.56C192.954 168.55 192.984 168.53 193.014 168.52C193.024 168.52 193.044 168.51 193.054 168.5C193.104 168.48 193.144 168.46 193.194 168.44C193.194 168.44 193.194 168.44 193.203 168.44C193.243 168.42 193.273 168.4 193.303 168.39C193.403 168.34 193.503 168.29 193.592 168.25C193.722 168.18 193.852 168.13 193.951 168.07C193.961 168.07 193.981 168.06 193.991 168.05C194.011 168.05 194.031 168.03 194.051 168.02C194.071 168.02 194.091 168 194.111 167.99C194.141 167.98 194.161 167.97 194.191 167.96C194.191 167.96 194.211 167.96 194.221 167.95C194.231 167.95 194.241 167.95 194.251 167.93H194.261C194.311 167.9 194.36 167.88 194.39 167.86C194.4 167.86 194.42 167.85 194.43 167.84C194.44 167.84 194.45 167.83 194.46 167.82C194.5 167.8 194.53 167.79 194.53 167.79C194.53 167.79 194.53 167.79 194.53 167.77L201.611 148.74L209.63 127.18H220.68L224.36 119.73C224.36 119.73 224.56 119.63 224.939 119.45C224.998 119.42 225.058 119.39 225.118 119.36C226.165 118.86 228.28 117.85 231.212 116.45C231.371 116.37 231.541 116.29 231.701 116.21C232.219 115.97 232.758 115.71 233.316 115.44C233.446 115.38 233.576 115.31 233.715 115.25C237.964 113.22 243.439 110.6 249.673 107.61C250.061 107.42 250.45 107.23 250.849 107.04C257.182 104 264.254 100.61 271.594 97.07C271.903 96.92 272.212 96.77 272.531 96.62C272.671 96.55 272.811 96.49 272.95 96.42C273.13 96.33 273.309 96.25 273.489 96.16C273.708 96.05 273.938 95.94 274.157 95.84C274.257 95.79 274.357 95.75 274.446 95.7C274.765 95.54 275.095 95.39 275.414 95.23C276.251 94.83 277.089 94.42 277.937 94.02C279.981 93.03 282.046 92.03 284.11 91.04C284.898 90.66 285.696 90.27 286.484 89.89C287.202 89.55 287.91 89.2 288.618 88.85C290.852 87.77 293.067 86.69 295.271 85.62C296.128 85.2 296.986 84.79 297.844 84.37C299.27 83.67 300.696 82.98 302.102 82.3C303.259 81.74 304.396 81.18 305.523 80.63C306.161 80.32 306.78 80.01 307.408 79.71C308.435 79.2 309.453 78.71 310.47 78.21C312.864 77.03 315.197 75.89 317.441 74.79C317.471 74.78 317.491 74.76 317.521 74.75C318.279 74.38 319.027 74.01 319.755 73.65C319.765 73.65 319.785 73.63 319.795 73.63C320.513 73.27 321.221 72.92 321.919 72.58C321.969 72.55 322.019 72.53 322.079 72.5C322.737 72.18 323.385 71.85 324.024 71.54C324.832 71.14 325.629 70.75 326.397 70.36C327.265 69.93 328.103 69.51 328.911 69.1C329.08 69.02 329.24 68.93 329.399 68.86C329.699 68.71 329.998 68.56 330.287 68.41C331.095 68 331.873 67.61 332.621 67.23C332.91 67.08 333.199 66.94 333.488 66.79C333.708 66.68 333.927 66.56 334.147 66.46C334.346 66.36 334.536 66.26 334.735 66.16C335.274 65.88 335.792 65.62 336.291 65.36C336.411 65.3 336.54 65.23 336.66 65.17C336.929 65.03 337.189 64.9 337.448 64.76C337.857 64.55 338.256 64.35 338.625 64.15C338.834 64.04 339.044 63.93 339.243 63.82C339.532 63.67 339.812 63.52 340.081 63.37C341.018 62.87 341.816 62.44 342.464 62.08C342.564 62.03 342.654 61.97 342.744 61.92C342.873 61.85 342.993 61.78 343.103 61.71C343.192 61.66 343.272 61.61 343.352 61.56C343.771 61.31 344.07 61.11 344.24 60.98C344.26 60.96 344.28 60.95 344.29 60.94C344.3 60.94 344.319 60.92 344.329 60.91C344.339 60.9 344.359 60.89 344.369 60.87C344.389 60.85 344.399 60.83 344.409 60.81C345.147 58.78 345.147 43.21 345.147 43.21L365.433 27.49L375.037 12.29L379.027 5.97003L379.057 5.92999Z" fill="#235D78"/>
<path d="M214.736 199.99H214.726C214.168 200.09 205.042 201.65 190.69 203.94C186.352 204.63 181.535 205.39 176.339 206.19C169.597 207.23 162.216 208.34 154.397 209.48C154.218 209.51 154.038 209.53 153.859 209.56C151.485 209.91 149.062 210.26 146.608 210.61C142.07 211.26 137.413 211.91 132.675 212.56C128.706 213.11 124.677 213.65 120.618 214.18C119.949 214.27 119.281 214.36 118.613 214.44C115.581 214.84 112.529 215.23 109.467 215.62C94.9562 217.45 80.2156 219.14 66.1632 220.48C66.0435 220.49 65.9239 220.5 65.8042 220.51C64.1087 220.67 62.4232 220.83 60.7477 220.98C58.5037 221.18 56.2896 221.37 54.0955 221.56C52.6693 221.68 51.2531 221.79 49.8468 221.9C44.9699 222.28 40.2226 222.6 35.6747 222.85C34.7173 222.9 33.7698 222.96 32.8224 223C31.446 223.07 30.0897 223.13 28.7532 223.19C25.0432 223.34 21.4827 223.44 18.1017 223.48C15.9475 223.51 13.863 223.51 11.8584 223.48C10.5619 223.46 9.29526 223.44 8.06854 223.4C7.77931 223.4 7.49008 223.38 7.21083 223.37C6.34315 223.34 5.49542 223.3 4.66763 223.26C4.23878 223.24 3.80992 223.21 3.39104 223.19C2.23414 223.12 1.10715 223.04 0.0300293 222.94V157.3C13.9728 159.29 39.3549 164.81 62.3135 179.81C74.5807 187.83 97.9881 192.68 122.852 195.61C125.106 195.88 127.38 196.13 129.644 196.36C130.85 196.49 132.057 196.61 133.264 196.72C133.344 196.72 133.433 196.74 133.513 196.75C134.461 196.84 135.398 196.93 136.336 197.01C137.163 197.09 137.991 197.16 138.819 197.23C138.929 197.23 139.038 197.25 139.158 197.26C139.607 197.3 140.056 197.34 140.504 197.37C140.524 197.37 140.544 197.37 140.564 197.37C150.428 198.2 160.162 198.77 169.168 199.16C169.198 199.16 169.228 199.16 169.258 199.16C171.153 199.24 173.008 199.32 174.833 199.39C175.202 199.4 175.561 199.42 175.92 199.43C176.997 199.47 178.054 199.51 179.101 199.54C179.5 199.55 179.899 199.56 180.288 199.58C182.203 199.64 184.068 199.69 185.873 199.74C186.422 199.75 186.95 199.77 187.479 199.78C188.357 199.8 189.214 199.82 190.062 199.83C191.299 199.86 192.505 199.88 193.672 199.9C194.241 199.9 194.799 199.92 195.358 199.93C196.315 199.94 197.243 199.96 198.14 199.97C198.559 199.97 198.968 199.97 199.377 199.98C199.956 199.98 200.534 199.98 201.083 199.99C201.521 199.99 201.95 199.99 202.379 199.99H202.409C203.097 199.99 203.775 199.99 204.414 199.99C210.218 200.01 213.888 199.96 214.596 199.95C214.636 199.95 214.676 199.95 214.716 199.95L214.736 199.99Z" fill="#315835"/>
<path d="M388.85 130.38C388.9 130.4 388.95 130.41 388.99 130.43V158.16C388.94 158.26 388.89 158.37 388.85 158.46C388.641 158.89 388.431 159.32 388.212 159.73C383.495 168.63 375.017 174.01 371.247 181.58C370.729 182.62 370.08 183.94 369.323 185.49C368.734 186.68 368.076 188.01 367.358 189.43C364.884 194.33 361.693 200.36 358.053 206.15C357.384 207.22 356.696 208.28 355.998 209.32C355.43 210.17 354.841 211.02 354.253 211.84C353.634 212.71 353.006 213.56 352.368 214.39C351.73 215.22 351.091 216.03 350.433 216.8C350.044 217.26 349.655 217.71 349.266 218.16C348.019 219.56 346.753 220.84 345.466 221.98C344.848 222.52 344.23 223.03 343.601 223.5C337.508 228.09 317.541 230.86 294.852 231.89C285.028 232.33 274.696 232.45 264.762 232.25C263.535 232.23 262.319 232.2 261.102 232.16C258.688 232.09 256.305 232 253.971 231.9C253.931 231.9 253.901 231.9 253.871 231.9C253.532 231.89 253.203 231.87 252.874 231.85C252.654 231.85 252.445 231.83 252.226 231.82C246.94 231.56 241.903 231.19 237.276 230.73C234.433 230.45 231.75 230.13 229.257 229.77C226.115 229.32 223.383 228.8 220.999 228.2C215.524 226.84 211.953 225.12 209.759 223.22C205.451 219.49 206.458 215.02 208.782 211.03C208.911 210.8 209.051 210.58 209.191 210.35C209.899 209.21 210.707 208.12 211.504 207.1C212.342 206.03 213.18 205.04 213.898 204.17C214.227 203.77 214.556 203.22 214.875 202.54C215.215 201.81 215.554 200.93 215.873 199.93C216.361 198.4 216.84 196.59 217.289 194.57C217.548 193.4 217.798 192.16 218.047 190.87C219.862 181.29 221.248 168.8 222.096 159.9C222.724 153.29 223.064 148.66 223.064 148.66C223.064 148.66 226.105 151.63 229.726 155.49C235.051 161.16 241.634 168.76 241.644 171.63C241.644 172.12 241.714 172.71 241.833 173.38C242.561 177.55 245.284 184.93 246.341 191.18C246.541 192.36 246.68 193.5 246.74 194.58C246.81 195.94 246.75 197.19 246.511 198.26C246.341 199.02 246.441 199.72 246.78 200.36C249.623 205.79 268.901 207.31 276.431 204.18C277.967 203.54 278.336 201.27 277.897 197.97C277.857 197.67 277.817 197.36 277.767 197.05C277.717 196.71 277.648 196.37 277.588 196.01C277.259 194.3 276.77 192.4 276.162 190.35C271.185 173.49 258.24 147.11 258.628 144.38C259.057 141.38 259.805 138.4 261.66 136.66C262.219 136.14 262.887 135.73 263.675 135.46C266.118 134.72 279.104 170.27 288.618 189.77C289.516 191.61 290.384 193.31 291.211 194.82C293.894 199.72 296.118 202.64 297.495 202.09C303.738 199.57 332.89 190.52 333.339 190.38C333.329 190.32 333.01 188.96 332.511 186.98C332.331 186.25 332.122 185.43 331.903 184.56C331.055 181.3 329.958 177.3 328.94 174.35C328.591 173.32 327.604 172.03 326.208 170.58C319.595 163.7 303.818 153.24 303.409 150.3C302.91 146.75 293.415 155.38 289.147 156.74C286.514 157.58 279.493 142.16 274.695 128.88C271.723 120.65 269.609 113.24 269.928 111.03C269.948 110.88 270.008 110.72 270.098 110.55C273.04 105.22 310.939 90.5001 322.966 85.9401C325.25 85.0701 326.607 84.5701 326.607 84.5701C328.252 89.8101 334.196 96.1001 341.866 102.33C342.385 102.76 342.923 103.18 343.462 103.61C344.409 104.35 345.367 105.09 346.354 105.83C353.216 110.98 360.955 115.94 368.056 120.07C368.664 120.42 369.273 120.77 369.871 121.12C375.506 124.33 380.642 126.96 384.532 128.68C386.217 129.43 387.663 130 388.81 130.38H388.85Z" fill="#266380"/>
<path d="M369.322 185.49C376.723 184.37 383.275 183.3 389 182.34V222.58C382.637 224.97 375.386 226.55 366.36 228C361.773 228.74 356.706 229.44 351.071 230.2C348.468 230.55 343.701 230.92 337.158 231.3C325.679 231.96 308.734 232.63 288.498 233.21C279.772 233.46 270.427 233.69 260.653 233.91C256.923 233.99 253.123 234.07 249.273 234.14C248.166 234.16 247.059 234.18 245.942 234.2C243.828 234.24 241.704 234.28 239.559 234.32C230.404 234.48 220.989 234.61 211.435 234.71C194.829 234.89 177.814 234.99 161.029 234.97C149.819 234.97 138.719 234.9 127.908 234.77C108.769 234.55 90.5577 234.16 74.3012 233.53C73.4734 233.5 72.6556 233.46 71.8477 233.43C67.3298 233.25 62.9814 233.04 58.8026 232.82C56.6783 232.71 54.5939 232.59 52.5693 232.47C48.161 232.2 43.9822 231.91 40.0826 231.59C37.8686 231.41 35.7442 231.22 33.7097 231.02C33.7097 231.02 33.7097 231.02 33.6997 231.02C31.7948 230.83 29.9697 230.64 28.2343 230.44C26.3194 230.22 24.5143 229.99 22.8188 229.74C20.5449 229.42 18.4704 229.08 16.6154 228.72C12.4066 227.91 9.29496 227 7.46984 225.99C7.33021 225.92 7.20056 225.84 7.08088 225.76C7.06093 225.75 7.04099 225.73 7.01107 225.72C5.8741 225.01 4.79698 224.27 3.79965 223.51C3.66002 223.41 3.53037 223.3 3.40072 223.2C2.174 222.25 1.05698 221.27 0.0397034 220.28V192.36C0.159383 192.4 0.289037 192.45 0.41869 192.49C0.53837 192.53 0.648077 192.57 0.77773 192.61C0.977197 192.68 1.17666 192.74 1.3861 192.81C1.50578 192.85 1.61549 192.88 1.73517 192.92C1.95458 192.99 2.174 193.06 2.40338 193.13C3.00178 193.31 3.6301 193.48 4.28834 193.66C4.5277 193.73 4.76706 193.79 5.0164 193.86C5.41533 193.97 5.83421 194.07 6.27304 194.18C6.55229 194.25 6.84152 194.32 7.13075 194.39C8.47715 194.71 9.94323 195.04 11.539 195.36C11.8382 195.42 12.1374 195.48 12.4465 195.54C12.8654 195.62 13.2943 195.71 13.7331 195.79C14.0024 195.84 14.2816 195.89 14.5609 195.94C14.6905 195.96 14.8202 195.99 14.9598 196.01C15.2291 196.06 15.5083 196.11 15.7876 196.16C15.8774 196.18 15.9771 196.19 16.0768 196.21C16.376 196.26 16.6752 196.32 16.9844 196.37C19.6972 196.83 22.6892 197.28 26.0103 197.71C26.3992 197.76 26.7982 197.81 27.2071 197.86C27.4165 197.89 27.6359 197.91 27.8454 197.94C28.2543 197.99 28.6632 198.04 29.092 198.09C29.481 198.14 29.87 198.18 30.2589 198.23C30.6778 198.28 31.0967 198.33 31.5255 198.38C31.5255 198.38 31.5255 198.38 31.5355 198.38C32.3633 198.47 33.201 198.56 34.0588 198.65C34.0588 198.65 34.0588 198.65 34.0687 198.65C36.2828 198.88 38.6166 199.11 41.08 199.33C41.2595 199.34 41.449 199.36 41.6285 199.38C42.0873 199.42 42.5461 199.46 43.0248 199.5C43.8526 199.57 44.7003 199.64 45.558 199.71C46.7648 199.81 47.9915 199.9 49.2481 199.99C50.066 200.05 50.9037 200.11 51.7415 200.17C52.3598 200.21 52.9881 200.26 53.6165 200.3C54.0952 200.33 54.5739 200.36 55.0526 200.39C56.4589 200.48 57.895 200.57 59.3711 200.65C63.7593 200.9 68.4368 201.13 73.4135 201.33C74.2712 201.36 75.1389 201.4 76.0066 201.43C80.5744 201.6 85.3915 201.74 90.468 201.85C92.5524 201.9 94.6867 201.94 96.8609 201.98H96.9007C98.0277 202 99.1647 202.02 100.312 202.04C100.332 202.04 100.352 202.04 100.361 202.04C103.004 202.08 105.727 202.11 108.5 202.13C118.024 202.21 128.327 202.2 139.467 202.09C148.672 202 158.446 201.84 168.838 201.6C169.557 201.58 170.275 201.57 170.993 201.55C171.711 201.53 172.419 201.52 173.137 201.5C173.316 201.5 173.486 201.5 173.656 201.49C174.423 201.47 175.181 201.45 175.939 201.43C180.108 201.32 184.217 201.2 188.266 201.07C189.513 201.03 190.76 200.99 191.997 200.94C192.405 200.93 192.814 200.91 193.223 200.9C193.842 200.88 194.46 200.86 195.078 200.83C196.086 200.79 197.093 200.76 198.1 200.72C200.354 200.63 202.588 200.55 204.812 200.46C205.909 200.42 206.996 200.37 208.083 200.32C210.308 200.23 212.522 200.13 214.706 200.03H214.716C214.716 200.03 214.716 200.03 214.726 200.03C215.105 200.01 215.494 199.99 215.873 199.98H215.893C216.022 199.98 216.152 199.97 216.282 199.96C217.02 199.92 217.758 199.89 218.486 199.85C218.905 199.83 219.313 199.81 219.732 199.79C220.371 199.76 221.009 199.73 221.637 199.69C221.966 199.67 222.295 199.66 222.625 199.64C222.814 199.63 223.004 199.62 223.193 199.61C223.313 199.61 223.422 199.6 223.542 199.59C223.941 199.57 224.33 199.55 224.729 199.53C225.188 199.51 225.637 199.48 226.095 199.46C226.504 199.44 226.913 199.42 227.312 199.4C227.531 199.39 227.761 199.38 227.99 199.36C229.018 199.31 230.025 199.25 231.042 199.19C231.152 199.19 231.262 199.18 231.381 199.17C231.571 199.17 231.77 199.15 231.96 199.14C232.269 199.12 232.588 199.11 232.897 199.09C232.997 199.09 233.087 199.09 233.186 199.07C233.705 199.04 234.224 199.01 234.742 198.98C234.822 198.98 234.902 198.98 234.982 198.97C235.51 198.94 236.049 198.91 236.567 198.88C236.627 198.88 236.697 198.88 236.767 198.88C237.914 198.81 239.051 198.75 240.178 198.68H240.198C240.198 198.68 240.267 198.68 240.297 198.68C241.534 198.61 242.771 198.53 243.997 198.45C244.516 198.42 245.025 198.39 245.543 198.35H245.573C245.882 198.33 246.202 198.31 246.511 198.29C246.66 198.29 246.8 198.27 246.95 198.26C247.059 198.26 247.169 198.25 247.269 198.24C247.289 198.24 247.319 198.24 247.339 198.24C248.186 198.19 249.024 198.13 249.872 198.08C251.099 198 252.325 197.92 253.542 197.83C253.662 197.83 253.771 197.82 253.891 197.81C253.961 197.81 254.031 197.81 254.1 197.8C254.26 197.8 254.42 197.78 254.579 197.77C255.018 197.74 255.457 197.71 255.896 197.68C255.946 197.68 256.005 197.68 256.055 197.68C256.624 197.64 257.192 197.6 257.771 197.56C257.99 197.54 258.209 197.53 258.429 197.51C258.778 197.48 259.127 197.46 259.476 197.43C259.915 197.4 260.344 197.37 260.773 197.34C260.902 197.34 261.032 197.32 261.172 197.31C261.64 197.28 262.099 197.24 262.558 197.21C263.057 197.17 263.555 197.14 264.054 197.1C265.32 197.01 266.587 196.91 267.844 196.82C268.203 196.79 268.552 196.77 268.911 196.74C269.1 196.73 269.3 196.71 269.489 196.7C269.828 196.67 270.168 196.65 270.507 196.62C271.085 196.58 271.673 196.53 272.252 196.48C272.96 196.42 273.668 196.37 274.366 196.31C274.845 196.27 275.334 196.23 275.812 196.19C275.862 196.19 275.922 196.19 275.972 196.18C276.501 196.14 277.019 196.09 277.548 196.05C277.548 196.05 277.568 196.05 277.578 196.05C277.857 196.02 278.146 196 278.425 195.98L279.163 195.92C279.642 195.88 280.121 195.84 280.6 195.8C280.739 195.79 280.889 195.78 281.028 195.76C281.427 195.73 281.836 195.69 282.235 195.66C282.265 195.66 282.295 195.66 282.315 195.66C282.465 195.65 282.604 195.64 282.754 195.62C283.362 195.57 283.971 195.51 284.579 195.46C284.868 195.44 285.147 195.41 285.427 195.39C286.504 195.3 287.581 195.2 288.648 195.11C289.256 195.06 289.865 195 290.473 194.95C290.693 194.93 290.912 194.91 291.141 194.89C291.151 194.89 291.171 194.89 291.191 194.89C291.311 194.89 291.431 194.87 291.55 194.86C291.67 194.86 291.79 194.84 291.899 194.83C292.288 194.8 292.667 194.76 293.056 194.72C293.246 194.7 293.425 194.69 293.615 194.67C294.233 194.61 294.852 194.55 295.47 194.5C295.669 194.48 295.859 194.46 296.058 194.44C296.338 194.41 296.617 194.39 296.896 194.36C297.105 194.34 297.315 194.32 297.514 194.3C298.173 194.24 298.821 194.18 299.469 194.11C299.788 194.08 300.117 194.05 300.437 194.01C300.576 194.01 300.716 193.98 300.855 193.97C302.162 193.84 303.468 193.72 304.755 193.59C304.875 193.59 304.984 193.57 305.094 193.56C305.214 193.55 305.343 193.53 305.463 193.52C305.503 193.52 305.533 193.52 305.563 193.52C306.191 193.46 306.82 193.39 307.438 193.33C307.587 193.31 307.727 193.3 307.877 193.28C308.246 193.24 308.615 193.2 308.984 193.17C309.203 193.15 309.433 193.12 309.652 193.1C310.659 193 311.647 192.89 312.634 192.79C313.083 192.74 313.522 192.7 313.96 192.65C314.14 192.63 314.319 192.61 314.489 192.59C314.549 192.59 314.599 192.58 314.659 192.57C315.058 192.53 315.446 192.49 315.845 192.44C316.035 192.42 316.224 192.4 316.414 192.38C316.563 192.36 316.723 192.35 316.873 192.33C317.431 192.27 317.98 192.21 318.528 192.15C318.648 192.15 318.778 192.12 318.897 192.11C319.216 192.07 319.536 192.04 319.855 192C320.204 191.96 320.553 191.92 320.892 191.88C321.42 191.82 321.959 191.76 322.478 191.7C322.697 191.68 322.907 191.65 323.126 191.63C323.345 191.6 323.565 191.58 323.774 191.55C324.103 191.51 324.422 191.48 324.752 191.44C325.001 191.41 325.24 191.38 325.48 191.36C325.769 191.33 326.058 191.29 326.347 191.26C326.696 191.22 327.035 191.18 327.375 191.14C327.454 191.14 327.534 191.12 327.614 191.11C328.033 191.06 328.452 191.01 328.881 190.96C329.738 190.86 330.596 190.76 331.444 190.66C331.833 190.61 332.222 190.56 332.611 190.52C332.84 190.49 333.059 190.47 333.289 190.44C334.067 190.35 334.835 190.25 335.593 190.16C335.712 190.14 335.842 190.13 335.962 190.11C337.677 189.9 339.353 189.69 341.008 189.48C341.168 189.46 341.327 189.44 341.487 189.42H341.507C341.726 189.39 341.946 189.36 342.165 189.33C342.584 189.28 342.993 189.22 343.402 189.17C346.214 188.81 348.937 188.45 351.59 188.08C354.293 187.71 356.916 187.35 359.449 186.98C361.852 186.64 364.176 186.3 366.43 185.96C366.44 185.96 366.46 185.96 366.47 185.96C367.408 185.82 368.325 185.68 369.233 185.55L369.322 185.49Z" fill="#C9DD6C"/>
<path d="M370.609 204.91C377.231 204.2 383.345 203.44 388.99 202.66V246.67C384.283 248.48 379.256 250.16 373.89 251.67C369.532 252.9 364.914 254.15 360.057 255.41C359.968 255.43 359.878 255.46 359.788 255.48C346.823 258.85 332.182 262.33 316.524 265.83C283.941 273.11 246.96 280.44 211.435 286.95C193.353 290.27 175.64 293.37 159.095 296.14C159.085 296.14 159.065 296.14 159.055 296.14C132.217 300.63 108.42 304.27 90.9468 306.54C89.2015 306.77 87.516 306.98 85.9003 307.18C85.7806 307.2 85.651 307.21 85.5413 307.23C79.2282 308.01 73.3439 308.95 67.8486 309.97C65.5647 310.39 63.3506 310.82 61.2063 311.26C56.5787 312.21 52.2503 313.19 48.2011 314.14C42.6659 315.44 37.6693 316.69 33.1513 317.74C25.9007 319.42 19.8968 320.59 14.9301 320.62C12.0178 320.64 9.4547 320.27 7.22067 319.37C4.34835 318.23 1.98467 316.23 0.0598145 313.12V195C21.3629 198.29 61.5055 203.69 115.541 207.33C124.447 207.93 133.732 208.49 143.377 208.97C146.758 209.14 150.188 209.3 153.649 209.46C153.899 209.47 154.158 209.48 154.417 209.49C171.402 210.24 189.404 210.78 208.313 211.03C208.483 211.03 208.662 211.03 208.832 211.03C232.558 211.33 257.701 211.17 284.061 210.37C295.949 210.01 307.019 209.55 317.332 209.01C327.614 208.47 337.139 207.85 345.975 207.17C349.605 206.89 353.106 206.6 356.497 206.29C357.025 206.24 357.554 206.2 358.073 206.15C362.451 205.75 366.63 205.34 370.629 204.91H370.609Z" fill="#7C9F43"/>
<path d="M251.627 244.9L208.901 250.99C208.901 250.99 199.546 248.71 183.36 245.31C178.183 244.22 172.299 243.02 165.807 241.74C152.732 239.16 137.163 236.28 119.77 233.39C69.2547 225.01 83.5664 219.69 110.504 215.7C111.841 215.5 113.217 215.31 114.613 215.11C116.857 214.8 118.673 214.47 120.099 214.14C129.045 212.02 123.25 209.39 115.511 207.33C124.417 207.93 133.702 208.48 143.347 208.97C151.395 212.16 147.306 214.17 138.36 215.97C136.545 216.34 134.53 216.69 132.366 217.05C122.772 218.64 110.405 220.24 100.621 222.56C87.2366 225.74 141.432 232.86 188.586 238.22C195.407 239 202.07 239.73 208.363 240.41C232.807 243.06 251.617 244.89 251.617 244.89L251.627 244.9Z" fill="#EBCF54"/>
<path d="M314.769 219.58L282.046 225.99L257.073 230.88L208.373 240.42C202.08 239.74 195.408 239 188.596 238.23C253.622 228.19 310.021 219.62 314.779 219.59L314.769 219.58Z" fill="#638038"/>
<path d="M183.36 245.31L180.926 245.79L117.486 258.22L86.6883 264.25L58.1047 269.85H58.0947L0.0498962 281.22V267.26C9.07577 265.93 21.1535 264.1 35.3455 261.93C48.6101 259.9 63.7097 257.57 79.8665 255.07C81.6418 254.8 83.427 254.52 85.2222 254.24C92.1337 253.17 99.2148 252.07 106.416 250.96C108.55 250.63 110.694 250.3 112.848 249.96C130.232 247.27 148.164 244.49 165.837 241.75C172.329 243.03 178.204 244.23 183.38 245.32L183.36 245.31Z" fill="#638038"/>
<path d="M208.363 240.41L183.36 245.31C178.184 244.22 172.299 243.02 165.807 241.74C173.466 240.56 181.076 239.38 188.576 238.22C195.398 239 202.06 239.73 208.353 240.41H208.363Z" fill="#BDAA4C"/>
<path d="M389 205.05V429.74H0.0397034V281.21L58.0845 269.84H58.0945L86.6881 264.24L117.476 258.21L180.916 245.79L183.36 245.31L208.363 240.41H208.373L239.549 234.31L246.162 233.01L252.235 231.82L254.4 231.4L254.469 231.39L255.906 231.11L257.063 230.88L281.647 226.07L282.046 225.99L314.768 219.58L343.601 213.93L354.253 211.85L355.639 211.58L371.247 208.52L385.05 205.82L389 205.05Z" fill="#98BC53"/>
<path d="M354.751 247.61C354.741 247.73 354.721 247.84 354.692 247.96C353.654 252.26 338.255 258.65 316.524 265.83C297.255 272.2 273.01 279.17 249.403 285.86C249.403 285.86 249.403 285.86 249.383 285.86C214.237 295.81 180.507 305.1 166.714 310.73C165.677 311.15 164.769 311.55 163.971 311.93C163.971 311.93 163.971 311.93 163.961 311.93C159.982 313.82 158.795 315.21 159.832 316.23C159.912 316.31 160.002 316.38 160.102 316.46C160.201 316.53 160.321 316.61 160.451 316.67C160.521 316.71 160.58 316.74 160.66 316.77C160.94 316.91 161.269 317.03 161.638 317.15C161.737 317.18 161.837 317.21 161.937 317.24C162.535 317.42 163.233 317.57 164.021 317.71C164.42 317.78 164.849 317.85 165.298 317.91C165.886 318 166.515 318.07 167.183 318.14H167.193C167.691 318.2 168.22 318.24 168.759 318.29C169.128 318.32 169.507 318.35 169.896 318.38C171.422 318.5 173.097 318.59 174.902 318.66C174.902 318.66 174.912 318.66 174.932 318.66C180.567 318.89 187.459 318.94 195.118 318.92C196.235 318.92 197.372 318.92 198.529 318.91C199.676 318.91 200.843 318.91 202.02 318.89C202.588 318.89 203.167 318.89 203.745 318.89C204.353 318.89 204.982 318.89 205.6 318.88C205.999 318.88 206.408 318.88 206.807 318.88C207.904 318.88 209.021 318.87 210.138 318.86C210.457 318.86 210.776 318.86 211.095 318.86C211.714 318.86 212.332 318.86 212.96 318.85C213.948 318.85 214.945 318.83 215.942 318.83H215.982C216.331 318.83 216.681 318.83 217.02 318.83C218.815 318.82 220.62 318.81 222.445 318.8C223.083 318.8 223.732 318.8 224.37 318.8C255.756 318.66 289.695 319.2 304.107 325.19C307.228 326.49 307.368 328.49 305.014 331.06C302.461 333.85 296.976 337.32 289.167 341.28C276.8 347.56 258.618 355.09 237.146 363.16C234.323 364.22 231.451 365.29 228.529 366.37C227.452 366.77 226.375 367.16 225.278 367.56C219.673 369.61 213.908 371.68 207.994 373.77C207.365 373.99 206.737 374.21 206.099 374.44C204.324 375.07 202.538 375.69 200.743 376.32C199.905 376.61 199.068 376.91 198.22 377.2C190.909 379.74 183.419 382.3 175.83 384.85C144.184 395.48 110.764 406.03 80.4747 415.13C77.6223 415.99 74.7899 416.83 71.9873 417.67C56.7581 422.2 42.4663 426.31 29.8001 429.82H0.0397034V407.34C16.9844 402.25 43.4437 394.4 84.4141 382.42C86.1994 381.9 87.9547 381.38 89.6701 380.87C90.5477 380.61 91.4254 380.35 92.2931 380.1C94.936 379.32 97.4892 378.55 99.9626 377.81C100.82 377.55 101.678 377.29 102.516 377.04C108.26 375.3 113.526 373.66 118.333 372.12C118.972 371.92 119.59 371.72 120.208 371.52C120.368 371.47 120.528 371.42 120.687 371.36C121.286 371.17 121.864 370.98 122.452 370.79C124.357 370.17 126.192 369.56 127.948 368.97C128.257 368.86 128.566 368.76 128.875 368.66C129.763 368.36 130.631 368.06 131.478 367.77C131.678 367.7 131.867 367.63 132.067 367.57L132.605 367.38C132.934 367.27 133.254 367.15 133.583 367.04C133.752 366.98 133.922 366.92 134.091 366.86C134.42 366.74 134.75 366.63 135.069 366.52C135.717 366.29 136.355 366.06 136.974 365.83C137.143 365.77 137.303 365.71 137.472 365.65C137.771 365.54 138.081 365.43 138.37 365.32C138.509 365.27 138.649 365.22 138.789 365.16C138.809 365.16 138.829 365.14 138.849 365.13C139.337 364.95 139.806 364.78 140.275 364.6C140.434 364.54 140.584 364.48 140.744 364.42C140.953 364.34 141.162 364.26 141.362 364.19C141.402 364.18 141.432 364.16 141.472 364.15H141.482C141.711 364.06 141.95 363.97 142.18 363.88C142.898 363.61 143.576 363.33 144.244 363.07C144.334 363.03 144.434 362.99 144.523 362.96C144.663 362.9 144.793 362.85 144.932 362.79C144.972 362.77 145.022 362.76 145.062 362.74C145.132 362.71 145.202 362.68 145.271 362.66C145.391 362.61 145.501 362.57 145.611 362.52C145.69 362.49 145.78 362.45 145.86 362.42C145.91 362.4 145.95 362.38 145.999 362.36C146.219 362.27 146.428 362.18 146.638 362.1C146.708 362.07 146.777 362.04 146.857 362.01C146.917 361.99 146.967 361.96 147.027 361.94C147.316 361.82 147.585 361.7 147.864 361.59C148.682 361.24 149.45 360.9 150.178 360.57C150.308 360.51 150.428 360.45 150.557 360.4C150.757 360.31 150.946 360.22 151.126 360.13C151.196 360.1 151.255 360.07 151.325 360.04C151.355 360.02 151.385 360.01 151.415 360C151.475 359.97 151.535 359.94 151.595 359.92C151.774 359.83 151.944 359.75 152.123 359.67C152.253 359.61 152.372 359.55 152.502 359.48C152.632 359.42 152.761 359.35 152.891 359.29C153.36 359.06 153.799 358.83 154.217 358.6C165.996 352.26 160.142 349.09 144.015 346.37C136.625 345.13 127.08 343.98 116.079 342.68C103.413 341.17 88.8223 339.44 73.3936 337.09C71.5585 336.81 69.9428 336.5 68.5465 336.17C67.4993 335.92 66.5718 335.66 65.754 335.38C65.4049 335.26 65.0758 335.14 64.7766 335.01C64.6769 334.97 64.5772 334.93 64.4774 334.88C64.1882 334.75 63.9189 334.63 63.6696 334.49C63.5 334.4 63.3504 334.31 63.2008 334.22C63.0612 334.13 62.9116 334.04 62.7919 333.95C62.6024 333.81 62.4329 333.67 62.2833 333.52C61.645 332.9 61.3757 332.24 61.4755 331.53C61.4755 331.48 61.4854 331.43 61.5054 331.38C61.5153 331.33 61.5253 331.28 61.5453 331.23C61.5453 331.19 61.5652 331.15 61.5752 331.12C61.5852 331.07 61.6051 331.03 61.6251 330.98C61.6251 330.96 61.635 330.94 61.645 330.92C61.6649 330.87 61.6849 330.82 61.7048 330.78C61.7348 330.73 61.7547 330.68 61.7846 330.63C61.8145 330.57 61.8445 330.51 61.8844 330.46C61.9143 330.41 61.9342 330.37 61.9741 330.32C62.004 330.27 62.0439 330.21 62.0739 330.16C62.2334 329.94 62.4129 329.71 62.6224 329.48C62.6623 329.44 62.7022 329.39 62.752 329.35C62.8418 329.26 62.9316 329.16 63.0313 329.07C63.3305 328.79 63.6696 328.5 64.0386 328.21C64.3976 327.93 64.8066 327.65 65.2454 327.35C65.3252 327.29 65.4149 327.23 65.5047 327.18C65.744 327.02 65.9934 326.87 66.2627 326.71C66.4322 326.61 66.6117 326.5 66.7813 326.4C67.1403 326.19 67.5193 325.98 67.9083 325.76C68.2972 325.55 68.7161 325.33 69.135 325.11C69.7733 324.78 70.4614 324.44 71.1795 324.1C71.6183 323.89 72.0671 323.68 72.5359 323.47C72.5758 323.45 72.6256 323.43 72.6655 323.41C73.9521 322.83 75.3384 322.23 76.8344 321.62C77.1535 321.49 77.4827 321.36 77.8118 321.22C78.091 321.11 78.3803 320.99 78.6695 320.88C78.7393 320.85 78.8091 320.82 78.8789 320.8C79.1283 320.7 79.3776 320.6 79.6269 320.51C79.9261 320.39 80.2253 320.28 80.5345 320.16C80.9135 320.01 81.2925 319.87 81.6814 319.72C82.4594 319.43 83.2472 319.13 84.0651 318.83C84.3144 318.74 84.5538 318.65 84.8031 318.56C85.1621 318.43 85.5212 318.3 85.8902 318.17C86.6282 317.9 87.3962 317.63 88.1741 317.36C88.7326 317.16 89.3011 316.97 89.8895 316.76C91.3157 316.27 92.7917 315.77 94.3177 315.26C94.7365 315.12 95.1554 314.99 95.5843 314.84C96.0131 314.69 96.4519 314.55 96.9007 314.41C97.9679 314.06 99.055 313.7 100.162 313.35C100.681 313.18 101.209 313.02 101.748 312.84C102.017 312.75 102.286 312.67 102.556 312.59C103.363 312.34 104.181 312.08 105.009 311.82C105.099 311.79 105.179 311.77 105.268 311.74C105.737 311.59 106.206 311.45 106.685 311.3C106.705 311.3 106.724 311.28 106.744 311.28C107.283 311.11 107.832 310.94 108.38 310.77C109.796 310.33 111.242 309.89 112.718 309.45C113.327 309.26 113.935 309.08 114.564 308.89C115.471 308.62 116.389 308.34 117.316 308.07C117.974 307.87 118.653 307.67 119.331 307.47C131.049 304 144.374 300.26 159.124 296.24C160.391 295.9 161.668 295.55 162.954 295.2C163.662 295 164.38 294.81 165.088 294.62C167.233 294.04 169.407 293.45 171.601 292.86C178.203 291.09 185.045 289.27 192.136 287.39C192.924 287.18 193.712 286.97 194.51 286.76C196.205 286.31 197.921 285.86 199.656 285.4C200.574 285.16 201.491 284.92 202.419 284.68C203.815 284.32 205.221 283.95 206.627 283.57C207.086 283.45 207.535 283.33 207.994 283.21C211.664 282.25 215.384 281.28 219.164 280.29C220.859 279.85 222.575 279.4 224.3 278.95C229.456 277.61 234.722 276.24 240.078 274.85C244.187 273.78 248.366 272.71 252.585 271.61C254.669 271.07 256.763 270.53 258.868 269.98C262.149 269.13 265.45 268.28 268.791 267.41C270.287 267.02 271.783 266.64 273.289 266.24C277.099 265.26 280.949 264.26 284.828 263.26C284.828 263.26 284.828 263.26 284.848 263.26C284.848 263.26 284.878 263.26 284.888 263.25C284.898 263.25 284.918 263.25 284.928 263.25C284.978 263.23 285.038 263.22 285.088 263.21C285.257 263.17 285.437 263.12 285.606 263.07C285.676 263.05 285.746 263.03 285.816 263.02C287.312 262.63 288.808 262.25 290.314 261.86C291.56 261.54 292.807 261.22 294.054 260.89L294.782 260.7C295.45 260.53 296.118 260.36 296.796 260.18C296.836 260.18 296.866 260.16 296.896 260.15C297.315 260.04 297.734 259.93 298.153 259.82C298.661 259.69 299.16 259.56 299.669 259.43C302.551 258.69 305.453 257.93 308.375 257.18C325.619 252.71 327.335 249.91 317.7 248.11C311.168 246.89 299.429 246.14 283.771 245.64C283.412 245.64 283.053 245.62 282.694 245.61C275.413 245.38 267.315 245.22 258.519 245.08C256.275 245.05 253.991 245.02 251.657 244.98C248.366 244.94 245.902 244.68 244.167 244.24C243.06 243.97 242.242 243.62 241.684 243.21C238.861 241.14 242.791 237.59 249.293 234.22C250.181 233.76 251.118 233.3 252.086 232.85C252.654 232.59 253.243 232.32 253.841 232.07C253.901 232.05 253.961 232.02 254.011 232C254.639 231.73 255.287 231.46 255.936 231.2C256.315 231.05 256.694 230.9 257.082 230.75H257.092L282.076 225.86C281.946 225.97 281.816 226.07 281.677 226.17C278.814 228.27 273.588 229.22 266.248 231.83C265.769 232 265.291 232.17 264.792 232.36C263.485 232.85 262.109 233.39 260.673 234.01C259.895 234.34 259.097 234.7 258.279 235.07C253.382 237.32 254.719 238.6 259.905 239.32C268.033 240.47 285.606 240.28 303.458 240.4C320.293 240.52 337.358 240.91 346.952 242.97C351.929 244.04 354.891 245.55 354.771 247.71L354.751 247.61Z" fill="#ECE993"/>
<path d="M388.032 321.17C388.352 321.11 388.681 321.06 389 321V430H0V422.184C41.2051 408.904 119.137 384.657 206.524 361.79C206.764 361.73 206.993 361.67 207.233 361.6C211.502 360.489 215.781 359.378 220.09 358.267C220.22 358.237 220.339 358.207 220.469 358.167C223.401 357.417 226.354 356.656 229.306 355.916C229.356 355.906 229.416 355.886 229.466 355.876C229.556 355.856 229.646 355.826 229.735 355.806C237.895 353.734 246.104 351.693 254.363 349.671C255.52 349.391 256.667 349.101 257.824 348.83C259.29 348.47 260.766 348.12 262.233 347.76C262.701 347.64 263.17 347.529 263.639 347.419C264.637 347.169 265.644 346.939 266.651 346.699C268.397 346.279 270.142 345.868 271.888 345.458C273.235 345.138 274.581 344.817 275.938 344.497C276.726 344.307 277.504 344.127 278.292 343.947C279.509 343.657 280.736 343.376 281.962 343.086C282.272 343.016 282.571 342.946 282.88 342.876C284.486 342.496 286.092 342.125 287.698 341.755C288.187 341.635 288.685 341.525 289.174 341.415C290.73 341.055 292.296 340.704 293.852 340.344C295.249 340.024 296.655 339.704 298.061 339.393C301.832 338.543 305.592 337.702 309.363 336.872C310.011 336.722 310.659 336.581 311.298 336.441C312.056 336.271 312.814 336.111 313.572 335.941C313.652 335.921 313.722 335.911 313.791 335.891C314.948 335.631 316.096 335.391 317.253 335.14C317.881 335 318.509 334.87 319.128 334.73C320.594 334.41 322.07 334.1 323.537 333.789C323.537 333.789 323.537 333.789 323.547 333.789C325.252 333.419 326.958 333.059 328.664 332.699C331.247 332.148 333.83 331.608 336.414 331.077C337.681 330.817 338.937 330.557 340.204 330.297C341.142 330.107 342.069 329.917 343.007 329.726C343.207 329.686 343.406 329.646 343.606 329.606C343.815 329.566 344.024 329.526 344.234 329.476C344.583 329.396 344.942 329.326 345.291 329.256C347.386 328.836 349.481 328.415 351.575 328.005C352.662 327.785 353.75 327.575 354.827 327.365C355.495 327.235 356.174 327.104 356.842 326.964C357.48 326.834 358.129 326.714 358.767 326.594C359.286 326.494 359.814 326.384 360.333 326.294C361.071 326.154 361.819 326.014 362.567 325.864C362.757 325.824 362.936 325.794 363.126 325.753C363.246 325.733 363.355 325.704 363.475 325.683C364.602 325.463 365.729 325.253 366.846 325.033C369.32 324.563 371.784 324.102 374.238 323.652C375.305 323.452 376.382 323.262 377.449 323.061C378.068 322.941 378.696 322.831 379.315 322.721C380.681 322.471 382.038 322.231 383.404 321.991C383.703 321.941 384.013 321.881 384.312 321.831C384.751 321.751 385.2 321.67 385.639 321.59C386.437 321.45 387.234 321.31 388.032 321.17Z" fill="#4E572E"/>
<path d="M86.6883 264.01L58.1047 269.61H58.0947L54.2849 270.36L38.5569 273.44L0.0498962 280.98V214.12C2.50334 213.24 5.22606 212.39 8.18814 211.67C9.11566 211.44 10.0532 211.23 11.0305 211.03C14.4913 210.32 18.2014 209.8 22.081 209.61C22.3802 209.6 22.6694 209.58 22.9686 209.57C23.1182 209.57 23.2678 209.57 23.4174 209.56H23.4673C23.6368 209.56 23.7964 209.56 23.966 209.55C24.0059 209.55 24.0457 209.55 24.0856 209.55C24.2452 209.55 24.4048 209.55 24.5743 209.55C24.8436 209.55 25.1129 209.55 25.3921 209.55C25.9706 209.55 26.559 209.55 27.1574 209.57C27.3669 209.57 27.5763 209.58 27.7957 209.59C27.9752 209.59 28.1548 209.59 28.3343 209.61C28.6235 209.62 28.9227 209.64 29.2119 209.66C29.4712 209.67 29.7405 209.69 29.9998 209.71C30.0696 209.71 30.1295 209.71 30.1993 209.72C30.4387 209.74 30.678 209.76 30.9174 209.78C31.2066 209.8 31.4958 209.83 31.7851 209.86C32.0743 209.89 32.3635 209.92 32.6527 209.96C32.9519 209.99 33.2412 210.03 33.5404 210.07C33.5503 210.07 33.5603 210.07 33.5703 210.07C33.8795 210.11 34.1886 210.15 34.4978 210.2C34.4978 210.2 34.5078 210.2 34.5177 210.2C34.8568 210.25 35.2059 210.3 35.555 210.36C35.8243 210.4 36.0935 210.45 36.3628 210.5C36.5723 210.54 36.7817 210.58 37.0011 210.62C37.1008 210.64 37.2105 210.66 37.3103 210.68H37.3203C37.6294 210.74 37.9386 210.8 38.2577 210.87C38.2677 210.87 38.2877 210.87 38.2976 210.87C38.3475 210.87 38.3974 210.89 38.4373 210.9C38.6467 210.94 38.8561 210.99 39.0656 211.04C39.0855 211.04 39.1055 211.04 39.1254 211.05C39.2152 211.07 39.3149 211.09 39.4047 211.11C39.4944 211.13 39.5942 211.16 39.6839 211.18C39.8136 211.21 39.9532 211.24 40.0928 211.28C40.7012 211.43 41.3096 211.59 41.918 211.76C42.1274 211.82 42.3368 211.88 42.5463 211.94C42.636 211.97 42.7358 211.99 42.8355 212.02C42.9053 212.04 42.9652 212.06 43.035 212.08C43.2743 212.15 43.5037 212.23 43.7431 212.3C44.0223 212.39 44.3016 212.48 44.5808 212.57C44.6008 212.57 44.6207 212.57 44.6307 212.59C44.6507 212.59 44.6706 212.6 44.6906 212.61C44.9399 212.69 45.1792 212.78 45.4286 212.86C46.386 213.2 47.3534 213.56 48.3109 213.96C48.5203 214.04 48.7198 214.13 48.9292 214.22C49.1087 214.29 49.2783 214.37 49.4578 214.45C49.7271 214.57 50.0063 214.69 50.2856 214.82C50.6047 214.97 50.9239 215.11 51.243 215.27C51.2929 215.3 51.3527 215.32 51.4126 215.35C51.5921 215.44 51.7816 215.53 51.9711 215.62C52.2703 215.77 52.5595 215.91 52.8487 216.06C53.0682 216.18 53.2876 216.29 53.507 216.41C53.6865 216.51 53.876 216.61 54.0555 216.71C54.1453 216.76 54.2251 216.8 54.3048 216.85C54.4345 216.92 54.5741 217 54.7038 217.07C55.5914 217.57 56.4691 218.1 57.3467 218.66C58.2643 219.24 59.1818 219.86 60.0894 220.51C60.3088 220.67 60.5282 220.82 60.7377 220.98C61.0668 221.22 61.3859 221.46 61.7051 221.7C62.2137 222.08 62.7124 222.46 63.2011 222.85C65.2755 224.48 67.1705 226.12 68.9058 227.77C70.2622 229.06 71.5188 230.36 72.6857 231.66C73.2043 232.24 73.703 232.82 74.1817 233.39C74.2116 233.43 74.2515 233.47 74.2814 233.51C76.1664 235.78 77.7821 238.03 79.1484 240.25C80.1059 241.8 80.9436 243.32 81.6817 244.83C83.2973 248.13 84.4243 251.29 85.1923 254.23C86.1597 257.91 86.5586 261.23 86.6683 264.01H86.6883Z" fill="#2F4638"/>
<path d="M374.638 357.96L208.233 390.26L58.0847 419.4C87.3065 399.06 199.876 379.59 253.093 371.3C270.277 368.62 281.278 367.11 281.278 367.11L374.638 357.97V357.96Z" fill="#737632"/>
<path d="M290.094 401.78C331.404 391.25 369.841 381.64 388.99 376.86V411.24C356.896 416.71 315.367 423.59 279.273 429.53C278.854 429.6 278.445 429.67 278.037 429.73H182.981C200.085 425.09 220.401 419.73 241.664 414.22C248.954 412.33 256.355 410.42 263.765 408.51C271.694 406.47 279.642 404.44 287.501 402.43C288.369 402.21 289.227 401.99 290.084 401.77L290.094 401.78Z" fill="#434C2F"/>
<path d="M389 376.34V376.54C364.785 380.81 245.673 401.89 148.732 420.04C145.631 420.62 142.549 421.2 139.497 421.77C124.816 424.53 110.754 427.21 97.7287 429.73H9.6442C10.1229 429.56 10.6316 429.39 11.1402 429.21C19.1887 426.47 31.1467 423.4 48.6998 420.72C49.8168 420.55 50.9438 420.38 52.1007 420.21C52.4896 420.15 52.8786 420.1 53.2676 420.04C54.0455 419.93 54.8434 419.82 55.6412 419.71C56.4491 419.6 57.2569 419.49 58.0747 419.39L71.9676 417.58L179.66 403.57L388.98 376.34H389Z" fill="#424932"/>
<path d="M290.095 401.78C285.746 408.95 281.787 418.09 279.283 429.53C278.865 429.6 278.456 429.67 278.047 429.73H270.637C275.843 419.99 281.537 410.49 287.521 402.43C288.389 402.21 289.247 401.99 290.105 401.77L290.095 401.78Z" fill="#50572F"/>
<path d="M263.775 408.52C257.721 415.19 252.016 422.38 247.568 429.74H222.236C227.991 425.07 234.693 419.71 241.674 414.23C248.965 412.34 256.365 410.43 263.775 408.52Z" fill="#50572F"/>
<path d="M389 320.82V321.52C387.564 322 385.788 322.59 383.724 323.28C383.634 323.31 383.554 323.34 383.465 323.37C375.267 326.13 362.441 330.5 346.743 336.06C346.314 336.21 345.875 336.36 345.446 336.52C344.04 337.02 342.604 337.53 341.148 338.05C335.772 339.96 330.117 342 324.223 344.14C324.033 344.21 323.844 344.28 323.645 344.35C320.373 345.54 317.032 346.76 313.631 348.01C306.899 350.49 299.938 353.09 292.837 355.78C291.7 356.21 290.553 356.65 289.396 357.09C277.558 361.6 265.34 366.37 253.113 371.3C245.683 372.46 237.086 373.84 227.731 375.4C225.946 375.7 224.121 376.01 222.276 376.32C222.086 376.35 221.887 376.39 221.697 376.42C221.069 376.53 220.43 376.64 219.792 376.74C215.464 377.48 211.006 378.26 206.448 379.07C205.451 379.25 204.433 379.43 203.426 379.61C201.94 379.88 200.444 380.15 198.928 380.42C198.03 380.58 197.123 380.75 196.215 380.92C189.543 382.14 182.711 383.43 175.85 384.78C127.27 394.3 76.3856 406.68 58.1144 419.41C57.2867 419.52 56.4788 419.63 55.6809 419.73C54.8731 419.84 54.0852 419.95 53.3073 420.06C52.9183 420.12 52.5294 420.17 52.1404 420.23C50.9835 420.4 49.8465 420.56 48.7395 420.74C31.1864 423.42 19.2284 426.5 11.1799 429.23C10.6613 429.41 10.1626 429.58 9.68392 429.75H0.0397034V421.94C41.2396 408.67 119.161 384.44 206.538 361.59C206.777 361.53 207.006 361.47 207.246 361.4C211.514 360.29 215.793 359.18 220.101 358.07C220.231 358.04 220.351 358.01 220.48 357.97C223.413 357.22 226.365 356.46 229.317 355.72C229.367 355.71 229.426 355.69 229.476 355.68C229.566 355.66 229.656 355.63 229.746 355.61C237.904 353.54 246.112 351.5 254.37 349.48C255.527 349.2 256.674 348.91 257.83 348.64C259.297 348.28 260.773 347.93 262.239 347.57C262.707 347.45 263.176 347.34 263.645 347.23C264.642 346.98 265.65 346.75 266.657 346.51C268.402 346.09 270.148 345.68 271.893 345.27C273.239 344.95 274.586 344.63 275.942 344.31C276.73 344.12 277.508 343.94 278.296 343.76C279.513 343.47 280.739 343.19 281.966 342.9C282.275 342.83 282.574 342.76 282.884 342.69C284.489 342.31 286.095 341.94 287.701 341.57C288.189 341.45 288.688 341.34 289.177 341.23C290.733 340.87 292.298 340.52 293.854 340.16C295.25 339.84 296.657 339.52 298.063 339.21C301.833 338.36 305.593 337.52 309.363 336.69C310.011 336.54 310.659 336.4 311.298 336.26C312.056 336.09 312.814 335.93 313.571 335.76C313.651 335.74 313.721 335.73 313.791 335.71C314.948 335.45 316.095 335.21 317.252 334.96C317.88 334.82 318.508 334.69 319.127 334.55C320.593 334.23 322.069 333.92 323.535 333.61C323.535 333.61 323.535 333.61 323.545 333.61C325.25 333.24 326.956 332.88 328.661 332.52C331.244 331.97 333.827 331.43 336.41 330.9C337.677 330.64 338.934 330.38 340.2 330.12C341.138 329.93 342.065 329.74 343.003 329.55C343.202 329.51 343.402 329.47 343.601 329.43C343.811 329.39 344.02 329.35 344.23 329.3C344.579 329.23 344.938 329.16 345.287 329.08C347.381 328.66 349.475 328.24 351.57 327.83C352.657 327.61 353.744 327.4 354.821 327.19C355.489 327.06 356.168 326.93 356.836 326.79C357.474 326.66 358.122 326.54 358.761 326.42C358.791 326.42 358.82 326.42 358.85 326.4C359.339 326.3 359.828 326.21 360.326 326.11C361.065 325.97 361.813 325.83 362.561 325.68C362.75 325.64 362.93 325.61 363.119 325.57C363.239 325.55 363.348 325.52 363.468 325.5C364.595 325.28 365.722 325.07 366.839 324.85C369.312 324.38 371.776 323.92 374.229 323.47C375.296 323.27 376.374 323.08 377.441 322.88C378.059 322.76 378.687 322.65 379.306 322.54C380.672 322.29 382.028 322.05 383.395 321.81C383.694 321.76 384.003 321.7 384.302 321.65C384.741 321.57 385.19 321.49 385.629 321.41C386.427 321.27 387.225 321.13 388.022 320.99C388.342 320.93 388.671 320.88 388.99 320.82H389Z" fill="#5A6133"/>
<path d="M208.233 390.26C198.32 394.68 188.725 399.14 179.68 403.58L58.0847 419.4L208.233 390.26Z" fill="#666C3C"/>
<path d="M220.101 358.06C215.733 359.21 211.435 360.35 207.206 361.49C206.966 361.56 206.727 361.62 206.478 361.69C100.75 390.22 38.0182 416.64 11.15 429.22C11.0403 429.27 10.9306 429.32 10.8209 429.37H10.8109C10.5516 429.49 10.3023 429.61 10.043 429.73H0.0397034V421.92C41.2396 408.65 119.161 384.42 206.538 361.57C206.777 361.51 207.006 361.45 207.246 361.38C211.514 360.27 215.793 359.16 220.101 358.05V358.06Z" fill="#434F37"/>
<path d="M148.722 420.04C143.127 423.33 138.011 426.57 133.493 429.73H98.0279C110.963 427.2 124.926 424.52 139.487 421.77C142.539 421.19 145.621 420.62 148.722 420.04Z" fill="#666C3C"/>
<path d="M179.67 403.57C168.35 409.12 157.888 414.65 148.722 420.04C145.621 420.62 142.539 421.2 139.487 421.77C124.926 424.52 110.963 427.2 98.028 429.73H9.76401C10.1031 429.61 10.4422 429.49 10.8012 429.37C10.8012 429.37 10.8012 429.37 10.8112 429.37C18.8597 426.59 30.9075 423.45 48.6999 420.72C49.8169 420.55 50.9439 420.38 52.1008 420.21C52.4898 420.15 52.8787 420.1 53.2677 420.04C54.0456 419.93 54.8435 419.82 55.6414 419.71C56.4492 419.6 57.257 419.49 58.0748 419.39L71.9677 417.58L179.66 403.57H179.67Z" fill="#495238"/>
<path d="M208.233 390.26L58.0847 419.4C87.3065 399.06 199.876 379.59 253.093 371.3C237.914 377.42 222.724 383.8 208.233 390.27V390.26Z" fill="#777C34"/>
<path d="M194.53 384.02L210.009 355.08L197.851 382.83L202.269 381.82L210.009 366.76L205.77 381.31L218.656 379.45L222.715 369.55L221.239 379.28L229.527 355.08L227.502 377.76L223.263 381.48L194.53 384.02Z" fill="#787D34"/>
<path d="M283.662 369.55L295.271 344.25L290.094 368.62L298.582 355.92L296.926 367.43L307.787 366.25L313.622 348L312.395 365.91L315.526 365.4L318.469 355.08V365.74L324.542 340.52L322.149 365.74L283.662 369.55Z" fill="#737732"/>
<path d="M354.752 247.61C354.752 247.73 354.722 247.84 354.692 247.97C315.417 258.49 151.944 302.45 107.872 317.01C80.2755 326.13 71.1399 332.33 68.5169 336.06C32.0544 327.41 139.647 300.77 308.336 257.09C325.58 252.63 327.295 249.82 317.661 248.03C329.978 247.47 339.692 245.3 346.923 242.88C351.899 243.95 354.861 245.46 354.742 247.62L354.752 247.61Z" fill="#EAD881"/>
<path d="M364.057 270.31C373.102 267.72 381.53 265.32 388.99 263.2V264.77L380.991 267.39L364.705 272.73L360.755 274.02L342.644 279.95L341.936 280.18L329.549 284.24L327.734 284.83L224.36 318.71C223.722 318.71 223.074 318.71 222.435 318.71C220.61 318.71 218.805 318.73 217.01 318.74C216.661 318.74 216.312 318.74 215.973 318.74H215.933C214.935 318.74 213.938 318.75 212.951 318.76C212.332 318.76 211.704 318.76 211.086 318.77C210.766 318.77 210.447 318.77 210.128 318.77C209.011 318.77 207.894 318.79 206.797 318.79C206.398 318.79 205.989 318.79 205.59 318.79C204.972 318.79 204.354 318.8 203.735 318.8C203.157 318.8 202.578 318.8 202.01 318.8C200.833 318.8 199.666 318.82 198.519 318.82C189.493 318.86 181.385 318.82 174.922 318.57C174.912 318.57 174.902 318.57 174.892 318.57C173.087 318.49 171.412 318.4 169.886 318.29C169.497 318.26 169.118 318.23 168.749 318.2C168.21 318.15 167.682 318.1 167.183 318.05H167.173C166.505 317.98 165.876 317.9 165.288 317.82C164.839 317.76 164.41 317.69 164.011 317.62C163.224 317.48 162.515 317.33 161.927 317.15C161.827 317.12 161.728 317.09 161.628 317.06C161.249 316.94 160.93 316.82 160.65 316.68C160.581 316.65 160.511 316.61 160.441 316.58C160.311 316.51 160.192 316.44 160.092 316.37C159.992 316.3 159.892 316.22 159.823 316.14C158.785 315.12 159.962 313.73 163.952 311.84C149.999 319.96 202.628 316.57 202.628 316.57C202.628 316.57 267.325 297.93 326.347 281.02C326.697 280.92 327.046 280.82 327.395 280.72C332.072 279.38 336.71 278.05 341.278 276.74C347.91 274.84 354.392 272.99 360.606 271.21C361.763 270.88 362.91 270.55 364.047 270.23L364.057 270.31Z" fill="#7BA74C"/>
<path d="M143.985 346.26L125.903 352.46L56.0901 376.37L0.0498962 395.56V377.27L98.8258 347.72L116.07 342.56C127.06 343.87 136.615 345.02 144.005 346.25L143.985 346.26Z" fill="#76994A"/>
<path d="M386.237 316.19L389 315.69V320.82C388.671 320.88 388.352 320.93 388.033 320.99C387.235 321.13 386.437 321.27 385.639 321.41C385.2 321.49 384.751 321.57 384.313 321.65C384.013 321.7 383.704 321.76 383.405 321.81C382.049 322.05 380.682 322.3 379.316 322.54C378.698 322.65 378.079 322.76 377.451 322.88C376.384 323.08 375.307 323.27 374.239 323.47C371.776 323.92 369.313 324.38 366.849 324.85C365.722 325.06 364.605 325.28 363.478 325.49C363.359 325.51 363.249 325.53 363.129 325.56C362.95 325.59 362.76 325.63 362.571 325.67C361.833 325.81 361.085 325.95 360.337 326.1C359.818 326.2 359.289 326.3 358.771 326.4C358.133 326.52 357.484 326.65 356.846 326.77C355.091 327.11 353.335 327.46 351.57 327.81C349.486 328.22 347.381 328.64 345.287 329.06C344.938 329.13 344.589 329.2 344.23 329.28C344.02 329.32 343.811 329.36 343.601 329.41C343.402 329.45 343.202 329.49 343.003 329.53C342.065 329.72 341.138 329.91 340.2 330.1C338.944 330.36 337.677 330.62 336.411 330.88C333.827 331.41 331.254 331.95 328.661 332.5C325.49 333.17 322.308 333.85 319.127 334.54C318.498 334.68 317.87 334.81 317.252 334.95C316.095 335.2 314.948 335.45 313.791 335.7C313.721 335.71 313.651 335.73 313.572 335.75C312.175 336.06 310.769 336.37 309.363 336.68C305.603 337.51 301.833 338.35 298.063 339.2C296.667 339.51 295.261 339.83 293.854 340.15C292.299 340.5 290.733 340.86 289.177 341.22C296.986 337.26 302.471 333.79 305.024 331L333.109 325.88L336.271 325.3L342.335 324.19L360.476 320.88L363.199 320.39L383.176 316.75L386.247 316.19H386.237Z" fill="#68873A"/>
<path d="M154.188 358.48C153.769 358.71 153.33 358.94 152.861 359.17C152.732 359.24 152.602 359.3 152.472 359.36C152.353 359.42 152.223 359.48 152.093 359.55C151.924 359.63 151.744 359.72 151.565 359.8C151.505 359.83 151.445 359.85 151.385 359.88C151.355 359.89 151.325 359.91 151.296 359.92C151.236 359.95 151.166 359.98 151.106 360.01C150.917 360.1 150.727 360.19 150.528 360.27C150.408 360.33 150.278 360.38 150.149 360.44C149.421 360.77 148.643 361.11 147.835 361.46C147.565 361.58 147.286 361.69 146.997 361.81C146.947 361.83 146.887 361.86 146.827 361.88C146.758 361.91 146.688 361.94 146.608 361.97C146.399 362.06 146.189 362.15 145.97 362.23C145.84 362.28 145.71 362.33 145.581 362.39C145.361 362.48 145.132 362.57 144.903 362.66C144.773 362.72 144.633 362.77 144.494 362.83C144.404 362.87 144.304 362.9 144.214 362.94C143.546 363.2 142.858 363.48 142.15 363.75C141.921 363.84 141.681 363.93 141.452 364.02H141.442C141.402 364.03 141.372 364.05 141.332 364.06C141.123 364.14 140.923 364.22 140.714 364.29C140.554 364.35 140.405 364.41 140.245 364.47C139.776 364.65 139.308 364.82 138.819 365C138.659 365.06 138.5 365.12 138.33 365.18C138.031 365.29 137.732 365.4 137.433 365.51C137.263 365.57 137.103 365.63 136.934 365.69C136.316 365.92 135.677 366.14 135.029 366.38C134.889 366.43 134.75 366.48 134.61 366.53C134.431 366.6 134.241 366.66 134.052 366.73C133.882 366.79 133.713 366.85 133.543 366.91C133.224 367.02 132.895 367.14 132.566 367.25L132.027 367.44C131.828 367.51 131.638 367.58 131.439 367.64C130.591 367.93 129.723 368.23 128.836 368.53C128.526 368.64 128.227 368.74 127.908 368.84C126.153 369.43 124.328 370.03 122.413 370.66C121.834 370.85 121.246 371.04 120.647 371.23C120.488 371.28 120.328 371.33 120.169 371.39C119.55 371.59 118.922 371.79 118.294 371.99C113.487 373.53 108.221 375.17 102.476 376.91C101.638 377.16 100.791 377.42 99.9229 377.68C97.4495 378.42 94.8963 379.19 92.2534 379.97C91.3857 380.22 90.518 380.48 89.6304 380.74C87.915 381.25 86.1597 381.76 84.3744 382.29C43.404 394.27 16.9447 402.12 0 407.21V386.53L56.0402 376.32L128.556 363.1L154.148 358.44L154.188 358.48Z" fill="#678037"/>
<path d="M305.015 330.99C302.461 333.78 296.976 337.25 289.167 341.21C289.167 341.21 289.167 341.21 289.157 341.21C288.668 341.32 288.17 341.44 287.681 341.55C286.075 341.92 284.469 342.29 282.864 342.67C282.555 342.74 282.255 342.81 281.946 342.88C280.72 343.16 279.503 343.45 278.276 343.74C277.488 343.92 276.71 344.1 275.922 344.29C274.576 344.6 273.23 344.92 271.873 345.25C270.128 345.66 268.383 346.08 266.637 346.49C265.63 346.73 264.633 346.97 263.625 347.21C263.156 347.32 262.688 347.43 262.219 347.55C260.743 347.9 259.277 348.26 257.801 348.62C256.644 348.9 255.497 349.18 254.35 349.46C246.092 351.48 237.884 353.52 229.726 355.59C229.636 355.61 229.546 355.64 229.457 355.66C229.407 355.68 229.347 355.69 229.297 355.7C226.345 356.45 223.403 357.2 220.461 357.95C220.331 357.98 220.211 358.02 220.082 358.05C215.773 359.16 211.485 360.27 207.226 361.38C206.987 361.44 206.757 361.51 206.518 361.57C119.151 384.42 41.2298 408.65 0.019989 421.92V407.25C16.9647 402.16 43.4239 394.31 84.3944 382.33C86.1796 381.81 87.9349 381.29 89.6504 380.78C90.528 380.52 91.4057 380.26 92.2733 380.01C94.9163 379.23 97.4695 378.46 99.9428 377.72C100.801 377.46 101.658 377.2 102.496 376.95C108.241 375.21 113.507 373.57 118.314 372.03C118.952 371.83 119.58 371.63 120.189 371.43C120.348 371.38 120.508 371.33 120.667 371.27C121.266 371.08 121.844 370.89 122.433 370.7C124.338 370.08 126.173 369.47 127.928 368.88C128.237 368.77 128.546 368.67 128.856 368.57C129.743 368.27 130.611 367.97 131.459 367.68C131.658 367.61 131.848 367.54 132.047 367.48L132.586 367.29C132.915 367.18 133.244 367.06 133.563 366.95C133.732 366.89 133.902 366.83 134.072 366.77C134.401 366.65 134.73 366.54 135.049 366.43C135.697 366.2 136.336 365.97 136.954 365.74C137.123 365.68 137.283 365.62 137.453 365.56C137.752 365.45 138.061 365.34 138.35 365.23C138.49 365.18 138.629 365.13 138.769 365.07C138.799 365.07 138.819 365.05 138.839 365.04C139.328 364.86 139.796 364.69 140.265 364.51C140.425 364.45 140.574 364.39 140.734 364.33C140.943 364.25 141.153 364.17 141.352 364.1C141.392 364.09 141.422 364.07 141.462 364.06H141.472C141.701 363.97 141.941 363.88 142.17 363.79C142.888 363.52 143.566 363.24 144.234 362.98C144.324 362.94 144.424 362.9 144.514 362.87C144.693 362.8 144.873 362.73 145.052 362.65C145.122 362.62 145.192 362.59 145.262 362.57C145.461 362.49 145.651 362.41 145.85 362.33C145.9 362.31 145.94 362.29 145.99 362.27C146.209 362.18 146.419 362.09 146.628 362.01C146.698 361.98 146.768 361.95 146.847 361.92C146.907 361.9 146.957 361.87 147.017 361.85C147.306 361.73 147.575 361.61 147.855 361.5C148.673 361.15 149.441 360.81 150.169 360.48C150.298 360.42 150.418 360.36 150.548 360.31C150.747 360.22 150.936 360.13 151.116 360.04C151.206 360 151.306 359.95 151.395 359.91C151.455 359.88 151.515 359.85 151.575 359.83C151.754 359.74 151.924 359.66 152.103 359.58C152.233 359.52 152.353 359.46 152.482 359.39C152.612 359.33 152.742 359.26 152.871 359.2C153.34 358.97 153.779 358.74 154.198 358.51L251.637 340.75L305.025 331.02L305.015 330.99Z" fill="#A9A574"/>
<path d="M383.385 321.81C382.029 322.05 380.662 322.3 379.296 322.54C378.677 322.65 378.059 322.76 377.431 322.88C373.91 323.52 370.37 324.18 366.819 324.85C365.692 325.06 364.575 325.28 363.448 325.49L359.718 254.15L374.638 309.73L380.991 267.4L383.385 321.81Z" fill="#47543D"/>
<path d="M362.551 325.67C361.314 325.91 360.077 326.14 358.851 326.38C357.504 326.64 356.158 326.9 354.811 327.17C351.64 327.79 348.458 328.43 345.277 329.07C344.928 329.14 344.569 329.21 344.22 329.28L324.552 276.22L348.678 314.89L341.297 276.83L362.561 325.67H362.551Z" fill="#47543D"/>
<path d="M317.741 302.62L340.191 330.1C338.934 330.36 337.667 330.61 336.401 330.88L317.741 302.62Z" fill="#47543D"/>
<path d="M386.237 316.19L389 308.44V320.82C388.671 320.88 388.352 320.93 388.033 320.99C387.235 321.13 386.437 321.27 385.639 321.41C385.2 321.49 384.751 321.57 384.313 321.65L386.257 316.2L386.237 316.19Z" fill="#47543D"/>
<path d="M389 214.96V217.46L337.159 231.3L303.429 240.3C285.576 240.18 268.003 240.37 259.875 239.22C269.639 237.14 279.213 235.13 288.499 233.21C290.633 232.77 292.757 232.33 294.862 231.9C313.213 228.14 330.327 224.77 345.476 221.99C363.009 218.76 377.9 216.32 389 214.97V214.96Z" fill="#A4CF56"/>
<path d="M283.741 245.55L267.116 249.99L232.259 259.29L213.928 264.18L170.584 275.75L153.27 280.37L120.318 289.16L120.069 289.23L114.115 290.82L113.816 290.9L79.9662 299.94L36.672 311.5L34.2784 312.14L28.5537 313.67L7.21075 319.37L0.0498962 321.28V298.41C36.303 289.77 122.971 269.28 207.376 250.63C216.142 248.69 224.889 246.77 233.556 244.89C235.451 244.48 237.345 244.07 239.22 243.66C240.038 243.49 240.856 243.31 241.674 243.13C242.232 243.53 243.05 243.88 244.157 244.16C245.893 244.6 248.346 244.86 251.647 244.9C253.981 244.93 256.265 244.96 258.509 245C267.305 245.14 275.404 245.3 282.684 245.53C283.043 245.53 283.412 245.55 283.761 245.56L283.741 245.55Z" fill="#A4CF56"/>
<path d="M303.429 240.3L283.741 245.56C283.382 245.55 283.023 245.54 282.664 245.53C275.384 245.31 267.285 245.14 258.489 245.01C256.245 244.98 253.961 244.95 251.627 244.92C246.232 244.85 243.09 244.19 241.664 243.15C247.798 241.82 253.881 240.52 259.885 239.24C268.014 240.39 285.587 240.2 303.439 240.32L303.429 240.3Z" fill="#FAF4A4"/>
<path d="M305.014 330.99L251.627 340.72C226.784 333.09 147.795 333.24 137.652 322.44C123.949 307.85 247.558 286.17 249.383 285.85C214.237 295.8 180.507 305.09 166.714 310.72C165.687 311.14 164.769 311.54 163.972 311.92C163.972 311.92 163.972 311.92 163.962 311.92C150.807 318.15 168.22 318.96 195.128 318.9C204.084 318.88 214.088 318.76 224.37 318.72C255.756 318.58 289.695 319.12 304.107 325.11C307.229 326.41 307.368 328.41 305.014 330.98V330.99Z" fill="#D8C174"/>
<path d="M305.015 330.99C302.461 333.78 296.976 337.25 289.167 341.21C278.685 343.62 268.223 346.09 257.811 348.62C260.912 345.23 258.11 342.71 251.627 340.72L305.015 330.99Z" fill="#929363"/>
<path d="M123.699 289.64V293.19L59.6106 316.75L38.7464 319.56L28.434 316.21L28.9227 305.13L45.618 293.42L42.4266 306.28L87.7853 294.09L123.699 289.64Z" fill="#3A667B"/>
<path d="M45.6182 293.42L76.0668 284.39L105.199 287.1L123.699 289.64L86.6784 294.39L42.4267 306.28L38.7466 301.31L45.6182 293.42Z" fill="#F0C9A9"/>
<path d="M86.6782 294.39L59.6105 316.75L35.5548 311.24L38.7463 301.31L42.4265 306.28L86.6782 294.39Z" fill="#27556A"/>
<path d="M76.0667 284.39L63.7895 292.96L86.6783 294.39L123.699 289.64L76.0667 284.39Z" fill="#FFE7C5"/>
<path d="M379.057 5.92999L389 0V105.49C386.696 105.29 384.183 104.8 381.729 104.3C378.428 103.62 375.237 102.92 372.813 102.83C372.474 102.83 372.155 102.83 371.856 102.83C369.821 102.92 368.535 103.63 368.515 105.47C368.465 112.91 337.079 83.81 333.379 79.24C331.923 77.45 320.732 81.03 307.608 86.24C297.864 90.11 287.053 94.86 278.356 98.97C276.61 99.8 274.945 100.6 273.389 101.36C266.497 104.75 261.79 107.39 261.541 108.18C260.583 111.23 259.047 116.81 251.637 121.59C250.261 122.47 249.114 124.43 248.147 127.02C246.222 132.22 245.055 140.01 244.377 146.94C243.579 155.06 243.459 162 243.589 162.26L235.75 152.02L223.094 135.48L216.381 144.4C216.381 144.4 212.243 142.2 209.161 137.62C207.764 135.54 204.643 141.52 201.631 148.69L209.649 127.13H220.7L224.38 119.68C224.38 119.68 224.58 119.58 224.959 119.4C225.018 119.37 225.078 119.34 225.138 119.31C226.185 118.81 228.3 117.8 231.232 116.4C231.391 116.32 231.561 116.24 231.72 116.16C232.239 115.92 232.778 115.66 233.336 115.39C233.466 115.33 233.595 115.26 233.735 115.2C237.984 113.17 243.459 110.55 249.692 107.56C250.081 107.37 250.47 107.18 250.869 106.99C257.202 103.95 264.273 100.56 271.614 97.02C272.063 96.8 272.511 96.59 272.96 96.37C273.14 96.28 273.319 96.2 273.499 96.11C273.569 96.08 273.638 96.04 273.718 96.01C274.287 95.74 274.855 95.46 275.434 95.19C276.271 94.79 277.109 94.38 277.957 93.98C280.001 92.99 282.066 91.99 284.13 91C284.918 90.62 285.716 90.24 286.504 89.85C287.222 89.51 287.93 89.16 288.638 88.81C290.872 87.73 293.086 86.65 295.291 85.58C296.148 85.16 297.006 84.75 297.864 84.33C299.29 83.63 300.716 82.94 302.122 82.26C303.279 81.7 304.416 81.14 305.543 80.59C306.181 80.28 306.8 79.97 307.428 79.67C308.455 79.16 309.473 78.67 310.49 78.17C312.883 76.99 315.217 75.85 317.461 74.75C317.491 74.74 317.511 74.72 317.541 74.71C318.289 74.34 319.037 73.97 319.775 73.61C319.785 73.61 319.805 73.59 319.815 73.59C320.533 73.23 321.241 72.88 321.939 72.54C321.989 72.51 322.039 72.49 322.099 72.46C322.757 72.13 323.405 71.81 324.044 71.5C324.851 71.1 325.649 70.7 326.417 70.32C327.285 69.89 328.123 69.47 328.931 69.06C329.1 68.98 329.26 68.89 329.419 68.82C329.718 68.67 330.018 68.52 330.307 68.37C331.115 67.96 331.893 67.57 332.641 67.19C332.93 67.04 333.219 66.9 333.508 66.75C333.728 66.64 333.947 66.52 334.167 66.42C334.366 66.32 334.556 66.22 334.755 66.12C335.294 65.84 335.812 65.58 336.311 65.32C336.43 65.26 336.56 65.19 336.68 65.13C336.949 64.99 337.208 64.86 337.468 64.72C337.877 64.51 338.266 64.31 338.645 64.11C338.854 64 339.063 63.89 339.263 63.78C339.552 63.62 339.831 63.48 340.101 63.33C341.038 62.83 341.836 62.4 342.484 62.04C342.584 61.99 342.674 61.93 342.764 61.88C342.893 61.81 343.013 61.74 343.123 61.67C343.212 61.62 343.292 61.57 343.372 61.52C343.791 61.27 344.09 61.07 344.26 60.94C344.28 60.92 344.299 60.91 344.309 60.9C344.319 60.9 344.339 60.88 344.349 60.87C344.359 60.86 344.379 60.85 344.389 60.83C344.409 60.81 344.419 60.79 344.429 60.77C345.167 58.74 345.167 43.17 345.167 43.17L365.453 27.45L375.057 12.25L379.047 5.92999H379.057Z" fill="#1A5167"/>
<path d="M35.5549 311.24L28.434 316.21L38.7464 319.56L59.6106 316.75L35.5549 311.24Z" fill="#163D4D"/>
<path d="M59.6104 316.75L0.0397034 329.28V325.47L14.9099 320.61L28.4338 316.21L33.1312 317.74L35.7841 318.6L38.7462 319.56L59.6104 316.75Z" fill="#5B7433"/>
<path d="M163.233 281.84L90.9367 306.54L0.0397034 337.6V328.93L35.7841 318.6L49.8765 314.52L61.1862 311.26L69.0053 309L123.699 293.19L163.233 281.84Z" fill="#B5D55F"/>
<path d="M38.7466 301.31L49.428 301.99L63.1713 297.7L86.6784 294.39L42.4267 306.28L38.7466 301.31Z" fill="#3F6B82"/>
<path d="M28.9227 305.13L38.7464 301.31L35.5549 311.24L28.434 316.21L28.9227 305.13Z" fill="#022B39"/>
<path d="M221.608 253.14L222.266 253.22L230.015 254.15L229.277 256.63L216.142 259.91L221.608 253.14Z" fill="#FFE7C5"/>
<path d="M221.607 253.14L209.141 263.18L213.918 264.19L232.249 259.3L230.015 254.15L229.277 256.63L216.142 259.91L221.607 253.14Z" fill="#3A667B"/>
<path d="M216.142 259.91L213.918 264.19L209.141 263.18L221.607 253.14L216.142 259.91Z" fill="#2B4F60"/>
<path d="M229.277 256.63L232.249 259.3L230.015 254.15L229.277 256.63Z" fill="#43738C"/>
<path d="M232.249 259.3L170.574 275.76L199.447 270.4L232.249 259.3Z" fill="#D0DF5A"/>
<path d="M209.141 263.18L153.27 280.38L213.918 264.19L209.141 263.18Z" fill="#5B7433"/>
<path d="M35.3257 261.92C34.448 265.73 34.8469 269.93 38.5371 273.44L0.0300293 280.98V241.84C3.91963 238.64 9.03595 235.37 15.2294 233.5C16.8949 233 18.6403 232.59 20.4554 232.32C22.6296 231.99 24.9135 231.84 27.2872 231.93C30.6183 232.05 34.1388 232.63 37.8389 233.78C38.926 234.12 40.0431 234.51 41.1601 234.96L11.7288 263.18L41.1601 250.99C41.1601 250.99 36.682 255.99 35.3157 261.92H35.3257Z" fill="#273C30"/>
<path d="M57.3667 218.68L54.0954 221.57L46.8448 227.97C46.2065 227.55 45.5582 227.16 44.91 226.79C41.898 225.05 38.7963 223.77 35.6647 222.86C34.8768 222.63 34.0789 222.42 33.291 222.24C32.2538 222 31.2166 221.79 30.1794 221.62C26.3197 220.99 22.4899 220.85 18.7998 221.03C15.6083 221.19 12.5166 221.6 9.62431 222.16C9.17551 222.24 8.73668 222.33 8.29786 222.42C7.94879 222.49 7.59972 222.57 7.26063 222.65C6.373 222.85 5.50532 223.06 4.65759 223.28C4.35839 223.36 4.06916 223.44 3.77994 223.51C2.45348 223.87 1.19684 224.25 0.019989 224.64V214.12C2.47343 213.24 5.19615 212.39 8.15823 211.67C9.08575 211.44 10.0232 211.23 11.0006 211.03C14.4614 210.32 18.1715 209.8 22.0511 209.61C22.3503 209.6 22.6395 209.58 22.9387 209.57C23.0883 209.57 23.2379 209.57 23.3875 209.56H23.4374C23.6069 209.56 23.7665 209.56 23.936 209.55C23.9759 209.55 24.0158 209.55 24.0557 209.55C24.2153 209.55 24.3749 209.55 24.5444 209.55C24.8137 209.55 25.083 209.55 25.3622 209.55C25.9407 209.55 26.5291 209.55 27.1275 209.57C27.337 209.57 27.5464 209.58 27.7658 209.59C27.9453 209.59 28.1248 209.59 28.3044 209.61C28.5936 209.62 28.8928 209.64 29.182 209.66C29.4413 209.67 29.7106 209.69 29.9699 209.71C30.0397 209.71 30.0996 209.71 30.1694 209.72C30.4087 209.74 30.6481 209.76 30.8875 209.78C31.1767 209.8 31.4659 209.83 31.7551 209.86C32.0444 209.89 32.3336 209.92 32.6228 209.96C32.922 209.99 33.2112 210.03 33.5104 210.07C33.5204 210.07 33.5304 210.07 33.5404 210.07C33.8495 210.11 34.1587 210.15 34.4679 210.2C34.4679 210.2 34.4779 210.2 34.4878 210.2C34.7671 210.24 35.0463 210.28 35.3256 210.33C35.3854 210.33 35.4552 210.35 35.5251 210.36C35.7943 210.41 36.0636 210.45 36.3329 210.5C36.5423 210.54 36.7518 210.58 36.9712 210.62C37.061 210.64 37.1507 210.65 37.2405 210.67C37.2505 210.67 37.2704 210.67 37.2804 210.67H37.2903C37.3003 210.67 37.3103 210.67 37.3203 210.67C37.5895 210.72 37.8688 210.78 38.1381 210.84C38.168 210.84 38.1979 210.84 38.2278 210.86C38.2378 210.86 38.2578 210.86 38.2677 210.86C38.3176 210.86 38.3675 210.88 38.4074 210.89C38.6168 210.93 38.8262 210.98 39.0357 211.03C39.0556 211.03 39.0756 211.03 39.0955 211.04C39.1254 211.04 39.1454 211.04 39.1753 211.06C39.2351 211.08 39.305 211.09 39.3748 211.11C39.4645 211.13 39.5543 211.16 39.654 211.18C39.7937 211.21 39.9233 211.24 40.0729 211.28C40.3721 211.35 40.6813 211.43 40.9805 211.51C41.1999 211.57 41.4193 211.63 41.6387 211.69C41.7185 211.71 41.8083 211.74 41.8881 211.76C42.0975 211.82 42.3069 211.88 42.5164 211.94C42.6061 211.97 42.7059 211.99 42.8056 212.02C42.8754 212.04 42.9353 212.06 43.0051 212.08C43.2444 212.15 43.4738 212.23 43.7132 212.3C43.9924 212.39 44.2717 212.48 44.5509 212.57C44.5709 212.57 44.5908 212.57 44.6008 212.59C44.6207 212.59 44.6407 212.6 44.6606 212.61C44.91 212.69 45.1493 212.78 45.3987 212.86C46.3561 213.2 47.3235 213.56 48.281 213.96C48.4904 214.04 48.6899 214.13 48.8993 214.22C49.0788 214.29 49.2484 214.37 49.4279 214.45C49.6972 214.57 49.9764 214.69 50.2557 214.82C50.5748 214.97 50.894 215.11 51.2131 215.27C51.263 215.3 51.3228 215.32 51.3827 215.35C51.5622 215.44 51.7517 215.53 51.9412 215.62C52.011 215.66 52.0908 215.69 52.1606 215.73C52.38 215.84 52.5994 215.95 52.8188 216.06C53.0382 216.18 53.2577 216.29 53.4771 216.41C53.6566 216.51 53.8461 216.61 54.0256 216.71C54.1154 216.76 54.1951 216.8 54.2749 216.85C54.3647 216.9 54.4445 216.95 54.5342 217C54.5841 217.02 54.634 217.05 54.6739 217.08C55.5615 217.58 56.4392 218.11 57.3168 218.67L57.3667 218.68Z" fill="#3F5747"/>
<path d="M30.1894 221.62L20.4654 232.32C18.6503 232.59 16.9049 233 15.2394 233.5L18.8098 221.02C22.5 220.84 26.3297 220.98 30.1894 221.61V221.62Z" fill="#3C5F4A"/>
<path d="M15.2394 233.5C16.9049 233 18.6502 232.59 20.4654 232.32L13.3344 240.16L15.2394 233.5Z" fill="#345542"/>
<path d="M39.6741 211.18L30.1894 221.62C26.3297 220.99 22.5 220.84 18.8098 221.03L22.0711 209.62C22.3703 209.61 22.6596 209.59 22.9588 209.58C23.1084 209.58 23.258 209.58 23.4076 209.57C23.6369 209.57 23.8564 209.56 24.0857 209.55C25.7613 209.52 27.4667 209.55 29.2021 209.65C30.339 209.71 31.486 209.81 32.6429 209.95C32.952 209.98 33.2512 210.02 33.5604 210.06C33.8696 210.1 34.1788 210.14 34.4879 210.19C34.7772 210.23 35.0564 210.27 35.3456 210.32C35.4154 210.32 35.4753 210.34 35.5451 210.35C35.8144 210.39 36.0837 210.44 36.3529 210.49C36.6521 210.54 36.9613 210.6 37.2605 210.66C37.2904 210.66 37.3204 210.67 37.3403 210.68C37.6096 210.73 37.8888 210.79 38.1581 210.85C38.198 210.85 38.2379 210.86 38.2778 210.87C38.557 210.93 38.8363 210.99 39.1156 211.06C39.1455 211.06 39.1654 211.07 39.1953 211.08C39.3549 211.12 39.5145 211.15 39.6741 211.19V211.18Z" fill="#456953"/>
<path d="M44.9099 226.79L37.8388 233.78C34.1288 232.62 30.6082 232.05 27.287 231.93L33.291 222.24C37.2205 223.15 41.13 224.62 44.9 226.8L44.9099 226.79Z" fill="#3C5F4A"/>
<path d="M27.297 231.93C30.6181 232.05 34.1487 232.63 37.8488 233.78L7.62958 263.68L27.297 231.92V231.93Z" fill="#345542"/>
<path d="M54.7136 217.09L44.9098 226.79C41.1399 224.61 37.2204 223.15 33.3009 222.23L40.0927 211.27C40.3919 211.34 40.7011 211.42 41.0003 211.5C41.2197 211.56 41.4391 211.62 41.6585 211.68C42.0475 211.79 42.4364 211.9 42.8254 212.02C43.1346 212.11 43.4338 212.2 43.743 212.3C44.0422 212.39 44.3414 212.49 44.6306 212.59C44.6505 212.59 44.6705 212.6 44.7004 212.61C44.9497 212.69 45.1891 212.78 45.4384 212.86C46.7848 213.33 48.1312 213.86 49.4677 214.45C49.7469 214.57 50.0162 214.69 50.2954 214.82C50.6146 214.97 50.9337 215.11 51.2529 215.27C51.3127 215.29 51.3626 215.32 51.4224 215.35C51.6817 215.47 51.941 215.6 52.2003 215.73C52.6392 215.95 53.078 216.18 53.5168 216.41C53.6963 216.51 53.8858 216.61 54.0654 216.71C54.2349 216.8 54.4045 216.9 54.574 216.99C54.6239 217.01 54.6737 217.04 54.7136 217.07V217.09Z" fill="#456953"/>
<path d="M66.0034 220.36L44.0122 240.16L72.9947 225.76L66.0034 220.36Z" fill="#7C9F43"/>
<path d="M8.3576 208.27C8.53712 208.51 6.70203 229.16 6.70203 229.16L11.6787 208.27H8.36757H8.3576Z" fill="#7C9F43"/>
<path d="M117.476 257.98L112.419 258.97L86.6782 264.01L58.0946 269.61H58.0847C58.0847 269.61 58.4138 265.17 60.4184 259.64L78.52 258.65L80.1756 254.14L66.4922 248.84C70.7508 243.75 77.1238 239.53 86.6782 238.79C106.036 237.3 114.394 250.68 117.476 257.97V257.98Z" fill="#1F3835"/>
<path d="M117.476 257.98L112.419 258.97C100.93 236.89 76.0665 246.25 76.0665 246.25L80.1755 254.15L66.4921 248.85C70.7507 243.76 77.1236 239.54 86.6781 238.8C106.036 237.31 114.394 250.69 117.476 257.98Z" fill="#19312E"/>
<path d="M102.825 238.69L96.2027 250.99L97.8582 251.84L108.909 243.13L102.825 238.69Z" fill="#7C9F43"/>
<path d="M180.916 245.79L0.0397034 288.39V281.21L58.0845 269.84H58.0945L86.6881 264.24L117.476 258.21L180.916 245.79Z" fill="#A4CF56"/>
<path d="M308.346 257.08C300.626 259.08 293.037 261.04 285.577 262.97C289.715 261.87 309.044 256.65 314.769 253.13C318.738 250.69 291.192 250.96 267.116 249.99L283.741 245.55C299.39 246.04 311.138 246.8 317.671 248.02C327.305 249.81 325.59 252.62 308.346 257.08Z" fill="#7BA74C"/>
<path d="M254.48 231.38C254.25 231.54 254.031 231.74 253.801 231.99C244.776 235.9 238.213 240.62 241.644 243.13C238.951 243.71 236.238 244.3 233.526 244.89C228.399 239.65 247.369 233.46 254.47 231.38H254.48Z" fill="#7BA74C"/>
<path d="M283.741 245.55L267.116 249.99C252.206 249.38 238.632 248.29 234.693 245.79C234.224 245.49 233.845 245.19 233.556 244.89C236.268 244.3 238.981 243.71 241.674 243.13C243.1 244.17 246.242 244.83 251.637 244.9C253.971 244.93 256.255 244.96 258.499 244.99C267.295 245.13 275.394 245.29 282.674 245.51C283.033 245.52 283.392 245.53 283.751 245.54L283.741 245.55Z" fill="#82B252"/>
<path d="M257.063 230.65C257.063 230.65 256.065 230.91 254.48 231.38C255.796 230.41 257.063 230.65 257.063 230.65Z" fill="#A4CF56"/>
<path d="M389 221.36V226.62L351.061 236.32L366.361 227.99L370.46 225.76L389 221.36Z" fill="#82B252"/>
<path d="M389 231.15V233.58L352.787 242.39L389 231.15Z" fill="#A4CF56"/>
<path d="M154.188 358.48L128.596 363.14C133.154 362.31 135.966 360.42 137.442 358.48C143.087 351.04 69.923 345.54 61.1165 340.72C52.3998 335.96 62.4829 329.38 62.7123 329.24C59.8898 332.14 61.6451 334.42 68.5167 336.05C69.913 336.38 71.5287 336.69 73.3638 336.97C88.7925 339.32 103.384 341.05 116.05 342.56C127.04 343.87 136.595 345.02 143.985 346.26C160.112 348.97 165.966 352.14 154.188 358.49V358.48Z" fill="#76994A"/>
<path d="M341.387 197.61L342.913 197.51C342.714 197.53 342.175 197.57 341.387 197.61Z" fill="#273E38"/>
<path d="M204.364 220.86C196.654 220.51 167.113 219.11 132.366 217.05C134.52 216.69 136.545 216.33 138.36 215.97C160.441 218.08 182.991 219.84 204.364 220.86Z" fill="#6F903D"/>
<path d="M120.099 214.14C119.64 214.25 119.152 214.36 118.613 214.46C117.466 214.69 116.14 214.91 114.614 215.12C113.217 215.32 111.841 215.51 110.505 215.71C110.156 215.69 109.816 215.67 109.467 215.64C65.3853 212.8 18.8896 209.09 0.0300293 205.16V198.58C16.8351 201.17 65.5449 208.42 120.099 214.14Z" fill="#6F903D"/>
<path d="M138.36 215.97C136.545 216.34 134.53 216.69 132.366 217.05C125.255 216.62 117.915 216.17 110.505 215.7C111.841 215.5 113.217 215.31 114.614 215.11C116.858 214.8 118.673 214.47 120.099 214.14C126.123 214.77 132.217 215.39 138.36 215.97Z" fill="#D5BE58"/>
<path d="M205.211 220.9C205.331 220.9 205.451 220.91 205.57 220.92C205.461 220.92 205.341 220.91 205.211 220.9Z" fill="#6F903D"/>
<path d="M343.601 187.02L343.482 189.11C323.395 191.71 299.15 194.35 270.537 196.57C253.502 197.89 234.922 199.07 214.746 200C214.706 200 214.666 200 214.616 200C212.362 200.03 179.56 200.45 144.125 197.69C140.604 197.42 137.064 197.11 133.513 196.77C132.227 196.65 130.93 196.52 129.643 196.38C129.643 196.38 132.615 194.63 136.724 192.34C144.982 187.73 157.818 180.89 160.281 181.58C163.762 182.55 191.179 169.34 194.251 167.85H194.281C194.44 167.76 194.53 167.72 194.53 167.72C194.53 167.72 194.53 167.72 194.53 167.7L201.611 148.67L201.402 171.61L183.579 186.91C194.65 189.89 212.801 191.1 233.915 191.23C236.059 191.24 238.243 191.24 240.447 191.23C272.671 191.1 310.52 188.73 340.5 186.37L343.043 186.9L343.591 187.02H343.601Z" fill="#266380"/>
<path d="M190.68 203.95C205.491 201.59 214.746 200 214.746 200C214.706 200 214.666 200 214.616 200C212.133 200.04 172.738 200.54 133.523 196.77C133.872 195.61 134.889 194.17 136.725 192.34C144.982 187.73 157.818 180.89 160.282 181.58C163.762 182.55 191.179 169.34 194.251 167.85C193.772 168.22 167.891 187.83 170.584 191.86C173.307 195.92 233.546 194.3 233.546 194.3C233.546 194.3 233.695 193.04 233.935 191.22C234.693 185.32 236.338 173.49 236.578 179C236.757 183.19 236.976 187.87 240.467 191.22C243 193.65 247.259 195.37 254.49 195.7C260.593 195.97 266.049 196.28 270.547 196.56C278.725 197.07 283.751 197.49 283.751 197.49C283.751 197.49 229.736 201.98 190.7 203.94L190.68 203.95Z" fill="#235D78"/>
<path d="M343.482 189.11L343.003 197.5H342.913L341.387 197.61C341.367 197.61 341.347 197.61 341.327 197.61L319.635 199.08C319.296 200.52 318.977 201.91 318.668 203.23C290.214 206.04 248.865 208.21 196.006 206.8C151.385 205.61 124.587 203.81 108.5 202.11C118.024 202.19 128.327 202.18 139.467 202.07C148.672 201.98 158.446 201.82 168.839 201.58C245.234 199.8 302.86 194.37 343.482 189.12V189.11Z" fill="#EBEA67"/>
<path d="M10.033 139.38C6.38274 138.18 2.98184 137.1 0.0397034 136.2V133.65C2.75245 135.35 6.09352 137.31 10.033 139.37V139.38Z" fill="#4D7280"/>
<path d="M149.969 137.26C149.969 137.26 137.093 153.86 136.585 156.75C136.076 159.64 118.862 164.53 117.476 164.44C116.09 164.35 105.189 164.44 105.189 164.44C105.189 164.44 103.942 169.61 105.189 174.35C106.435 179.1 115.212 185.04 118.653 186.17C122.103 187.3 98.9454 181.62 98.9454 177.2C98.9454 175.28 94.5472 168.08 93.7293 164.44C92.9115 160.8 86.0499 170.11 86.0499 170.11C86.0499 170.11 79.7368 170.42 77.2235 175.17C74.7102 179.92 69.6737 170.26 57.566 164.44C54.0654 162.76 51.8214 156.68 43.8028 152.64C49.5475 154.23 55.721 155.64 62.3034 156.76C107.233 164.35 129.633 153.52 129.633 153.52L149.959 137.27L149.969 137.26Z" fill="#689FBF"/>
<path d="M90.4583 201.83C85.3818 201.71 80.5647 201.57 75.9969 201.41C75.1293 201.38 74.2616 201.35 73.4039 201.31C68.4272 201.11 63.7497 200.89 59.3614 200.63C57.8953 200.55 56.4492 200.46 55.043 200.37C54.5642 200.34 54.0855 200.31 53.6068 200.28C52.9685 200.24 52.3502 200.19 51.7318 200.15C50.8841 200.09 50.0563 200.03 49.2385 199.97C47.9818 199.88 46.7451 199.78 45.5483 199.69C44.6906 199.62 43.8429 199.55 43.0151 199.48C42.5464 199.44 42.0776 199.4 41.6188 199.36C41.4393 199.34 41.2498 199.33 41.0703 199.31C38.6169 199.09 36.2831 198.86 34.0591 198.63H34.0491C33.1914 198.54 32.3536 198.45 31.5258 198.36H31.5159C31.087 198.31 30.6681 198.26 30.2492 198.21C29.8503 198.16 29.4613 198.12 29.0824 198.07C28.6635 198.02 28.2546 197.97 27.8357 197.92C27.6263 197.89 27.4068 197.87 27.1974 197.84C26.7985 197.79 26.3896 197.74 26.0006 197.69C22.6795 197.25 19.6775 196.81 16.9747 196.35C16.6656 196.3 16.3664 196.25 16.0672 196.19C15.9674 196.17 15.8777 196.16 15.7779 196.14C15.4987 196.09 15.2194 196.04 14.9501 195.99C14.8205 195.97 14.6809 195.94 14.5512 195.92C14.272 195.87 13.9927 195.82 13.7234 195.77C13.2846 195.69 12.8557 195.6 12.4369 195.52C12.1277 195.46 11.8285 195.4 11.5293 195.34C9.93355 195.02 8.46747 194.69 7.12107 194.37C6.83184 194.3 6.54262 194.23 6.26336 194.16C5.83451 194.05 5.41563 193.94 5.00672 193.84C4.75739 193.77 4.51803 193.71 4.27867 193.64C3.62043 193.46 2.99211 193.28 2.39371 193.11C2.16432 193.04 1.94491 192.97 1.7255 192.9C1.60582 192.87 1.49611 192.83 1.37643 192.79C1.16699 192.72 0.967523 192.66 0.768056 192.59C0.648376 192.55 0.528696 192.51 0.409016 192.47C0.279363 192.43 0.159683 192.39 0.0300293 192.34V175.59C3.58054 172.26 6.86177 169.25 6.69222 169.73C6.48278 170.31 5.276 175.54 4.25872 179.97C3.49078 183.37 2.83254 186.29 2.83254 186.29L6.69222 183.94L9.17558 190.1L12.6264 181.6L13.3245 179.88L14.0126 181.85L16.8949 190.1L22.4202 183.27L31.7452 171.75L32.8224 184.87L33.5903 194.27C33.5903 194.27 60.1992 200.79 90.4583 201.79V201.83Z" fill="#224527"/>
<path d="M389 206.3V211.22C379.675 212.86 364.695 215.48 349.266 218.17C343.801 219.12 338.286 220.09 332.94 221.02C311.418 224.76 292.757 227.98 292.139 227.98C291.331 227.98 323.276 220.86 352.368 214.41C360.885 212.52 369.153 210.69 376.294 209.11C381.151 208.04 385.47 207.08 389 206.31V206.3Z" fill="#EBEA67"/>
<path d="M139.697 220.36C139.697 220.36 190.491 225.3 246.102 222.24C301.713 219.18 301.344 219.69 304.107 218.42C304.107 218.42 205.93 235.43 157.509 226.8L139.687 220.37L139.697 220.36Z" fill="#6F903D"/>
<path d="M142.978 125.3L102.556 142.75C102.556 142.75 156.99 137.92 188.586 115.25C188.586 115.25 133.264 104.43 129.653 101.39C126.043 98.3501 105.199 84.5901 105.199 84.5901C105.199 84.5901 105.199 97.0201 121.984 106.81C134.241 113.96 168.37 119.67 168.37 119.67L135.548 132.53L142.978 125.31V125.3Z" fill="#3E8096"/>
<path d="M344.439 60.7599L362.551 75.6799L354.752 45.65L371.247 37.5999L379.057 5.92993L365.463 27.4399L345.167 43.1599L344.439 60.7599Z" fill="#20475A"/>
<path d="M194.261 167.86L160.401 186.91L144.494 191.95L144.135 197.69C139.337 197.32 134.48 196.89 129.653 196.39C129.653 196.39 156.601 180.56 160.291 181.59C163.772 182.56 191.229 169.33 194.261 167.86Z" fill="#1A5167"/>
<path d="M121.984 45.8701C121.984 45.8701 117.765 53.3401 114.454 54.6001C111.143 55.8601 109.487 70.0901 105.199 71.5601C105.199 71.5601 97.8781 76.6901 96.9007 79.8101C95.9134 82.9201 95.1155 87.8601 96.2026 88.5201C97.2897 89.1801 91.2459 87.3601 89.5105 85.4801C87.7652 83.6101 85.1721 83.8001 81.2227 85.4801C77.3131 87.1401 109.916 110.62 110.494 111.04C110.305 110.96 105.797 110.74 99.9526 110.29C96.8708 110.06 93.4101 109.76 90.0191 109.39C82.0604 108.53 74.4707 107.27 72.9947 105.46C69.6636 101.4 50.3652 101.57 50.3652 101.57L54.7235 111.87L44.9197 111.04L0.0397034 124.08V119.39C14.3814 114.41 38.0082 105.46 38.0082 105.46L48.3206 95.1701C48.3206 95.1701 48.54 95.0801 48.9589 94.9201C49.0287 94.8901 49.0985 94.8601 49.1783 94.8301C49.9263 94.5401 51.153 94.0401 52.7388 93.3801C52.9183 93.3001 53.1178 93.2201 53.3073 93.1401C53.6165 93.0101 53.9356 92.8801 54.2647 92.7401C54.4442 92.6601 54.6437 92.5801 54.8332 92.5001C55.7109 92.1201 56.6583 91.7101 57.6656 91.2701C57.915 91.1601 58.1743 91.0501 58.4236 90.9301C59.2015 90.5901 60.0094 90.2301 60.8372 89.8401C61.1164 89.7101 61.3957 89.5901 61.6849 89.4601C62.1636 89.2401 62.6623 89.0101 63.1609 88.7701C63.3903 88.6601 63.6297 88.5501 63.869 88.4401C64.8464 87.9801 65.8537 87.5001 66.881 87.0001C67.2799 86.8101 67.6888 86.6101 68.0878 86.4101C72.6755 84.1601 77.6522 81.5401 82.5292 78.6601C82.8084 78.5001 83.0877 78.3301 83.3569 78.1701C84.474 77.5001 85.571 76.8301 86.6681 76.1401C86.9573 75.9501 87.2466 75.7701 87.5358 75.5801C88.3636 75.0501 89.1814 74.5201 89.9792 73.9801C90.3383 73.7401 90.6874 73.5001 91.0364 73.2601C91.6448 72.8401 92.2532 72.4201 92.8516 71.9901C93.051 71.8501 93.2505 71.7101 93.45 71.5601C93.6494 71.4201 93.8389 71.2801 94.0384 71.1301C94.178 71.0301 94.3176 70.9201 94.4573 70.8201C95.0956 70.3401 95.7239 69.8701 96.3323 69.3901C96.5218 69.2401 96.7013 69.1001 96.8908 68.9501C96.8908 68.9501 96.9007 68.9401 96.9107 68.9301C97.3894 68.5501 97.8682 68.1601 98.3369 67.7701C98.9552 67.2501 99.5636 66.7301 100.152 66.2001C100.581 65.8201 101 65.4301 101.409 65.0401C102.546 63.9601 103.603 62.8802 104.57 61.7802C104.69 61.6402 104.81 61.5101 104.929 61.3701C105.049 61.2301 105.159 61.1001 105.278 60.9601C105.398 60.8201 105.508 60.6901 105.617 60.5501C105.727 60.4101 105.837 60.2801 105.947 60.1401C106.595 59.3201 107.193 58.5001 107.722 57.6701C107.812 57.5401 107.891 57.4001 107.981 57.2701C108.24 56.8501 108.49 56.4401 108.719 56.0201C108.719 56.0201 118.294 48.5701 121.984 45.8701Z" fill="#3C7B8F"/>
<path d="M54.7137 115.25H66.4922C66.4922 115.25 58.4338 106.65 63.7895 108.68C69.1451 110.71 90.4183 121.8 123.699 126.92C123.699 126.92 49.5874 131.51 36.1035 124.52C22.6195 117.53 37.8488 118.39 37.8488 118.39C37.8488 118.39 56.1898 122.09 54.7237 115.25H54.7137Z" fill="#B7DFED"/>
<path d="M271.614 97.01C246.411 109.15 224.36 119.65 224.36 119.65L220.68 127.1H209.629C209.629 127.1 204.473 123.38 185.324 130.77C166.176 138.16 169.856 147.75 165.807 145.38C165.807 145.38 145.551 172.46 144.484 174.35C143.426 176.24 161.019 143.62 161.019 143.62C161.019 143.62 175.002 128.98 194.53 122.63C213.509 116.46 228.529 117.52 271.604 97.01C271.604 97.01 271.604 97.01 271.614 97.01Z" fill="#326C7E"/>
<path d="M188.586 115.24C186.262 113.24 139.697 90.9001 139.697 90.9001C139.697 90.9001 172.04 93.7001 177.984 88.5101C178.453 88.1001 178.553 87.4701 178.313 86.6601L175.202 88.5101C175.202 88.5101 159.863 83.4802 149.321 76.4702C148.254 75.7602 147.236 75.0301 146.289 74.2901C139.018 68.5701 131.748 55.4401 126.801 49.1401L129.643 71.5401L121.974 66.5001L127.13 84.5701L117.476 82.4101L138.35 100.02L105.189 84.5701C105.189 84.5701 108.49 105.45 155.584 111.03C162.406 111.84 190.9 117.23 188.576 115.23L188.586 115.24Z" fill="#B7DFED"/>
<path d="M117.476 82.4201L127.14 84.5801L121.984 66.5201L129.653 71.5601L126.801 49.1501L121.984 58.4101L120.099 68.5701L117.476 75.6701L105.199 84.5801L138.36 100.03L117.476 82.4201Z" fill="#5A93A7"/>
<path d="M96.2028 115.25L72.9948 93.26L108.5 115.69L96.2028 116.95V115.25Z" fill="#5A93A7"/>
<path d="M52.37 135.08C52.37 135.08 101.758 137.83 142.968 125.3C142.968 125.3 86.4987 144.03 76.0566 142.68L52.36 135.08H52.37Z" fill="#3E8096"/>
<path d="M54.7137 157.57C54.7137 157.57 54.8035 160.59 57.3666 161.79C59.9198 162.99 72.9948 172.13 72.9948 172.13L67.2203 166.09L72.9948 166.37L85.1523 164.44L72.935 164.85L60.6578 161.79L54.7137 157.57Z" fill="#B7DFED"/>
<path d="M63.7896 91.22L71.5289 100.02C71.5289 100.02 55.6912 96.6399 49.797 96.9999C43.9028 97.3699 46.4859 105.45 46.4859 105.45H38.0185L48.3309 95.1599C48.3309 95.1599 78.4504 83.66 96.9011 68.95C89.7302 75.53 63.7996 91.22 63.7996 91.22H63.7896Z" fill="#306878"/>
<path d="M241.315 95.16C250.6 93.91 264.712 92.01 278.615 90.14C273.688 90.83 244.686 95.07 236.637 100.02C227.821 105.44 201.631 108.36 201.631 108.36C198.4 108.92 216.152 101.71 216.152 101.71C216.152 101.71 214.068 101.03 208.094 100.02C202.12 99 194.54 77 194.54 77C194.54 77 198.868 81.12 205.77 85.47C214.606 91.04 227.681 96.99 241.325 95.16H241.315Z" fill="#306878"/>
<path d="M279.024 90.0901C278.924 90.1001 278.824 90.1101 278.725 90.1301C278.834 90.1101 278.934 90.1001 279.024 90.0901Z" fill="#306878"/>
<path d="M371.247 208.52L343.611 213.93L314.768 219.58C315.078 218.47 330.446 152.26 333.817 137.6H343.611V135.57L343.342 135.47L335.034 132.35C335.583 129.93 336.131 127.57 336.65 125.3L343.382 127.05L343.611 127.11C343.611 127.11 343.532 127.04 343.382 126.92C342.604 126.27 339.981 124.07 337.428 121.89C340.928 106.63 343.442 95.6499 343.551 95.1899C343.551 95.1799 343.551 95.1699 343.551 95.1699C343.551 95.1699 357.873 148.37 366.171 184.22C366.301 184.79 366.43 185.35 366.56 185.91C368.674 195.13 370.36 203.09 371.247 208.53V208.52Z" fill="#223731"/>
<path d="M375.686 84.5801L388.99 90.54V205.04L385.051 205.81L355.639 211.57L354.243 211.84L343.601 213.92C344.369 211.85 345.147 209.59 345.945 207.16C347.78 201.59 349.695 195.14 351.66 188.01C354.233 178.71 356.896 168.24 359.599 157.07C360.776 152.21 361.952 147.22 363.129 142.14C364.157 142.31 365.303 142.52 366.51 142.74C371.796 143.71 378.009 144.98 378.309 145.04L367.029 139.47L364.087 138.02C364.924 134.32 365.772 130.58 366.62 126.8L368.914 127.53L373.9 129.13L369.383 124.51L367.537 122.62V122.59C367.727 121.75 367.916 120.91 368.096 120.07C369.353 114.35 370.609 108.59 371.846 102.82C373.152 96.7301 374.429 90.6301 375.686 84.5801Z" fill="#2D443E"/>
<path d="M377.561 75.53C381.859 54.6 385.789 34.63 389 17.95V82.9799L377.561 75.52V75.53Z" fill="#2D443E"/>
<path d="M363.129 142.14C364.156 142.31 365.303 142.52 366.51 142.74L355.649 211.58L343.611 213.94C349.406 198.2 356.278 171.82 363.139 142.15L363.129 142.14Z" fill="#304F46"/>
<path d="M366.61 126.8L368.904 127.54L367.019 139.48L364.077 138.02C364.924 134.32 365.762 130.58 366.61 126.8Z" fill="#304F46"/>
<path d="M375.686 84.5801L369.382 124.52L367.537 122.63V122.61C370.32 110.05 373.063 97.2101 375.686 84.5901V84.5801Z" fill="#304F46"/>
<path d="M375.686 84.5801L389 90.54V98.4601L375.686 84.5801Z" fill="#273E38"/>
<path d="M381.999 97.3201L389 100.12V166.45L388.212 159.74L384.572 128.68L381.719 104.29L381.51 102.51L381.999 97.3201Z" fill="#273E38"/>
<path d="M333.817 137.6H343.322L342.803 214.09L314.768 219.58C318.05 205.37 330.446 152.26 333.817 137.6Z" fill="#273E38"/>
<path d="M336.64 125.3L343.372 127.05L343.332 135.47L335.024 132.35C335.573 129.93 336.121 127.57 336.64 125.3Z" fill="#273E38"/>
<path d="M343.552 95.1599L343.382 126.91C342.604 126.26 339.981 124.06 337.428 121.88C340.929 106.62 343.442 95.6399 343.552 95.1799C343.552 95.1699 343.552 95.1599 343.552 95.1599Z" fill="#273E38"/>
</svg>
