<svg width="394" height="285" viewBox="0 0 394 285" fill="none" xmlns="http://www.w3.org/2000/svg">
<circle cx="302.5" cy="63.5" r="4.5" fill="#AFAFAF"/>
<circle cx="309.5" cy="60.5" r="5.5" fill="#AFAFAF"/>
<circle cx="380" cy="9" r="7" fill="#AFAFAF"/>
<circle cx="317.5" cy="39.5" r="9.5" fill="#B0B0B0"/>
<circle cx="317.5" cy="39.5" r="9.5" fill="#B0B0B0"/>
<circle cx="317.5" cy="39.5" r="9.5" fill="#BDBDBD"/>
<circle cx="331.5" cy="38.5" r="11.5" fill="#B0B0B0"/>
<circle cx="331.5" cy="38.5" r="11.5" fill="#B0B0B0"/>
<circle cx="331.5" cy="38.5" r="11.5" fill="#B0B0B0"/>
<circle cx="353.5" cy="11.5" r="11.5" fill="#B0B0B0"/>
<circle cx="353.5" cy="11.5" r="11.5" fill="#B0B0B0"/>
<circle cx="353.5" cy="11.5" r="11.5" fill="#B0B0B0"/>
<circle cx="327.5" cy="50.5" r="9.5" fill="#B0B0B0"/>
<circle cx="327.5" cy="50.5" r="9.5" fill="#B0B0B0"/>
<circle cx="327.5" cy="50.5" r="9.5" fill="#B0B0B0"/>
<path d="M301.59 65.4984C295.76 69.1384 289.21 73.7584 289.21 73.7584C289.21 73.7584 264.58 80.3585 261.06 82.5585C260.17 83.1085 254.93 84.6684 247.58 86.6884C239.52 81.8684 212.53 78.6084 212.53 78.6084C212.53 78.6084 206.37 78.8985 201.68 81.5385C201.45 81.6685 201.18 81.7984 200.88 81.9384C194.88 84.6184 174.7 88.8684 174.7 88.8684C159.35 94.5484 115.23 91.4184 85.93 88.4984C85.93 88.4984 136.14 80.3684 147.58 73.7684C159.02 67.1684 196.4 60.1284 196.4 60.1284H213.55C213.55 60.1284 235.1 57.0485 215.75 47.8085C215.75 47.8085 205.93 47.0784 204.9 45.8984C203.89 44.7484 205.15 42.1884 205.19 42.0884L232.46 45.6084L301.58 65.4984H301.59Z" fill="#CE7B29"/>
<path d="M213.54 60.1284H196.39C196.39 60.1284 159 67.1684 147.57 73.7684C136.13 80.3684 85.92 88.4984 85.92 88.4984C69.88 86.8984 58.27 85.3584 58.27 85.3584C58.27 85.3584 50.57 89.1985 45.07 92.0485C39.57 94.8885 36.05 94.2284 29.89 95.9884C23.73 97.7484 15.59 101.708 12.08 104.128C11.51 104.518 11.03 104.868 10.63 105.188C17.73 97.5984 41.72 72.7684 61.34 61.9084C71.46 61.9084 86.41 60.1484 86.41 60.1484L128.2 58.8284C188.43 53.1584 204.92 42.2884 205.17 42.1184C205.13 42.2084 203.87 44.7785 204.88 45.9285C205.91 47.0985 215.73 47.8384 215.73 47.8384C235.08 57.0784 213.53 60.1584 213.53 60.1584L213.54 60.1284Z" fill="#643A15"/>
<path d="M248.5 86.1383L237.71 89.0383H237.67L237.53 89.0883C237.53 89.0883 237.51 89.0883 237.5 89.0883C236.07 89.4283 229.71 87.9382 229.71 87.9382C229.71 87.9382 224.58 85.2283 217.69 84.7683C210.8 84.2983 201.79 81.3783 201.79 81.3783C202.1 81.2383 202.36 81.1083 202.59 80.9783C207.28 78.3383 213.44 78.0483 213.44 78.0483C213.44 78.0483 240.43 81.3183 248.49 86.1283L248.5 86.1383Z" fill="#E69B49"/>
<path d="M237.51 89.0884C215.29 94.9584 186.05 102.248 186.05 102.248L69.32 130.398L0 174.388V107.968L11.57 104.628C11.97 104.318 12.45 103.968 13.02 103.568C16.54 101.148 24.68 97.1885 30.83 95.4285C36.99 93.6685 40.51 94.3284 46.01 91.4884C49.33 89.7684 53.46 87.6885 56.21 86.3085C58.15 85.3285 60.34 84.9584 62.49 85.2284C67.03 85.7984 75.91 86.8584 86.85 87.9584C116.15 90.8884 160.27 94.0184 175.62 88.3284C175.62 88.3284 195.8 84.0784 201.8 81.3984C201.8 81.3984 210.81 84.3185 217.7 84.7885C224.59 85.2585 229.72 87.9584 229.72 87.9584C229.72 87.9584 236.08 89.4384 237.51 89.1084V89.0884Z" fill="#8E4D21"/>
<path d="M311.55 81.0682C310.21 81.0282 310.2 80.0382 311.54 79.8182C313.76 79.4382 317.43 79.1583 319.49 79.2683C320.8 79.3183 320.81 80.2983 319.5 80.5183C317.44 80.9083 313.77 81.1482 311.55 81.0682Z" fill="#3E454A"/>
<path d="M297.54 84.9585C297.65 85.2985 298.06 85.6385 298.45 85.6985L297.85 86.3185C297.47 86.2585 297.06 85.9185 296.94 85.5785C297.14 85.3685 297.34 85.1685 297.54 84.9585Z" fill="#505860"/>
<path d="M297.6 84.5483C297.51 84.6383 297.48 84.7782 297.54 84.9482C297.34 85.1582 297.14 85.3582 296.94 85.5682C296.88 85.3982 296.91 85.2583 297 85.1683C297.18 84.9883 297.42 84.7383 297.6 84.5483Z" fill="#505860"/>
<path d="M298.45 85.6984C298.65 85.7284 298.8 85.6884 298.89 85.5984L298.29 86.2184C298.2 86.3084 298.04 86.3584 297.85 86.3184C298.03 86.1384 298.27 85.8884 298.45 85.6984Z" fill="#505860"/>
<path d="M297.01 85.1686L297.61 84.5486C297.7 84.4586 297.85 84.4085 298.05 84.4485L297.45 85.0685C297.26 85.0385 297.1 85.0786 297.01 85.1686Z" fill="white"/>
<path d="M298.89 85.5885L298.29 86.2085C298.38 86.1185 298.41 85.9686 298.35 85.7986C298.24 85.4586 297.83 85.1286 297.44 85.0586L298.04 84.4385C298.64 84.5385 299.21 85.2485 298.89 85.5785V85.5885Z" fill="white"/>
<path d="M297.26 84.4983C298 84.6183 298.77 85.2483 298.99 85.8983C299.2 86.5583 298.78 86.9883 298.04 86.8683C297.3 86.7483 296.53 86.1282 296.32 85.4682C296.11 84.8182 296.53 84.3783 297.27 84.4983H297.26ZM297.85 86.3083C298.24 86.3683 298.47 86.1383 298.35 85.7983C298.23 85.4583 297.83 85.1283 297.44 85.0583C297.06 84.9983 296.83 85.2182 296.94 85.5682C297.05 85.9182 297.46 86.2483 297.85 86.3083Z" fill="#2B3134"/>
<path d="M297.45 85.0684C297.84 85.1284 298.25 85.4585 298.36 85.8085C298.47 86.1485 298.25 86.3784 297.86 86.3184C297.48 86.2584 297.07 85.9184 296.95 85.5784C296.84 85.2384 297.07 85.0084 297.45 85.0684Z" fill="white"/>
<path d="M297.03 84.0783L296.43 84.6983C297.03 84.0783 298.65 84.8584 298.99 85.9084C299.1 86.2384 299.05 86.5084 298.88 86.6784L299.48 86.0584C299.65 85.8884 299.7 85.6084 299.59 85.2884C299.25 84.2384 297.63 83.4683 297.03 84.0783Z" fill="#505860"/>
<path d="M295.83 79.0883L297.62 86.6583L298.11 86.1583L296.4 78.9482C296.21 79.0082 296.02 79.0483 295.83 79.0983V79.0883Z" fill="#DBE6F5"/>
<path d="M293.26 79.3181L296.21 86.4182L297.63 86.6482L295.84 79.0781C294.98 79.2681 294.12 79.3482 293.26 79.3082V79.3181Z" fill="#BCCFEB"/>
<path d="M296.04 86.5083C296.15 86.8483 296.56 87.1883 296.95 87.2483L296.35 87.8683C295.97 87.8083 295.56 87.4683 295.44 87.1283C295.64 86.9183 295.84 86.7183 296.04 86.5083Z" fill="#505860"/>
<path d="M296.1 86.0981C296.01 86.1881 295.98 86.3282 296.04 86.4982C295.84 86.7082 295.64 86.9082 295.44 87.1182C295.38 86.9482 295.41 86.8081 295.5 86.7181C295.68 86.5381 295.92 86.2881 296.1 86.0981Z" fill="#505860"/>
<path d="M296.94 87.2482C297.14 87.2782 297.29 87.2382 297.38 87.1482L296.78 87.7682C296.69 87.8582 296.53 87.9082 296.34 87.8682C296.52 87.6882 296.76 87.4382 296.94 87.2482Z" fill="#505860"/>
<path d="M295.5 86.7183L296.1 86.0983C296.19 86.0083 296.34 85.9583 296.54 85.9983L295.94 86.6183C295.75 86.5883 295.59 86.6283 295.5 86.7183Z" fill="white"/>
<path d="M297.39 87.1383L296.79 87.7583C296.88 87.6683 296.91 87.5183 296.85 87.3483C296.74 87.0083 296.33 86.6783 295.94 86.6083L296.54 85.9883C297.14 86.0883 297.71 86.7983 297.39 87.1283V87.1383Z" fill="white"/>
<path d="M295.76 86.0481C296.5 86.1681 297.27 86.798 297.49 87.448C297.7 88.108 297.28 88.5381 296.54 88.4181C295.8 88.2981 295.03 87.678 294.82 87.018C294.61 86.368 295.03 85.9281 295.77 86.0481H295.76ZM296.35 87.858C296.74 87.918 296.97 87.688 296.85 87.348C296.73 87.008 296.33 86.678 295.94 86.608C295.56 86.548 295.33 86.768 295.44 87.118C295.55 87.468 295.96 87.798 296.35 87.858Z" fill="#2B3134"/>
<path d="M295.94 86.6182C296.33 86.6782 296.74 87.0082 296.85 87.3582C296.96 87.6982 296.74 87.9282 296.35 87.8682C295.97 87.8082 295.56 87.4682 295.44 87.1282C295.33 86.7882 295.56 86.5582 295.94 86.6182Z" fill="white"/>
<path d="M295.52 85.6281L294.92 86.2481C295.52 85.6281 297.14 86.4081 297.48 87.4581C297.59 87.7881 297.54 88.0581 297.37 88.2281L297.97 87.6081C298.14 87.4381 298.19 87.1581 298.08 86.8381C297.74 85.7881 296.12 85.0181 295.52 85.6281Z" fill="#505860"/>
<path d="M258.59 91.8584C258.7 92.1984 259.11 92.5384 259.5 92.5984L258.9 93.2184C258.52 93.1584 258.11 92.8184 257.99 92.4784C258.19 92.2684 258.39 92.0684 258.59 91.8584Z" fill="#505860"/>
<path d="M258.65 91.4585C258.56 91.5485 258.53 91.6885 258.59 91.8585C258.39 92.0685 258.19 92.2685 257.99 92.4785C257.93 92.3085 257.96 92.1685 258.05 92.0785C258.23 91.8985 258.47 91.6485 258.65 91.4585Z" fill="#505860"/>
<path d="M259.49 92.5985C259.69 92.6285 259.84 92.5885 259.93 92.4985L259.33 93.1185C259.24 93.2085 259.08 93.2585 258.89 93.2185C259.07 93.0385 259.31 92.7885 259.49 92.5985Z" fill="#505860"/>
<path d="M258.05 92.0786L258.65 91.4586C258.74 91.3686 258.89 91.3187 259.09 91.3587L258.49 91.9787C258.3 91.9487 258.14 91.9886 258.05 92.0786Z" fill="white"/>
<path d="M259.93 92.4987L259.33 93.1187C259.42 93.0287 259.45 92.8786 259.39 92.7086C259.28 92.3686 258.87 92.0386 258.48 91.9686L259.08 91.3486C259.68 91.4486 260.25 92.1586 259.93 92.4886V92.4987Z" fill="white"/>
<path d="M258.3 91.4084C259.04 91.5284 259.81 92.1584 260.03 92.8084C260.24 93.4684 259.82 93.8984 259.08 93.7784C258.34 93.6584 257.57 93.0384 257.36 92.3784C257.15 91.7284 257.57 91.2884 258.31 91.4084H258.3ZM258.89 93.2183C259.28 93.2783 259.51 93.0483 259.39 92.7083C259.27 92.3683 258.87 92.0383 258.48 91.9683C258.1 91.9083 257.87 92.1284 257.98 92.4784C258.09 92.8284 258.5 93.1583 258.89 93.2183Z" fill="#2B3134"/>
<path d="M258.49 91.9685C258.88 92.0285 259.29 92.3585 259.4 92.7085C259.51 93.0485 259.29 93.2785 258.9 93.2185C258.52 93.1585 258.11 92.8185 257.99 92.4785C257.88 92.1385 258.11 91.9085 258.49 91.9685Z" fill="white"/>
<path d="M258.07 90.9885L257.47 91.6085C258.07 90.9885 259.69 91.7684 260.03 92.8184C260.14 93.1484 260.09 93.4185 259.92 93.5885L260.52 92.9685C260.69 92.7985 260.74 92.5185 260.63 92.1985C260.29 91.1485 258.67 90.3785 258.07 90.9885Z" fill="#505860"/>
<path d="M256.88 85.9884L258.67 93.5585L259.16 93.0585L257.45 85.8484C257.26 85.9084 257.07 85.9484 256.88 85.9984V85.9884Z" fill="#DBE6F5"/>
<path d="M254.3 86.2185L257.25 93.3185L258.67 93.5486L256.88 85.9785C256.02 86.1685 255.16 86.2485 254.3 86.2085V86.2185Z" fill="#BCCFEB"/>
<path d="M257.08 93.4082C257.19 93.7482 257.6 94.0882 257.99 94.1482L257.39 94.7682C257.01 94.7082 256.6 94.3682 256.48 94.0282C256.68 93.8182 256.88 93.6182 257.08 93.4082Z" fill="#505860"/>
<path d="M257.14 93.0083C257.05 93.0983 257.02 93.2383 257.08 93.4083C256.88 93.6183 256.68 93.8183 256.48 94.0283C256.42 93.8583 256.45 93.7183 256.54 93.6283C256.72 93.4483 256.96 93.1983 257.14 93.0083Z" fill="#505860"/>
<path d="M257.99 94.1483C258.19 94.1783 258.34 94.1383 258.43 94.0483L257.83 94.6683C257.74 94.7583 257.58 94.8083 257.39 94.7683C257.57 94.5883 257.81 94.3383 257.99 94.1483Z" fill="#505860"/>
<path d="M256.54 93.6284L257.14 93.0085C257.23 92.9185 257.38 92.8685 257.58 92.9085L256.98 93.5285C256.79 93.4985 256.63 93.5384 256.54 93.6284Z" fill="white"/>
<path d="M258.43 94.0485L257.83 94.6685C257.92 94.5785 257.95 94.4284 257.89 94.2584C257.78 93.9184 257.37 93.5884 256.98 93.5184L257.58 92.8984C258.18 92.9984 258.75 93.7085 258.43 94.0385V94.0485Z" fill="white"/>
<path d="M256.8 92.9582C257.54 93.0782 258.31 93.7082 258.53 94.3582C258.74 95.0182 258.32 95.4482 257.58 95.3282C256.84 95.2082 256.07 94.5883 255.86 93.9283C255.65 93.2783 256.07 92.8382 256.81 92.9582H256.8ZM257.39 94.7683C257.78 94.8283 258.01 94.5983 257.89 94.2583C257.78 93.9183 257.37 93.5883 256.98 93.5183C256.6 93.4583 256.37 93.6783 256.48 94.0283C256.59 94.3683 257 94.7083 257.39 94.7683Z" fill="#2B3134"/>
<path d="M256.98 93.5183C257.37 93.5783 257.78 93.9083 257.89 94.2583C258 94.5983 257.78 94.8283 257.39 94.7683C257.01 94.7083 256.6 94.3683 256.48 94.0283C256.37 93.6883 256.6 93.4583 256.98 93.5183Z" fill="white"/>
<path d="M256.57 92.5383L255.97 93.1583C256.57 92.5383 258.19 93.3183 258.53 94.3683C258.64 94.6983 258.59 94.9683 258.42 95.1383L259.02 94.5183C259.19 94.3483 259.24 94.0683 259.13 93.7483C258.79 92.6983 257.17 91.9283 256.57 92.5383Z" fill="#505860"/>
<path d="M294.23 80.7985L273.6 76.6685L274.49 79.5385C279.5 81.1985 289.83 83.8884 295.53 84.9084L294.24 80.7985H294.23Z" fill="#3E454A"/>
<path d="M309.88 75.6584C309.83 75.7884 306.63 84.4384 306.83 83.8884C305.84 83.9084 304.86 83.9184 303.9 83.8884C293.98 83.6784 285.37 81.0884 276.73 78.3984L248.47 67.1384L241.84 63.3684L229.04 56.1184L225.82 52.6984H225.8L225.02 51.8384L225.25 50.8184L230.53 47.8884L235.59 51.2784C235.59 51.2784 239.95 51.9385 245.46 52.9185C251.9 54.0585 259.92 55.6585 264.41 57.1785L293.39 66.3085C298.32 68.3685 302.88 70.6885 306.71 73.2985H306.72C307.84 74.0485 308.89 74.8384 309.88 75.6484V75.6584Z" fill="#E6E7E8"/>
<path d="M252.7 56.2283L250.08 55.7983L248.71 57.2083L251.33 57.6383C251.73 57.7083 252.14 58.0383 252.26 58.3983L253.63 56.9883C253.51 56.6283 253.1 56.2883 252.7 56.2283Z" fill="#505860"/>
<path d="M251.33 57.6383C251.73 57.7083 252.14 58.0383 252.26 58.3983L248.92 57.8583L248.71 57.2083L251.33 57.6383Z" fill="#2B3134"/>
<path d="M307.6 81.8182L306.83 83.8983C296.01 84.1783 286.84 81.5283 277.68 78.7083C275.45 77.9983 276.8 78.4083 248.46 67.1483L229.03 56.1183L225.81 52.6982C248.61 65.5882 277.1 76.2783 305.38 82.3683C305.38 82.3683 306.13 81.5082 307.6 81.8182Z" fill="#939598"/>
<path d="M274.14 77.3784L232.62 106.888L222.62 102.438C222.62 102.438 248.75 74.4184 250.66 72.3484C252.49 70.3584 248.82 67.4284 248.49 67.1584L274.15 77.3784H274.14Z" fill="#BCBEC0"/>
<path d="M232.44 104.108C230.48 103.238 226.47 101.458 226.72 101.568L226.82 101.458C234.06 93.6984 251.05 75.4685 252.58 73.7985C253.45 72.8585 253.61 71.9884 253.66 71.8684C274.42 80.1384 267.29 77.2984 269.13 78.0284C222.9 110.878 234.34 102.748 232.44 104.108ZM227.07 101.498L232.42 103.878L268.71 78.0884L253.81 72.1484C253.61 72.7884 253.26 73.3884 252.75 73.9484C251.22 75.6084 234.38 93.6784 227.08 101.498H227.07Z" fill="#D1D3D4"/>
<path d="M267.88 56.8085L295.53 31.3684L303.1 32.4185L286.41 61.5485L267.88 56.8085Z" fill="#E6E7E8"/>
<path d="M285.18 58.7384C268.69 54.5184 273.76 55.8185 272.76 55.5585C304.23 26.5985 294.29 35.7484 296.31 33.8984L299.17 34.2985M298.84 34.4584L296.38 34.1184L273.19 55.4584L285.08 58.5084" fill="#D1D3D4"/>
<path d="M273.05 93.9784C270.58 97.4484 261.98 92.6384 261.98 92.6384L256.25 90.0984L258.95 88.1784C258.95 88.1784 259.14 87.7985 258.42 87.0585C258.2 86.8385 258.01 86.5384 257.58 86.3284C255.7 85.4384 250.61 82.7284 250.4 81.6384C250.2 80.5584 252.61 78.6084 256.74 80.8584C258.56 81.8584 262.49 83.7384 264.39 84.6384C264.39 84.6384 275.51 90.5384 273.04 93.9884L273.05 93.9784Z" fill="#2BAF6E"/>
<path d="M299.37 62.9383C299.61 66.4683 289.77 63.6684 289.77 63.6684L286.41 61.5484L287.4 59.8183L287.47 59.6983C287.47 59.6983 286.34 58.4683 284.57 57.8383C282.8 57.2083 278.19 56.0983 278.19 56.0983C278.19 56.0983 276.76 55.6383 277.41 54.9483C277.93 54.3783 280.75 54.2683 283.22 54.8783C285.71 55.4983 289.41 56.3084 289.41 56.3084C289.41 56.3084 289.95 56.4884 290.78 56.7884C293.44 57.7884 299.18 60.2583 299.37 62.9483V62.9383Z" fill="#939598"/>
<path d="M309.88 75.6586C309.83 75.7886 306.63 84.4385 306.83 83.8885C305.84 83.9085 303.96 83.9085 302.99 83.8785C300.82 77.7085 306.7 73.3086 306.7 73.3086H306.71C307.83 74.0586 308.88 74.8486 309.87 75.6586H309.88Z" fill="#4EBC85"/>
<path d="M310.72 76.9084C311.33 78.7384 310.63 81.4483 309.15 82.9583C307.68 84.4683 306 84.1984 305.38 82.3684C304.77 80.5184 305.46 77.8183 306.94 76.3183C308.41 74.7983 310.11 75.0684 310.72 76.9084Z" fill="#2BAF6E"/>
<path d="M247.77 93.1584L238.2 89.5284L238.27 89.3284L247.85 92.9584L247.77 93.1584Z" fill="#2BAF6E"/>
<path d="M244.9 40.8485L235.57 51.2786L233.31 51.2686L230.5 47.8785L239.49 39.9985L244.9 40.8485Z" fill="#BE1E2D"/>
<path d="M235.15 50.3783H233.85L231.83 47.9283C240.82 40.0383 239.35 41.3283 239.72 41.0083C239.85 40.8183 240.25 40.7582 240.9 40.8182C241.58 40.8882 242.9 41.1783 243 41.4683C243.05 41.6183 243.43 41.0683 235.15 50.3683V50.3783ZM233.95 50.1583H235.06L242.79 41.5183C242.57 41.3483 241.24 40.9783 240.38 41.0083C239.99 41.0083 239.91 41.1083 239.9 41.1283C237.22 43.4783 231.78 48.2582 232.13 47.9482L233.96 50.1583H233.95Z" fill="#EF4136"/>
<path d="M309.97 80.3984L305.9 79.7183C306.12 78.5783 306.65 77.4484 307.4 76.6684C307.4 76.6684 307.42 76.6684 307.41 76.6484C309.54 74.5484 310.97 77.2484 309.97 80.3984Z" fill="#6DC498"/>
<path d="M309.97 80.3983C309.78 80.9583 309.53 81.4783 309.22 81.9183C308.9 82.4783 308.3 83.0883 307.67 83.2983C306.6 83.6483 306.13 82.6383 305.98 82.1683C305.8 81.6083 305.71 80.6983 305.9 79.7183L309.97 80.3983Z" fill="white"/>
<path d="M309.41 81.4785C309.54 80.2485 310.61 80.1685 310.78 81.3885C311.06 83.4185 311.13 86.7786 310.88 88.6786C310.75 89.8886 309.68 89.9585 309.51 88.7685C309.21 86.8885 309.19 83.5185 309.41 81.4785Z" fill="#3E454A"/>
<path d="M314.77 80.2284C314.95 80.3884 314.86 80.7085 314.63 80.8085C312.04 81.7685 308.8 82.2384 306.09 81.7384C306.02 81.7384 305.98 81.7384 305.93 81.7084L305.86 81.6884C305.56 80.0284 306.2 77.9085 307.4 76.6685C307.4 76.6685 307.42 76.6684 307.41 76.6484L307.46 76.6685C310.04 77.0485 312.8 78.4384 314.77 80.2184V80.2284Z" fill="#F16263"/>
<path d="M264.15 88.8085C262.59 88.7585 261.31 88.4584 259.84 87.5384C259.37 87.2584 258.97 86.9685 258.43 87.0585C258.28 86.7885 258.02 86.5384 257.59 86.3284C255.71 85.4384 250.62 82.7284 250.41 81.6384C250.21 80.5584 252.62 78.6084 256.75 80.8584C258.74 81.9484 263.41 84.1685 264.26 84.5585C264.87 84.8985 265.37 85.1684 265.87 85.4784C266.86 86.1384 267.29 88.9483 264.14 88.8183L264.15 88.8085Z" fill="#A7A9AC"/>
<path d="M291.56 59.6684C291.16 60.4484 289.71 61.0183 287.92 60.1183C287.73 60.0183 287.57 59.9383 287.4 59.8183L287.47 59.6983C287.47 59.6983 286.34 58.4683 284.57 57.8383C282.8 57.2083 278.19 56.0983 278.19 56.0983C278.19 56.0983 276.76 55.6383 277.41 54.9483C277.93 54.3783 280.75 54.2683 283.22 54.8783C285.71 55.4983 289.41 56.3084 289.41 56.3084C289.41 56.3084 289.95 56.4884 290.78 56.7884C291.32 56.9984 291.99 57.5284 292.16 57.9084C292.41 58.4584 291.86 59.1284 291.56 59.6784V59.6684Z" fill="#6D6E71"/>
<path d="M301.07 81.7983C299.73 81.7583 299.72 80.7683 301.06 80.5483C303.28 80.1683 306.95 79.8883 309.01 79.9983C310.32 80.0483 310.33 81.0283 309.02 81.2483C306.96 81.6383 303.29 81.8783 301.07 81.7983Z" fill="#3E454A"/>
<path d="M309.79 71.6384C309.92 70.4084 310.99 70.3285 311.16 71.5485C311.44 73.5785 311.51 76.9384 311.26 78.8384C311.13 80.0484 310.06 80.1185 309.89 78.9285C309.59 77.0485 309.57 73.6784 309.79 71.6384Z" fill="#3E454A"/>
<path d="M286.84 73.0683C284.37 73.8683 273.04 70.5983 269.43 68.9383C267.88 68.2283 260.22 64.1984 259.99 61.2684C259.85 59.7184 261.08 58.6684 262.28 58.0384C263.35 57.4584 264.4 57.1983 264.4 57.1983C274.08 55.2083 286.16 60.5784 291.63 64.7784C292.32 65.3184 292.91 65.8383 293.38 66.3183C293.81 66.4383 289.73 72.1383 286.84 73.0683Z" fill="#939598"/>
<path d="M293.38 66.3085C292.91 65.8285 292.33 65.3084 291.63 64.7684C289.98 63.4984 287.72 62.1284 285.11 60.8784L288.76 71.9384C291.24 69.9784 293.73 66.3985 293.38 66.3085Z" fill="#F1F2F2"/>
<path d="M291.63 64.7685C290.44 66.0385 289.05 67.2185 287.87 67.5985C285.4 68.3885 274.07 65.1285 270.46 63.4685C269.28 62.9285 264.58 60.4585 262.28 58.0185C263.35 57.4385 264.4 57.1786 264.4 57.1786C274.08 55.1886 286.16 60.5585 291.63 64.7585V64.7685Z" fill="#D1D3D4"/>
<path d="M243.96 61.9484L241.83 63.3684L229.02 56.1084L225.8 52.6984H225.77L224.99 51.8384L225.22 50.8184L230.5 47.8884L235.57 51.2885C235.57 51.2885 239.93 51.9485 245.44 52.9285C236.76 58.5185 243.95 61.9584 243.95 61.9584L243.96 61.9484Z" fill="#939598"/>
<path d="M225.26 50.8984L216.22 34.8284L220.19 35.5084C221.47 35.7284 222.62 36.3184 223.47 37.1984L238.97 52.5984C241.05 54.9784 225.85 51.8184 225.26 50.9084V50.8984Z" fill="#F1F2F2"/>
<path d="M291.67 69.0187C290.17 70.8587 288.82 72.1186 287.6 72.7386C285.76 72.7386 283.92 72.4986 282.66 71.8286C282.28 70.6786 283.54 67.2286 283.54 67.2286C286.83 66.2786 287.19 65.4287 287.19 65.4287L291.66 69.0087L291.67 69.0187Z" fill="#3E454A"/>
<path d="M293.4 66.3086C293.5 66.4686 292.73 67.8385 291.98 68.6285L287.57 65.0684C287.57 65.0684 288.42 63.5085 288.18 62.4885C288.18 62.4685 291.03 63.8786 293.4 66.3086Z" fill="#3E454A"/>
<path d="M230.67 55.1484L217.7 64.4285L213.38 62.1884L225 51.8384C227.27 51.9084 230.48 53.3284 230.67 55.1484Z" fill="#BE1E2D"/>
<path d="M217.66 63.3385L214.99 61.9585C230.67 47.9985 223.22 54.6286 225.31 52.7686H225.36C227.02 52.9586 228.86 53.8586 229.47 54.7686L229.53 54.8485C213 66.6685 219.03 62.3585 217.66 63.3385ZM215.36 61.9086L217.65 63.0885L229.25 54.7986C228.63 53.9686 226.94 53.1685 225.39 52.9785L215.36 61.9086Z" fill="#EF4136"/>
<path d="M314.76 80.2582C319.6 97.8582 303.32 99.6082 303.32 99.6082C303.32 99.6082 297.6 100.488 277.37 94.7682C257.14 89.0482 263.29 97.4082 263.29 97.4082C263.29 97.4082 272.53 111.928 276.93 111.928C281.33 111.928 287.93 119.408 285.73 121.608C283.53 123.808 274.3 123.388 274.3 123.388C274.3 123.388 236.83 127.998 212.89 124.868C188.95 121.748 103.08 123.828 78.1 128.508C53.12 133.188 92.5 285 92.5 285H0V174.378L69.32 130.388L186.05 102.238C186.05 102.238 215.29 94.9581 237.51 89.0781C237.57 89.0681 237.62 89.0482 237.67 89.0382H237.71C241.59 87.9982 245.25 87.0182 248.5 86.1282C255.85 84.1082 261.1 82.5582 261.98 81.9982C265.5 79.7982 290.13 73.1981 290.13 73.1981C290.13 73.1981 296.68 68.5781 302.51 64.9381C305.49 63.0781 308.29 61.4782 309.93 60.8782C312.11 60.0882 317.67 57.7382 323.11 55.4082C318.92 57.7582 310.1 63.2682 314.76 80.2281V80.2582Z" fill="#81491E"/>
<path d="M394 55V285H92.5C92.5 285 49.17 133.198 74.44 128.518C99.71 123.838 186.59 121.748 210.81 124.878C235.03 127.998 272.94 123.398 272.94 123.398C272.94 123.398 282.28 123.818 284.5 121.618C286.73 119.418 280.05 111.938 275.6 111.938C271.15 111.938 261.8 97.4183 261.8 97.4183C261.8 97.4183 255.57 89.0583 276.04 94.7783C296.51 100.498 302.3 99.6182 302.3 99.6182C302.3 99.6182 318.77 97.8583 313.87 80.2683C309.15 63.3083 318.08 57.7982 322.31 55.4482C328.77 52.7182 335.07 49.9983 335.51 49.7983C335.51 49.7983 335.51 49.7983 335.52 49.7983C341.92 47.2383 349.09 44.4582 353.2 42.8682C355.37 42.0282 357.78 41.9983 359.97 42.7883L390.86 53.8883L394 55Z" fill="#E07B26"/>
</svg>
